<svg width="36" height="36" viewBox="0 0 36 36" fill="none" xmlns="http://www.w3.org/2000/svg">
<path fill-rule="evenodd" clip-rule="evenodd" d="M24.5371 2.5128C26.0299 2.25563 27.5652 2.44196 28.9531 3.04871L29.3128 3.20594V4.68118L25.0274 8.96632V10.9745H27.0358L31.3212 6.6894H32.7967L32.9538 7.04939C33.4682 8.22773 33.6809 9.5156 33.5728 10.7967C33.4648 12.0779 33.0394 13.3119 32.335 14.3875C31.6306 15.4631 30.6694 16.3463 29.5382 16.9574C28.4073 17.5684 27.142 17.8883 25.8566 17.888C25.0862 17.8892 24.3207 17.7751 23.5854 17.5502L21.2805 19.8549C18.0844 23.0508 15.1513 26.4278 13.0155 29.0084C11.9481 30.298 11.0811 31.3873 10.4813 32.1537C10.1814 32.5368 9.9484 32.8392 9.79061 33.0454C9.71172 33.1485 9.65163 33.2276 9.61141 33.2807L9.5661 33.3407L9.55213 33.3592L9.37136 33.6002H8.46574L2.40039 27.5352V26.6296L2.6404 26.4496L2.65999 26.4349L2.71996 26.3896C2.77308 26.3493 2.85215 26.2893 2.95527 26.2104C3.1615 26.0526 3.46387 25.8196 3.84705 25.5197C4.61346 24.92 5.70281 24.053 6.99254 22.9857C9.57329 20.85 12.9505 17.9171 16.1466 14.7212L18.451 12.4169C18.0453 11.0969 17.9993 9.68996 18.3215 8.34234C18.6736 6.86919 19.4502 5.5317 20.5551 4.49551C21.6599 3.45933 23.0444 2.76996 24.5371 2.5128ZM3.70777 27.1456L8.85542 32.2929C9.01514 32.0843 9.2446 31.7868 9.53631 31.4141C10.1418 30.6405 11.0157 29.5425 12.091 28.2433C14.2406 25.646 17.2 22.2382 20.432 19.0063L23.2685 16.17L23.6271 16.2995C24.3415 16.5577 25.0954 16.6892 25.855 16.6881C26.9414 16.6884 28.0119 16.4181 28.9678 15.9017C29.9237 15.3853 30.7359 14.6389 31.3311 13.7301C31.9263 12.8212 32.2858 11.7784 32.3771 10.6959C32.4575 9.74244 32.3276 8.78457 31.9986 7.8894H31.8182L27.5328 12.1745H23.8274V8.46924L28.1128 4.1841V4.00352C27.0375 3.60749 25.8746 3.50005 24.7408 3.69537C23.4795 3.91268 22.3095 4.4952 21.376 5.37078C20.4424 6.24637 19.7862 7.37655 19.4886 8.62135C19.191 9.86615 19.2651 11.1709 19.7018 12.374L19.8321 12.7329L16.9951 15.5698C13.7631 18.8016 10.355 21.7607 7.75759 23.9102C6.45823 24.9855 5.36024 25.8593 4.58659 26.4648C4.21387 26.7564 3.91636 26.9859 3.70777 27.1456Z" fill="white"/>
</svg>
