<svg width="20" height="20" viewBox="0 0 20 20" fill="none" xmlns="http://www.w3.org/2000/svg">
<path d="M17.0638 7.51757V18.1124C17.0638 18.6016 17.0413 19.0958 17.0638 19.5799C17.0638 19.5849 17.0638 19.595 17.0638 19.6C17.1762 19.474 17.2931 19.3429 17.4055 19.2168H3.19553C3.00223 19.2168 2.80893 19.2067 2.62012 19.2168C2.61113 19.2168 2.60214 19.2168 2.59764 19.2168L2.93929 19.6V9.01023C2.93929 8.52612 2.96177 8.02689 2.93929 7.54278C2.93929 7.53774 2.93929 7.52766 2.93929 7.52261C2.90783 7.61338 2.87186 7.70415 2.84039 7.79492C3.18654 7.4621 3.53269 7.12928 3.87883 6.79645C4.31488 6.37791 4.75094 5.95431 5.18699 5.53576C5.87928 4.87012 6.57157 4.20447 7.26386 3.53379C7.92019 2.90344 8.57202 2.2731 9.22835 1.63771C9.56101 1.31497 9.91614 1.00736 10.2353 0.669497C10.2398 0.669497 10.2443 0.659412 10.2488 0.654369H9.7633C10.0375 0.921635 10.3162 1.18386 10.5905 1.45113C11.2198 2.0613 11.8537 2.66643 12.483 3.27661C13.1843 3.95234 13.8901 4.63311 14.5913 5.30884C15.0724 5.77277 15.5579 6.24175 16.0389 6.70569C16.385 7.03851 16.7312 7.37133 17.0773 7.7092C17.1088 7.73945 17.1357 7.76467 17.1672 7.79492C17.3066 7.93108 17.5134 7.95125 17.6527 7.79492C17.7741 7.65877 17.7921 7.38646 17.6527 7.2503C17.3066 6.91748 16.9604 6.58466 16.6143 6.25184C16.1782 5.83329 15.7422 5.40969 15.3061 4.99115C14.6138 4.3255 13.9215 3.65986 13.2292 2.98917C12.5729 2.35882 11.9211 1.72848 11.2648 1.09309C10.9276 0.770353 10.5994 0.442573 10.2578 0.124879C10.2533 0.124879 10.2488 0.114793 10.2443 0.10975C10.096 -0.0314469 9.90715 -0.0364897 9.7588 0.10975C9.45761 0.402231 9.15642 0.689668 8.85523 0.982149C8.17193 1.63771 7.49313 2.29831 6.80983 2.95387C6.08607 3.65481 5.35781 4.35071 4.63406 5.05166C4.2025 5.47021 3.77094 5.88371 3.33938 6.30226C3.20902 6.42833 3.07865 6.5544 2.94828 6.68047C2.77746 6.84184 2.60663 7.00825 2.4403 7.16962C2.33691 7.27047 2.26049 7.36629 2.25599 7.53774C2.24251 7.9815 2.25599 8.43031 2.25599 8.87407V19.6101C2.25599 19.8169 2.41333 19.9934 2.59764 19.9934H15.5893C16.1872 19.9934 16.7896 20.0085 17.3875 19.9934C17.3965 19.9934 17.4055 19.9934 17.41 19.9934C17.5943 19.9934 17.7516 19.8169 17.7516 19.6101V9.00519C17.7516 8.51604 17.7651 8.02689 17.7516 7.53774C17.7516 7.5327 17.7516 7.52261 17.7516 7.51757C17.7516 7.31586 17.5943 7.12423 17.41 7.13432C17.2256 7.14441 17.0683 7.30577 17.0683 7.51757H17.0638Z" fill="white"/>
<path d="M0.585027 9.96337L1.54704 9.0355L3.85318 6.81164C4.78372 5.91403 5.71876 5.01642 6.64931 4.11881C7.45399 3.34726 8.25417 2.57068 9.05884 1.79914C9.44544 1.42597 9.85453 1.06289 10.2276 0.669557C10.2321 0.664514 10.2366 0.659471 10.2456 0.654429C10.385 0.518274 10.3715 0.251008 10.2456 0.10981C10.1063 -0.0465154 9.89948 -0.0263444 9.76012 0.10981C9.44095 0.417419 9.11728 0.73007 8.79811 1.03768C8.0294 1.77896 7.26068 2.52025 6.49197 3.26154C5.56143 4.15915 4.62638 5.05676 3.69584 5.95437C2.89116 6.72592 2.09098 7.5025 1.28631 8.27404C0.899705 8.64721 0.490624 9.01029 0.117506 9.40362C0.113011 9.40866 0.108516 9.41371 0.0995248 9.41875C-0.0398324 9.55491 -0.0263462 9.82217 0.0995248 9.96337C0.238882 10.1197 0.44567 10.0995 0.585027 9.96337Z" fill="white"/>
<path d="M9.75609 0.654429C10.0753 0.962037 10.3989 1.27469 10.7181 1.5823L13.0242 3.80616C13.9548 4.70377 14.8898 5.60138 15.8204 6.49899C16.6251 7.27053 17.4252 8.04712 18.2299 8.81866C18.621 9.19183 19.0076 9.57508 19.3987 9.94824C19.4032 9.95328 19.4077 9.95833 19.4167 9.96337C19.556 10.0995 19.7628 10.1197 19.9022 9.96337C20.0236 9.82721 20.0416 9.55491 19.9022 9.41875L18.9402 8.49088C18.1715 7.7496 17.4028 7.00831 16.634 6.26702C15.7035 5.36941 14.7685 4.4718 13.8379 3.57419C13.0332 2.80265 12.2331 2.02606 11.4284 1.25452C11.0373 0.881353 10.6507 0.498103 10.2596 0.124938C10.2551 0.119896 10.2506 0.114853 10.2416 0.10981C10.1022 -0.0263444 9.89545 -0.0465154 9.75609 0.10981C9.63472 0.245965 9.61674 0.518274 9.75609 0.654429Z" fill="white"/>
<path d="M12.0121 11.1283H8.33039C8.22699 11.1283 8.1191 11.1283 8.01571 11.1283C7.66507 11.1333 7.40434 11.4208 7.39085 11.8141C7.36837 12.4646 7.39085 13.1252 7.39085 13.7758V17.3561C7.39085 18.0924 7.37736 18.8336 7.39085 19.5749C7.39085 19.585 7.39085 19.6001 7.39085 19.6102C7.39085 19.817 7.54819 19.9935 7.7325 19.9935H12.2818C12.4661 19.9935 12.6235 19.817 12.6235 19.6102V11.92C12.6235 11.8847 12.6235 11.8494 12.6235 11.8141C12.6145 11.4258 12.3583 11.1485 12.0166 11.1283C11.8368 11.1182 11.666 11.3149 11.675 11.5116C11.6839 11.7284 11.8278 11.8847 12.0166 11.8948C11.9806 11.8948 11.9447 11.8444 11.9851 11.8898C11.9672 11.8696 11.9312 11.804 11.9582 11.8696C11.9582 11.8595 11.9312 11.8192 11.9402 11.804C11.9402 11.804 11.9402 11.8242 11.9402 11.8292C11.9402 11.8696 11.9402 11.915 11.9402 11.9604V19.6052C12.0526 19.4791 12.1695 19.348 12.2818 19.2219H7.7325C7.84488 19.348 7.96176 19.4791 8.07415 19.6052V11.8998C8.07415 11.8998 8.07864 11.8444 8.07415 11.8242V11.8091C8.06965 11.8091 8.24048 11.5267 8.06965 11.8444C8.05617 11.8645 8.03369 11.8847 8.06965 11.8444C8.05167 11.8645 8.00222 11.8998 8.05167 11.8746C7.99773 11.8998 7.97975 11.8948 8.03369 11.8948C8.07864 11.8948 8.1236 11.8948 8.17305 11.8948H12.0166C12.1964 11.8948 12.3672 11.7183 12.3583 11.5116C12.3493 11.3048 12.2054 11.1283 12.0166 11.1283H12.0121Z" fill="white"/>
</svg>
