<svg width="700" height="146" viewBox="0 0 700 146" fill="none" xmlns="http://www.w3.org/2000/svg">
<mask id="mask0_198_723" style="mask-type:luminance" maskUnits="userSpaceOnUse" x="0" y="2" width="700" height="142">
<path d="M700 2.349H0V143.289H700V2.349Z" fill="white"/>
</mask>
<g mask="url(#mask0_198_723)">
<path d="M142.068 143.289V99.6687L115.003 72.8188L142.068 45.9689V2.349H98.0987L71.034 29.1989L43.969 2.349H0V45.9689L27.0649 72.8188L0 99.6687V143.289H43.969L71.034 116.439L98.0987 143.289H142.068ZM137.177 7.20066V41.1322H102.974V7.20066H137.177ZM99.7693 45.9839H135.142L111.54 69.3987L93.846 51.8451L99.7693 45.9839ZM6.37893 7.20066H41.949L135.157 99.6687H99.7848L6.37893 7.20066ZM41.949 138.437H6.37893L49.8315 95.4199L67.5711 113.019L41.949 138.437ZM102.974 138.437V104.505H137.177V138.437H102.974Z" fill="#E5E5E5"/>
<path d="M238.015 74.5035L218.524 41.253C217.751 40.0765 217.235 38.8488 217.235 37.3653C217.235 34.5518 219.865 32.2499 222.598 32.2499C226.208 32.2499 227.393 34.961 228.94 37.5699L244.255 63.5055L259.569 37.5699C261.116 34.961 262.302 32.2499 265.912 32.2499C268.644 32.2499 271.274 34.5518 271.274 37.3653C271.274 38.9 270.707 40.0765 269.985 41.253L250.494 74.5035L269.985 107.754C270.759 108.93 271.274 110.158 271.274 111.642C271.274 114.455 268.644 116.757 265.912 116.757C262.302 116.757 261.116 114.046 259.569 111.437L244.255 85.5019L228.94 111.437C227.393 114.046 226.208 116.757 222.598 116.757C219.865 116.757 217.235 114.455 217.235 111.642C217.235 110.107 217.802 108.93 218.524 107.754L238.015 74.5035Z" fill="#E5E5E5"/>
<path d="M370.535 111.332C370.535 114.811 368.988 116.755 365.069 116.755C361.151 116.755 359.604 114.811 359.604 111.332V32.2477H396.369C405.032 32.2477 413.643 38.335 413.643 48.0031V55.472C413.643 65.7028 405.083 70.8692 396.369 70.8692H386.314L410.962 105.859C412.147 107.496 413.694 109.542 413.694 111.588C413.694 114.606 411.168 116.704 408.125 116.704C405.96 116.704 404.516 115.425 403.33 113.686L373.114 70.9204H370.587V111.332H370.535ZM370.535 60.0755H394.822C397.864 60.0755 402.711 59.8712 402.711 55.5227V48.0543C402.711 43.7063 398.225 43.1436 394.925 43.1436H370.535V60.0755Z" fill="#E5E5E5"/>
<path d="M531.361 116.752C523.163 116.752 518.423 113.478 514.965 106.419L504.911 86.2128C503.056 82.5295 501.97 79.0512 501.97 74.8056C501.97 70.0479 502.849 67.0812 505.015 62.7332L515.068 42.6293C518.78 35.1095 523.473 32.1937 531.93 32.1937H550.543C552.967 32.1937 556.011 33.4726 556.011 37.6161C556.011 41.5038 553.07 43.0385 550.543 43.0385H532.24C527.546 43.0385 526.776 43.4478 524.713 47.5911L515.172 66.4671C513.73 69.3832 512.851 71.3779 512.851 74.7032C512.851 77.7212 513.833 79.614 515.172 82.2228L524.455 100.996C526.621 105.447 527.753 105.754 532.653 105.754H550.491C552.915 105.754 555.96 107.033 555.96 111.176C555.96 115.064 553.019 116.599 550.491 116.599H531.309L531.361 116.752Z" fill="#E5E5E5"/>
<path d="M673.682 116.752C665.479 116.752 660.739 113.478 657.281 106.419L647.228 86.2128C645.372 82.5295 644.287 79.0512 644.287 74.8056C644.287 70.0479 645.165 67.0812 647.331 62.7332L657.385 42.6293C661.096 35.1095 665.789 32.1937 674.246 32.1937H692.864C695.283 32.1937 698.328 33.4726 698.328 37.6161C698.328 41.5038 695.387 43.0385 692.864 43.0385H674.556C669.862 43.0385 669.092 43.4478 667.03 47.5911L657.488 66.4671C656.046 69.3832 655.167 71.3779 655.167 74.7032C655.167 77.7212 656.149 79.614 657.488 82.2228L666.771 100.996C668.937 105.447 670.069 105.754 674.969 105.754H692.812C695.232 105.754 698.276 107.033 698.276 111.176C698.276 115.064 695.335 116.599 692.812 116.599H673.63L673.682 116.752Z" fill="#E5E5E5"/>
</g>
</svg>
