<svg width="699" height="142" viewBox="0 0 699 142" fill="none" xmlns="http://www.w3.org/2000/svg">
<path d="M142.068 141.289V97.6687L115.003 70.8188L142.068 43.9689V0.348999H98.0987L71.034 27.1989L43.969 0.348999H0V43.9689L27.0649 70.8188L0 97.6687V141.289H43.969L71.034 114.439L98.0987 141.289H142.068ZM137.177 5.20066V39.1322H102.974V5.20066H137.177ZM99.7693 43.9839H135.142L111.54 67.3987L93.846 49.8451L99.7693 43.9839ZM6.37893 5.20066H41.949L135.157 97.6687H99.7848L6.37893 5.20066ZM41.949 136.437H6.37893L49.8315 93.4199L67.5711 111.019L41.949 136.437ZM102.974 136.437V102.505H137.177V136.437H102.974Z" fill="white"/>
<path d="M238.015 72.5035L218.524 39.253C217.751 38.0765 217.235 36.8488 217.235 35.3653C217.235 32.5518 219.865 30.2499 222.598 30.2499C226.208 30.2499 227.393 32.961 228.94 35.5699L244.255 61.5055L259.569 35.5699C261.116 32.961 262.302 30.2499 265.912 30.2499C268.644 30.2499 271.274 32.5518 271.274 35.3653C271.274 36.9 270.707 38.0765 269.985 39.253L250.494 72.5035L269.985 105.754C270.759 106.93 271.274 108.158 271.274 109.642C271.274 112.455 268.644 114.757 265.912 114.757C262.302 114.757 261.116 112.046 259.569 109.437L244.255 83.5019L228.94 109.437C227.393 112.046 226.208 114.757 222.598 114.757C219.865 114.757 217.235 112.455 217.235 109.642C217.235 108.107 217.802 106.93 218.524 105.754L238.015 72.5035Z" fill="white"/>
<path d="M370.535 109.332C370.535 112.811 368.988 114.755 365.069 114.755C361.151 114.755 359.604 112.811 359.604 109.332V30.2477H396.369C405.032 30.2477 413.643 36.335 413.643 46.0031V53.472C413.643 63.7028 405.083 68.8692 396.369 68.8692H386.314L410.962 103.859C412.147 105.496 413.694 107.542 413.694 109.588C413.694 112.606 411.168 114.704 408.125 114.704C405.96 114.704 404.516 113.425 403.33 111.686L373.114 68.9204H370.587V109.332H370.535ZM370.535 58.0755H394.822C397.864 58.0755 402.711 57.8712 402.711 53.5227V46.0543C402.711 41.7063 398.225 41.1436 394.925 41.1436H370.535V58.0755Z" fill="white"/>
<path d="M531.361 114.752C523.163 114.752 518.423 111.478 514.965 104.419L504.911 84.2128C503.056 80.5295 501.97 77.0512 501.97 72.8056C501.97 68.0479 502.849 65.0812 505.015 60.7332L515.068 40.6293C518.78 33.1095 523.473 30.1937 531.93 30.1937H550.543C552.967 30.1937 556.011 31.4726 556.011 35.6161C556.011 39.5038 553.07 41.0385 550.543 41.0385H532.24C527.546 41.0385 526.776 41.4478 524.713 45.5911L515.172 64.4671C513.73 67.3832 512.851 69.3779 512.851 72.7032C512.851 75.7212 513.833 77.614 515.172 80.2228L524.455 98.9964C526.621 103.447 527.753 103.754 532.653 103.754H550.491C552.915 103.754 555.96 105.033 555.96 109.176C555.96 113.064 553.019 114.599 550.491 114.599H531.309L531.361 114.752Z" fill="white"/>
<path d="M673.682 114.752C665.479 114.752 660.739 111.478 657.281 104.419L647.228 84.2128C645.372 80.5295 644.287 77.0512 644.287 72.8056C644.287 68.0479 645.165 65.0812 647.331 60.7332L657.385 40.6293C661.096 33.1095 665.789 30.1937 674.246 30.1937H692.864C695.283 30.1937 698.328 31.4726 698.328 35.6161C698.328 39.5038 695.387 41.0385 692.864 41.0385H674.556C669.862 41.0385 669.092 41.4478 667.03 45.5911L657.488 64.4671C656.046 67.3832 655.167 69.3779 655.167 72.7032C655.167 75.7212 656.149 77.614 657.488 80.2228L666.771 98.9964C668.937 103.447 670.069 103.754 674.969 103.754H692.812C695.232 103.754 698.276 105.033 698.276 109.176C698.276 113.064 695.335 114.599 692.812 114.599H673.63L673.682 114.752Z" fill="white"/>
</svg>
