<svg width="19" height="20" viewBox="0 0 19 20" fill="none" xmlns="http://www.w3.org/2000/svg">
<mask id="path-1-outside-1_6601_312787" maskUnits="userSpaceOnUse" x="0" y="0" width="19" height="20" fill="black">
<rect fill="white" width="19" height="20"/>
<path d="M18.5345 11.0908C18.4869 11.147 18.4437 11.1989 18.3961 11.2508C17.877 11.839 17.358 12.4273 16.8433 13.0155C16.0561 13.9065 15.2733 14.7975 14.4861 15.6885C13.8113 16.454 13.1409 17.2196 12.4662 17.9852C12.2845 18.1928 12.1029 18.4004 11.9169 18.608C11.8866 18.6426 11.8563 18.6772 11.8261 18.7161C11.5146 19.0492 11.0259 19.0924 10.6669 18.8286H10.6626C10.6626 18.8286 10.6323 18.807 10.615 18.794C10.5371 18.7248 10.455 18.6556 10.3771 18.5864C9.81482 18.0933 9.25254 17.5959 8.69026 17.0985C7.82954 16.3416 6.96882 15.589 6.11242 14.8321C5.2344 14.0579 4.3607 13.288 3.48268 12.5181C2.8858 11.9904 2.28892 11.4627 1.69204 10.9394L1.36764 10.6539C1.13841 10.4463 1 10.1608 1 9.84942V9.62451C1.00865 8.65566 1.02163 7.69113 1.03028 6.72228C1.04325 5.71017 1.0519 4.69807 1.06488 3.68597V3.40483C1.06488 3.05448 1.20329 2.74739 1.48875 2.53113C1.74394 2.34082 2.09428 2.33217 2.40137 2.28892C3.43943 2.14618 4.47748 1.99913 5.51554 1.85639C6.42816 1.73096 7.33646 1.60553 8.24909 1.4801C8.32694 1.46712 8.40912 1.45415 8.4913 1.44982C8.77244 1.44982 9.03195 1.55363 9.24389 1.73529C9.37365 1.84774 9.49908 1.9602 9.62451 2.07266C10.2084 2.58303 10.7837 3.09773 11.3676 3.60811H10.3728C10.2387 3.49133 10.1046 3.37022 9.97053 3.25344C9.58126 2.91608 9.20064 2.57438 8.81137 2.23701L8.78974 2.21539C8.69026 2.13321 8.58213 2.09861 8.43074 2.11591C8.37452 2.12456 8.31829 2.13321 8.26639 2.14186C7.90739 2.18944 7.5484 2.24134 7.1894 2.28892C6.05619 2.44462 4.91866 2.60466 3.78545 2.76037C3.33995 2.82092 2.89878 2.8858 2.45328 2.94635C2.33217 2.96365 2.21539 2.97663 2.09428 2.99393C2.06833 2.99825 2.04238 3.00258 2.02075 3.00691H2.0121C2.0121 3.00691 1.98183 3.01556 1.96453 3.01988C1.9602 3.01988 1.93425 3.03718 1.92127 3.04151H1.91262L1.8737 3.06746L1.83044 3.11071C1.83044 3.11071 1.80017 3.14099 1.78719 3.15829C1.78287 3.16261 1.77422 3.17126 1.77422 3.17559C1.76557 3.18856 1.75692 3.20587 1.75259 3.22317C1.75259 3.22749 1.74826 3.22749 1.74826 3.23182C1.74826 3.23182 1.73961 3.24912 1.73961 3.25344C1.73961 3.26209 1.72664 3.34427 1.72664 3.34427C1.72231 3.3659 1.72664 3.3832 1.72664 3.4005C1.72231 3.51296 1.72231 3.62974 1.72231 3.74219C1.71799 4.18337 1.71366 4.62454 1.70501 5.06139C1.69636 6.20757 1.68339 7.34944 1.67041 8.49562C1.66609 8.86759 1.66176 9.24389 1.65743 9.61586V9.84509C1.65743 9.84509 1.66176 9.87969 1.66176 9.897L1.67474 9.96187C1.68339 9.97918 1.68771 9.99648 1.69636 10.0138V10.0224C1.69636 10.0224 1.71799 10.0657 1.72231 10.0657C1.73096 10.083 1.73961 10.096 1.75259 10.1089C1.76124 10.1219 1.77854 10.1392 1.78287 10.1435C1.79152 10.1522 1.80017 10.1608 1.80882 10.1695C2.18079 10.4982 2.55708 10.8269 2.92905 11.1556C3.69894 11.8304 4.46883 12.5051 5.2344 13.1842C6.12972 13.9714 7.02072 14.7542 7.91604 15.5414L10.1219 17.4878C10.429 17.7559 10.7361 18.0284 11.0475 18.3009C11.0518 18.3052 11.0605 18.3096 11.0605 18.3139C11.0648 18.3139 11.0648 18.3182 11.0648 18.3182H11.0735C11.0735 18.3182 11.0951 18.3269 11.1081 18.3355C11.1081 18.3312 11.2248 18.3442 11.16 18.3485C11.1643 18.3485 11.1989 18.3442 11.2119 18.3442C11.2205 18.3442 11.2335 18.3398 11.2465 18.3355C11.2508 18.3355 11.2551 18.3312 11.2594 18.3355H11.2681C11.2681 18.3355 11.2681 18.3225 11.2724 18.3225C11.2854 18.3139 11.294 18.3052 11.307 18.2966C11.3157 18.2879 11.3286 18.2706 11.333 18.2663C11.3719 18.2231 11.4108 18.1798 11.4498 18.1366C11.9428 17.5743 12.4359 17.0163 12.929 16.454C13.6989 15.5803 14.4688 14.7067 15.2387 13.833C15.922 13.0544 16.6098 12.2759 17.2975 11.4973C17.4964 11.2681 17.6954 11.0389 17.8987 10.8139C17.9419 10.762 17.9895 10.7101 18.0328 10.6582L18.0544 10.6366C18.0544 10.6366 18.0674 10.6236 18.0674 10.615C18.076 10.5977 18.0847 10.5847 18.0847 10.5847H18.089C18.089 10.5847 18.0933 10.5847 18.0933 10.5804V10.5717C18.0933 10.5717 18.0976 10.5415 18.102 10.5242V10.4852C18.102 10.4852 18.0976 10.4723 18.0976 10.4679C18.0933 10.4549 18.089 10.442 18.0803 10.429C18.076 10.4203 18.063 10.3944 18.0587 10.3857C18.0544 10.3814 18.0544 10.3771 18.0544 10.3771C18.0501 10.3771 18.0457 10.3728 18.0328 10.3641C18.0328 10.3598 18.0328 10.3555 18.0241 10.3555C18.0111 10.3425 17.9938 10.3295 17.9809 10.3165C17.9203 10.2646 17.8641 10.2127 17.8035 10.1608C17.5873 9.97052 17.3667 9.77589 17.1461 9.58125C16.6227 9.12278 16.0951 8.65565 15.5674 8.19286V7.31051C15.9437 7.64355 16.32 7.97659 16.6963 8.30531C17.2283 8.77244 17.7559 9.23956 18.2879 9.70669C18.4826 9.87969 18.6686 10.0354 18.7334 10.3036C18.8026 10.5934 18.7248 10.8745 18.5302 11.0951L18.5345 11.0908Z"/>
<path d="M5.1825 7.41431C4.8408 7.41431 4.51209 7.29321 4.2569 7.06397C3.97576 6.81743 3.80707 6.47141 3.78112 6.09944C3.75517 5.72315 3.8806 5.36416 4.13147 5.07869C4.64184 4.49478 5.53284 4.43856 6.11675 4.95326C6.39789 5.1998 6.56657 5.54582 6.59252 5.92211C6.61847 6.29841 6.49304 6.6574 6.2465 6.94286C5.99997 7.224 5.65395 7.39269 5.28198 7.41864C5.2517 7.41864 5.22142 7.41864 5.19115 7.41864L5.1825 7.41431ZM5.1825 5.2517C4.97056 5.2517 4.76295 5.3382 4.61157 5.50689C4.47748 5.65827 4.41261 5.85291 4.42558 6.05619C4.43856 6.25948 4.52939 6.44546 4.68077 6.57522C4.83215 6.7093 5.03111 6.77851 5.23007 6.7612C5.43336 6.74823 5.61935 6.6574 5.75343 6.50602C6.03024 6.19027 5.99997 5.71017 5.68422 5.43768C5.54149 5.31225 5.35983 5.24737 5.1825 5.24737V5.2517Z"/>
<path d="M10.6928 16.3935C10.615 16.3935 10.5415 16.3675 10.4766 16.3113C10.3425 16.1945 10.3295 15.9869 10.4463 15.8528L15.6625 9.9316C15.7793 9.79752 15.9869 9.78454 16.121 9.90132C16.2551 10.0181 16.2681 10.2257 16.1513 10.3598L10.9351 16.281C10.8702 16.3546 10.7837 16.3892 10.6928 16.3892V16.3935Z"/>
<path d="M17.3843 4.50776H14.3091V1.43252C14.3091 1.19464 14.1144 1 13.8765 1C13.6386 1 13.444 1.19464 13.444 1.43252V4.50776H10.3688C10.1309 4.50776 9.93625 4.7024 9.93625 4.94028C9.93625 5.17817 10.1309 5.37281 10.3688 5.37281H13.444V8.44805C13.444 8.68593 13.6386 8.88057 13.8765 8.88057C14.1144 8.88057 14.3091 8.68593 14.3091 8.44805V5.37281H17.3843C17.6222 5.37281 17.8168 5.17817 17.8168 4.94028C17.8168 4.7024 17.6222 4.50776 17.3843 4.50776Z"/>
</mask>
<path d="M18.5345 11.0908C18.4869 11.147 18.4437 11.1989 18.3961 11.2508C17.877 11.839 17.358 12.4273 16.8433 13.0155C16.0561 13.9065 15.2733 14.7975 14.4861 15.6885C13.8113 16.454 13.1409 17.2196 12.4662 17.9852C12.2845 18.1928 12.1029 18.4004 11.9169 18.608C11.8866 18.6426 11.8563 18.6772 11.8261 18.7161C11.5146 19.0492 11.0259 19.0924 10.6669 18.8286H10.6626C10.6626 18.8286 10.6323 18.807 10.615 18.794C10.5371 18.7248 10.455 18.6556 10.3771 18.5864C9.81482 18.0933 9.25254 17.5959 8.69026 17.0985C7.82954 16.3416 6.96882 15.589 6.11242 14.8321C5.2344 14.0579 4.3607 13.288 3.48268 12.5181C2.8858 11.9904 2.28892 11.4627 1.69204 10.9394L1.36764 10.6539C1.13841 10.4463 1 10.1608 1 9.84942V9.62451C1.00865 8.65566 1.02163 7.69113 1.03028 6.72228C1.04325 5.71017 1.0519 4.69807 1.06488 3.68597V3.40483C1.06488 3.05448 1.20329 2.74739 1.48875 2.53113C1.74394 2.34082 2.09428 2.33217 2.40137 2.28892C3.43943 2.14618 4.47748 1.99913 5.51554 1.85639C6.42816 1.73096 7.33646 1.60553 8.24909 1.4801C8.32694 1.46712 8.40912 1.45415 8.4913 1.44982C8.77244 1.44982 9.03195 1.55363 9.24389 1.73529C9.37365 1.84774 9.49908 1.9602 9.62451 2.07266C10.2084 2.58303 10.7837 3.09773 11.3676 3.60811H10.3728C10.2387 3.49133 10.1046 3.37022 9.97053 3.25344C9.58126 2.91608 9.20064 2.57438 8.81137 2.23701L8.78974 2.21539C8.69026 2.13321 8.58213 2.09861 8.43074 2.11591C8.37452 2.12456 8.31829 2.13321 8.26639 2.14186C7.90739 2.18944 7.5484 2.24134 7.1894 2.28892C6.05619 2.44462 4.91866 2.60466 3.78545 2.76037C3.33995 2.82092 2.89878 2.8858 2.45328 2.94635C2.33217 2.96365 2.21539 2.97663 2.09428 2.99393C2.06833 2.99825 2.04238 3.00258 2.02075 3.00691H2.0121C2.0121 3.00691 1.98183 3.01556 1.96453 3.01988C1.9602 3.01988 1.93425 3.03718 1.92127 3.04151H1.91262L1.8737 3.06746L1.83044 3.11071C1.83044 3.11071 1.80017 3.14099 1.78719 3.15829C1.78287 3.16261 1.77422 3.17126 1.77422 3.17559C1.76557 3.18856 1.75692 3.20587 1.75259 3.22317C1.75259 3.22749 1.74826 3.22749 1.74826 3.23182C1.74826 3.23182 1.73961 3.24912 1.73961 3.25344C1.73961 3.26209 1.72664 3.34427 1.72664 3.34427C1.72231 3.3659 1.72664 3.3832 1.72664 3.4005C1.72231 3.51296 1.72231 3.62974 1.72231 3.74219C1.71799 4.18337 1.71366 4.62454 1.70501 5.06139C1.69636 6.20757 1.68339 7.34944 1.67041 8.49562C1.66609 8.86759 1.66176 9.24389 1.65743 9.61586V9.84509C1.65743 9.84509 1.66176 9.87969 1.66176 9.897L1.67474 9.96187C1.68339 9.97918 1.68771 9.99648 1.69636 10.0138V10.0224C1.69636 10.0224 1.71799 10.0657 1.72231 10.0657C1.73096 10.083 1.73961 10.096 1.75259 10.1089C1.76124 10.1219 1.77854 10.1392 1.78287 10.1435C1.79152 10.1522 1.80017 10.1608 1.80882 10.1695C2.18079 10.4982 2.55708 10.8269 2.92905 11.1556C3.69894 11.8304 4.46883 12.5051 5.2344 13.1842C6.12972 13.9714 7.02072 14.7542 7.91604 15.5414L10.1219 17.4878C10.429 17.7559 10.7361 18.0284 11.0475 18.3009C11.0518 18.3052 11.0605 18.3096 11.0605 18.3139C11.0648 18.3139 11.0648 18.3182 11.0648 18.3182H11.0735C11.0735 18.3182 11.0951 18.3269 11.1081 18.3355C11.1081 18.3312 11.2248 18.3442 11.16 18.3485C11.1643 18.3485 11.1989 18.3442 11.2119 18.3442C11.2205 18.3442 11.2335 18.3398 11.2465 18.3355C11.2508 18.3355 11.2551 18.3312 11.2594 18.3355H11.2681C11.2681 18.3355 11.2681 18.3225 11.2724 18.3225C11.2854 18.3139 11.294 18.3052 11.307 18.2966C11.3157 18.2879 11.3286 18.2706 11.333 18.2663C11.3719 18.2231 11.4108 18.1798 11.4498 18.1366C11.9428 17.5743 12.4359 17.0163 12.929 16.454C13.6989 15.5803 14.4688 14.7067 15.2387 13.833C15.922 13.0544 16.6098 12.2759 17.2975 11.4973C17.4964 11.2681 17.6954 11.0389 17.8987 10.8139C17.9419 10.762 17.9895 10.7101 18.0328 10.6582L18.0544 10.6366C18.0544 10.6366 18.0674 10.6236 18.0674 10.615C18.076 10.5977 18.0847 10.5847 18.0847 10.5847H18.089C18.089 10.5847 18.0933 10.5847 18.0933 10.5804V10.5717C18.0933 10.5717 18.0976 10.5415 18.102 10.5242V10.4852C18.102 10.4852 18.0976 10.4723 18.0976 10.4679C18.0933 10.4549 18.089 10.442 18.0803 10.429C18.076 10.4203 18.063 10.3944 18.0587 10.3857C18.0544 10.3814 18.0544 10.3771 18.0544 10.3771C18.0501 10.3771 18.0457 10.3728 18.0328 10.3641C18.0328 10.3598 18.0328 10.3555 18.0241 10.3555C18.0111 10.3425 17.9938 10.3295 17.9809 10.3165C17.9203 10.2646 17.8641 10.2127 17.8035 10.1608C17.5873 9.97052 17.3667 9.77589 17.1461 9.58125C16.6227 9.12278 16.0951 8.65565 15.5674 8.19286V7.31051C15.9437 7.64355 16.32 7.97659 16.6963 8.30531C17.2283 8.77244 17.7559 9.23956 18.2879 9.70669C18.4826 9.87969 18.6686 10.0354 18.7334 10.3036C18.8026 10.5934 18.7248 10.8745 18.5302 11.0951L18.5345 11.0908Z" fill="white"/>
<path d="M5.1825 7.41431C4.8408 7.41431 4.51209 7.29321 4.2569 7.06397C3.97576 6.81743 3.80707 6.47141 3.78112 6.09944C3.75517 5.72315 3.8806 5.36416 4.13147 5.07869C4.64184 4.49478 5.53284 4.43856 6.11675 4.95326C6.39789 5.1998 6.56657 5.54582 6.59252 5.92211C6.61847 6.29841 6.49304 6.6574 6.2465 6.94286C5.99997 7.224 5.65395 7.39269 5.28198 7.41864C5.2517 7.41864 5.22142 7.41864 5.19115 7.41864L5.1825 7.41431ZM5.1825 5.2517C4.97056 5.2517 4.76295 5.3382 4.61157 5.50689C4.47748 5.65827 4.41261 5.85291 4.42558 6.05619C4.43856 6.25948 4.52939 6.44546 4.68077 6.57522C4.83215 6.7093 5.03111 6.77851 5.23007 6.7612C5.43336 6.74823 5.61935 6.6574 5.75343 6.50602C6.03024 6.19027 5.99997 5.71017 5.68422 5.43768C5.54149 5.31225 5.35983 5.24737 5.1825 5.24737V5.2517Z" fill="white"/>
<path d="M10.6928 16.3935C10.615 16.3935 10.5415 16.3675 10.4766 16.3113C10.3425 16.1945 10.3295 15.9869 10.4463 15.8528L15.6625 9.9316C15.7793 9.79752 15.9869 9.78454 16.121 9.90132C16.2551 10.0181 16.2681 10.2257 16.1513 10.3598L10.9351 16.281C10.8702 16.3546 10.7837 16.3892 10.6928 16.3892V16.3935Z" fill="white"/>
<path d="M17.3843 4.50776H14.3091V1.43252C14.3091 1.19464 14.1144 1 13.8765 1C13.6386 1 13.444 1.19464 13.444 1.43252V4.50776H10.3688C10.1309 4.50776 9.93625 4.7024 9.93625 4.94028C9.93625 5.17817 10.1309 5.37281 10.3688 5.37281H13.444V8.44805C13.444 8.68593 13.6386 8.88057 13.8765 8.88057C14.1144 8.88057 14.3091 8.68593 14.3091 8.44805V5.37281H17.3843C17.6222 5.37281 17.8168 5.17817 17.8168 4.94028C17.8168 4.7024 17.6222 4.50776 17.3843 4.50776Z" fill="white"/>
<path d="M18.5345 11.0908C18.4869 11.147 18.4437 11.1989 18.3961 11.2508C17.877 11.839 17.358 12.4273 16.8433 13.0155C16.0561 13.9065 15.2733 14.7975 14.4861 15.6885C13.8113 16.454 13.1409 17.2196 12.4662 17.9852C12.2845 18.1928 12.1029 18.4004 11.9169 18.608C11.8866 18.6426 11.8563 18.6772 11.8261 18.7161C11.5146 19.0492 11.0259 19.0924 10.6669 18.8286H10.6626C10.6626 18.8286 10.6323 18.807 10.615 18.794C10.5371 18.7248 10.455 18.6556 10.3771 18.5864C9.81482 18.0933 9.25254 17.5959 8.69026 17.0985C7.82954 16.3416 6.96882 15.589 6.11242 14.8321C5.2344 14.0579 4.3607 13.288 3.48268 12.5181C2.8858 11.9904 2.28892 11.4627 1.69204 10.9394L1.36764 10.6539C1.13841 10.4463 1 10.1608 1 9.84942V9.62451C1.00865 8.65566 1.02163 7.69113 1.03028 6.72228C1.04325 5.71017 1.0519 4.69807 1.06488 3.68597V3.40483C1.06488 3.05448 1.20329 2.74739 1.48875 2.53113C1.74394 2.34082 2.09428 2.33217 2.40137 2.28892C3.43943 2.14618 4.47748 1.99913 5.51554 1.85639C6.42816 1.73096 7.33646 1.60553 8.24909 1.4801C8.32694 1.46712 8.40912 1.45415 8.4913 1.44982C8.77244 1.44982 9.03195 1.55363 9.24389 1.73529C9.37365 1.84774 9.49908 1.9602 9.62451 2.07266C10.2084 2.58303 10.7837 3.09773 11.3676 3.60811H10.3728C10.2387 3.49133 10.1046 3.37022 9.97053 3.25344C9.58126 2.91608 9.20064 2.57438 8.81137 2.23701L8.78974 2.21539C8.69026 2.13321 8.58213 2.09861 8.43074 2.11591C8.37452 2.12456 8.31829 2.13321 8.26639 2.14186C7.90739 2.18944 7.5484 2.24134 7.1894 2.28892C6.05619 2.44462 4.91866 2.60466 3.78545 2.76037C3.33995 2.82092 2.89878 2.8858 2.45328 2.94635C2.33217 2.96365 2.21539 2.97663 2.09428 2.99393C2.06833 2.99825 2.04238 3.00258 2.02075 3.00691H2.0121C2.0121 3.00691 1.98183 3.01556 1.96453 3.01988C1.9602 3.01988 1.93425 3.03718 1.92127 3.04151H1.91262L1.8737 3.06746L1.83044 3.11071C1.83044 3.11071 1.80017 3.14099 1.78719 3.15829C1.78287 3.16261 1.77422 3.17126 1.77422 3.17559C1.76557 3.18856 1.75692 3.20587 1.75259 3.22317C1.75259 3.22749 1.74826 3.22749 1.74826 3.23182C1.74826 3.23182 1.73961 3.24912 1.73961 3.25344C1.73961 3.26209 1.72664 3.34427 1.72664 3.34427C1.72231 3.3659 1.72664 3.3832 1.72664 3.4005C1.72231 3.51296 1.72231 3.62974 1.72231 3.74219C1.71799 4.18337 1.71366 4.62454 1.70501 5.06139C1.69636 6.20757 1.68339 7.34944 1.67041 8.49562C1.66609 8.86759 1.66176 9.24389 1.65743 9.61586V9.84509C1.65743 9.84509 1.66176 9.87969 1.66176 9.897L1.67474 9.96187C1.68339 9.97918 1.68771 9.99648 1.69636 10.0138V10.0224C1.69636 10.0224 1.71799 10.0657 1.72231 10.0657C1.73096 10.083 1.73961 10.096 1.75259 10.1089C1.76124 10.1219 1.77854 10.1392 1.78287 10.1435C1.79152 10.1522 1.80017 10.1608 1.80882 10.1695C2.18079 10.4982 2.55708 10.8269 2.92905 11.1556C3.69894 11.8304 4.46883 12.5051 5.2344 13.1842C6.12972 13.9714 7.02072 14.7542 7.91604 15.5414L10.1219 17.4878C10.429 17.7559 10.7361 18.0284 11.0475 18.3009C11.0518 18.3052 11.0605 18.3096 11.0605 18.3139C11.0648 18.3139 11.0648 18.3182 11.0648 18.3182H11.0735C11.0735 18.3182 11.0951 18.3269 11.1081 18.3355C11.1081 18.3312 11.2248 18.3442 11.16 18.3485C11.1643 18.3485 11.1989 18.3442 11.2119 18.3442C11.2205 18.3442 11.2335 18.3398 11.2465 18.3355C11.2508 18.3355 11.2551 18.3312 11.2594 18.3355H11.2681C11.2681 18.3355 11.2681 18.3225 11.2724 18.3225C11.2854 18.3139 11.294 18.3052 11.307 18.2966C11.3157 18.2879 11.3286 18.2706 11.333 18.2663C11.3719 18.2231 11.4108 18.1798 11.4498 18.1366C11.9428 17.5743 12.4359 17.0163 12.929 16.454C13.6989 15.5803 14.4688 14.7067 15.2387 13.833C15.922 13.0544 16.6098 12.2759 17.2975 11.4973C17.4964 11.2681 17.6954 11.0389 17.8987 10.8139C17.9419 10.762 17.9895 10.7101 18.0328 10.6582L18.0544 10.6366C18.0544 10.6366 18.0674 10.6236 18.0674 10.615C18.076 10.5977 18.0847 10.5847 18.0847 10.5847H18.089C18.089 10.5847 18.0933 10.5847 18.0933 10.5804V10.5717C18.0933 10.5717 18.0976 10.5415 18.102 10.5242V10.4852C18.102 10.4852 18.0976 10.4723 18.0976 10.4679C18.0933 10.4549 18.089 10.442 18.0803 10.429C18.076 10.4203 18.063 10.3944 18.0587 10.3857C18.0544 10.3814 18.0544 10.3771 18.0544 10.3771C18.0501 10.3771 18.0457 10.3728 18.0328 10.3641C18.0328 10.3598 18.0328 10.3555 18.0241 10.3555C18.0111 10.3425 17.9938 10.3295 17.9809 10.3165C17.9203 10.2646 17.8641 10.2127 17.8035 10.1608C17.5873 9.97052 17.3667 9.77589 17.1461 9.58125C16.6227 9.12278 16.0951 8.65565 15.5674 8.19286V7.31051C15.9437 7.64355 16.32 7.97659 16.6963 8.30531C17.2283 8.77244 17.7559 9.23956 18.2879 9.70669C18.4826 9.87969 18.6686 10.0354 18.7334 10.3036C18.8026 10.5934 18.7248 10.8745 18.5302 11.0951L18.5345 11.0908Z" stroke="white" stroke-width="0.4" mask="url(#path-1-outside-1_6601_312787)"/>
<path d="M5.1825 7.41431C4.8408 7.41431 4.51209 7.29321 4.2569 7.06397C3.97576 6.81743 3.80707 6.47141 3.78112 6.09944C3.75517 5.72315 3.8806 5.36416 4.13147 5.07869C4.64184 4.49478 5.53284 4.43856 6.11675 4.95326C6.39789 5.1998 6.56657 5.54582 6.59252 5.92211C6.61847 6.29841 6.49304 6.6574 6.2465 6.94286C5.99997 7.224 5.65395 7.39269 5.28198 7.41864C5.2517 7.41864 5.22142 7.41864 5.19115 7.41864L5.1825 7.41431ZM5.1825 5.2517C4.97056 5.2517 4.76295 5.3382 4.61157 5.50689C4.47748 5.65827 4.41261 5.85291 4.42558 6.05619C4.43856 6.25948 4.52939 6.44546 4.68077 6.57522C4.83215 6.7093 5.03111 6.77851 5.23007 6.7612C5.43336 6.74823 5.61935 6.6574 5.75343 6.50602C6.03024 6.19027 5.99997 5.71017 5.68422 5.43768C5.54149 5.31225 5.35983 5.24737 5.1825 5.24737V5.2517Z" stroke="white" stroke-width="0.4" mask="url(#path-1-outside-1_6601_312787)"/>
<path d="M10.6928 16.3935C10.615 16.3935 10.5415 16.3675 10.4766 16.3113C10.3425 16.1945 10.3295 15.9869 10.4463 15.8528L15.6625 9.9316C15.7793 9.79752 15.9869 9.78454 16.121 9.90132C16.2551 10.0181 16.2681 10.2257 16.1513 10.3598L10.9351 16.281C10.8702 16.3546 10.7837 16.3892 10.6928 16.3892V16.3935Z" stroke="white" stroke-width="0.4" mask="url(#path-1-outside-1_6601_312787)"/>
<path d="M17.3843 4.50776H14.3091V1.43252C14.3091 1.19464 14.1144 1 13.8765 1C13.6386 1 13.444 1.19464 13.444 1.43252V4.50776H10.3688C10.1309 4.50776 9.93625 4.7024 9.93625 4.94028C9.93625 5.17817 10.1309 5.37281 10.3688 5.37281H13.444V8.44805C13.444 8.68593 13.6386 8.88057 13.8765 8.88057C14.1144 8.88057 14.3091 8.68593 14.3091 8.44805V5.37281H17.3843C17.6222 5.37281 17.8168 5.17817 17.8168 4.94028C17.8168 4.7024 17.6222 4.50776 17.3843 4.50776Z" stroke="white" stroke-width="0.4" mask="url(#path-1-outside-1_6601_312787)"/>
</svg>
