<svg width="3" height="14" viewBox="0 0 3 14" fill="none" xmlns="http://www.w3.org/2000/svg">
<path d="M1.33366 13.3335C2.06968 13.3335 2.66699 12.7362 2.66699 12.0002C2.66699 11.2641 2.06968 10.6668 1.33366 10.6668C0.597636 10.6668 0.000324828 11.2641 0.000324763 12.0002C0.000324699 12.7362 0.597635 13.3335 1.33366 13.3335Z" fill="white"/>
<path d="M1.33366 8C2.06968 8 2.66699 7.40269 2.66699 6.66667C2.66699 5.93064 2.06968 5.33333 1.33366 5.33333C0.597636 5.33333 0.000324828 5.93064 0.000324763 6.66667C0.000324699 7.40269 0.597635 8 1.33366 8Z" fill="white"/>
<path d="M1.33366 2.66675C2.06968 2.66675 2.66699 2.06944 2.66699 1.33341C2.66699 0.597392 2.06968 8.09306e-05 1.33366 8.08663e-05C0.597636 8.08019e-05 0.000324828 0.597391 0.000324763 1.33341C0.000324699 2.06944 0.597635 2.66675 1.33366 2.66675Z" fill="white"/>
</svg>
