<svg width="20" height="20" viewBox="0 0 20 20" fill="none" xmlns="http://www.w3.org/2000/svg">
<path d="M19.518 5.54102L16.1125 8.81225H5.29785L8.70329 5.54102H19.518Z" fill="white"/>
<path d="M20.0002 6.00391V16.3924L19.7176 16.6634L16.5947 19.6636V9.27514L20.0002 6.00391Z" fill="white"/>
<path d="M4.39902 14.6324H0.662038V4.45315H11.2589V4.97434H11.9209V4.26661L15.2321 1.08586V4.97485H15.8942V0H3.97381L0 3.8172V15.2683H4.39902V14.6324ZM3.97381 0.89983L4.24799 0.636453H14.7643L11.453 3.8172H0.936747L3.97381 0.89983Z" fill="white"/>
<path d="M4.99707 9.53125V19.9996H15.8939V9.53125H4.99707ZM13.3025 15.0703H10.766V16.7673H10.7633V17.5094H10.1287V15.0698H7.58891V14.4601H10.1287V12.0204H10.7633V12.8237H10.766V14.4596H13.3025V15.0693V15.0703Z" fill="white"/>
</svg>
