<svg width="23" height="24" viewBox="0 0 23 24" fill="none" xmlns="http://www.w3.org/2000/svg">
<path d="M9.31262 17.8088C11.4501 17.8088 13.1829 16.0761 13.1829 13.9386C13.1829 11.8011 11.4501 10.0684 9.31262 10.0684C7.17515 10.0684 5.44238 11.8011 5.44238 13.9386C5.44238 16.0761 7.17515 17.8088 9.31262 17.8088Z" fill="white"/>
<path d="M15.5089 0.932587C14.6492 0.356079 13.481 0 12.194 0C10.907 0 9.73875 0.356079 8.87908 0.932587H6.68072L1.41668 6.19662V10.0974C0.515466 10.9367 0 12.1135 0 13.347C0 14.5806 0.515466 15.7573 1.41668 16.5958V21.9904H7.99821C8.83669 22.8348 10.0694 23.3333 11.3606 23.3333C12.6518 23.3333 13.8837 22.8357 14.7222 21.9904H17.2105L22.4745 16.7264V0.932587H15.5089ZM16.2084 3.32086C16.2084 3.39207 16.0091 3.64557 15.1249 3.86345C14.3678 4.04997 13.2995 4.1568 12.194 4.1568C11.0885 4.1568 10.0202 4.04997 9.26313 3.86345C8.37887 3.64557 8.17964 3.39207 8.17964 3.32086C8.17964 1.91096 9.98038 0.763026 12.194 0.763026C14.4076 0.763026 16.2084 1.91011 16.2084 3.32086ZM1.38023 15.3851C0.98176 14.7866 0.763026 14.0778 0.763026 13.347C0.763026 12.6162 0.995325 11.8651 1.41668 11.2563V13.9625L1.38023 15.386V15.3851ZM11.3598 22.5703C10.5874 22.5703 9.84219 22.3626 9.22498 21.9904H13.4937C12.8773 22.3617 12.133 22.5703 11.3598 22.5703ZM16.3321 15.8489V21.1129H2.29416V9.42083V7.07325H16.333V15.8472L16.3321 15.8489ZM16.589 6.19747H2.65703L6.68072 2.17378L7.04442 1.81007H7.94225C7.60737 2.26364 7.41746 2.77657 7.41746 3.32086C7.41746 3.90076 7.97701 4.33229 9.0817 4.60444C9.90832 4.80791 11.0139 4.91982 12.1948 4.91982C13.3156 4.91982 16.9722 4.80452 16.9722 3.32086C16.9722 2.77741 16.7823 2.26364 16.4474 1.81007H20.9773L16.5899 6.19747H16.589ZM21.5962 3.05126V16.3635L21.2325 16.7272L17.2088 20.7509V6.81721L21.5962 2.42981V3.05041V3.05126Z" fill="white"/>
</svg>
