<svg width="30" height="30" viewBox="0 0 30 30" fill="none" xmlns="http://www.w3.org/2000/svg">
<path d="M23.4179 26.5277L20.2953 29.6502L19.7123 29.0664L21.8391 26.9396H2.71064V7.85619L0.58383 9.983L0 9.40002L3.12255 6.27832L6.24511 9.40002L5.66213 9.983L3.53532 7.85619V26.1149H21.8391L19.7123 23.9881L20.2953 23.4051L23.4179 26.5277Z" fill="white"/>
<path d="M18.8765 0C12.7437 0 7.75391 4.98979 7.75391 11.1226C7.75391 17.2553 12.7437 22.2451 18.8765 22.2451C25.0092 22.2451 29.999 17.2553 29.999 11.1226C29.999 4.98979 25.0101 0 18.8765 0ZM27.2339 16.6366C25.3786 17.3711 23.5777 17.8026 21.9054 18.0315C22.4577 16.7532 22.8637 15.4647 23.1207 14.1719C24.8858 13.9004 26.7769 13.4587 28.7548 12.7821C28.5199 14.1872 27.9905 15.4936 27.2339 16.6366ZM15.5862 18.0511C13.0697 17.7234 11.2688 17.0834 10.6628 16.8468C9.87561 15.72 9.31305 14.4247 9.04327 13.0272C9.99731 13.377 11.8739 13.966 14.4569 14.2996C14.4943 14.3047 14.5335 14.3089 14.5718 14.3132C14.8331 15.5728 15.2356 16.8289 15.7777 18.074C15.7139 18.0664 15.6492 18.0587 15.5862 18.0502V18.0511ZM16.2407 19.0672C16.5658 19.7217 16.9301 20.3728 17.3318 21.0187C15.199 20.6868 13.2867 19.68 11.8211 18.2238C12.7292 18.4885 13.9565 18.7804 15.4297 18.9745C15.6875 19.0085 15.959 19.0391 16.2399 19.0672H16.2407ZM8.86114 11.1217C8.86114 9.79319 9.12157 8.52426 9.59391 7.36255C10.4748 7.74553 12.0841 8.33362 14.3207 8.69277C14.3292 8.69447 14.3377 8.69532 14.3462 8.69702C14.1505 10.234 14.1667 11.7864 14.3965 13.3345C14.3965 13.3387 14.3982 13.3421 14.3982 13.3464C11.4569 12.9464 9.47135 12.2 8.89603 11.9643C8.87305 11.686 8.86029 11.4051 8.86029 11.1209L8.86114 11.1217ZM22.3309 13.3396C19.6152 13.6996 17.2365 13.6511 15.3539 13.4604C15.0986 11.9166 15.0714 10.3711 15.2714 8.82638C16.1539 8.93106 17.1522 9 18.2543 9C19.502 9 20.8824 8.91149 22.3777 8.68936C22.5922 10.2391 22.576 11.7906 22.3318 13.3396H22.3309ZM15.5411 14.4187C16.3769 14.4953 17.2977 14.5438 18.2969 14.5438C19.4807 14.5438 20.7718 14.4757 22.1488 14.3064C21.8671 15.5923 21.4288 16.8757 20.8322 18.154C19.3641 18.2868 18.0169 18.2698 16.8467 18.1804C16.2611 16.9302 15.8262 15.6757 15.5411 14.4187ZM28.8739 11.7481C26.9139 12.4485 25.0382 12.9098 23.2875 13.1974C23.5062 11.6409 23.5096 10.0809 23.2986 8.53787C24.805 8.26553 26.4177 7.85532 28.1207 7.26468C28.6186 8.45277 28.8943 9.75575 28.8943 11.1226C28.8943 11.3328 28.8867 11.5413 28.8739 11.7481ZM27.7156 6.41277C26.102 6.96681 24.5735 7.35489 23.1454 7.61362C23.0714 7.23149 22.9854 6.85106 22.885 6.47234C22.2535 4.08681 21.2416 2.28851 20.5462 1.24511C23.6526 1.76851 26.2782 3.72596 27.7156 6.41191V6.41277ZM19.302 1.11574C19.8407 1.82553 21.2297 3.84851 21.9905 6.75319C22.079 7.09106 22.1556 7.42894 22.222 7.76681C19.5241 8.16681 17.2194 8.11319 15.4177 7.90213C15.4901 7.51915 15.5743 7.13617 15.6748 6.75404C16.4348 3.85447 17.8194 1.83319 18.3607 1.12C18.5318 1.11149 18.7045 1.10638 18.8773 1.10638C19.0194 1.10638 19.1616 1.10979 19.302 1.11574ZM17.1088 1.26213C16.4135 2.30723 15.4092 4.09958 14.7811 6.47234C14.6671 6.90383 14.5701 7.33702 14.4901 7.77277C12.365 7.43234 10.8203 6.86979 9.98795 6.51149C11.3982 3.80426 14.0084 1.81702 17.1088 1.26298V1.26213ZM18.5165 21.1311C18.0799 20.4723 17.685 19.8119 17.3326 19.1506C17.7633 19.1736 18.2143 19.1872 18.6824 19.1872C19.2143 19.1872 19.7692 19.1702 20.3437 19.1319C19.9879 19.8017 19.5888 20.4689 19.1471 21.1353C19.0577 21.1379 18.9675 21.1387 18.8773 21.1387C18.7565 21.1387 18.6356 21.1362 18.5156 21.1319L18.5165 21.1311ZM20.325 21.0332C20.7377 20.3711 21.1096 19.7038 21.4416 19.0332C22.9131 18.8681 24.4909 18.5557 26.125 18.0298C24.6143 19.6136 22.5914 20.7047 20.325 21.034V21.0332Z" fill="white"/>
</svg>
