<svg width="24" height="24" viewBox="0 0 24 24" fill="none" xmlns="http://www.w3.org/2000/svg">
<path d="M10.0499 22.362H0.971309V6.80647H16.5305V10.5H17.5018V6.52165L22.362 1.66145V10.5C22.1667 10.5 23.3333 10.5 23.3333 10.5V0H5.83516L0 5.83516V23.3333H11.0833C10.7072 23.0485 10.3603 22.7199 10.0536 22.362H10.0499ZM5.83516 1.37663L6.23683 0.974961H21.6755L16.8153 5.83516H1.37663L5.83516 1.37663Z" fill="white"/>
<path d="M12.538 13.4107C13.0196 13.4107 13.41 13.0202 13.41 12.5386C13.41 12.057 13.0196 11.6666 12.538 11.6666C12.0564 11.6666 11.666 12.057 11.666 12.5386C11.666 13.0202 12.0564 13.4107 12.538 13.4107Z" fill="white"/>
<path d="M23.3661 12.5386C23.3661 13.02 22.976 13.4101 22.4947 13.4101H15.5128C15.4081 13.4101 15.3081 13.3921 15.2157 13.3583C14.8808 13.2368 14.6413 12.9153 14.6413 12.5386C14.6413 12.1619 14.8808 11.8399 15.2157 11.7184C15.3081 11.6846 15.4081 11.6666 15.5128 11.6666H22.4947C22.976 11.6666 23.3661 12.0567 23.3661 12.5386Z" fill="white"/>
<path d="M12.538 18.3858C13.0196 18.3858 13.41 17.9954 13.41 17.5138C13.41 17.0322 13.0196 16.6418 12.538 16.6418C12.0564 16.6418 11.666 17.0322 11.666 17.5138C11.666 17.9954 12.0564 18.3858 12.538 18.3858Z" fill="white"/>
<path d="M23.3661 17.5138C23.3661 17.9951 22.976 18.3852 22.4947 18.3852H15.5128C15.5 18.3852 15.4866 18.3852 15.4738 18.384C15.4628 18.384 15.4511 18.3829 15.4401 18.3823C15.4308 18.3811 15.4215 18.3806 15.4122 18.3794C15.404 18.3794 15.3959 18.3777 15.3878 18.3765C15.3697 18.3742 15.3517 18.3713 15.3343 18.3672C15.3209 18.3649 15.3075 18.3614 15.2948 18.3579C15.2674 18.3509 15.2413 18.3434 15.2157 18.3335L15.2134 18.3323C15.2 18.3277 15.1866 18.3218 15.1738 18.3166C15.1145 18.2922 15.0593 18.2602 15.0076 18.2242C14.9994 18.2184 14.9919 18.2131 14.9843 18.2067C14.9663 18.1934 14.9489 18.1788 14.932 18.1637C14.9244 18.1567 14.9175 18.1498 14.9099 18.1428C14.8994 18.1329 14.8896 18.123 14.8803 18.1131C14.875 18.1073 14.8692 18.1015 14.864 18.0951C14.8494 18.0788 14.8355 18.062 14.8221 18.0451C14.8151 18.0364 14.8088 18.0271 14.8024 18.0184C14.7901 18.0009 14.7779 17.9829 14.7669 17.9649C14.7611 17.955 14.7553 17.9451 14.7495 17.9353C14.7349 17.9079 14.721 17.8806 14.7088 17.8521C14.7047 17.8434 14.7012 17.8341 14.6977 17.8248C14.6948 17.8178 14.6925 17.8103 14.6896 17.8033C14.6855 17.7928 14.682 17.7824 14.6791 17.7725C14.6745 17.7585 14.671 17.7452 14.6675 17.7312C14.6634 17.7172 14.6605 17.7033 14.6576 17.6888C14.6553 17.6766 14.653 17.6643 14.6506 17.6516C14.6489 17.6405 14.6471 17.6289 14.646 17.6178C14.6442 17.6068 14.6431 17.5946 14.6425 17.5835C14.6413 17.5742 14.6407 17.5644 14.6407 17.5545C14.6407 17.5411 14.6396 17.5271 14.6396 17.5138C14.6396 17.5004 14.6396 17.4865 14.6407 17.4731C14.6407 17.4632 14.6419 17.4533 14.6425 17.444C14.6425 17.433 14.6442 17.4208 14.646 17.4097C14.6471 17.3987 14.6489 17.387 14.6506 17.376C14.6524 17.3638 14.6553 17.3516 14.6576 17.3388C14.6605 17.3243 14.6634 17.3103 14.6675 17.2964C14.671 17.2824 14.675 17.269 14.6791 17.2551C14.682 17.2446 14.6855 17.2342 14.6896 17.2243C14.6919 17.2167 14.6942 17.2097 14.6977 17.2028C14.7012 17.1935 14.7047 17.1847 14.7088 17.1754C14.7204 17.1469 14.7343 17.119 14.7495 17.0923C14.7547 17.0824 14.7605 17.0725 14.7669 17.0627C14.7779 17.0446 14.7901 17.026 14.8024 17.0092C14.8088 17.0005 14.8151 16.9912 14.8221 16.9824C14.8274 16.9749 14.8332 16.9679 14.8401 16.9603C14.8448 16.9551 14.8494 16.9493 14.8547 16.9435C14.8576 16.9394 14.8611 16.9359 14.8646 16.9324C14.8698 16.9266 14.8756 16.9208 14.8808 16.9144C14.8901 16.9045 14.9 16.8946 14.9105 16.8848C14.918 16.8778 14.925 16.8708 14.9326 16.8638C14.9494 16.8493 14.9669 16.8342 14.9849 16.8208C14.9925 16.815 15 16.8098 15.0082 16.8034C15.0506 16.7731 15.0959 16.747 15.1436 16.7243C15.1535 16.7197 15.164 16.715 15.1744 16.7104C15.1872 16.7051 15.2006 16.6993 15.2139 16.6947L15.2163 16.6935C15.2419 16.6842 15.2686 16.6761 15.2953 16.6691C15.3081 16.6656 15.3215 16.6621 15.3349 16.6598C15.3529 16.6557 15.3703 16.6528 15.3884 16.6505C15.3965 16.6493 15.404 16.6482 15.4128 16.6476C15.4221 16.6458 15.4314 16.6458 15.4407 16.6447C15.4517 16.6435 15.4628 16.6429 15.4744 16.6429C15.4872 16.6429 15.5006 16.6418 15.5133 16.6418H22.4953C22.9766 16.6418 23.3661 17.0324 23.3661 17.5138Z" fill="white"/>
<path d="M12.538 23.1195C13.0196 23.1195 13.41 22.7291 13.41 22.2475C13.41 21.7659 13.0196 21.3755 12.538 21.3755C12.0564 21.3755 11.666 21.7659 11.666 22.2475C11.666 22.7291 12.0564 23.1195 12.538 23.1195Z" fill="white"/>
<path d="M23.3661 22.2475C23.3661 22.7289 22.976 23.1195 22.4947 23.1195H15.5128C15.4081 23.1195 15.3081 23.1015 15.2157 23.0678C14.8808 22.9457 14.6413 22.6242 14.6413 22.2475C14.6413 21.8708 14.8808 21.5493 15.2157 21.4278C15.3081 21.3941 15.4081 21.3761 15.5128 21.3761H22.4947C22.976 21.3761 23.3661 21.7662 23.3661 22.2475Z" fill="white"/>
</svg>
