<svg width="20" height="20" viewBox="0 0 20 20" fill="none" xmlns="http://www.w3.org/2000/svg">
<path d="M10.0001 18.3333C10.9201 18.3333 11.6667 17.5867 11.6667 16.6666C11.6667 15.7466 10.9201 15 10.0001 15C9.08005 15 8.33341 15.7466 8.33341 16.6666C8.33341 17.5867 9.08005 18.3333 10.0001 18.3333Z" fill="white"/>
<path d="M10.0001 11.6667C10.9201 11.6667 11.6667 10.92 11.6667 10C11.6667 9.07999 10.9201 8.33335 10.0001 8.33335C9.08005 8.33335 8.33341 9.07999 8.33341 10C8.33341 10.92 9.08005 11.6667 10.0001 11.6667Z" fill="white"/>
<path d="M10.0001 5C10.9201 5 11.6667 4.25336 11.6667 3.33333C11.6667 2.4133 10.9201 1.66667 10.0001 1.66667C9.08005 1.66667 8.33341 2.4133 8.33341 3.33333C8.33341 4.25336 9.08005 5 10.0001 5Z" fill="white"/>
</svg>
