<svg width="20" height="20" viewBox="0 0 20 20" fill="none" xmlns="http://www.w3.org/2000/svg">
<path d="M7.77223 13.9133V6.13226C7.77223 6.13226 7.77223 6.09607 7.77223 6.0825C7.77223 6.00107 7.75869 6.12774 7.77223 6.05535C7.77223 6.04631 7.78578 5.99654 7.77223 6.05535C7.77223 6.05535 7.82191 5.98297 7.7903 6.02369C7.75869 6.0644 7.81739 6.00107 7.81739 6.00107C7.77675 6.04178 7.79933 6.00107 7.82642 6.00107C7.75417 6.01012 7.87158 6.01012 7.82642 6.00107C7.84448 6.00107 7.88964 5.99202 7.81287 6.00107C7.83094 6.00107 7.849 6.00107 7.86706 6.00107C7.81739 6.00107 7.95738 5.99654 7.86706 6.00107C7.90319 6.00107 7.81288 5.96488 7.88061 6.00107C7.88513 6.00107 7.89867 6.01464 7.9077 6.01464C7.92125 6.02369 7.93931 6.03274 7.95286 6.04631C8.03414 6.09607 8.11542 6.15036 8.1967 6.20012C8.95985 6.6887 9.71847 7.17728 10.4816 7.66133C11.3712 8.23134 12.2608 8.80135 13.1504 9.37136C13.4032 9.53422 13.6561 9.69708 13.909 9.85542C13.9451 9.87804 13.9858 9.90066 14.0219 9.9278C13.9632 9.88709 14.0625 9.99566 14.0219 9.92328C14.0309 9.93685 14.0399 9.95495 14.049 9.96852C14.0128 9.90518 14.049 9.95042 14.049 9.97304C14.049 10.0273 14.0535 9.88709 14.049 9.97304C14.049 9.99114 14.049 10.0092 14.049 10.0273C14.049 9.95495 14.049 9.99114 14.049 10.0138C14.0354 10.0907 14.0716 9.96852 14.0399 10.0319C14.0038 10.1088 14.0445 9.99114 14.0354 10.0409C14.0354 10.059 13.9677 10.0907 14.0264 10.0499C14.0219 10.0499 14.0174 10.0545 14.0128 10.059C13.8232 10.154 13.6426 10.2942 13.4619 10.4119C13.0917 10.6516 12.7169 10.8869 12.3466 11.1266C11.4164 11.7238 10.4816 12.3209 9.5514 12.9181C9.00952 13.2664 8.47216 13.6238 7.92577 13.9586C7.92577 13.9586 7.92125 13.9586 7.91673 13.9631C7.89867 13.9722 7.88061 13.9857 7.86255 13.9903C7.93028 13.9586 7.87158 13.9767 7.86255 13.9857C7.89867 13.9586 7.9077 13.9857 7.86255 13.9857C7.79481 13.9631 7.83094 13.9857 7.86255 13.9857C7.84448 13.9812 7.82642 13.9767 7.81287 13.9722C7.87158 13.9903 7.84448 13.9857 7.82191 13.9722C7.74514 13.9314 7.85803 13.9993 7.81739 13.9722C7.79933 13.9586 7.77223 13.9088 7.80836 13.9722C7.79933 13.9586 7.7903 13.9405 7.78127 13.9269C7.7903 13.9586 7.81287 13.9722 7.78127 13.9269C7.7632 13.8364 7.78127 13.9993 7.78127 13.9043C7.77675 13.7233 7.62773 13.5514 7.43808 13.5605C7.25745 13.5695 7.08586 13.7143 7.09489 13.9043C7.11295 14.4698 7.69998 14.8498 8.21928 14.5919C8.27347 14.5648 8.32314 14.5286 8.37281 14.4969C8.63472 14.3295 8.89663 14.1622 9.15402 13.9948C10.0752 13.4021 11.0009 12.814 11.9221 12.2214C12.6762 11.7419 13.4258 11.2578 14.1799 10.7783C14.2431 10.7376 14.3064 10.6969 14.3696 10.6561C14.6586 10.4661 14.8211 10.1223 14.7218 9.77851C14.627 9.45279 14.347 9.30803 14.0896 9.14065C13.2994 8.63397 12.5046 8.12729 11.7144 7.62062C10.8113 7.04156 9.90813 6.4625 9.005 5.88345C8.77471 5.73868 8.54892 5.58939 8.31863 5.44463C8.16509 5.3451 7.98447 5.28177 7.79933 5.30439C7.39292 5.34963 7.10392 5.67535 7.09489 6.0825C7.08134 6.72037 7.09489 7.35823 7.09489 7.9961V13.9088C7.09489 14.0898 7.25294 14.2617 7.43808 14.2526C7.62322 14.2436 7.78127 14.0988 7.78127 13.9088L7.77223 13.9133Z" fill="white"/>
<path d="M19.2956 9.99595C19.2956 10.2538 19.2865 10.5117 19.264 10.7695C19.2549 10.8962 19.2414 11.0229 19.2278 11.1495C19.2278 11.1767 19.2233 11.2038 19.2188 11.2264C19.2188 11.2445 19.2052 11.3124 19.2188 11.2445C19.2098 11.3169 19.1962 11.3893 19.1872 11.4617C19.1104 11.9503 18.993 12.4298 18.8395 12.8958C18.7672 13.1265 18.6814 13.3481 18.5911 13.5743C18.5911 13.5834 18.5505 13.6739 18.5776 13.606C18.564 13.6332 18.555 13.6603 18.5414 13.692C18.5189 13.7463 18.4918 13.8051 18.4647 13.8593C18.415 13.9679 18.3608 14.081 18.3066 14.1896C18.0899 14.6239 17.837 15.0356 17.557 15.4337C17.4938 15.5241 17.4261 15.6146 17.3583 15.7006C17.4035 15.6418 17.3448 15.7187 17.3403 15.7277C17.3222 15.7503 17.3042 15.773 17.2861 15.8001C17.25 15.8453 17.2093 15.8951 17.1732 15.9403C17.0197 16.1258 16.8571 16.3068 16.69 16.4787C16.523 16.6506 16.3514 16.818 16.1707 16.9808C16.0895 17.0532 16.0037 17.1256 15.9224 17.198C15.8772 17.2387 15.8275 17.2749 15.7824 17.3111C15.7598 17.3292 15.7372 17.3473 15.7101 17.3654C15.6966 17.3789 15.6785 17.388 15.6605 17.4016C15.6921 17.3789 15.6921 17.3789 15.6605 17.4016C15.2812 17.6866 14.8883 17.9489 14.4729 18.1751C14.2606 18.2928 14.0439 18.4013 13.8226 18.5009C13.7684 18.528 13.7097 18.5506 13.6555 18.5732C13.6555 18.5732 13.5652 18.6094 13.6104 18.5913C13.6555 18.5732 13.5652 18.6094 13.5652 18.6094C13.4433 18.6592 13.3169 18.709 13.1949 18.7542C12.7388 18.9216 12.2737 19.0528 11.7951 19.1478C11.6732 19.1704 11.5467 19.193 11.4248 19.2156C11.3751 19.2247 11.3209 19.2292 11.2713 19.2383C11.1674 19.2518 11.3435 19.2292 11.2397 19.2428C11.199 19.2473 11.1539 19.2518 11.1132 19.2563C10.8603 19.2835 10.603 19.3061 10.3501 19.3152C9.84884 19.3333 9.34309 19.3152 8.84637 19.2518C8.81476 19.2518 8.78315 19.2428 8.75154 19.2383C8.64768 19.2247 8.82379 19.2473 8.71993 19.2337C8.65671 19.2247 8.59349 19.2156 8.53479 19.2066C8.41287 19.1885 8.28643 19.1659 8.16451 19.1387C7.92066 19.089 7.68133 19.0302 7.442 18.9623C7.20719 18.8944 6.97238 18.8175 6.74208 18.7316C6.63822 18.6909 6.53436 18.6501 6.4305 18.6094C6.42147 18.6094 6.33116 18.5687 6.39889 18.5959C6.3718 18.5823 6.3447 18.5732 6.31309 18.5597C6.25891 18.537 6.2002 18.5099 6.14602 18.4828C5.708 18.2792 5.27901 18.0439 4.87712 17.777C4.78681 17.7182 4.69198 17.6549 4.60167 17.5916C4.55199 17.5554 4.50232 17.5192 4.45717 17.4875C4.43459 17.4694 4.40749 17.4513 4.38492 17.4332C4.37588 17.4242 4.27654 17.3473 4.33524 17.397C4.1501 17.2523 3.96948 17.103 3.79337 16.9446C3.44115 16.628 3.11151 16.2796 2.80444 15.9132C2.76832 15.868 2.72768 15.8182 2.69155 15.773C2.67349 15.7503 2.65543 15.7277 2.63736 15.7006C2.59672 15.6508 2.62833 15.6915 2.63736 15.7006C2.55608 15.5965 2.47932 15.4925 2.40707 15.3839C2.26708 15.1848 2.13613 14.9813 2.0142 14.7732C1.8968 14.5741 1.78391 14.3705 1.68005 14.1624C1.62586 14.0539 1.57167 13.9453 1.522 13.8322C1.49942 13.787 1.48136 13.7417 1.45878 13.692C1.44523 13.6648 1.4362 13.6377 1.42266 13.606C1.45427 13.6784 1.40459 13.5608 1.40008 13.5472C1.21494 13.0903 1.06592 12.6198 0.948514 12.1403C0.894326 11.905 0.84917 11.6698 0.808529 11.4345C0.799498 11.3712 0.790466 11.3079 0.781435 11.2491C0.790466 11.3305 0.781435 11.2264 0.781435 11.2174C0.781435 11.1857 0.772404 11.1541 0.767888 11.1224C0.754341 10.9957 0.740794 10.8691 0.731763 10.7424C0.691122 10.2267 0.695638 9.71094 0.736279 9.19975C0.74531 9.08212 0.758857 8.96903 0.772404 8.85141C0.772404 8.81974 0.781435 8.78807 0.785951 8.7564C0.799498 8.65235 0.776919 8.82879 0.790466 8.72474C0.799498 8.6614 0.808529 8.59807 0.81756 8.53926C0.858201 8.29044 0.907873 8.04615 0.966576 7.80186C1.08398 7.32233 1.23751 6.85185 1.42266 6.39493C1.45878 6.29993 1.39556 6.45827 1.4362 6.36327C1.44523 6.34517 1.45427 6.32708 1.45878 6.30898C1.48136 6.25469 1.50845 6.19588 1.53555 6.1416C1.58973 6.02397 1.64844 5.90183 1.70714 5.78421C1.811 5.57611 1.92389 5.37254 2.04581 5.17348C2.17225 4.96539 2.30321 4.76633 2.44319 4.56728C2.47932 4.51752 2.51544 4.46776 2.55157 4.42252C2.56963 4.3999 2.58769 4.37276 2.60575 4.35014C2.60575 4.35014 2.66446 4.27323 2.63285 4.31395C2.60124 4.35466 2.66446 4.27323 2.65994 4.27775C2.678 4.25513 2.69607 4.23252 2.71413 4.20537C2.75929 4.15109 2.80444 4.0968 2.8496 4.04251C3.15215 3.6806 3.48179 3.34131 3.83401 3.02916C3.92432 2.94773 4.01463 2.87083 4.10946 2.79392C4.1501 2.75773 4.19526 2.72606 4.2359 2.68987C4.25396 2.6763 4.27654 2.6582 4.2946 2.64463C4.30815 2.63106 4.32621 2.62201 4.34427 2.60844C4.31267 2.63106 4.31267 2.63106 4.34427 2.60844C4.53845 2.46368 4.73262 2.32344 4.93582 2.19224C5.3332 1.93438 5.75315 1.70366 6.18214 1.50461C6.23633 1.47747 6.29503 1.45485 6.34922 1.43223C6.35825 1.43223 6.44856 1.39151 6.38083 1.41866C6.40792 1.40509 6.43502 1.39604 6.46663 1.38247C6.57952 1.33723 6.69241 1.29199 6.80981 1.25127C7.04011 1.16532 7.27493 1.09294 7.51425 1.02508C7.75358 0.957221 7.99743 0.902935 8.24127 0.853172C8.35416 0.830552 8.46705 0.812457 8.57995 0.794361C8.64316 0.785314 8.70638 0.776266 8.76509 0.767218C8.6838 0.776266 8.78766 0.767218 8.7967 0.767218C8.83282 0.762694 8.86895 0.75817 8.90507 0.753646C9.41082 0.694836 9.92109 0.67674 10.4268 0.69936C10.6797 0.708408 10.9371 0.731027 11.19 0.762694C11.2216 0.762694 11.2532 0.771742 11.2848 0.776266C11.2171 0.767218 11.2848 0.776266 11.3029 0.776266C11.3616 0.785314 11.4158 0.794361 11.4745 0.803409C11.6099 0.826029 11.7409 0.848648 11.8764 0.875791C12.3505 0.975317 12.8156 1.10651 13.2717 1.27389C13.3846 1.31461 13.502 1.35985 13.6149 1.40961C13.6284 1.41413 13.6736 1.43675 13.6149 1.40961C13.642 1.42318 13.6691 1.43223 13.7007 1.4458C13.7639 1.47294 13.8316 1.50461 13.8949 1.53176C14.1161 1.6358 14.3329 1.74438 14.5451 1.862C14.7483 1.9751 14.947 2.09724 15.1412 2.22391C15.2405 2.29177 15.3399 2.35963 15.4392 2.42748C15.4889 2.46368 15.5385 2.49987 15.5837 2.53606C15.6018 2.54963 15.6153 2.55868 15.6334 2.57225C15.6424 2.5813 15.7418 2.6582 15.683 2.60844C16.0624 2.90249 16.4191 3.22821 16.7533 3.57655C16.9158 3.74846 17.0739 3.92489 17.2229 4.10585C17.259 4.14656 17.2906 4.1918 17.3267 4.23252C17.3448 4.25514 17.3629 4.27775 17.3809 4.3049C17.4441 4.3818 17.3403 4.25061 17.399 4.33204C17.4712 4.42704 17.5435 4.52657 17.6112 4.62609C17.8912 5.0242 18.1396 5.44039 18.3563 5.87469C18.406 5.97421 18.4557 6.07374 18.5008 6.17779C18.5279 6.23207 18.5505 6.29088 18.5731 6.34517C18.5731 6.35422 18.6137 6.4447 18.5866 6.37684C18.6002 6.41303 18.6182 6.45374 18.6318 6.48994C18.7176 6.70708 18.7988 6.92875 18.8711 7.15495C19.0246 7.62996 19.1375 8.11401 19.2143 8.60711C19.2188 8.63878 19.2233 8.67045 19.2278 8.70212C19.2278 8.71117 19.2414 8.81521 19.2323 8.73378C19.2414 8.78807 19.2459 8.83783 19.2504 8.89212C19.264 9.01879 19.2775 9.14546 19.2865 9.27213C19.3046 9.51642 19.3136 9.76523 19.3136 10.014C19.3136 10.195 19.4717 10.3669 19.6568 10.3579C19.842 10.3488 20 10.204 20 10.014C20 7.95568 19.3588 5.91088 18.1666 4.23252C16.9881 2.57677 15.3308 1.30556 13.4207 0.599834C11.4609 -0.119464 9.27084 -0.191846 7.26589 0.382688C5.3332 0.934602 3.58113 2.08367 2.30321 3.63536C0.980123 5.21872 0.185371 7.18661 0.0273232 9.25403C-0.126209 11.3124 0.370512 13.4024 1.4362 15.1668C2.47028 16.8768 4.02366 18.2747 5.84798 19.1025C7.77616 19.9756 9.93915 20.2199 12.0118 19.7992C13.9897 19.3966 15.8275 18.3697 17.2184 16.9084C18.6137 15.4427 19.562 13.5517 19.8645 11.5476C19.9413 11.0319 19.9865 10.5117 19.9865 9.99142C19.9865 9.81047 19.8284 9.63856 19.6433 9.64761C19.4581 9.65666 19.3001 9.80142 19.3001 9.99142L19.2956 9.99595Z" fill="white"/>
</svg>
