<svg width="11" height="14" viewBox="0 0 11 14" fill="none" xmlns="http://www.w3.org/2000/svg">
<path d="M10.7692 1.53846H7.69231V0.769231C7.69231 0.34359 7.34872 0 6.92308 0H3.84615C3.42051 0 3.07692 0.34359 3.07692 0.769231V1.53846H0V2.05128H0.769231L1.81539 13.3333H8.95898L10.0051 2.05128H10.7744V1.53846H10.7692ZM3.58974 0.769231C3.58974 0.625641 3.70257 0.512821 3.84615 0.512821H6.92308C7.06667 0.512821 7.17949 0.625641 7.17949 0.769231V1.53846H3.58974V0.769231ZM8.48718 12.8205H2.28205L1.28205 2.05128H9.48718L8.48718 12.8205Z" fill="white"/>
<path d="M7.53705 5.53803L7.60776 5.46732L7.53705 5.39661L7.27039 5.12994L7.19967 5.05923L7.12896 5.12994L5.33301 6.9259L3.53705 5.12994L3.46634 5.05923L3.39563 5.12994L3.12896 5.39661L3.05825 5.46732L3.12896 5.53803L4.92492 7.33398L3.12896 9.12994L3.05825 9.20065L3.12896 9.27136L3.39563 9.53803L3.46634 9.60874L3.53705 9.53803L5.33301 7.74207L7.12896 9.53803L7.19967 9.60874L7.27038 9.53803L7.53705 9.27136L7.60776 9.20065L7.53705 9.12994L5.7411 7.33398L7.53705 5.53803Z" fill="white" stroke="white" stroke-width="0.2"/>
</svg>
