<svg width="18" height="18" viewBox="0 0 18 18" fill="none" xmlns="http://www.w3.org/2000/svg">
<path d="M0.964645 13.829L0.95 13.8436V13.8644V17.6667V17.7167H1H4.80155H4.82226L4.8369 17.702L17.4969 5.04239C17.7899 4.74979 17.7899 4.2734 17.497 3.98046L14.6862 1.16972C14.3933 0.876774 13.9169 0.876738 13.6243 1.16974L0.964645 13.829ZM1.78926 16.8774V14.1919L1.97547 14.0054L4.66057 16.6916L4.47476 16.8774H1.78926ZM5.25471 16.0978L2.56882 13.412L11.8125 4.16832L14.4983 6.85344L5.25471 16.0978ZM15.0917 6.26007L12.4058 3.57494L14.1551 1.82534L16.8406 4.51159L15.0917 6.26007Z" fill="white" stroke="white" stroke-width="0.1"/>
</svg>
