<svg width="18" height="15" viewBox="0 0 18 15" fill="none" xmlns="http://www.w3.org/2000/svg">
<path d="M6.55711 8.48812L4.53258 10.5127C4.4385 10.6067 4.34442 10.7008 4.25035 10.7949C4.367 10.7798 4.48366 10.7648 4.59655 10.7497C4.03961 10.4449 3.52407 10.0912 3.06498 9.69231C2.82414 9.48534 2.59459 9.26332 2.37633 9.03377C2.2672 8.91711 2.16184 8.80046 2.06024 8.68004C2.01508 8.62359 1.96992 8.57091 1.92476 8.51446C1.89842 8.48436 1.87208 8.45049 1.8495 8.41662C1.83821 8.40533 1.83069 8.39404 1.8194 8.37899C1.80811 8.36394 1.80811 8.36394 1.8194 8.37899C1.81187 8.37147 1.80811 8.36394 1.80058 8.35641C1.58609 8.07042 1.38288 7.77314 1.20225 7.46456V7.75432C1.59738 7.08073 2.01132 6.54637 2.56072 5.9932C2.8279 5.72602 3.11013 5.47766 3.40365 5.24435C3.47139 5.1879 3.38108 5.26316 3.42247 5.2293C3.44128 5.21424 3.4601 5.20296 3.47892 5.1879C3.51655 5.16156 3.55418 5.13146 3.58804 5.10512C3.67083 5.04491 3.75362 4.98846 3.83641 4.92825C3.99069 4.82288 4.14498 4.72504 4.30303 4.63097C4.99167 4.22079 5.6314 3.94232 6.3953 3.71654C6.77161 3.60741 7.1592 3.5171 7.5468 3.45689C7.59572 3.44936 7.64088 3.44184 7.6898 3.43431C7.70861 3.43431 7.72743 3.43055 7.74625 3.42678C7.84032 3.41173 7.6898 3.43431 7.78764 3.42302C7.88924 3.41173 7.99085 3.40044 8.09245 3.38915C8.29565 3.37034 8.4951 3.35905 8.6983 3.35152C9.78207 3.31765 10.8282 3.46441 11.8593 3.79933C11.8179 3.63752 11.7765 3.47947 11.7313 3.31765L10.6852 4.36379L9.85733 5.19167L8.93161 6.11738L7.46401 7.58498C7.17049 7.8785 6.86568 8.16826 6.57593 8.47307C6.57216 8.47683 6.5684 8.4806 6.56088 8.48812C6.45175 8.59725 6.45175 8.7854 6.56088 8.89453C6.67 9.00366 6.85816 9.00366 6.96729 8.89453C7.21189 8.64993 7.45649 8.40533 7.70109 8.16073C8.18652 7.6753 8.67196 7.18986 9.1574 6.70442L10.2111 5.65076L10.9035 4.95836C11.3061 4.55571 11.7125 4.16058 12.1114 3.75041C12.1189 3.74288 12.1265 3.73536 12.1378 3.72407C12.2958 3.56602 12.213 3.31013 12.0098 3.24239C10.2412 2.6704 8.31071 2.61772 6.51572 3.08811C4.96157 3.49452 3.51655 4.29229 2.34999 5.39487C1.70651 6.00073 1.14957 6.70066 0.705528 7.4608C0.652845 7.54735 0.652845 7.66401 0.705528 7.75056C1.37912 8.89453 2.28978 9.88046 3.36602 10.6519C3.67083 10.8701 3.98693 11.0696 4.31432 11.2465C4.42721 11.3067 4.57021 11.2916 4.66052 11.2013C5.33411 10.5277 6.01147 9.85036 6.68506 9.17676C6.77913 9.08269 6.87321 8.98861 6.96729 8.89453C7.07642 8.7854 7.07642 8.59725 6.96729 8.48812C6.85816 8.37899 6.67 8.37899 6.56088 8.48812H6.55711Z" fill="white"/>
<path d="M13.3909 4.46165C13.9478 4.76646 14.4633 5.12019 14.9224 5.51908C15.1633 5.72605 15.3928 5.94807 15.6111 6.17761C15.7202 6.29427 15.8256 6.41093 15.9272 6.53134C15.9723 6.58779 16.0175 6.64047 16.0627 6.69692C16.089 6.72702 16.1153 6.76089 16.1379 6.79476C16.1492 6.80605 16.1567 6.81734 16.168 6.83239C16.1793 6.84744 16.1793 6.84744 16.168 6.83239C16.1755 6.83992 16.1793 6.84744 16.1868 6.85497C16.4013 7.14096 16.6045 7.43825 16.7852 7.74682V7.45706C16.39 8.13065 15.9761 8.66501 15.4267 9.21818C15.1595 9.48536 14.8773 9.73372 14.5838 9.96703C14.516 10.0235 14.6063 9.94822 14.5649 9.98209C14.5461 9.99714 14.5273 10.0084 14.5085 10.0235C14.4709 10.0498 14.4332 10.0799 14.3994 10.1063C14.3166 10.1665 14.2338 10.2229 14.151 10.2831C13.9967 10.3885 13.8424 10.4863 13.6844 10.5804C12.9957 10.9906 12.356 11.2691 11.5921 11.4948C11.2158 11.604 10.8282 11.6943 10.4406 11.7545C10.3917 11.762 10.3465 11.7695 10.2976 11.7771C10.2788 11.7771 10.26 11.7808 10.2412 11.7846C10.1471 11.7997 10.2976 11.7771 10.1998 11.7884C10.0982 11.7997 9.99657 11.8109 9.89497 11.8222C9.69176 11.841 9.49232 11.8523 9.28911 11.8599C8.20535 11.8937 7.15921 11.747 6.12813 11.4121C5.98513 11.3669 5.80827 11.4647 5.7744 11.6115C5.73677 11.7695 5.82332 11.9163 5.97384 11.9652C7.74249 12.5372 9.67295 12.5899 11.4679 12.1195C13.0221 11.7131 14.4671 10.9153 15.6337 9.81275C16.2771 9.20689 16.8341 8.50696 17.2781 7.74682C17.3308 7.66027 17.3308 7.54361 17.2781 7.45706C16.6045 6.31309 15.6939 5.32716 14.6176 4.55573C14.3128 4.33747 13.9967 4.13803 13.6693 3.96116C13.5339 3.8859 13.357 3.9273 13.278 4.06277C13.2027 4.19447 13.2441 4.37886 13.3796 4.45413L13.3909 4.46165Z" fill="white"/>
<path d="M9.87566 5.16911L8.7505 6.29427L6.97056 8.0742L6.56039 8.48438L7.01196 8.54082C6.97056 8.45051 6.94046 8.37525 6.90659 8.26988C6.87272 8.15699 6.84262 8.04034 6.8238 7.92368C6.81251 7.85595 6.80499 7.73176 6.80122 7.63769C6.80122 7.53608 6.80122 7.43448 6.81628 7.33664C6.81628 7.31783 6.82004 7.30277 6.8238 7.28396C6.81628 7.35169 6.82756 7.26514 6.82756 7.25762C6.83509 7.21999 6.84262 7.18235 6.85014 7.14096C6.86896 7.05441 6.8953 6.9641 6.92164 6.88131C6.93669 6.83991 6.95175 6.80228 6.9668 6.76089C6.97056 6.7496 6.98561 6.70821 6.9668 6.76089C6.97809 6.73831 6.98561 6.71573 6.9969 6.69315C7.03453 6.61789 7.07217 6.54263 7.11732 6.47113C7.16248 6.39963 7.20764 6.3319 7.25656 6.26416C7.22645 6.30556 7.25279 6.27169 7.25656 6.26416C7.27161 6.24535 7.28666 6.22653 7.30548 6.20772C7.33558 6.17385 7.36568 6.13998 7.39955 6.10611C7.456 6.04967 7.51245 5.99322 7.57265 5.94054C7.60276 5.9142 7.63663 5.88786 7.67049 5.86151C7.62534 5.89538 7.67049 5.86151 7.68178 5.85399C7.70436 5.83894 7.7307 5.82012 7.75328 5.80507C7.82102 5.75991 7.88875 5.71852 7.95649 5.68089C7.99036 5.66207 8.02422 5.64702 8.05809 5.6282C8.08067 5.61691 8.10325 5.60563 8.12583 5.59434C8.18227 5.56799 8.0882 5.60939 8.15217 5.58305C8.31398 5.52284 8.47579 5.47392 8.64889 5.44381C8.65642 5.44381 8.74297 5.42876 8.67524 5.44005C8.70158 5.44005 8.72792 5.43252 8.75426 5.43252C8.80318 5.42876 8.8521 5.425 8.90102 5.42123C9.0252 5.41747 9.14938 5.42123 9.27356 5.43629C9.47301 5.45887 9.75148 5.54165 9.93587 5.63197C10.0751 5.6997 10.2444 5.6696 10.3272 5.53036C10.3987 5.40618 10.3649 5.20298 10.2256 5.139C9.37893 4.73635 8.37795 4.75893 7.56889 5.24813C6.88401 5.66207 6.38729 6.37706 6.2631 7.17483C6.17655 7.75058 6.2631 8.32633 6.51147 8.85316C6.59425 9.0225 6.83885 9.03379 6.96304 8.90961C7.33934 8.5333 7.71565 8.15699 8.0882 7.78445C8.68276 7.18988 9.27356 6.59908 9.86813 6.00451C10.0036 5.86904 10.1428 5.72981 10.2783 5.59434C10.3874 5.48521 10.3874 5.29705 10.2783 5.18792C10.1692 5.07879 9.98102 5.07879 9.87189 5.18792L9.87566 5.16911Z" fill="white"/>
<path d="M10.9786 6.66672C11.02 6.75703 11.0501 6.83229 11.084 6.93766C11.1178 7.05055 11.1479 7.16721 11.1668 7.28386C11.1781 7.3516 11.1856 7.47578 11.1893 7.56986C11.1893 7.67146 11.1893 7.77306 11.1743 7.8709C11.1743 7.88972 11.1705 7.90477 11.1668 7.92359C11.1743 7.85585 11.163 7.9424 11.163 7.94993C11.1555 7.98756 11.1479 8.02519 11.1404 8.06658C11.1216 8.15313 11.0953 8.24345 11.0689 8.32624C11.0539 8.36763 11.0388 8.40526 11.0238 8.44665C11.005 8.49934 11.02 8.45794 11.0238 8.44665C11.0125 8.46923 11.005 8.49181 10.9937 8.51439C10.956 8.58965 10.9184 8.66491 10.8732 8.73641C10.8281 8.80791 10.7829 8.87565 10.734 8.94338C10.7378 8.93585 10.7641 8.90199 10.734 8.94338C10.719 8.9622 10.7039 8.98101 10.6851 8.99983C10.655 9.0337 10.6249 9.06756 10.591 9.10143C10.5346 9.15788 10.4781 9.21432 10.4179 9.26701C10.3878 9.29335 10.3539 9.31969 10.3201 9.34603C10.3652 9.31216 10.3201 9.34603 10.3088 9.35356C10.2862 9.36861 10.2599 9.38742 10.2373 9.40248C10.1695 9.44763 10.1018 9.48903 10.0341 9.52666C10.0002 9.54547 9.96634 9.56053 9.93248 9.57934C9.9099 9.59063 9.88732 9.60192 9.86474 9.61321C9.80829 9.63955 9.90237 9.59816 9.8384 9.6245C9.67659 9.68471 9.51477 9.73363 9.34167 9.76373C9.33415 9.76373 9.2476 9.77878 9.31533 9.76749C9.28899 9.76749 9.26265 9.77502 9.23631 9.77502C9.18739 9.77878 9.13847 9.78255 9.08955 9.78631C8.96536 9.79007 8.84118 9.78631 8.717 9.77126C8.51756 9.74868 8.23909 9.66589 8.0547 9.57558C7.91547 9.50784 7.74613 9.53795 7.66334 9.67718C7.59184 9.80136 7.62571 10.0046 7.76494 10.0685C8.61164 10.4712 9.61261 10.4486 10.4217 9.95941C11.1066 9.54547 11.6033 8.83049 11.7275 8.03272C11.814 7.45697 11.7275 6.88122 11.4791 6.35438C11.4114 6.21515 11.2119 6.17752 11.0877 6.25278C10.9447 6.33557 10.9184 6.50491 10.9861 6.64414L10.9786 6.66672Z" fill="white"/>
<path d="M1.22068 14.6369C1.60451 14.2531 1.98835 13.8693 2.37218 13.4854L4.21985 11.6378C4.48327 11.3744 4.74292 11.1147 5.00634 10.8513C5.59714 10.2605 6.18418 9.67344 6.77498 9.08264C7.04592 8.8117 7.32063 8.53699 7.59157 8.26605C8.22 7.63762 8.8522 7.00542 9.48063 6.37698L10.3875 5.47008C10.9369 4.92067 11.4864 4.37127 12.0358 3.82186C12.382 3.47565 12.7282 3.12945 13.0744 2.78325C13.6388 2.21879 14.2033 1.65432 14.764 1.09363C14.7979 1.05976 14.8355 1.02213 14.8694 0.988259C14.9785 0.87913 14.9785 0.690976 14.8694 0.581847C14.7602 0.472718 14.5721 0.472718 14.4629 0.581847C14.0227 1.02213 13.5862 1.45864 13.1459 1.89892C12.6717 2.37307 12.2013 2.84346 11.7272 3.3176L10.316 4.72876L9.44677 5.59803L7.60662 7.43817L6.54167 8.50312L5.00634 10.0385L4.08815 10.9566L2.43992 12.6049L0.90082 14.144L0.814269 14.2305C0.70514 14.3397 0.70514 14.5278 0.814269 14.6369C0.923398 14.7461 1.11155 14.7461 1.22068 14.6369Z" fill="white"/>
</svg>
