<svg width="19" height="10" viewBox="0 0 19 10" fill="none" xmlns="http://www.w3.org/2000/svg">
<path d="M18.2483 4.68967C18.0738 4.95308 17.8823 5.20897 17.678 5.45734C17.6312 5.51378 17.5844 5.56647 17.5375 5.62291C17.5673 5.58528 17.5375 5.62291 17.5333 5.63044C17.5205 5.64549 17.5078 5.66054 17.495 5.67183C17.4609 5.70946 17.4311 5.74333 17.3971 5.7772C17.2907 5.89385 17.18 6.00675 17.0651 6.11964C16.831 6.34542 16.5884 6.56368 16.3288 6.77065C16.2054 6.86849 16.0819 6.96633 15.95 7.05664C15.8862 7.1018 15.8223 7.15072 15.7542 7.19588C15.7031 7.22975 15.7329 7.21093 15.7457 7.2034C15.7287 7.21469 15.7116 7.22598 15.6946 7.23727C15.6521 7.26361 15.6095 7.29372 15.5712 7.32006C15.0136 7.68132 14.4135 7.99741 13.7879 8.2533C13.7112 8.28341 13.6346 8.31727 13.558 8.34738C13.5495 8.34738 13.4389 8.39254 13.4899 8.37372C13.4431 8.39254 13.392 8.41135 13.341 8.4264C13.1792 8.48285 13.0132 8.5393 12.8472 8.58822C12.511 8.68982 12.1705 8.77637 11.8258 8.85163C11.6513 8.88926 11.4768 8.91937 11.298 8.94947C11.2129 8.96452 11.1235 8.97581 11.0384 8.9871C10.9958 8.99463 10.9533 8.99839 10.9064 9.00592C10.8852 9.00592 10.8639 9.00968 10.8426 9.01344C10.7362 9.0285 10.9064 9.00592 10.7958 9.01721C10.4297 9.0586 10.0637 9.08118 9.69343 9.09247C9.32314 9.1 8.9486 9.09247 8.57831 9.06613C8.39529 9.05484 8.21228 9.03602 8.03352 9.01721C7.97819 9.00968 8.07608 9.02097 8.02075 9.01721C7.99947 9.01721 7.97819 9.01344 7.95691 9.00968C7.91435 9.00592 7.87178 8.99839 7.82497 8.99087C7.73133 8.97958 7.64195 8.96452 7.54832 8.94947C6.84605 8.83658 6.15229 8.65971 5.48833 8.42264C5.45002 8.40759 5.41172 8.39254 5.36916 8.38125C5.31808 8.36243 5.40746 8.3963 5.36065 8.37748C5.33936 8.36996 5.32234 8.36243 5.30106 8.35491C5.22019 8.3248 5.13507 8.29093 5.0542 8.25707C4.89247 8.18933 4.73073 8.11783 4.57325 8.04633C4.26681 7.90334 3.96888 7.74529 3.68371 7.57595C3.539 7.49316 3.39855 7.40285 3.26235 7.31253C3.2283 7.28996 3.19425 7.26738 3.16021 7.2448C3.14318 7.23351 3.12616 7.22222 3.10913 7.21093C3.06657 7.18083 3.14318 7.23351 3.10062 7.2034C3.03252 7.15448 2.96017 7.10556 2.89207 7.05664C2.62818 6.86473 2.37281 6.66152 2.13021 6.44703C1.88335 6.22877 1.65352 6.00298 1.4322 5.76591C1.24493 5.5627 1.0534 5.32939 0.861874 5.0735C0.768239 4.94556 0.678859 4.81761 0.593736 4.68967V4.97943C0.768238 4.71601 0.959766 4.46012 1.16406 4.21176C1.21088 4.15531 1.2577 4.10263 1.30452 4.04618C1.27472 4.08381 1.30452 4.04618 1.30877 4.03866C1.32154 4.0236 1.33431 4.00855 1.34708 3.99726C1.38113 3.95963 1.41092 3.92576 1.44497 3.8919C1.55137 3.77524 1.66203 3.66235 1.77695 3.54946C2.01104 3.32367 2.25364 3.10541 2.51327 2.89844C2.6367 2.8006 2.76013 2.70276 2.89207 2.61245C2.95591 2.56729 3.01975 2.51837 3.08785 2.47322C3.13892 2.43935 3.10913 2.45816 3.09636 2.46569C3.11339 2.4544 3.13041 2.44311 3.14744 2.43182C3.19 2.40548 3.23256 2.37538 3.27087 2.34904C3.82842 1.98778 4.42854 1.67168 5.0542 1.41579C5.13081 1.38569 5.20742 1.35182 5.28403 1.32172C5.29255 1.32172 5.40321 1.27656 5.35213 1.29537C5.39895 1.27656 5.45002 1.25774 5.5011 1.24269C5.66283 1.18624 5.82882 1.1298 5.99481 1.08088C6.33105 0.979275 6.67154 0.892725 7.01629 0.817463C7.1908 0.779832 7.3653 0.749728 7.54406 0.719623C7.62918 0.704571 7.71856 0.693281 7.80369 0.681992C7.84625 0.674466 7.88881 0.670703 7.93563 0.663177C7.95691 0.663177 7.97819 0.659414 7.99947 0.655651C8.10587 0.640598 7.93563 0.663177 8.04629 0.651888C8.41232 0.610494 8.77835 0.587915 9.14864 0.576626C9.51892 0.5691 9.89346 0.576626 10.2638 0.602968C10.4468 0.614257 10.6298 0.633072 10.8085 0.651888C10.8639 0.659414 10.766 0.648125 10.8213 0.651888C10.8426 0.651888 10.8639 0.655651 10.8852 0.659414C10.9277 0.663177 10.9703 0.670703 11.0171 0.678229C11.1107 0.689518 11.2001 0.704571 11.2937 0.719623C11.996 0.832515 12.6898 1.00938 13.3537 1.24645C13.392 1.26151 13.4303 1.27656 13.4729 1.28785C13.524 1.30666 13.4346 1.2728 13.4814 1.29161C13.5027 1.29914 13.5197 1.30666 13.541 1.31419C13.6219 1.34429 13.707 1.37816 13.7879 1.41203C13.9496 1.47976 14.1113 1.55126 14.2688 1.62276C14.5753 1.76576 14.8732 1.92381 15.1583 2.09315C15.3031 2.17593 15.4435 2.26625 15.5797 2.35656C15.6138 2.37914 15.6478 2.40172 15.6819 2.4243C15.6989 2.43559 15.7159 2.44688 15.7329 2.45816C15.7755 2.48827 15.6989 2.43559 15.7414 2.46569C15.8095 2.51461 15.8819 2.56353 15.95 2.61245C16.2139 2.80437 16.4692 3.00757 16.7118 3.22207C16.9587 3.44033 17.1885 3.66611 17.4099 3.90319C17.5971 4.10639 17.7887 4.3397 17.9802 4.59559C18.0738 4.72354 18.1632 4.85148 18.2483 4.97943C18.3377 5.1149 18.542 5.16005 18.691 5.08103C18.8442 5.002 18.8953 4.82138 18.8059 4.68967C18.0738 3.58709 17.0864 2.63127 15.9245 1.87112C14.754 1.10722 13.3963 0.554048 11.979 0.260528C10.4766 -0.0518076 8.91029 -0.0819122 7.39509 0.162688C5.95651 0.395998 4.56474 0.888962 3.34748 1.60771C2.14724 2.31517 1.11299 3.22583 0.321341 4.29078C0.223449 4.42249 0.134069 4.5542 0.0446898 4.68591C-0.0148966 4.77246 -0.0148966 4.88911 0.0446898 4.97566C0.776751 6.07824 1.76418 7.03407 2.92612 7.79421C4.09656 8.55811 5.45428 9.11128 6.87158 9.4048C8.37401 9.71714 9.94028 9.74724 11.4555 9.50264C12.8941 9.26933 14.2858 8.77637 15.5031 8.05762C16.7033 7.35016 17.7376 6.4395 18.5292 5.37455C18.6271 5.24284 18.7165 5.11113 18.8059 4.97943C18.8953 4.84395 18.8399 4.66333 18.691 4.58807C18.5377 4.50904 18.3377 4.55796 18.2483 4.68967Z" fill="white"/>
<path d="M11.9102 4.83262C11.9102 4.89659 11.9102 4.9568 11.9017 5.02077C11.9017 5.05088 11.8975 5.08098 11.8932 5.11485C11.8932 5.12614 11.8932 5.14119 11.889 5.15248C11.8932 5.11109 11.889 5.14496 11.889 5.16753C11.8677 5.28795 11.8336 5.40461 11.7911 5.52126C11.7698 5.57771 11.7485 5.63416 11.723 5.6906C11.7102 5.72071 11.723 5.68308 11.7272 5.67931C11.7187 5.69437 11.7102 5.70942 11.7017 5.72447C11.6847 5.75457 11.6676 5.78468 11.6506 5.81478C11.591 5.92015 11.5229 6.02175 11.4463 6.11583C11.4335 6.13088 11.425 6.14217 11.4123 6.15722C11.4123 6.15722 11.3825 6.19485 11.4038 6.16851C11.425 6.14217 11.3952 6.17604 11.3952 6.1798C11.3825 6.19109 11.3697 6.20614 11.3612 6.21743C11.3144 6.26635 11.2676 6.31151 11.2207 6.35667C11.1782 6.3943 11.1356 6.43193 11.0888 6.46956C11.0633 6.48837 11.0377 6.50719 11.0122 6.52601C10.9994 6.53353 10.9909 6.54106 10.9781 6.54858C10.9781 6.54858 10.9143 6.59374 10.9441 6.57116C10.9739 6.55235 10.9356 6.57869 10.9313 6.57869C10.9143 6.58998 10.9015 6.5975 10.8845 6.60879C10.859 6.62385 10.8292 6.64266 10.8036 6.65771C10.744 6.69158 10.6845 6.72545 10.6206 6.75555C10.5653 6.78189 10.51 6.80824 10.4546 6.83081C10.4376 6.83834 10.3567 6.86845 10.4121 6.84963C10.378 6.86092 10.3397 6.87597 10.3057 6.88726C10.178 6.92865 10.046 6.96252 9.91409 6.9851C9.88004 6.99263 9.846 6.99639 9.81195 7.00015C9.80343 7.00015 9.73959 7.01144 9.78215 7.00392C9.82046 7.00015 9.76938 7.00392 9.76513 7.00392C9.68852 7.01144 9.61616 7.0152 9.53955 7.01897C9.39484 7.02273 9.24588 7.01897 9.10117 7.00392C9.03732 6.99639 9.13096 7.00768 9.07137 7.00015C9.03732 6.99639 9.00327 6.98886 8.96922 6.9851C8.89687 6.97381 8.82451 6.95876 8.75642 6.93994C8.69257 6.92489 8.62873 6.90608 8.56489 6.8835C8.53935 6.87597 8.50956 6.86468 8.48402 6.85716C8.42444 6.83834 8.47125 6.85339 8.48402 6.85716C8.467 6.84963 8.44997 6.8421 8.43295 6.83458C8.30952 6.78189 8.18609 6.72545 8.07117 6.65771C8.04138 6.64266 8.01584 6.62385 7.99031 6.60879C7.97754 6.60127 7.90944 6.55611 7.93072 6.57116C7.952 6.58621 7.8839 6.53729 7.87539 6.52977C7.8456 6.50719 7.8158 6.48461 7.79027 6.4658C7.69237 6.38677 7.59874 6.30398 7.51361 6.21367C7.5051 6.20238 7.44977 6.14217 7.4668 6.16475C7.48382 6.18733 7.43275 6.12336 7.42424 6.11207C7.38593 6.06315 7.34762 6.01423 7.31357 5.96531C7.27953 5.91639 7.24548 5.8637 7.21568 5.81102C7.19866 5.78468 7.18589 5.75834 7.17312 5.732C7.16887 5.72071 7.16035 5.70942 7.1561 5.69813C7.11779 5.62663 7.16887 5.72823 7.14758 5.68308C7.09651 5.57018 7.05395 5.45729 7.02416 5.34064C7.00713 5.28043 6.99436 5.22022 6.98159 5.16377C6.98159 5.15248 6.97734 5.13743 6.97308 5.12614C6.97308 5.13367 6.98159 5.17882 6.97308 5.12614C6.96882 5.09227 6.96457 5.05464 6.96031 5.02077C6.9518 4.89659 6.9518 4.76865 6.96031 4.64447C6.96031 4.61436 6.96457 4.58426 6.96883 4.55039C6.96883 4.54286 6.97734 4.48642 6.96883 4.52405C6.96457 4.55792 6.96883 4.51276 6.96883 4.509C6.98159 4.44502 6.99436 4.38105 7.01139 4.31708C7.04544 4.20042 7.088 4.08753 7.13482 3.97464C7.11353 4.01227 7.15184 3.93325 7.13482 3.97464C7.13907 3.96335 7.14758 3.95206 7.15184 3.94077C7.16461 3.91443 7.18163 3.88809 7.1944 3.86175C7.22845 3.8053 7.2625 3.74885 7.29655 3.69617C7.3306 3.64725 7.3689 3.59833 7.40721 3.54941C7.42423 3.5306 7.44126 3.50802 7.45828 3.4892C7.41998 3.53436 7.48382 3.46286 7.49659 3.44781C7.58597 3.35373 7.67961 3.26718 7.78175 3.18816C7.82857 3.15053 7.87539 3.11666 7.92221 3.08279C7.87113 3.11666 7.94774 3.06774 7.96051 3.06021C7.99031 3.0414 8.02436 3.02258 8.05415 3.00377C8.16906 2.93603 8.29249 2.87582 8.41592 2.8269C8.42869 2.82314 8.44146 2.81561 8.45423 2.81185C8.40741 2.8269 8.50105 2.79303 8.45423 2.81185C8.48402 2.80056 8.51807 2.78927 8.54786 2.77798C8.61171 2.75917 8.67555 2.74035 8.73939 2.72154C8.80323 2.70648 8.87133 2.69143 8.93943 2.68014C8.97348 2.67261 9.00753 2.66885 9.04158 2.66509C9.05435 2.66509 9.07137 2.66133 9.08414 2.65756C9.03732 2.66509 9.07563 2.65756 9.10117 2.65756C9.24162 2.64251 9.38207 2.63875 9.52253 2.64251C9.59063 2.64251 9.66298 2.65004 9.73108 2.65756C9.74385 2.65756 9.76087 2.65756 9.77364 2.66133C9.7098 2.6538 9.76513 2.66133 9.77364 2.66133C9.81195 2.66885 9.85025 2.67261 9.88856 2.68014C10.0205 2.70272 10.1524 2.73659 10.2801 2.77798C10.3099 2.78927 10.344 2.80056 10.3738 2.81185C10.4078 2.82314 10.3652 2.81185 10.361 2.80809C10.378 2.81561 10.395 2.82314 10.4121 2.83066C10.4759 2.85701 10.5398 2.88711 10.6036 2.91721C10.6589 2.94356 10.71 2.97366 10.7611 3C10.7909 3.01505 10.8164 3.03387 10.8419 3.04892C10.859 3.06021 10.8717 3.06774 10.8888 3.07903C10.893 3.07903 10.9398 3.11289 10.9143 3.09408C10.893 3.07903 10.9569 3.12418 10.9696 3.13547C10.9952 3.15429 11.0207 3.1731 11.0462 3.19192C11.0973 3.23331 11.1484 3.27847 11.1995 3.32363C11.242 3.36126 11.2846 3.40265 11.3229 3.44405C11.3442 3.46662 11.3654 3.4892 11.3867 3.51178C11.3484 3.46662 11.408 3.54189 11.4208 3.55317C11.5016 3.65101 11.5697 3.75638 11.6336 3.86551C11.6506 3.89185 11.6634 3.91819 11.6761 3.94453C11.6847 3.95959 11.7102 4.01603 11.6889 3.97088C11.7145 4.03109 11.74 4.09129 11.7655 4.1515C11.8081 4.27192 11.8421 4.39234 11.8634 4.51652C11.8762 4.57297 11.8634 4.48642 11.8677 4.54286C11.8677 4.57297 11.8762 4.60307 11.8762 4.63694C11.8804 4.70468 11.8847 4.77241 11.8847 4.83638C11.8847 4.98691 12.0337 5.1299 12.2082 5.12238C12.3827 5.11485 12.5359 4.99443 12.5316 4.83638C12.5231 3.67359 11.6889 2.63122 10.4589 2.23234C9.25013 1.83721 7.81155 2.18341 6.99436 3.06774C6.57726 3.51931 6.3304 4.05743 6.27507 4.6407C6.224 5.20517 6.38147 5.78468 6.71346 6.26635C7.3987 7.26733 8.73939 7.77911 10.0375 7.54956C11.2803 7.3313 12.2975 6.39806 12.4891 5.28795C12.5146 5.13743 12.5316 4.99067 12.5316 4.84015C12.5316 4.68962 12.3827 4.54663 12.2082 4.55415C12.0294 4.56168 11.8847 4.6821 11.8847 4.84015L11.9102 4.83262Z" fill="white"/>
</svg>
