<svg width="176" height="24" viewBox="0 0 176 24" fill="none" xmlns="http://www.w3.org/2000/svg">
<g clip-path="url(#clip0_6664_314367)">
<path d="M52.2996 11.9039C52.2996 18.4319 46.9632 23.7546 40.4183 23.7546C33.8735 23.7546 28.5371 18.4319 28.5371 11.9039C28.5371 5.37589 33.8682 0.0532227 40.413 0.0532227C46.9578 0.0532227 52.2942 5.37589 52.2942 11.9039H52.2996ZM33.2479 11.9039C33.2479 15.8559 36.4562 19.0559 40.4183 19.0559C44.3805 19.0559 47.5888 15.8559 47.5888 11.9039C47.5888 7.95189 44.3805 4.75189 40.4183 4.75189C36.4562 4.75189 33.2479 7.95189 33.2479 11.9039Z" fill="white"/>
<path d="M76.8055 0.0161133V4.76278H70.2072V23.7974H65.4429V4.76278H58.8125V0.0161133H76.8055Z" fill="white"/>
<path d="M131.255 23.7974L117.855 9.92011V23.7974H113.091V0.0161133H114.588L127.753 13.3121V0.0161133H132.517V23.7974H131.26H131.255Z" fill="white"/>
<path d="M147.687 0.0161133H142.923V23.7974H147.687V0.0161133Z" fill="white"/>
<path d="M11.0685 23.7974L0 0.0161133H5.41126L11.801 13.5201L18.1587 0.0161133H23.57L12.5336 23.7974H11.0685Z" fill="white"/>
<path d="M95.0923 0.0161133L106.161 23.7974H100.75L94.3598 10.2934L88.0021 23.7974H82.5908L93.6272 0.0161133H95.0923Z" fill="white"/>
<path d="M160.622 11.92C160.622 5.45067 167.846 2.85867 172.241 6.13867L175.235 2.75733C173.139 1.05067 170.444 0 167.514 0C160.857 0 155.43 5.35467 155.43 11.92C155.43 18.4853 160.857 23.8133 167.514 23.8133C170.444 23.8133 173.139 22.7627 175.235 21.0613L172.241 17.6853C167.846 20.96 160.622 18.3733 160.622 11.92Z" fill="white"/>
</g>
<defs>
<clipPath id="clip0_6664_314367">
<rect width="175.385" height="24" fill="white"/>
</clipPath>
</defs>
</svg>
