<svg width="21" height="18" viewBox="0 0 21 18" fill="none" xmlns="http://www.w3.org/2000/svg">
<path d="M10.6627 0.911096C10.5583 0.86903 10.4417 0.86903 10.3372 0.911096L5.11525 3.0098L10.5 5.17357L15.8847 3.0098L10.6627 0.911096ZM16.625 3.65955L10.9375 5.94553V12.9107L16.625 10.6248V3.65955ZM10.0625 12.9116V5.94465L4.375 3.65955V10.6256L10.0625 12.9116ZM10.0126 0.0942973C10.3255 -0.0314324 10.6745 -0.0314324 10.9874 0.0942973L17.2253 2.60184C17.3064 2.6345 17.3759 2.69081 17.4248 2.76352C17.4738 2.83623 17.5 2.92201 17.5 3.0098V10.6256C17.4999 10.8013 17.4474 10.973 17.3493 11.1184C17.2512 11.2638 17.112 11.3764 16.9496 11.4416L10.6627 13.9685C10.5583 14.0105 10.4417 14.0105 10.3372 13.9685L4.05125 11.4416C3.88872 11.3765 3.74932 11.264 3.65106 11.1186C3.5528 10.9731 3.50018 10.8014 3.5 10.6256V3.0098C3.50002 2.92201 3.5262 2.83623 3.57517 2.76352C3.62414 2.69081 3.69365 2.6345 3.77475 2.60184L10.0126 0.0942973Z" fill="white"/>
<path fill-rule="evenodd" clip-rule="evenodd" d="M3.34032 10.8499C3.54263 11.0378 3.55426 11.3542 3.36631 11.5565C1.89073 13.1447 1 15.2249 1 17.5C1 17.7761 0.776142 18 0.5 18C0.223858 18 0 17.7761 0 17.5C0 14.9564 0.997449 12.637 2.63369 10.8758C2.82165 10.6735 3.13802 10.6619 3.34032 10.8499ZM17.8005 10.9894C18.0066 10.8056 18.3227 10.8237 18.5064 11.0298C20.0594 12.7712 21 15.03 21 17.5C21 17.7761 20.7761 18 20.5 18C20.2239 18 20 17.7761 20 17.5C20 15.2905 19.1599 13.265 17.7601 11.6954C17.5763 11.4893 17.5944 11.1732 17.8005 10.9894Z" fill="white"/>
<path d="M7 16.5C5.36085 16.6821 3 15.5 2.5 12C1 14.5 0.5 17.5 0.5 18H11.5C11.5 17.8333 11.5 16 7 16.5Z" fill="white"/>
<path d="M15.5 15C16.7 15 16.6057 14.9473 17.5001 14.5C18.5001 13.9999 19.0001 15 18.5001 16.5C18.0001 18 15 17.5 14 17C13 16.5 14 15 15.5 15Z" fill="white"/>
</svg>
