<svg width="20" height="20" viewBox="0 0 20 20" fill="none" xmlns="http://www.w3.org/2000/svg">
<path d="M0.832031 19.1663H19.1654V0.833008H0.832031V19.1663ZM1.59592 1.5969H18.4015V18.4025H1.59592V1.5969Z" fill="white"/>
<path d="M14.6992 4.76736L11.2617 8.20486L11.7964 8.73958L15.2339 5.30208L16.8763 6.94444V3.125H13.0569L14.6992 4.76736Z" fill="white"/>
<path d="M3.12326 9.23535H2.35938V9.99924H3.12326V9.23535Z" fill="white"/>
<path d="M4.65451 9.23535H3.89062V9.99924H4.65451V9.23535Z" fill="white"/>
<path d="M6.17795 9.23535H5.41406V9.99924H6.17795V9.23535Z" fill="white"/>
<path d="M7.7092 9.23535H6.94531V9.99924H7.7092V9.23535Z" fill="white"/>
<path d="M9.23654 9.23535H8.47266V9.99924H9.23654V9.23535Z" fill="white"/>
<path d="M10.7639 9.23535H10V9.99924H10.7639V9.23535Z" fill="white"/>
<path d="M10.7639 10.7637H10V11.5276H10.7639V10.7637Z" fill="white"/>
<path d="M10.7639 12.291H10V13.0549H10.7639V12.291Z" fill="white"/>
<path d="M10.7639 13.8193H10V14.5832H10.7639V13.8193Z" fill="white"/>
<path d="M10.7639 15.3467H10V16.1106H10.7639V15.3467Z" fill="white"/>
<path d="M10.7639 16.875H10V17.6389H10.7639V16.875Z" fill="white"/>
</svg>
