<svg width="31" height="24" viewBox="0 0 31 24" fill="none" xmlns="http://www.w3.org/2000/svg">
<path d="M27.7328 7.55923C26.0144 5.76642 23.5948 4.74728 21.1139 4.73984C20.4128 4.73798 19.7117 4.73984 19.0105 4.73984H2.45872L5.88439 1.11146C6.1336 0.847371 6.12244 0.428926 5.85835 0.179719C5.59427 -0.0694882 5.17582 -0.0583297 4.92662 0.205756L0.468782 4.92767C0.219574 5.19176 0.230733 5.61021 0.494818 5.85941L0.974635 6.31133L5.21674 10.3154C5.48082 10.5646 5.89927 10.5534 6.14848 10.2894C6.39768 10.0253 6.38652 9.60682 6.12244 9.35761L2.49406 5.9338H20.8815C20.954 5.9338 21.0284 5.9338 21.1009 5.9338C21.2441 5.9338 21.3873 5.93752 21.5305 5.9431C21.6681 5.95054 21.8076 5.95984 21.9452 5.97286C22.0178 5.9803 22.0903 5.98774 22.1628 5.99703C22.1684 5.99703 22.1721 5.99703 22.1758 5.99703C22.2261 6.00447 22.2763 6.01191 22.3283 6.01935C22.903 6.11234 23.4665 6.26298 24.0114 6.47127C24.0784 6.49731 24.1435 6.52335 24.2086 6.54938C24.2086 6.54938 24.2086 6.54938 24.2104 6.54938C24.2346 6.56054 24.2588 6.56984 24.2848 6.581C24.4299 6.64423 24.5712 6.71304 24.7126 6.78557C24.9618 6.91203 25.2035 7.05338 25.4397 7.20402C25.5569 7.27841 25.6722 7.35652 25.7856 7.43834C25.8414 7.47926 25.8972 7.52017 25.9549 7.56109C25.9604 7.56481 25.9735 7.57411 25.9828 7.58341C26.0088 7.60386 26.0348 7.62432 26.059 7.64478C26.2822 7.82517 26.4979 8.01487 26.7006 8.21572C26.8996 8.411 27.0875 8.61557 27.266 8.82758C27.3106 8.88152 27.3553 8.93545 27.398 8.98938C27.4129 9.00798 27.4278 9.02658 27.4408 9.04517C27.4483 9.05633 27.4594 9.06935 27.4631 9.07493C27.5505 9.19395 27.6379 9.31484 27.7198 9.43758C27.8797 9.67749 28.0285 9.92484 28.1661 10.1778C28.2331 10.3024 28.2963 10.427 28.3558 10.5534C28.3819 10.6092 28.4079 10.665 28.4321 10.7208C28.4469 10.7524 28.46 10.7859 28.4748 10.8175C28.4767 10.8212 28.4767 10.8231 28.4786 10.8268C28.4804 10.8324 28.4823 10.838 28.486 10.8473C28.7017 11.3978 28.8728 11.9594 28.977 12.5415C28.99 12.6122 29.0011 12.6847 29.0123 12.7554C29.0179 12.787 29.0216 12.8205 29.0272 12.8521C29.0272 12.8577 29.0272 12.8614 29.0272 12.867C29.0439 13.012 29.0588 13.159 29.07 13.3059C29.0904 13.5941 29.096 13.8824 29.0886 14.1707C29.0848 14.3194 29.0755 14.4664 29.0644 14.6151C29.0588 14.6877 29.0514 14.7621 29.0439 14.8346C29.0421 14.8569 29.0253 14.9797 29.0235 15.0038C28.9826 15.2809 28.9305 15.5543 28.8635 15.8258C28.791 16.1197 28.7017 16.4098 28.5994 16.6943C28.579 16.752 28.5567 16.8097 28.5344 16.8673C28.5213 16.9008 28.5083 16.9324 28.4953 16.9659C28.4934 16.9733 28.4823 16.9975 28.4748 17.0161C28.4674 17.0347 28.4562 17.0589 28.4525 17.0663C28.4376 17.0979 28.4246 17.1314 28.4097 17.163C28.3763 17.2355 28.3428 17.3062 28.3093 17.3769C28.1829 17.6372 28.0434 17.8902 27.8909 18.1338C27.8221 18.2454 27.7495 18.3551 27.677 18.463C27.6379 18.5206 27.597 18.5783 27.5561 18.6341C27.5357 18.662 27.5152 18.6899 27.4947 18.7178C27.491 18.7233 27.4613 18.7624 27.4445 18.7847C27.1023 19.2218 26.7174 19.6253 26.2971 19.988C26.1985 20.0735 26.0981 20.1554 25.9958 20.2372C25.9939 20.2372 25.9921 20.239 25.9902 20.2409C25.9623 20.2614 25.9363 20.2818 25.9084 20.3023C25.8377 20.3543 25.767 20.4046 25.6964 20.4548C25.4676 20.6147 25.2296 20.7616 24.9859 20.8993C24.733 21.0406 24.4726 21.1671 24.2086 21.2842C24.2086 21.2842 24.2067 21.2842 24.2048 21.2842C24.1714 21.2972 24.1398 21.3103 24.1063 21.3233C24.0486 21.3456 23.991 21.3679 23.9333 21.3902C23.7827 21.446 23.632 21.4962 23.4795 21.5446C23.2062 21.6283 22.9272 21.699 22.6464 21.7566C22.505 21.7845 22.3618 21.8087 22.2186 21.831C22.2112 21.831 22.1963 21.8347 22.1833 21.8366C22.1573 21.8403 22.1312 21.8422 22.1052 21.8459C22.0233 21.8552 21.9415 21.8645 21.8597 21.87C21.3873 21.911 20.9112 21.9017 20.437 21.9017H13.6991C13.3866 21.9017 13.0872 22.1769 13.1021 22.4986C13.117 22.8222 13.3643 23.0956 13.6991 23.0956H17.1266C18.4377 23.0956 19.7489 23.0956 21.0581 23.0956C23.3289 23.0956 25.5197 22.2699 27.2214 20.7635C29.0793 19.1176 30.1877 16.726 30.2825 14.2506C30.3774 11.7809 29.4363 9.33529 27.7272 7.55365L27.7328 7.55923ZM22.1963 6.00261C22.2447 6.00819 22.2223 6.00633 22.1963 6.00261ZM29.0328 12.8391C29.029 12.813 29.0272 12.7889 29.0328 12.8391ZM25.9958 20.2483C25.9753 20.2651 25.9233 20.306 25.9958 20.2483Z" fill="white"/>
</svg>
