<svg width="12" height="8" viewBox="0 0 12 8" fill="none" xmlns="http://www.w3.org/2000/svg">
<path d="M1.12054 7.11637L6.00384 2.23307L10.8808 7.11637L11.334 6.66315L6.00384 1.33301L0.667317 6.66315L1.12054 7.11637Z" fill="white"/>
<path fill-rule="evenodd" clip-rule="evenodd" d="M1.11984 7.58834L0.19507 6.66357L6.00328 0.862304L11.8047 6.66371L10.8799 7.58849L6.00299 2.70519L1.11984 7.58834ZM6.00311 2.23366L10.8798 7.11669L11.3333 6.66371L6.00341 1.33383L0.666615 6.66371L1.11984 7.11693L6.00311 2.23366Z" fill="white"/>
<path fill-rule="evenodd" clip-rule="evenodd" d="M1.11984 7.58834L0.19507 6.66357L6.00328 0.862304L11.8047 6.66371L10.8799 7.58849L6.00299 2.70519L1.11984 7.58834ZM6.00311 2.23366L10.8798 7.11669L11.3333 6.66371L6.00341 1.33383L0.666615 6.66371L1.11984 7.11693L6.00311 2.23366Z" fill="white"/>
</svg>
