<svg width="22" height="22" viewBox="0 0 22 22" fill="none" xmlns="http://www.w3.org/2000/svg">
<path d="M19.8057 19.7831C19.7126 19.8762 19.655 19.925 19.584 19.9738C19.4865 20.0403 19.3845 20.098 19.2825 20.1512C19.2692 20.1556 19.2072 20.1867 19.2604 20.16C19.2382 20.1689 19.2116 20.1778 19.1894 20.1867C19.1407 20.2044 19.0919 20.2221 19.0387 20.2354C18.9855 20.2532 18.9278 20.2665 18.8702 20.2753C18.848 20.2753 18.8303 20.2842 18.8081 20.2887C18.7682 20.2931 18.7682 20.2931 18.8081 20.2887C18.7948 20.2887 18.7771 20.2886 18.7638 20.2931C18.6574 20.302 18.5465 20.3064 18.4401 20.302C18.3869 20.302 18.3382 20.2931 18.285 20.2887C18.347 20.2975 18.2983 20.2887 18.285 20.2887C18.245 20.2798 18.2051 20.2753 18.1652 20.2665C18.0633 20.2443 17.9657 20.2088 17.8682 20.1733C17.8061 20.1512 17.8504 20.1645 17.8637 20.1733C17.8371 20.16 17.8061 20.1467 17.7795 20.1334C17.7219 20.1068 17.6687 20.0758 17.611 20.0403C17.4692 19.9516 17.4204 19.9117 17.2962 19.7875C17.2874 19.7787 17.2785 19.7698 17.2652 19.7565C17.212 19.7033 17.1588 19.6501 17.1056 19.5968C16.5425 19.0336 15.9794 18.4705 15.4119 17.9028C14.5518 17.0425 13.6872 16.1777 12.8271 15.3174C12.0201 14.5103 11.2088 13.6988 10.4018 12.8917C9.99392 12.4837 9.59046 12.0624 9.16925 11.6589C9.16482 11.6544 9.15595 11.6456 9.15152 11.6411C9.07171 11.5613 8.92983 11.5081 8.82342 11.5524C8.43769 11.7076 8.03422 11.8229 7.62189 11.8895C7.59529 11.8939 7.56425 11.8983 7.53765 11.9028C7.52878 11.9028 7.47114 11.9116 7.52878 11.9028C7.48445 11.9072 7.44011 11.9116 7.39577 11.9205C7.2938 11.9294 7.19625 11.9382 7.09428 11.9427C6.90363 11.9515 6.71298 11.9515 6.52233 11.9427C6.31838 11.9294 6.1632 11.9116 6.00802 11.8895C5.81294 11.8584 5.62229 11.8141 5.43164 11.7609C5.24542 11.7076 5.06364 11.6456 4.88186 11.5746C4.85526 11.5657 4.82866 11.5524 4.80205 11.5436C4.81536 11.548 4.85082 11.5657 4.78875 11.5391C4.74885 11.5214 4.70451 11.5036 4.66461 11.4815C4.5715 11.4371 4.47839 11.3928 4.38972 11.3396C4.2168 11.2464 4.04832 11.14 3.88428 11.0291C3.71136 10.9094 3.61382 10.834 3.44977 10.6877C3.29016 10.5502 3.13941 10.3994 2.99754 10.2442C2.93103 10.1688 2.86452 10.0934 2.79802 10.0136C2.73151 9.93379 2.71821 9.91162 2.64727 9.81405C2.52756 9.64997 2.42115 9.47702 2.31918 9.29964C2.27484 9.21981 2.2305 9.13556 2.1906 9.05573C2.16843 9.01582 2.1507 8.97147 2.13296 8.93156C2.1241 8.90939 2.11523 8.89165 2.10636 8.86948C2.10636 8.86948 2.06202 8.77192 2.08419 8.82513C1.93345 8.46593 1.8226 8.08898 1.75166 7.70317C1.7428 7.65439 1.73393 7.60117 1.72506 7.55239C1.72506 7.53022 1.7162 7.50805 1.7162 7.48587C1.72506 7.54796 1.7162 7.45483 1.71176 7.44153C1.69846 7.33066 1.68959 7.2198 1.68073 7.1045C1.66742 6.89163 1.66742 6.67877 1.68073 6.46591C1.68516 6.35948 1.69846 6.25305 1.70733 6.14662C1.70733 6.13331 1.72063 6.05792 1.70733 6.12001C1.70733 6.0934 1.7162 6.06236 1.72063 6.03575C1.7295 5.98697 1.73836 5.93375 1.74723 5.88497C1.78713 5.66324 1.84477 5.44151 1.91128 5.22865C1.72063 5.27743 1.53441 5.32621 1.34376 5.37942C2.09749 6.13331 2.85122 6.8872 3.60495 7.64109C3.769 7.80517 3.93305 7.96925 4.10153 8.13776C4.20794 8.2442 4.30991 8.3595 4.48283 8.34619C5.006 8.30628 5.52918 8.22202 6.04793 8.1555C6.57997 8.09342 7.11201 8.0269 7.64406 7.96481C7.84358 7.94264 7.95885 7.82734 7.98102 7.62778C8.10516 6.60338 8.22931 5.57455 8.35345 4.55015C8.35345 4.51467 8.36675 4.47476 8.36675 4.43928C8.36675 4.31511 8.29581 4.23086 8.22044 4.15103L7.81697 3.74748C7.34257 3.27298 6.87259 2.80291 6.39819 2.3284C6.06566 1.9958 5.73757 1.66764 5.40504 1.33504C5.35627 1.52573 5.3075 1.71199 5.25429 1.90268C5.44494 1.84503 5.63559 1.79181 5.83067 1.75633C5.91935 1.73859 6.00802 1.72086 6.0967 1.70755C6.11 1.70755 6.18537 1.69425 6.1233 1.70755C6.14547 1.70755 6.16764 1.70312 6.1898 1.69868C6.23857 1.69425 6.29178 1.68981 6.34055 1.68538C6.72628 1.6499 7.11645 1.65877 7.50218 1.70755C7.57312 1.71642 7.52878 1.70755 7.51105 1.70755C7.53322 1.70755 7.55538 1.71199 7.57755 1.71642C7.62189 1.72529 7.66623 1.72972 7.71056 1.73859C7.81254 1.75633 7.91008 1.77851 8.00762 1.80068C8.19827 1.84503 8.38892 1.90268 8.57957 1.96919C8.78352 2.04015 8.87663 2.08006 9.06728 2.17319C9.24906 2.26188 9.42641 2.35944 9.59489 2.47031C10.2422 2.88273 10.8142 3.46366 11.2176 4.11999C11.324 4.29294 11.4171 4.47033 11.5058 4.65215C11.5236 4.69206 11.5457 4.7364 11.5635 4.77632C11.5635 4.78075 11.5901 4.83397 11.5679 4.78962C11.5768 4.81179 11.5856 4.83397 11.5945 4.8517C11.6344 4.94483 11.6699 5.04239 11.7009 5.13995C11.763 5.32177 11.8162 5.50803 11.8561 5.69428C11.8782 5.78741 11.896 5.88054 11.9137 5.9781C11.9226 6.02245 11.927 6.06679 11.9359 6.11114C11.9448 6.17322 11.927 6.03132 11.9359 6.13775C11.9359 6.16435 11.9403 6.1954 11.9448 6.222C11.9891 6.65216 11.9891 7.08676 11.9315 7.51692C11.9315 7.50361 11.9403 7.45927 11.9315 7.52579C11.927 7.56126 11.9226 7.5923 11.9137 7.62778C11.9049 7.67656 11.896 7.72978 11.8871 7.77856C11.8649 7.88499 11.8428 7.98699 11.8162 8.09342C11.7541 8.33732 11.6743 8.57679 11.5768 8.81183C11.5324 8.91826 11.5856 9.0646 11.6654 9.13999C12.0024 9.47702 12.3438 9.81849 12.6807 10.1555L15.0262 12.5014L17.6509 15.1267L19.4998 16.976C19.6062 17.0824 19.7082 17.1844 19.8146 17.2908C19.9476 17.4239 19.9875 17.4771 20.085 17.6323C20.1116 17.6767 20.1382 17.7254 20.1604 17.7698C20.1737 17.792 20.1826 17.8186 20.1959 17.8407C20.2225 17.894 20.1693 17.7698 20.2047 17.8629C20.2446 17.9693 20.2801 18.0802 20.3023 18.1911C20.3067 18.2221 20.3156 18.2532 20.32 18.2842C20.3289 18.3507 20.32 18.2975 20.32 18.2842C20.3245 18.3374 20.3289 18.3862 20.3333 18.4394C20.3378 18.5547 20.3333 18.6656 20.3245 18.7809C20.3156 18.8829 20.3378 18.7144 20.32 18.8119C20.32 18.8341 20.3112 18.8518 20.3067 18.874C20.2979 18.9228 20.2846 18.976 20.2713 19.0248C20.258 19.0736 20.2402 19.1268 20.2225 19.1756C20.2136 19.2066 20.2003 19.2332 20.187 19.2643C20.2136 19.2022 20.1737 19.2953 20.1693 19.2997C20.1249 19.3973 20.0717 19.486 20.0097 19.5747C19.9919 19.6013 19.9742 19.6279 19.952 19.6545C19.9875 19.6102 19.9432 19.6634 19.9343 19.6767C19.8944 19.721 19.8545 19.7654 19.8101 19.8097C19.6816 19.9383 19.6816 20.16 19.8101 20.2887C19.9387 20.4173 20.1604 20.4173 20.289 20.2887C21.0117 19.5569 21.1979 18.4571 20.7811 17.5214C20.6348 17.1933 20.3998 16.9272 20.1471 16.6744C19.5973 16.1245 19.052 15.5791 18.5022 15.0292C17.6332 14.16 16.7686 13.2952 15.8996 12.4261C15.0749 11.6012 14.2503 10.7764 13.4256 9.95153C13.1419 9.66771 12.8625 9.38833 12.5788 9.10451C12.4413 8.96704 12.3083 8.8207 12.1664 8.69209C12.162 8.68766 12.1531 8.67879 12.1487 8.67435C12.1797 8.78522 12.2063 8.89165 12.2374 9.00252C12.8847 7.40605 12.7739 5.55681 11.9536 4.0446C11.129 2.51909 9.60376 1.406 7.89678 1.09557C6.96127 0.927057 5.99029 0.980273 5.08138 1.26409C4.84196 1.33948 4.74885 1.64547 4.93063 1.83172C5.25429 2.15545 5.57795 2.47918 5.90161 2.80291C6.41592 3.31732 6.9258 3.8273 7.44011 4.34172C7.55982 4.46146 7.67953 4.58119 7.7948 4.69649C7.76377 4.61667 7.7283 4.53685 7.69726 4.45702C7.58642 5.38829 7.47114 6.31957 7.3603 7.25084L7.31153 7.64552L7.64849 7.30849C6.71741 7.41935 5.78634 7.53465 4.85082 7.64552C4.71781 7.66326 4.58924 7.67656 4.45623 7.6943C4.53603 7.72534 4.61584 7.76082 4.69565 7.79186C4.37198 7.46814 4.04832 7.14441 3.72466 6.82068C3.21035 6.30626 2.70048 5.79628 2.18617 5.28186L1.83147 4.92709C1.64526 4.74084 1.33933 4.83397 1.26396 5.07787C0.758515 6.69651 0.984634 8.50584 1.89354 9.93822C2.84236 11.4327 4.42519 12.4127 6.18094 12.6167C7.12975 12.7276 8.11403 12.5901 9.00077 12.2309C8.88993 12.1999 8.78352 12.1733 8.67268 12.1422C9.01851 12.4881 9.36877 12.8385 9.7146 13.1844C10.5127 13.9826 11.3107 14.7808 12.1088 15.5791C12.9911 16.4616 13.869 17.3396 14.7513 18.2221C15.3543 18.8252 15.9573 19.4283 16.5602 20.0314C16.6755 20.1467 16.7864 20.2665 16.9105 20.3773C17.6775 21.0558 18.786 21.1933 19.6949 20.7232C19.9121 20.6124 20.1116 20.4572 20.2846 20.2887C20.4131 20.16 20.4131 19.9383 20.2846 19.8097C20.156 19.6811 19.9387 19.6811 19.8057 19.8097V19.7831Z" fill="white"/>
<path d="M18.8081 20.2887C18.8303 20.2842 18.848 20.2753 18.8702 20.2753C18.9278 20.2665 18.9855 20.2532 19.0387 20.2354C19.0919 20.2221 19.1407 20.2044 19.1894 20.1867C19.2116 20.1778 19.2382 20.1689 19.2604 20.16C19.2072 20.1867 19.2692 20.1556 19.2825 20.1512C19.3845 20.098 19.4865 20.0403 19.584 19.9738C19.655 19.925 19.7126 19.8762 19.8057 19.7831V19.8097C19.9387 19.6811 20.156 19.6811 20.2846 19.8097C20.4131 19.9383 20.4131 20.16 20.2846 20.2887C20.1116 20.4572 19.9121 20.6124 19.6949 20.7232C18.786 21.1933 17.6775 21.0558 16.9105 20.3773C16.7864 20.2665 16.6755 20.1467 16.5602 20.0314C15.9573 19.4283 15.3543 18.8252 14.7513 18.2221C13.869 17.3396 12.9911 16.4616 12.1088 15.5791C11.3107 14.7808 10.5127 13.9826 9.7146 13.1844C9.36877 12.8385 9.01851 12.4881 8.67268 12.1422C8.78352 12.1733 8.88993 12.1999 9.00077 12.2309C8.11403 12.5901 7.12975 12.7276 6.18094 12.6167C4.42519 12.4127 2.84236 11.4327 1.89354 9.93822C0.984634 8.50584 0.758515 6.69651 1.26396 5.07787C1.33933 4.83397 1.64526 4.74084 1.83147 4.92709L2.18617 5.28186C2.70048 5.79628 3.21035 6.30626 3.72466 6.82068C4.04832 7.14441 4.37198 7.46814 4.69565 7.79186C4.61584 7.76082 4.53603 7.72534 4.45623 7.6943C4.58924 7.67656 4.71781 7.66326 4.85082 7.64552C5.78634 7.53465 6.71741 7.41935 7.64849 7.30849L7.31153 7.64552L7.3603 7.25084C7.47114 6.31957 7.58642 5.38829 7.69726 4.45702C7.7283 4.53685 7.76377 4.61667 7.7948 4.69649C7.67953 4.58119 7.55982 4.46146 7.44011 4.34172C6.9258 3.8273 6.41592 3.31732 5.90161 2.80291C5.57795 2.47918 5.25429 2.15545 4.93063 1.83172C4.74885 1.64547 4.84196 1.33948 5.08138 1.26409C5.99029 0.980273 6.96127 0.927057 7.89678 1.09557C9.60376 1.406 11.129 2.51909 11.9536 4.0446C12.7739 5.55681 12.8847 7.40605 12.2374 9.00252C12.2063 8.89165 12.1797 8.78522 12.1487 8.67435C12.1531 8.67879 12.162 8.68766 12.1664 8.69209C12.3083 8.8207 12.4413 8.96704 12.5788 9.10451C12.8625 9.38833 13.1419 9.66771 13.4256 9.95153C14.2503 10.7764 15.0749 11.6012 15.8996 12.4261C16.7686 13.2952 17.6332 14.16 18.5022 15.0292C19.052 15.5791 19.5973 16.1245 20.1471 16.6744C20.3998 16.9272 20.6348 17.1933 20.7811 17.5214C21.1979 18.4571 21.0117 19.5569 20.289 20.2887C20.1604 20.4173 19.9387 20.4173 19.8101 20.2887C19.6816 20.16 19.6816 19.9383 19.8101 19.8097C19.8545 19.7654 19.8944 19.721 19.9343 19.6767C19.9432 19.6634 19.9875 19.6102 19.952 19.6545C19.9742 19.6279 19.9919 19.6013 20.0097 19.5747C20.0717 19.486 20.1249 19.3973 20.1693 19.2997C20.1737 19.2953 20.2136 19.2022 20.187 19.2643C20.2003 19.2332 20.2136 19.2066 20.2225 19.1756C20.2402 19.1268 20.258 19.0736 20.2713 19.0248C20.2846 18.976 20.2979 18.9228 20.3067 18.874C20.3112 18.8518 20.32 18.8341 20.32 18.8119C20.3378 18.7144 20.3156 18.8829 20.3245 18.7809C20.3333 18.6656 20.3378 18.5547 20.3333 18.4394C20.3289 18.3862 20.3245 18.3374 20.32 18.2842M18.8081 20.2887C18.7682 20.2931 18.7682 20.2931 18.8081 20.2887ZM18.8081 20.2887C18.7948 20.2887 18.7771 20.2886 18.7638 20.2931C18.6574 20.302 18.5465 20.3064 18.4401 20.302C18.3869 20.302 18.3382 20.2931 18.285 20.2887M18.285 20.2887C18.2983 20.2887 18.347 20.2975 18.285 20.2887ZM18.285 20.2887C18.245 20.2798 18.2051 20.2753 18.1652 20.2665C18.0633 20.2443 17.9657 20.2088 17.8682 20.1733C17.8061 20.1512 17.8504 20.1645 17.8637 20.1733C17.8371 20.16 17.8061 20.1467 17.7795 20.1334C17.7219 20.1068 17.6687 20.0758 17.611 20.0403C17.4692 19.9516 17.4204 19.9117 17.2962 19.7875C17.2874 19.7787 17.2785 19.7698 17.2652 19.7565C17.212 19.7033 17.1588 19.6501 17.1056 19.5968C16.5425 19.0336 15.9794 18.4705 15.4119 17.9028C14.5518 17.0425 13.6872 16.1777 12.8271 15.3174C12.0201 14.5103 11.2088 13.6988 10.4018 12.8917C9.99392 12.4837 9.59046 12.0624 9.16925 11.6589C9.16482 11.6544 9.15595 11.6456 9.15152 11.6411C9.07171 11.5613 8.92983 11.5081 8.82342 11.5524C8.43769 11.7076 8.03422 11.8229 7.62189 11.8895C7.59529 11.8939 7.56425 11.8983 7.53765 11.9028C7.52878 11.9028 7.47114 11.9116 7.52878 11.9028C7.48445 11.9072 7.44011 11.9116 7.39577 11.9205C7.2938 11.9294 7.19625 11.9382 7.09428 11.9427C6.90363 11.9515 6.71298 11.9515 6.52233 11.9427C6.31838 11.9294 6.1632 11.9116 6.00802 11.8895C5.81294 11.8584 5.62229 11.8141 5.43164 11.7609C5.24542 11.7076 5.06364 11.6456 4.88186 11.5746C4.85526 11.5657 4.82866 11.5524 4.80205 11.5436C4.81536 11.548 4.85082 11.5657 4.78875 11.5391C4.74885 11.5214 4.70451 11.5036 4.66461 11.4815C4.5715 11.4371 4.47839 11.3928 4.38972 11.3396C4.2168 11.2464 4.04832 11.14 3.88428 11.0291C3.71136 10.9094 3.61382 10.834 3.44977 10.6877C3.29016 10.5502 3.13941 10.3994 2.99754 10.2442C2.93103 10.1688 2.86452 10.0934 2.79802 10.0136C2.73151 9.93379 2.71821 9.91162 2.64727 9.81405C2.52756 9.64997 2.42115 9.47702 2.31918 9.29964C2.27484 9.21981 2.2305 9.13556 2.1906 9.05573C2.16843 9.01582 2.1507 8.97147 2.13296 8.93156C2.1241 8.90939 2.11523 8.89165 2.10636 8.86948C2.10636 8.86948 2.06202 8.77192 2.08419 8.82513C1.93345 8.46593 1.8226 8.08898 1.75166 7.70317C1.7428 7.65439 1.73393 7.60117 1.72506 7.55239C1.72506 7.53022 1.7162 7.50805 1.7162 7.48587C1.72506 7.54796 1.7162 7.45483 1.71176 7.44153C1.69846 7.33066 1.68959 7.2198 1.68073 7.1045C1.66742 6.89163 1.66742 6.67877 1.68073 6.46591C1.68516 6.35948 1.69846 6.25305 1.70733 6.14662C1.70733 6.13331 1.72063 6.05792 1.70733 6.12001C1.70733 6.0934 1.7162 6.06236 1.72063 6.03575C1.7295 5.98697 1.73836 5.93375 1.74723 5.88497C1.78713 5.66324 1.84477 5.44151 1.91128 5.22865C1.72063 5.27743 1.53441 5.32621 1.34376 5.37942C2.09749 6.13331 2.85122 6.8872 3.60495 7.64109C3.769 7.80517 3.93305 7.96925 4.10153 8.13776C4.20794 8.2442 4.30991 8.3595 4.48283 8.34619C5.006 8.30628 5.52918 8.22202 6.04793 8.1555C6.57997 8.09342 7.11201 8.0269 7.64406 7.96481C7.84358 7.94264 7.95885 7.82734 7.98102 7.62778C8.10516 6.60338 8.22931 5.57455 8.35345 4.55015C8.35345 4.51467 8.36675 4.47476 8.36675 4.43928C8.36675 4.31511 8.29581 4.23086 8.22044 4.15103L7.81697 3.74748C7.34257 3.27298 6.87259 2.80291 6.39819 2.3284C6.06566 1.9958 5.73757 1.66764 5.40504 1.33504C5.35627 1.52573 5.3075 1.71199 5.25429 1.90268C5.44494 1.84503 5.63559 1.79181 5.83067 1.75633C5.91935 1.73859 6.00802 1.72086 6.0967 1.70755C6.11 1.70755 6.18537 1.69425 6.1233 1.70755C6.14547 1.70755 6.16764 1.70312 6.1898 1.69868C6.23857 1.69425 6.29178 1.68981 6.34055 1.68538C6.72628 1.6499 7.11645 1.65877 7.50218 1.70755C7.57312 1.71642 7.52878 1.70755 7.51105 1.70755C7.53322 1.70755 7.55538 1.71199 7.57755 1.71642C7.62189 1.72529 7.66623 1.72972 7.71056 1.73859C7.81254 1.75633 7.91008 1.77851 8.00762 1.80068C8.19827 1.84503 8.38892 1.90268 8.57957 1.96919C8.78352 2.04015 8.87663 2.08006 9.06728 2.17319C9.24906 2.26188 9.42641 2.35944 9.59489 2.47031C10.2422 2.88273 10.8142 3.46366 11.2176 4.11999C11.324 4.29294 11.4171 4.47033 11.5058 4.65215C11.5236 4.69206 11.5457 4.7364 11.5635 4.77632C11.5635 4.78075 11.5901 4.83397 11.5679 4.78962C11.5768 4.81179 11.5856 4.83397 11.5945 4.8517C11.6344 4.94483 11.6699 5.04239 11.7009 5.13995C11.763 5.32177 11.8162 5.50803 11.8561 5.69428C11.8782 5.78741 11.896 5.88054 11.9137 5.9781C11.9226 6.02245 11.927 6.06679 11.9359 6.11114C11.9448 6.17322 11.927 6.03132 11.9359 6.13775C11.9359 6.16435 11.9403 6.1954 11.9448 6.222C11.9891 6.65216 11.9891 7.08676 11.9315 7.51692C11.9315 7.50361 11.9403 7.45927 11.9315 7.52579C11.927 7.56126 11.9226 7.5923 11.9137 7.62778C11.9049 7.67656 11.896 7.72978 11.8871 7.77856C11.8649 7.88499 11.8428 7.98699 11.8162 8.09342C11.7541 8.33732 11.6743 8.57679 11.5768 8.81183C11.5324 8.91826 11.5856 9.0646 11.6654 9.13999C12.0024 9.47702 12.3438 9.81849 12.6807 10.1555L15.0262 12.5014L17.6509 15.1267L19.4998 16.976C19.6062 17.0824 19.7082 17.1844 19.8146 17.2908C19.9476 17.4239 19.9875 17.4771 20.085 17.6323C20.1116 17.6767 20.1382 17.7254 20.1604 17.7698C20.1737 17.792 20.1826 17.8186 20.1959 17.8407C20.2225 17.894 20.1693 17.7698 20.2047 17.8629C20.2446 17.9693 20.2801 18.0802 20.3023 18.1911C20.3067 18.2221 20.3156 18.2532 20.32 18.2842M20.32 18.2842C20.32 18.2975 20.3289 18.3507 20.32 18.2842Z" stroke="white" stroke-width="0.1" stroke-miterlimit="10"/>
</svg>
