<svg width="20" height="17" viewBox="0 0 20 17" fill="none" xmlns="http://www.w3.org/2000/svg">
<path d="M16.1431 0C17.3951 0 18.5734 0.607872 19.2936 1.6254C20.5204 3.35982 20.1085 5.76928 18.3741 6.99604L16.1387 8.57739C15.4856 9.0399 14.7181 9.28327 13.9197 9.28327C12.8923 9.28327 11.8924 8.86701 11.1744 8.14241L10.9772 7.94309L10.7482 8.10497L9.66128 8.87362L9.43223 9.0355L9.55447 9.28767C9.9476 10.0982 10.0434 11.0298 9.82096 11.9108C9.59741 12.8017 9.06112 13.5835 8.31339 14.1132L6.07792 15.6946C5.4249 16.1571 4.65735 16.4015 3.85786 16.4015C2.60578 16.4015 1.42748 15.7937 0.70728 14.7761C0.113723 13.937 -0.117533 12.9162 0.0564598 11.9009C0.230452 10.8855 0.787669 9.99906 1.6268 9.40551L3.86227 7.82416C4.51529 7.36164 5.28284 7.11827 6.08122 7.11827C7.10866 7.11827 8.10857 7.53454 8.82656 8.25914L9.02368 8.45846L9.25273 8.29658L10.3396 7.52793L10.5687 7.36605L10.4465 7.11387C10.0533 6.30337 9.95751 5.37174 10.18 4.49077C10.4035 3.59988 10.9398 2.81802 11.6875 2.28833L13.923 0.706982C14.576 0.24447 15.3436 0 16.1431 0ZM11.258 6.87821L11.6093 6.62933L13.8635 5.03367C13.8988 5.00834 13.9351 5.00283 13.9582 5.00283C14.0133 5.00283 14.0618 5.02816 14.0937 5.07221L14.3117 5.38055C14.3459 5.42901 14.3437 5.47856 14.3393 5.50389C14.3349 5.52922 14.3205 5.57657 14.2721 5.61071L12.0179 7.20637L11.6666 7.45525L11.997 7.73055C12.5333 8.17765 13.2149 8.42322 13.9175 8.42322C14.5386 8.42322 15.1343 8.23381 15.642 7.87481L17.8775 6.29346C18.5294 5.83205 18.9622 5.14379 19.0976 4.35532C19.2331 3.56685 19.0536 2.77397 18.5922 2.12205C18.0327 1.33137 17.1176 0.85895 16.1453 0.85895C15.5242 0.85895 14.9273 1.04836 14.4207 1.40736L12.1853 2.98871C11.0797 3.77057 10.637 5.20436 11.1094 6.47406L11.2592 6.87711M3.86007 15.5437C4.48115 15.5437 5.07801 15.3543 5.58458 14.9953L7.82005 13.4139C8.92567 12.6321 9.36836 11.1983 8.89594 9.92858L8.74617 9.52554L8.39488 9.77441L6.14069 11.3701C6.10545 11.3954 6.06911 11.4009 6.04599 11.4009C5.99092 11.4009 5.94247 11.3756 5.91054 11.3315L5.69249 11.0232C5.63964 10.9483 5.65726 10.8459 5.73214 10.793L7.98633 9.19737L8.33762 8.9485L8.00725 8.67319C7.47096 8.2261 6.78931 7.98053 6.08673 7.98053C5.46564 7.98053 4.86988 8.16994 4.36222 8.52893L2.12675 10.1103C1.47483 10.5717 1.04205 11.26 0.9066 12.0484C0.77115 12.8369 0.950649 13.6298 1.41206 14.2817C1.97148 15.0724 2.88659 15.5448 3.85897 15.5448" fill="white"/>
</svg>
