<svg width="15" height="15" viewBox="0 0 15 15" fill="none" xmlns="http://www.w3.org/2000/svg">
<path d="M7.0272 0C11.1002 0 14.4 3.22344 14.4 7.2C14.4 11.1766 11.0995 14.4 7.0272 14.4C4.72968 14.4 2.60496 13.3654 1.2168 11.6309C1.17789 11.5824 1.14911 11.5267 1.13217 11.4669C1.11523 11.4071 1.11049 11.3445 1.11821 11.2829C1.12593 11.2212 1.14597 11.1617 1.17713 11.108C1.20829 11.0542 1.24994 11.0073 1.2996 10.9699C1.40087 10.8929 1.52815 10.8583 1.65449 10.8735C1.78082 10.8887 1.89628 10.9524 1.9764 11.0513C2.58367 11.806 3.35311 12.4143 4.22761 12.831C5.10211 13.2477 6.05923 13.462 7.02792 13.4582C10.5667 13.4582 13.4359 10.656 13.4359 7.2C13.4359 3.744 10.5667 0.94176 7.02792 0.94176C6.07306 0.938089 5.12929 1.14641 4.2647 1.55168C3.40011 1.95696 2.63625 2.54909 2.02824 3.28536C1.94685 3.38331 1.8305 3.44569 1.70387 3.45927C1.57724 3.47285 1.45031 3.43655 1.35 3.35808C1.30077 3.32009 1.25969 3.27258 1.22919 3.21838C1.1987 3.16418 1.17942 3.1044 1.1725 3.0426C1.16558 2.9808 1.17116 2.91824 1.18892 2.85864C1.20667 2.79904 1.23623 2.74362 1.27584 2.69568C2.66616 1.00368 4.76208 0 7.0272 0ZM7.4196 4.94064L9.36864 6.88968C9.55728 7.07832 9.56088 7.37928 9.37656 7.5636L7.4736 9.468C7.42881 9.51183 7.37582 9.5464 7.31766 9.56972C7.25949 9.59305 7.1973 9.60468 7.13464 9.60394C7.07198 9.60321 7.01007 9.59012 6.95247 9.56544C6.89488 9.54075 6.84271 9.50495 6.79896 9.46008C6.75414 9.41629 6.71839 9.36408 6.69377 9.30646C6.66915 9.24883 6.65613 9.18692 6.65546 9.12425C6.65479 9.06159 6.66649 8.99941 6.68987 8.94128C6.71326 8.88314 6.74788 8.83018 6.79176 8.78544L7.9056 7.67088L0.4824 7.6716C0.419746 7.67236 0.357556 7.66076 0.299389 7.63746C0.241223 7.61417 0.188221 7.57963 0.143415 7.53582C0.0986099 7.49202 0.0628808 7.43982 0.038272 7.38219C0.0136633 7.32457 0.00065794 7.26266 0 7.2C0 6.94008 0.216 6.72912 0.4824 6.72912H7.87536L6.7536 5.60664C6.70878 5.56285 6.67303 5.51064 6.64841 5.45302C6.62379 5.39539 6.61077 5.33348 6.6101 5.27081C6.60943 5.20815 6.62113 5.14597 6.64451 5.08784C6.6679 5.0297 6.70252 4.97674 6.7464 4.932C6.8368 4.84392 6.95844 4.79529 7.08464 4.79678C7.21084 4.79826 7.3313 4.85046 7.4196 4.94064Z" fill="white"/>
</svg>
