<svg width="20" height="20" viewBox="0 0 20 20" fill="none" xmlns="http://www.w3.org/2000/svg">
<path d="M12.9443 11.3479C13.8027 10.1657 14.3072 8.72741 14.3072 7.15361C14.3072 3.2003 11.1069 0 7.15361 0C3.2003 0 0 3.2003 0 7.15361C0 11.1069 3.2003 14.3072 7.15361 14.3072C8.71988 14.3072 10.1657 13.7952 11.3479 12.9443L18.0723 19.6687C18.5166 20.113 19.2319 20.113 19.6687 19.6687C20.1054 19.2244 20.1054 18.509 19.6687 18.0723L12.9443 11.3479ZM7.15361 12.9443C3.61446 12.9443 1.36596 10.5316 1.36596 7C1.36596 3.46837 3.61446 1.23095 7.15361 1.23095C10.6852 1.23095 13.1039 3.62199 13.1039 7.15361C13.1039 10.6852 10.6852 12.9443 7.15361 12.9443Z" fill="white"/>
</svg>
