<svg width="21" height="19" viewBox="0 0 21 19" fill="none" xmlns="http://www.w3.org/2000/svg">
<path d="M9.36959 12.0716C9.21943 11.2184 8.77475 10.4454 8.11705 9.89248L7.89005 9.70157L8.04022 9.44664L8.09958 9.34769L7.5676 9.03223L7.5094 9.13234L7.35807 9.38727L7.08218 9.28017C6.65962 9.11604 6.21494 9.03223 5.75979 9.03223C4.46417 9.03223 3.25121 9.72252 2.5935 10.8331L1.25249 13.0983C0.221114 14.841 0.79966 17.0981 2.54228 18.1295C3.10802 18.4636 3.75176 18.6405 4.40713 18.6405C5.70275 18.6405 6.91572 17.9502 7.57342 16.8397L8.91444 14.5744C9.36028 13.8224 9.52092 12.933 9.36959 12.0716ZM8.25673 14.1856L6.91572 16.4509C6.39538 17.3309 5.43501 17.8769 4.40946 17.8769C3.89028 17.8769 3.37925 17.7372 2.93225 17.4718C2.26407 17.0772 1.79029 16.4439 1.59705 15.6907C1.40382 14.9376 1.51557 14.1553 1.91019 13.4871L3.25121 11.2219C3.77155 10.343 4.73308 9.79586 5.75863 9.79586C6.02404 9.79586 6.28712 9.83195 6.54205 9.90412L6.97974 10.0275L6.74809 10.4186L5.39543 12.7026C5.37215 12.7421 5.37681 12.7806 5.38263 12.7992C5.38729 12.8178 5.40125 12.8539 5.44083 12.8772L5.75281 13.0623C5.77376 13.0739 5.79471 13.0797 5.81799 13.0797C5.86339 13.0797 5.90414 13.0564 5.92742 13.0169L7.28007 10.7329L7.51173 10.3418L7.82952 10.6666C8.75147 11.606 8.92724 13.0529 8.25673 14.1856Z" fill="white"/>
<path d="M16.444 4.41211H16.3742L13.7422 4.461C12.8692 4.4773 12.0275 4.80673 11.3733 5.38877C10.7273 5.96499 10.3024 6.74958 10.1778 7.59935L10.1347 7.8927L9.83906 7.89852L9.72266 7.90085L9.7343 8.51781H9.8507L10.1464 8.51082L10.1999 8.80184C10.5212 10.5421 12.0392 11.8063 13.8097 11.8063C13.833 11.8063 13.8563 11.8052 13.8796 11.8052L16.5116 11.7563C18.5359 11.7179 20.1528 10.0404 20.1144 8.01609C20.0783 6.02785 18.4311 4.41211 16.444 4.41211ZM16.4976 10.9926L13.8656 11.0415H13.8097C12.5199 11.0415 11.3698 10.1755 11.0148 8.93338L10.8891 8.49685L11.3442 8.48871L13.9983 8.43865C14.0437 8.43749 14.074 8.4142 14.0879 8.40024C14.1007 8.3851 14.124 8.35484 14.1229 8.30944L14.1159 7.94625C14.1147 7.87757 14.0577 7.82053 13.989 7.82053L11.3326 7.87058L10.8786 7.87873L10.9868 7.43754C11.3023 6.15939 12.4408 5.25024 13.7562 5.22463L16.3882 5.17574H16.444C18.0179 5.17574 19.3216 6.45623 19.3507 8.03006C19.381 9.63299 18.1005 10.9624 16.4976 10.9926Z" fill="white"/>
<path d="M7.13675 5.50029L4.21742 1.22393C4.10759 1.06304 3.88813 1.02165 3.72725 1.13148C3.56636 1.24131 3.52497 1.46077 3.6348 1.62166L6.55413 5.89802C6.66396 6.0589 6.88342 6.10029 7.0443 5.99046C7.20519 5.88063 7.24658 5.66117 7.13675 5.50029Z" fill="white"/>
<path d="M5.3221 6.77676L0.614621 4.62052C0.437517 4.5394 0.228183 4.6172 0.147061 4.79431C0.0659387 4.97141 0.143748 5.18075 0.320852 5.26187L5.02833 7.41811C5.20543 7.49924 5.41477 7.42143 5.49589 7.24432C5.57701 7.06722 5.4992 6.85788 5.3221 6.77676Z" fill="white"/>
<path d="M9.45056 5.2997L10.3579 0.488402C10.3949 0.292555 10.2663 0.103896 10.0708 0.0670204C9.87523 0.030145 9.68678 0.159017 9.64985 0.354865L8.74248 5.16616C8.70555 5.36201 8.83412 5.55066 9.02965 5.58754C9.22518 5.62441 9.41363 5.49554 9.45056 5.2997Z" fill="white"/>
</svg>
