<svg width="149" height="31" viewBox="0 0 149 31" fill="none" xmlns="http://www.w3.org/2000/svg">
<g clip-path="url(#clip0_10_1509)">
<path d="M30.2401 30.5V21.2152L24.4792 15.5L30.2401 9.7848V0.5H20.881L15.1201 6.2152L9.35912 0.5H0V9.7848L5.76095 15.5L0 21.2152V30.5H9.35912L15.1201 24.7848L20.881 30.5H30.2401ZM29.1992 1.53271V8.75529H21.9188V1.53271H29.1992ZM21.2366 9.788H28.766L23.7421 14.772L19.9758 11.0356L21.2366 9.788ZM1.3578 1.53271H8.92915L28.7692 21.2152H21.2399L1.3578 1.53271ZM8.92915 29.4673H1.3578L10.607 20.3108L14.383 24.0568L8.92915 29.4673ZM21.9188 29.4673V22.2447H29.1992V29.4673H21.9188Z" fill="#E5E5E5"/>
<path d="M50.6633 15.8586L46.5145 8.78101C46.3499 8.53057 46.2401 8.26925 46.2401 7.95348C46.2401 7.35461 46.7999 6.86462 47.3816 6.86462C48.1499 6.86462 48.4023 7.44171 48.7316 7.99703L51.9914 13.5176L55.2512 7.99703C55.5805 7.44171 55.8329 6.86462 56.6012 6.86462C57.1829 6.86462 57.7427 7.35461 57.7427 7.95348C57.7427 8.28014 57.622 8.53057 57.4683 8.78101L53.3195 15.8586L57.4683 22.9362C57.633 23.1866 57.7427 23.448 57.7427 23.7637C57.7427 24.3626 57.1829 24.8526 56.6012 24.8526C55.8329 24.8526 55.5805 24.2755 55.2512 23.7202L51.9914 18.1997L48.7316 23.7202C48.4023 24.2755 48.1499 24.8526 47.3816 24.8526C46.7999 24.8526 46.2401 24.3626 46.2401 23.7637C46.2401 23.4371 46.3608 23.1866 46.5145 22.9362L50.6633 15.8586Z" fill="#E5E5E5"/>
<path d="M78.8711 23.6979C78.8711 24.4383 78.5418 24.8521 77.7076 24.8521C76.8735 24.8521 76.5442 24.4383 76.5442 23.6979V6.86414H84.3699C86.2139 6.86414 88.0468 8.15987 88.0468 10.2178V11.8076C88.0468 13.9853 86.2248 15.085 84.3699 15.085H82.2297L87.4761 22.5328C87.7285 22.8813 88.0578 23.3168 88.0578 23.7524C88.0578 24.3948 87.52 24.8412 86.8724 24.8412C86.4114 24.8412 86.1041 24.569 85.8517 24.1988L79.4199 15.0959H78.882V23.6979H78.8711ZM78.8711 12.7875H84.0407C84.6882 12.7875 85.7199 12.744 85.7199 11.8184V10.2287C85.7199 9.30318 84.7651 9.18341 84.0626 9.18341H78.8711V12.7875Z" fill="#E5E5E5"/>
<path d="M113.104 24.8515C111.359 24.8515 110.35 24.1547 109.614 22.652L107.474 18.351C107.079 17.567 106.848 16.8266 106.848 15.9229C106.848 14.9102 107.035 14.2787 107.496 13.3532L109.636 9.07394C110.426 7.47331 111.425 6.85266 113.225 6.85266H117.187C117.703 6.85266 118.351 7.12487 118.351 8.00685C118.351 8.83438 117.725 9.16104 117.187 9.16104H113.291C112.292 9.16104 112.128 9.24816 111.689 10.1301L109.658 14.148C109.351 14.7687 109.164 15.1933 109.164 15.9011C109.164 16.5435 109.373 16.9464 109.658 17.5017L111.634 21.4978C112.095 22.4451 112.336 22.5105 113.379 22.5105H117.176C117.692 22.5105 118.34 22.7827 118.34 23.6647C118.34 24.4922 117.714 24.8189 117.176 24.8189H113.093L113.104 24.8515Z" fill="#E5E5E5"/>
<path d="M143.398 24.8515C141.652 24.8515 140.643 24.1547 139.907 22.652L137.767 18.351C137.372 17.567 137.141 16.8266 137.141 15.9229C137.141 14.9102 137.328 14.2787 137.789 13.3532L139.929 9.07394C140.719 7.47331 141.718 6.85266 143.518 6.85266H147.481C147.996 6.85266 148.644 7.12487 148.644 8.00685C148.644 8.83438 148.018 9.16104 147.481 9.16104H143.584C142.585 9.16104 142.421 9.24816 141.982 10.1301L139.951 14.148C139.644 14.7687 139.457 15.1933 139.457 15.9011C139.457 16.5435 139.666 16.9464 139.951 17.5017L141.927 21.4978C142.388 22.4451 142.629 22.5105 143.672 22.5105H147.47C147.985 22.5105 148.633 22.7827 148.633 23.6647C148.633 24.4922 148.007 24.8189 147.47 24.8189H143.387L143.398 24.8515Z" fill="#E5E5E5"/>
</g>
<defs>
<clipPath id="clip0_10_1509">
<rect width="149" height="30" fill="white" transform="translate(0 0.5)"/>
</clipPath>
</defs>
</svg>
