<svg width="20" height="18" viewBox="0 0 20 18" fill="none" xmlns="http://www.w3.org/2000/svg">
<path fill-rule="evenodd" clip-rule="evenodd" d="M15.9852 3.76351L10.1361 6.11443V11.1829C9.91256 11.3285 9.72037 11.5174 9.57095 11.7382C9.47462 11.6025 9.36207 11.4786 9.23628 11.3691V6.11352L3.38722 3.76351V9.30752L2.48736 8.685V3.0953C2.48738 3.00502 2.5143 2.9168 2.56466 2.84203C2.61502 2.76725 2.68651 2.70934 2.76991 2.67575L9.18499 0.0969759C9.50675 -0.0323253 9.86567 -0.0323253 10.1874 0.0969759L16.6025 2.67575C16.6859 2.70934 16.7574 2.76725 16.8078 2.84203C16.8581 2.9168 16.885 3.00502 16.8851 3.0953V8.51289L15.9852 8.86283V3.76351ZM9.85358 0.936978C9.74615 0.893716 9.62626 0.893716 9.51883 0.936978L4.14849 3.0953L9.68621 5.32054L15.2239 3.0953L9.85358 0.936978Z" fill="white"/>
<path d="M11.6883 15.7697C11.6261 15.6021 11.5258 15.4472 11.3952 15.3171C11.2646 15.187 11.1072 15.0852 10.9354 15.0197L8.65767 14.0581C8.83163 13.9461 8.97093 13.7924 9.06365 13.6101C9.15637 13.4278 9.19974 13.2224 9.19003 13.0115C9.18031 12.8005 9.11782 12.5904 9.00789 12.3991C8.89797 12.2078 8.7439 12.041 8.5589 11.913L6.35642 10.3893C6.18334 10.2689 5.99026 10.1809 5.78839 10.1303C5.58652 10.0798 5.37986 10.0677 5.18041 10.0948L3.51801 10.3153L2.21922 9.41678C2.05586 9.30377 1.85844 9.25429 1.67039 9.27923C1.48234 9.30417 1.31906 9.40148 1.21648 9.54977L0.111375 11.1472C0.0087925 11.2955 -0.0246932 11.4826 0.0182838 11.6674C0.0612607 11.8521 0.17718 12.0194 0.340541 12.1324L4.9162 15.2979C4.93785 15.3128 4.96109 15.3254 4.9854 15.3351L8.24323 16.6441C8.25878 16.6501 8.27463 16.6552 8.29068 16.6592L10.455 17.181L10.4737 17.1851C10.6721 17.2211 10.8721 17.2084 11.055 17.148C11.2379 17.0877 11.3976 16.9818 11.519 16.8403C11.6405 16.6988 11.7197 16.5263 11.7492 16.3392C11.7787 16.152 11.7582 15.9555 11.6883 15.7697ZM0.639335 11.5124L1.74444 9.91501C1.7591 9.89383 1.78242 9.87992 1.80929 9.87636C1.83615 9.8728 1.86435 9.87987 1.88769 9.89601L3.03161 10.6874L1.81599 12.4446L0.672073 11.6532C0.648736 11.637 0.632176 11.6131 0.626036 11.5868C0.619897 11.5604 0.624681 11.5336 0.639335 11.5124ZM10.5438 16.5929L8.41363 16.08L5.21517 14.7961L2.34395 12.8098L3.65654 10.9124L5.31922 10.6916C5.43892 10.6754 5.56293 10.6827 5.68406 10.7131C5.80519 10.7434 5.92104 10.7963 6.02489 10.8686L8.22737 12.3922C8.39073 12.5053 8.50665 12.6725 8.54962 12.8573C8.5926 13.0421 8.55912 13.2292 8.45653 13.3775C8.35395 13.5257 8.19067 13.6231 8.00262 13.648C7.81457 13.6729 7.61715 13.6235 7.45379 13.5104L6.22188 12.6582C6.15187 12.6098 6.06726 12.5886 5.98667 12.5993C5.90608 12.61 5.8361 12.6517 5.79214 12.7152C5.74817 12.7788 5.73382 12.8589 5.75224 12.9381C5.77066 13.0173 5.82034 13.089 5.89035 13.1374L7.29825 14.1114C7.31807 14.1252 7.33924 14.1368 7.36134 14.1462L10.7349 15.5701L10.7471 15.575C10.877 15.6243 10.9878 15.7168 11.0582 15.8347C11.1286 15.9527 11.1535 16.0877 11.1283 16.214C11.1031 16.3402 11.0295 16.4487 10.9216 16.5186C10.8137 16.5886 10.6792 16.615 10.5438 16.5929Z" fill="white"/>
<path fill-rule="evenodd" clip-rule="evenodd" d="M10.3046 14.0241C10.5536 14.116 10.834 14.2266 11.1232 14.3513L11.9298 14.0109C11.9532 14.0009 11.9756 13.9886 11.9966 13.974L13.4874 12.9427C13.5615 12.8914 13.6141 12.8155 13.6336 12.7316C13.6531 12.6478 13.6379 12.5629 13.5914 12.4956C13.5448 12.4283 13.4707 12.3841 13.3854 12.3728C13.3001 12.3615 13.2105 12.3839 13.1363 12.4352L11.8319 13.3376C11.6589 13.4573 11.4499 13.5097 11.2508 13.4833C11.0516 13.4569 10.8787 13.3538 10.7701 13.1968C10.6615 13.0398 10.626 12.8417 10.6715 12.646C10.7171 12.4504 10.8398 12.2733 11.0128 12.1536L13.3449 10.5402C13.4549 10.4637 13.5776 10.4077 13.7058 10.3755C13.8341 10.3434 13.9654 10.3356 14.0922 10.3528L15.8527 10.5867L17.2426 12.5957L14.2023 14.699L12.8206 15.2536C13.0347 15.4039 13.2163 15.5577 13.3474 15.711L14.4456 15.2697C14.4714 15.2594 14.496 15.2462 14.5189 15.2303L19.364 11.8785C19.537 11.7588 19.6597 11.5817 19.7052 11.386C19.7507 11.1904 19.7153 10.9923 19.6067 10.8352L18.4365 9.14375C18.3279 8.98673 18.155 8.88369 17.9558 8.85728C17.7567 8.83087 17.5477 8.88326 17.3747 9.00293L15.9994 9.95433L14.2391 9.72088C14.0279 9.69219 13.8091 9.70498 13.5954 9.75851C13.3816 9.81205 13.1772 9.90526 12.9939 10.0328L10.6617 11.6461C10.4658 11.7817 10.3027 11.9583 10.1863 12.1609C10.0699 12.3634 10.0037 12.5859 9.99343 12.8093C9.98315 13.0326 10.0291 13.2501 10.1272 13.4431C10.2254 13.6362 10.3729 13.7989 10.5571 13.9175L10.3046 14.0241ZM17.8774 9.5305L19.0476 11.222C19.0631 11.2444 19.0682 11.2727 19.0617 11.3007C19.0552 11.3286 19.0377 11.3539 19.0129 11.371L17.8017 12.209L16.5145 10.3483L17.7257 9.51038C17.7505 9.49328 17.7803 9.4858 17.8088 9.48957C17.8372 9.49335 17.8619 9.50807 17.8774 9.5305Z" fill="white"/>
</svg>
