<svg width="12" height="7" viewBox="0 0 12 7" fill="none" xmlns="http://www.w3.org/2000/svg">
<path d="M10.6861 0.470543L5.8028 5.35385L0.925878 0.470543L0.472656 0.923764L5.8028 6.25391L11.1393 0.923764L10.6861 0.470543Z" fill="white"/>
<path fill-rule="evenodd" clip-rule="evenodd" d="M10.6849 0.00053128L11.6096 0.925298L5.80141 6.72656L0 0.925157L0.92478 0.000376784L5.8017 4.88368L10.6849 0.00053128ZM5.80158 5.35521L0.924869 0.472179L0.471405 0.925157L5.80128 6.25503L11.1381 0.925157L10.6849 0.471936L5.80158 5.35521Z" fill="white"/>
<path fill-rule="evenodd" clip-rule="evenodd" d="M10.6849 0.00053128L11.6096 0.925298L5.80141 6.72656L0 0.925157L0.92478 0.000376784L5.8017 4.88368L10.6849 0.00053128ZM5.80158 5.35521L0.924869 0.472179L0.471405 0.925157L5.80128 6.25503L11.1381 0.925157L10.6849 0.471936L5.80158 5.35521Z" fill="white"/>
</svg>
