<svg width="31" height="30" viewBox="0 0 31 30" fill="none" xmlns="http://www.w3.org/2000/svg">
<path d="M17.1106 28.751H1.53788V8.75113H21.5425V15.0375C21.9462 14.9389 22.3641 14.8685 22.7913 14.8309V8.38493L29.0401 2.13614V16.8262C29.5049 17.2206 29.9227 17.6666 30.2889 18.1501V0H7.79137L0.289062 7.50231V29.9998H18.4392C17.9556 29.6336 17.5096 29.2111 17.1153 28.751H17.1106ZM7.79137 1.76994L8.3078 1.25351H28.1575L21.9087 7.50231H2.05901L7.79137 1.76994Z" fill="white"/>
<path d="M23.5464 16.5166C19.8235 16.5166 16.8047 19.5354 16.8047 23.2583C16.8047 26.9813 19.8235 30.0001 23.5464 30.0001C27.2694 30.0001 30.2882 26.9813 30.2882 23.2583C30.2882 19.5354 27.2694 16.5166 23.5464 16.5166ZM28.0863 23.7278H23.9173V26.6292V27.8968H22.8751V23.7231H18.7014V22.6809H22.8751V18.5072H23.9173V19.8828V22.6809H28.0863V23.7231V23.7278Z" fill="white"/>
</svg>
