<svg width="21" height="17" viewBox="0 0 21 17" fill="none" xmlns="http://www.w3.org/2000/svg">
<path d="M2.40937 1.30896H1.75781V1.96051H2.40937V1.30896Z" fill="white"/>
<path d="M3.71015 1.30896H3.05859V1.96051H3.71015V1.30896Z" fill="white"/>
<path d="M5.01288 1.30896H4.36133V1.96051H5.01288V1.30896Z" fill="white"/>
<path d="M6.03903 13.6828H1.10663V3.26164H15.4352V3.50061L16.0868 2.86959V0.0057373H0.455078V14.3343H6.03903V13.6828ZM1.10663 0.657292H15.4352V2.61009H1.10663V0.657292Z" fill="white"/>
<path d="M20.2685 5.09879L17.9573 2.78754C17.709 2.53924 17.3039 2.53924 17.0556 2.78754L6.62695 13.2162V16.4291H9.83992L20.2685 6.00051C20.3899 5.87916 20.4552 5.72047 20.4552 5.54872C20.4552 5.37696 20.388 5.21827 20.2685 5.09692V5.09879ZM7.35879 15.6973V13.5186L7.49134 13.386L9.67003 15.5647L9.53748 15.6973H7.35879ZM17.7594 7.47538L10.1872 15.0476L8.00847 12.8689L15.5807 5.29668L17.7594 7.47538ZM19.6861 5.54872L18.2765 6.95637L16.0978 4.77768L17.5074 3.36816L19.6861 5.54685V5.54872Z" fill="white"/>
</svg>
