<svg width="30" height="30" viewBox="0 0 30 30" fill="none" xmlns="http://www.w3.org/2000/svg">
<path d="M13.8482 0L8.46484 5.38337V21.5343H24.6158L29.9992 16.151V0H13.8482ZM23.7184 20.6378H9.36135V6.28074H23.7184V20.6378ZM24.6158 20.2659V6.01803L29.1027 1.53117V15.779L28.7307 16.151L24.6158 20.2659ZM23.4557 0.896506H28.468L23.9812 5.38337H9.7333L13.8482 1.26846L14.2202 0.896506H23.4557Z" fill="white"/>
<path d="M23.8571 26.5921L20.676 29.7732L20.0821 29.1793L22.2496 27.0126H2.76148V7.57123L0.59478 9.73793L0 9.14401L3.18112 5.96289L6.36224 9.14401L5.76833 9.73793L3.60163 7.57123V26.1724H22.2496L20.0821 24.0057L20.676 23.4118L23.8571 26.5921Z" fill="white"/>
</svg>
