<svg width="20" height="20" viewBox="0 0 20 20" fill="none" xmlns="http://www.w3.org/2000/svg">
<path d="M9.99581 0.786312C9.8032 0.795707 9.63385 0.945779 9.63156 1.14879H9.63154V1.15296V18.1343C9.63154 18.21 9.63108 18.2861 9.63062 18.3623C9.62969 18.5154 9.62876 18.6691 9.63154 18.8223V18.8223V18.8224V18.8224V18.8225V18.8225V18.8226V18.8226V18.8227V18.8228V18.8228V18.8229V18.8229V18.823V18.823V18.8231V18.8231V18.8232V18.8232V18.8233V18.8233V18.8234V18.8234V18.8235V18.8235V18.8236V18.8236V18.8237V18.8237V18.8238V18.8238V18.8239V18.8239V18.824V18.824V18.8241V18.8241V18.8242V18.8243V18.8243V18.8244V18.8244V18.8245V18.8245V18.8246V18.8246V18.8247V18.8247V18.8248V18.8248V18.8249V18.8249V18.825V18.8251V18.8251V18.8252V18.8252V18.8253V18.8253V18.8254V18.8254V18.8255V18.8255V18.8256V18.8257V18.8257V18.8258V18.8258V18.8259V18.8259V18.826V18.826V18.8261V18.8261V18.8262V18.8263V18.8263V18.8264V18.8264V18.8265V18.8265V18.8266V18.8266V18.8267V18.8268V18.8268V18.8269V18.8269V18.827V18.827V18.8271V18.8272V18.8272V18.8273V18.8273V18.8274V18.8274V18.8275V18.8276V18.8276V18.8277V18.8277V18.8278V18.8278V18.8279V18.828V18.828V18.8281V18.8281V18.8282V18.8282V18.8283V18.8284V18.8284V18.8285V18.8285V18.8286V18.8286V18.8287V18.8288V18.8288V18.8289V18.8289V18.829V18.8291V18.8291V18.8292V18.8292V18.8293V18.8293V18.8294V18.8295V18.8295V18.8296V18.8296V18.8297V18.8298V18.8298V18.8299V18.8299V18.83V18.83V18.8301V18.8302V18.8302V18.8303V18.8303V18.8304V18.8305V18.8305V18.8306V18.8306V18.8307V18.8308V18.8308V18.8309V18.8309V18.831V18.8311V18.8311V18.8312V18.8312V18.8313V18.8314V18.8314V18.8315V18.8315V18.8316V18.8316V18.8317V18.8318V18.8318V18.8319V18.832V18.832V18.8321V18.8321V18.8322V18.8323V18.8323V18.8324V18.8324V18.8325V18.8326V18.8326V18.8327V18.8327V18.8328V18.8329V18.8329V18.833V18.833V18.8331V18.8332V18.8332V18.8333V18.8333V18.8334V18.8335V18.8335V18.8336V18.8336V18.8337V18.8338V18.8338V18.8339V18.8339V18.834V18.8341V18.8341V18.8342V18.8342V18.8343V18.8344V18.8344V18.8345V18.8346V18.8346V18.8347V18.8347V18.8348V18.8349V18.8349V18.835V18.835V18.8351V18.8352V18.8352V18.8353V18.8353V18.8354V18.8355V18.8355V18.8356V18.8356V18.8357V18.8358V18.8358V18.8359V18.836V18.836V18.8361V18.8361V18.8362V18.8363V18.8363V18.8364V18.8364V18.8365V18.8366V18.8366V18.8367V18.8367V18.8368V18.8369V18.8369V18.837V18.8371V18.8371V18.8372V18.8372V18.8373V18.8374V18.8374V18.8375V18.8375V18.8376V18.8377V18.8377V18.8378V18.8378V18.8379V18.838V18.838V18.8381V18.8382V18.8382V18.8383V18.8383V18.8384V18.8385V18.8385V18.8386V18.8386V18.8387V18.8388V18.8388V18.8389V18.8389V18.839V18.8391V18.8391V18.8392V18.8392V18.8393V18.8394V18.8394V18.8395V18.8395V18.8396V18.8397V18.8397V18.8398V18.8398V18.8399V18.84V18.84V18.8401V18.8402V18.8402V18.8403V18.8403V18.8404V18.8405V18.8405V18.8406V18.8406V18.8407V18.8408V18.8408V18.8409V18.8409V18.841V18.8411V18.8411V18.8412V18.8412V18.8413V18.8414V18.8414V18.8415V18.8415V18.8416V18.8417V18.8417V18.8418V18.8418V18.8419V18.842V18.842V18.8421V18.8421V18.8422V18.8422V18.8423V18.8424V18.8424V18.8425V18.8425V18.8426V18.8427V18.8427V18.8428V18.8428V18.8429V18.843V18.843V18.8431V18.8431V18.8432V18.8433V18.8433V18.8434V18.8434V18.8435V18.8435V18.8436V18.8437V18.8437V18.8438V18.8438V18.8439V18.844V18.844V18.8441V18.8441V18.8442V18.8442V18.8443V18.8444V18.8444V18.8445V18.8445V18.8446V18.8446V18.8447V18.8448V18.8448V18.8449V18.8449V18.845V18.845V18.8451V18.8452V18.8452V18.8453V18.8453V18.8454V18.8454V18.8455V18.8456V18.8456V18.8457V18.8457V18.8458V18.8458V18.8459V18.846V18.846V18.8461V18.8461V18.8462V18.8462V18.8463V18.8463V18.8464V18.8465V18.8465V18.8466V18.8466V18.8467V18.8467V18.8468V18.8468V18.8469V18.847V18.847V18.8471V18.8471V18.8472V18.8472V18.8473V18.8473V18.8474V18.8475V18.8475V18.8476V18.8476V18.8477V18.8477V18.8478V18.8478V18.8479V18.8479V18.848V18.848V18.8481V18.8482V18.8482V18.8483V18.8483V18.8484V18.8484V18.8485V18.8485V18.8486V18.8486V18.8487V18.8487V18.8488V18.8488V18.8489V18.8489V18.849V18.8491V18.8491V18.8492V18.8492V18.8493V18.8493V18.8494V18.8494V18.8495V18.8495V18.8496V18.8496V18.8497V18.8497V18.8498V18.8498V18.8499V18.8499V18.85V18.85V18.8501V18.8501V18.8502V18.8502V18.8503V18.8503V18.8504V18.8504V18.8505V18.8505V18.8506V18.8506V18.8507V18.8507V18.8508V18.8508V18.8509V18.8509V18.851V18.851C9.63154 19.0426 9.79772 19.2276 10.0007 19.2177C10.1946 19.2082 10.365 19.0562 10.365 18.851V1.86972C10.365 1.79397 10.3654 1.7179 10.3659 1.64166C10.3668 1.48864 10.3677 1.3349 10.365 1.18168V1.18164V1.18159V1.18154V1.18149V1.18144V1.18139V1.18134V1.18129V1.18124V1.18118V1.18113V1.18108V1.18103V1.18098V1.18093V1.18088V1.18083V1.18078V1.18073V1.18067V1.18062V1.18057V1.18052V1.18047V1.18042V1.18036V1.18031V1.18026V1.18021V1.18016V1.1801V1.18005V1.18V1.17995V1.17989V1.17984V1.17979V1.17974V1.17968V1.17963V1.17958V1.17952V1.17947V1.17942V1.17936V1.17931V1.17926V1.1792V1.17915V1.1791V1.17904V1.17899V1.17893V1.17888V1.17883V1.17877V1.17872V1.17866V1.17861V1.17855V1.1785V1.17844V1.17839V1.17833V1.17828V1.17822V1.17817V1.17811V1.17806V1.178V1.17795V1.17789V1.17784V1.17778V1.17773V1.17767V1.17762V1.17756V1.17751V1.17745V1.17739V1.17734V1.17728V1.17723V1.17717V1.17711V1.17706V1.177V1.17694V1.17689V1.17683V1.17677V1.17672V1.17666V1.1766V1.17655V1.17649V1.17643V1.17638V1.17632V1.17626V1.17621V1.17615V1.17609V1.17603V1.17598V1.17592V1.17586V1.17581V1.17575V1.17569V1.17563V1.17557V1.17552V1.17546V1.1754V1.17534V1.17529V1.17523V1.17517V1.17511V1.17505V1.175V1.17494V1.17488V1.17482V1.17476V1.1747V1.17465V1.17459V1.17453V1.17447V1.17441V1.17435V1.17429V1.17424V1.17418V1.17412V1.17406V1.174V1.17394V1.17388V1.17382V1.17376V1.1737V1.17365V1.17359V1.17353V1.17347V1.17341V1.17335V1.17329V1.17323V1.17317V1.17311V1.17305V1.17299V1.17293V1.17287V1.17281V1.17275V1.17269V1.17264V1.17258V1.17252V1.17246V1.1724V1.17234V1.17228V1.17222V1.17216V1.1721V1.17204V1.17198V1.17192V1.17186V1.1718V1.17174V1.17168V1.17162V1.17156V1.1715V1.17143V1.17137V1.17131V1.17125V1.17119V1.17113V1.17107V1.17101V1.17095V1.17089V1.17083V1.17077V1.17071V1.17065V1.17059V1.17053V1.17047V1.17041V1.17035V1.17029V1.17022V1.17016V1.1701V1.17004V1.16998V1.16992V1.16986V1.1698V1.16974V1.16968V1.16962V1.16956V1.1695V1.16943V1.16937V1.16931V1.16925V1.16919V1.16913V1.16907V1.16901V1.16895V1.16889V1.16883V1.16876V1.1687V1.16864V1.16858V1.16852V1.16846V1.1684V1.16834V1.16828V1.16822V1.16815V1.16809V1.16803V1.16797V1.16791V1.16785V1.16779V1.16773V1.16767V1.16761V1.16754V1.16748V1.16742V1.16736V1.1673V1.16724V1.16718V1.16712V1.16706V1.167V1.16693V1.16687V1.16681V1.16675V1.16669V1.16663V1.16657V1.16651V1.16645V1.16638V1.16632V1.16626V1.1662V1.16614V1.16608V1.16602V1.16596V1.1659V1.16584V1.16578V1.16571V1.16565V1.16559V1.16553V1.16547V1.16541V1.16535V1.16529V1.16523V1.16517V1.16511V1.16505V1.16499V1.16492V1.16486V1.1648V1.16474V1.16468V1.16462V1.16456V1.1645V1.16444V1.16438V1.16432V1.16426V1.1642V1.16414V1.16408V1.16402V1.16396V1.1639V1.16383V1.16377V1.16371V1.16365V1.16359V1.16353V1.16347V1.16341V1.16335V1.16329V1.16323V1.16317V1.16311V1.16305V1.16299V1.16293V1.16287V1.16281V1.16275V1.16269V1.16263V1.16257V1.16251V1.16245V1.16239V1.16233V1.16227V1.16221V1.16216V1.1621V1.16204V1.16198V1.16192V1.16186V1.1618V1.16174V1.16168V1.16162V1.16156V1.1615V1.16144V1.16138V1.16132V1.16127V1.16121V1.16115V1.16109V1.16103V1.16097V1.16091V1.16085V1.16079V1.16074V1.16068V1.16062V1.16056V1.1605V1.16044V1.16038V1.16033V1.16027V1.16021V1.16015V1.16009V1.16004V1.15998V1.15992V1.15986V1.1598V1.15975V1.15969V1.15963V1.15957V1.15951V1.15946V1.1594V1.15934V1.15928V1.15923V1.15917V1.15911V1.15905V1.159V1.15894V1.15888V1.15883V1.15877V1.15871V1.15865V1.1586V1.15854V1.15848V1.15843V1.15837V1.15831V1.15826V1.1582V1.15814V1.15809V1.15803V1.15798V1.15792V1.15786V1.15781V1.15775V1.1577V1.15764V1.15758V1.15753V1.15747V1.15742V1.15736V1.15731V1.15725V1.15719V1.15714V1.15708V1.15703V1.15697V1.15692V1.15686V1.15681V1.15675V1.1567V1.15664V1.15659V1.15654V1.15648V1.15643V1.15637V1.15632V1.15626V1.15621V1.15616V1.1561V1.15605V1.15599V1.15594V1.15589V1.15583V1.15578V1.15573V1.15567V1.15562V1.15557V1.15551V1.15546V1.15541V1.15535V1.1553V1.15525V1.15519V1.15514V1.15509V1.15504V1.15498V1.15493V1.15488V1.15483V1.15478V1.15472V1.15467V1.15462V1.15457V1.15452V1.15447V1.15441V1.15436V1.15431V1.15426V1.15421V1.15416V1.15411V1.15406V1.15401V1.15395V1.1539V1.15385V1.1538V1.15375V1.1537V1.15365V1.1536V1.15355V1.1535V1.15345V1.1534V1.15335V1.1533V1.15325V1.1532V1.15316V1.15311V1.15306V1.15301V1.15296C10.365 0.96141 10.1988 0.776411 9.99581 0.786312Z" fill="white" stroke="white" stroke-width="0.1"/>
<path d="M0.786312 10.0065C0.795707 10.1991 0.945779 10.3685 1.14879 10.3708V10.3708H1.15296H18.1343C18.21 10.3708 18.2861 10.3713 18.3623 10.3717C18.5154 10.3727 18.6691 10.3736 18.8223 10.3708H18.8223H18.8224H18.8224H18.8225H18.8225H18.8226H18.8226H18.8227H18.8228H18.8228H18.8229H18.8229H18.823H18.823H18.8231H18.8231H18.8232H18.8232H18.8233H18.8233H18.8234H18.8234H18.8235H18.8235H18.8236H18.8236H18.8237H18.8237H18.8238H18.8238H18.8239H18.8239H18.824H18.824H18.8241H18.8241H18.8242H18.8243H18.8243H18.8244H18.8244H18.8245H18.8245H18.8246H18.8246H18.8247H18.8247H18.8248H18.8248H18.8249H18.8249H18.825H18.8251H18.8251H18.8252H18.8252H18.8253H18.8253H18.8254H18.8254H18.8255H18.8255H18.8256H18.8257H18.8257H18.8258H18.8258H18.8259H18.8259H18.826H18.826H18.8261H18.8261H18.8262H18.8263H18.8263H18.8264H18.8264H18.8265H18.8265H18.8266H18.8266H18.8267H18.8268H18.8268H18.8269H18.8269H18.827H18.827H18.8271H18.8272H18.8272H18.8273H18.8273H18.8274H18.8274H18.8275H18.8276H18.8276H18.8277H18.8277H18.8278H18.8278H18.8279H18.828H18.828H18.8281H18.8281H18.8282H18.8282H18.8283H18.8284H18.8284H18.8285H18.8285H18.8286H18.8286H18.8287H18.8288H18.8288H18.8289H18.8289H18.829H18.8291H18.8291H18.8292H18.8292H18.8293H18.8293H18.8294H18.8295H18.8295H18.8296H18.8296H18.8297H18.8298H18.8298H18.8299H18.8299H18.83H18.83H18.8301H18.8302H18.8302H18.8303H18.8303H18.8304H18.8305H18.8305H18.8306H18.8306H18.8307H18.8308H18.8308H18.8309H18.8309H18.831H18.8311H18.8311H18.8312H18.8312H18.8313H18.8314H18.8314H18.8315H18.8315H18.8316H18.8316H18.8317H18.8318H18.8318H18.8319H18.832H18.832H18.8321H18.8321H18.8322H18.8323H18.8323H18.8324H18.8324H18.8325H18.8326H18.8326H18.8327H18.8327H18.8328H18.8329H18.8329H18.833H18.833H18.8331H18.8332H18.8332H18.8333H18.8333H18.8334H18.8335H18.8335H18.8336H18.8336H18.8337H18.8338H18.8338H18.8339H18.8339H18.834H18.8341H18.8341H18.8342H18.8342H18.8343H18.8344H18.8344H18.8345H18.8346H18.8346H18.8347H18.8347H18.8348H18.8349H18.8349H18.835H18.835H18.8351H18.8352H18.8352H18.8353H18.8353H18.8354H18.8355H18.8355H18.8356H18.8356H18.8357H18.8358H18.8358H18.8359H18.836H18.836H18.8361H18.8361H18.8362H18.8363H18.8363H18.8364H18.8364H18.8365H18.8366H18.8366H18.8367H18.8367H18.8368H18.8369H18.8369H18.837H18.8371H18.8371H18.8372H18.8372H18.8373H18.8374H18.8374H18.8375H18.8375H18.8376H18.8377H18.8377H18.8378H18.8378H18.8379H18.838H18.838H18.8381H18.8382H18.8382H18.8383H18.8383H18.8384H18.8385H18.8385H18.8386H18.8386H18.8387H18.8388H18.8388H18.8389H18.8389H18.839H18.8391H18.8391H18.8392H18.8392H18.8393H18.8394H18.8394H18.8395H18.8395H18.8396H18.8397H18.8397H18.8398H18.8398H18.8399H18.84H18.84H18.8401H18.8402H18.8402H18.8403H18.8403H18.8404H18.8405H18.8405H18.8406H18.8406H18.8407H18.8408H18.8408H18.8409H18.8409H18.841H18.8411H18.8411H18.8412H18.8412H18.8413H18.8414H18.8414H18.8415H18.8415H18.8416H18.8417H18.8417H18.8418H18.8418H18.8419H18.842H18.842H18.8421H18.8421H18.8422H18.8422H18.8423H18.8424H18.8424H18.8425H18.8425H18.8426H18.8427H18.8427H18.8428H18.8428H18.8429H18.843H18.843H18.8431H18.8431H18.8432H18.8433H18.8433H18.8434H18.8434H18.8435H18.8435H18.8436H18.8437H18.8437H18.8438H18.8438H18.8439H18.844H18.844H18.8441H18.8441H18.8442H18.8442H18.8443H18.8444H18.8444H18.8445H18.8445H18.8446H18.8446H18.8447H18.8448H18.8448H18.8449H18.8449H18.845H18.845H18.8451H18.8452H18.8452H18.8453H18.8453H18.8454H18.8454H18.8455H18.8456H18.8456H18.8457H18.8457H18.8458H18.8458H18.8459H18.846H18.846H18.8461H18.8461H18.8462H18.8462H18.8463H18.8463H18.8464H18.8465H18.8465H18.8466H18.8466H18.8467H18.8467H18.8468H18.8468H18.8469H18.847H18.847H18.8471H18.8471H18.8472H18.8472H18.8473H18.8473H18.8474H18.8475H18.8475H18.8476H18.8476H18.8477H18.8477H18.8478H18.8478H18.8479H18.8479H18.848H18.848H18.8481H18.8482H18.8482H18.8483H18.8483H18.8484H18.8484H18.8485H18.8485H18.8486H18.8486H18.8487H18.8487H18.8488H18.8488H18.8489H18.8489H18.849H18.8491H18.8491H18.8492H18.8492H18.8493H18.8493H18.8494H18.8494H18.8495H18.8495H18.8496H18.8496H18.8497H18.8497H18.8498H18.8498H18.8499H18.8499H18.85H18.85H18.8501H18.8501H18.8502H18.8502H18.8503H18.8503H18.8504H18.8504H18.8505H18.8505H18.8506H18.8506H18.8507H18.8507H18.8508H18.8508H18.8509H18.8509H18.851H18.851C19.0426 10.3708 19.2276 10.2046 19.2177 10.0017C19.2082 9.80775 19.0562 9.6374 18.851 9.6374H1.86972C1.79397 9.6374 1.7179 9.63694 1.64166 9.63648C1.48864 9.63555 1.3349 9.63462 1.18168 9.6374H1.18164H1.18159H1.18154H1.18149H1.18144H1.18139H1.18134H1.18129H1.18124H1.18118H1.18113H1.18108H1.18103H1.18098H1.18093H1.18088H1.18083H1.18078H1.18073H1.18067H1.18062H1.18057H1.18052H1.18047H1.18042H1.18036H1.18031H1.18026H1.18021H1.18016H1.1801H1.18005H1.18H1.17995H1.17989H1.17984H1.17979H1.17974H1.17968H1.17963H1.17958H1.17952H1.17947H1.17942H1.17936H1.17931H1.17926H1.1792H1.17915H1.1791H1.17904H1.17899H1.17893H1.17888H1.17883H1.17877H1.17872H1.17866H1.17861H1.17855H1.1785H1.17844H1.17839H1.17833H1.17828H1.17822H1.17817H1.17811H1.17806H1.178H1.17795H1.17789H1.17784H1.17778H1.17773H1.17767H1.17762H1.17756H1.17751H1.17745H1.17739H1.17734H1.17728H1.17723H1.17717H1.17711H1.17706H1.177H1.17694H1.17689H1.17683H1.17677H1.17672H1.17666H1.1766H1.17655H1.17649H1.17643H1.17638H1.17632H1.17626H1.17621H1.17615H1.17609H1.17603H1.17598H1.17592H1.17586H1.17581H1.17575H1.17569H1.17563H1.17557H1.17552H1.17546H1.1754H1.17534H1.17529H1.17523H1.17517H1.17511H1.17505H1.175H1.17494H1.17488H1.17482H1.17476H1.1747H1.17465H1.17459H1.17453H1.17447H1.17441H1.17435H1.17429H1.17424H1.17418H1.17412H1.17406H1.174H1.17394H1.17388H1.17382H1.17376H1.1737H1.17365H1.17359H1.17353H1.17347H1.17341H1.17335H1.17329H1.17323H1.17317H1.17311H1.17305H1.17299H1.17293H1.17287H1.17281H1.17275H1.17269H1.17264H1.17258H1.17252H1.17246H1.1724H1.17234H1.17228H1.17222H1.17216H1.1721H1.17204H1.17198H1.17192H1.17186H1.1718H1.17174H1.17168H1.17162H1.17156H1.1715H1.17143H1.17137H1.17131H1.17125H1.17119H1.17113H1.17107H1.17101H1.17095H1.17089H1.17083H1.17077H1.17071H1.17065H1.17059H1.17053H1.17047H1.17041H1.17035H1.17029H1.17022H1.17016H1.1701H1.17004H1.16998H1.16992H1.16986H1.1698H1.16974H1.16968H1.16962H1.16956H1.1695H1.16943H1.16937H1.16931H1.16925H1.16919H1.16913H1.16907H1.16901H1.16895H1.16889H1.16883H1.16876H1.1687H1.16864H1.16858H1.16852H1.16846H1.1684H1.16834H1.16828H1.16822H1.16815H1.16809H1.16803H1.16797H1.16791H1.16785H1.16779H1.16773H1.16767H1.16761H1.16754H1.16748H1.16742H1.16736H1.1673H1.16724H1.16718H1.16712H1.16706H1.167H1.16693H1.16687H1.16681H1.16675H1.16669H1.16663H1.16657H1.16651H1.16645H1.16638H1.16632H1.16626H1.1662H1.16614H1.16608H1.16602H1.16596H1.1659H1.16584H1.16578H1.16571H1.16565H1.16559H1.16553H1.16547H1.16541H1.16535H1.16529H1.16523H1.16517H1.16511H1.16505H1.16499H1.16492H1.16486H1.1648H1.16474H1.16468H1.16462H1.16456H1.1645H1.16444H1.16438H1.16432H1.16426H1.1642H1.16414H1.16408H1.16402H1.16396H1.1639H1.16383H1.16377H1.16371H1.16365H1.16359H1.16353H1.16347H1.16341H1.16335H1.16329H1.16323H1.16317H1.16311H1.16305H1.16299H1.16293H1.16287H1.16281H1.16275H1.16269H1.16263H1.16257H1.16251H1.16245H1.16239H1.16233H1.16227H1.16221H1.16216H1.1621H1.16204H1.16198H1.16192H1.16186H1.1618H1.16174H1.16168H1.16162H1.16156H1.1615H1.16144H1.16138H1.16132H1.16127H1.16121H1.16115H1.16109H1.16103H1.16097H1.16091H1.16085H1.16079H1.16074H1.16068H1.16062H1.16056H1.1605H1.16044H1.16038H1.16033H1.16027H1.16021H1.16015H1.16009H1.16004H1.15998H1.15992H1.15986H1.1598H1.15975H1.15969H1.15963H1.15957H1.15951H1.15946H1.1594H1.15934H1.15928H1.15923H1.15917H1.15911H1.15905H1.159H1.15894H1.15888H1.15883H1.15877H1.15871H1.15865H1.1586H1.15854H1.15848H1.15843H1.15837H1.15831H1.15826H1.1582H1.15814H1.15809H1.15803H1.15798H1.15792H1.15786H1.15781H1.15775H1.1577H1.15764H1.15758H1.15753H1.15747H1.15742H1.15736H1.15731H1.15725H1.15719H1.15714H1.15708H1.15703H1.15697H1.15692H1.15686H1.15681H1.15675H1.1567H1.15664H1.15659H1.15654H1.15648H1.15643H1.15637H1.15632H1.15626H1.15621H1.15616H1.1561H1.15605H1.15599H1.15594H1.15589H1.15583H1.15578H1.15573H1.15567H1.15562H1.15557H1.15551H1.15546H1.15541H1.15535H1.1553H1.15525H1.15519H1.15514H1.15509H1.15504H1.15498H1.15493H1.15488H1.15483H1.15478H1.15472H1.15467H1.15462H1.15457H1.15452H1.15447H1.15441H1.15436H1.15431H1.15426H1.15421H1.15416H1.15411H1.15406H1.15401H1.15395H1.1539H1.15385H1.1538H1.15375H1.1537H1.15365H1.1536H1.15355H1.1535H1.15345H1.1534H1.15335H1.1533H1.15325H1.1532H1.15316H1.15311H1.15306H1.15301H1.15296C0.96141 9.6374 0.776411 9.80358 0.786312 10.0065Z" fill="white" stroke="white" stroke-width="0.1"/>
<path d="M18.3311 10.0003L17.7934 10.5379L16.9954 11.3359L16.7662 11.5651C16.6258 11.7055 16.6258 11.9455 16.7662 12.0859C16.9066 12.2263 17.1466 12.2263 17.287 12.0859L18.085 11.2879L18.883 10.4898L18.8848 10.4881L18.8857 10.4872L18.8865 10.4863L18.8901 10.4828L18.8971 10.4757L18.9007 10.4722L18.9024 10.4704L18.9033 10.4695L18.9038 10.4691L18.9042 10.4686L18.9113 10.4615L18.9185 10.4544L18.9256 10.4473L18.9265 10.4464L18.9269 10.4459L18.9274 10.4455L18.9292 10.4437L18.931 10.4419L18.9328 10.4401L18.9332 10.4397L18.9337 10.4392L18.9341 10.4388L18.9345 10.4383L18.9363 10.4365L18.9381 10.4347L18.9399 10.4329L18.9417 10.4311L18.9422 10.4307L18.9426 10.4302L18.9431 10.4298L18.9435 10.4294L18.9471 10.4258L18.9489 10.424L18.9498 10.4231L18.9507 10.4222L18.9525 10.4204L18.9543 10.4186L18.9552 10.4177L18.9557 10.4172L18.9561 10.4168L18.9579 10.415L18.9615 10.4114L18.9651 10.4078L18.9656 10.4073L18.966 10.4069L18.9665 10.4064L18.9669 10.4059L18.9678 10.405L18.9687 10.4041L18.9705 10.4023L18.9723 10.4005L18.9759 10.3969L18.9777 10.3951L18.9796 10.3933L18.9832 10.3897L18.9841 10.3888L18.9845 10.3883L18.985 10.3879L18.9854 10.3874L18.9859 10.387L18.9863 10.3865L18.9868 10.3861L18.9904 10.3825L18.9922 10.3807L18.9931 10.3798L18.994 10.3789L18.9976 10.3753L18.9994 10.3734L19.0003 10.3725L19.0012 10.3716L19.0021 10.3707L19.003 10.3698L19.0039 10.3689L19.0048 10.368L19.0085 10.3644L19.0094 10.3635L19.0098 10.3631L19.0103 10.3626L19.0107 10.3622L19.0112 10.3617L19.0121 10.3608L19.0193 10.3536L19.0229 10.35L19.0238 10.3491L19.0247 10.3482L19.0265 10.3464L19.0337 10.3391L19.0373 10.3355L19.0409 10.3319L19.0427 10.3301L19.0432 10.3297L19.0436 10.3292L19.0441 10.3288L19.0445 10.3283L19.045 10.3279L19.0454 10.3274L19.0463 10.3265L19.0472 10.3256L19.0481 10.3247L19.0517 10.3212L19.0522 10.3207L19.0526 10.3203L19.0535 10.3194L19.0553 10.3176L19.0571 10.3158L19.0589 10.314L19.0607 10.3122L19.0616 10.3113L19.0625 10.3104L19.0696 10.3032L19.0701 10.3028L19.0705 10.3023L19.0714 10.3014L19.0732 10.2997L19.0768 10.2961L19.0839 10.289L19.091 10.2819L19.0915 10.2814L19.0919 10.281L19.0928 10.2801L19.0946 10.2783L19.0954 10.2774L19.0959 10.277L19.0963 10.2765L19.0968 10.2761L19.0972 10.2756L19.0977 10.2752L19.0981 10.2748L19.1052 10.2677L19.1087 10.2642L19.1122 10.2607C19.2526 10.1203 19.2526 9.88026 19.1122 9.73989L18.3142 8.94187L17.5162 8.14385L17.4016 8.02925L17.287 7.91466C17.1466 7.77428 16.9066 7.77428 16.7662 7.91466C16.6258 8.05503 16.6258 8.29505 16.7662 8.43542L17.5642 9.23344L18.3311 10.0003Z" fill="white" stroke="white" stroke-width="0.1"/>
<path d="M10.0003 1.66944L11.3359 3.00509L11.5651 3.23429C11.7055 3.37466 11.9455 3.37466 12.0859 3.23429C12.2263 3.09391 12.2263 2.85389 12.0859 2.71352L11.2879 1.9155L10.4898 1.11748L10.3753 1.00289L10.2607 0.888289C10.1203 0.747914 9.88026 0.747914 9.73989 0.888289L8.94187 1.68631L8.14385 2.48432L7.91466 2.71352C7.77428 2.85389 7.77428 3.09391 7.91466 3.23429C8.05503 3.37466 8.29505 3.37466 8.43542 3.23429L9.23344 2.43627L10.0003 1.66944Z" fill="white" stroke="white" stroke-width="0.1"/>
<path fill-rule="evenodd" clip-rule="evenodd" d="M9.9987 5.87467C7.72052 5.87467 5.8737 7.7215 5.8737 9.99967C5.8737 12.2778 7.72052 14.1247 9.9987 14.1247C12.2769 14.1247 14.1237 12.2778 14.1237 9.99967C14.1237 7.7215 12.2769 5.87467 9.9987 5.87467ZM4.95703 9.99967C4.95703 7.21524 7.21426 4.95801 9.9987 4.95801C12.7831 4.95801 15.0404 7.21524 15.0404 9.99967C15.0404 12.7841 12.7831 15.0413 9.9987 15.0413C7.21426 15.0413 4.95703 12.7841 4.95703 9.99967Z" fill="white"/>
</svg>
