<svg width="24" height="24" viewBox="0 0 24 24" fill="none" xmlns="http://www.w3.org/2000/svg">
<path d="M19.1276 8.15824L4.28549 2.03311C4.28549 2.03311 4.28308 2.0319 4.28188 2.0319H4.28067C4.28067 2.0319 4.27887 2.0307 4.27827 2.0307C4.26442 2.02528 4.25058 2.02047 4.23613 2.01625C4.23192 2.01505 4.2277 2.01384 4.22289 2.01264C4.21205 2.00963 4.20062 2.00782 4.18918 2.00542C4.18376 2.00482 4.17835 2.00361 4.17353 2.00301C4.1627 2.00181 4.15186 2.0006 4.14103 2.0006C4.13561 2.0006 4.13019 2 4.12478 2C4.12297 2 4.12116 2 4.11996 2C4.10732 2 4.09468 2.0006 4.08204 2.00181C4.08084 2.00181 4.07903 2.00181 4.07783 2.00181C4.06157 2.00361 4.04592 2.00602 4.03027 2.00963C4.02727 2.01023 4.02426 2.01144 4.02064 2.01204C4.008 2.01505 3.99597 2.01866 3.98333 2.02287C3.97911 2.02408 3.9755 2.02588 3.97129 2.02709C3.95985 2.0313 3.94841 2.03612 3.93698 2.04153C3.93337 2.04334 3.92975 2.04454 3.92674 2.04635C3.89785 2.0614 3.87137 2.07885 3.84669 2.09992C3.84308 2.10293 3.84007 2.10594 3.83706 2.10895C3.82863 2.11677 3.8202 2.1246 3.81238 2.13302C3.80877 2.13664 3.80576 2.14025 3.80215 2.14446C3.79432 2.15349 3.7865 2.16312 3.77988 2.17275C3.77747 2.17576 3.77566 2.17817 3.77325 2.18118C3.76423 2.19442 3.7558 2.20826 3.74797 2.22211C3.74797 2.22211 3.74797 2.22211 3.74797 2.22271C3.74075 2.23655 3.73413 2.2504 3.72871 2.26484C3.72751 2.26846 3.72631 2.27147 3.7251 2.27508C3.72089 2.28651 3.71728 2.29855 3.71366 2.31059C3.71246 2.3148 3.71126 2.31902 3.71066 2.32323C3.70765 2.33527 3.70584 2.34731 3.70403 2.35935C3.70343 2.36356 3.70283 2.36717 3.70223 2.37138C3.70042 2.38764 3.69922 2.40389 3.69922 2.42014V21.5787C3.69922 21.8116 3.88762 22 4.12056 22C4.35351 22 4.54191 21.8116 4.54191 21.5787V14.9569L19.1282 8.93713C19.2859 8.87212 19.3889 8.71803 19.3889 8.54769C19.3889 8.37734 19.2859 8.22325 19.1282 8.15824H19.1276ZM4.54131 14.0456V3.05035L17.8624 8.54769L4.54131 14.0456Z" fill="white"/>
<path d="M15.2152 5.03187C15.182 5.03187 15.1483 5.02766 15.1146 5.01983C14.8883 4.96446 14.7499 4.73633 14.8052 4.51061L15.2735 2.5953C15.3289 2.36898 15.557 2.23054 15.7828 2.28591C16.0091 2.34129 16.1475 2.56942 16.0922 2.79514L15.6239 4.71045C15.5769 4.90306 15.4048 5.03187 15.2152 5.03187Z" fill="white"/>
<path d="M16.9391 5.79511C16.8632 5.79511 16.7862 5.77464 16.7163 5.7313C16.5189 5.60851 16.4587 5.34848 16.5815 5.15105L17.9316 2.98414C18.0544 2.78671 18.3144 2.72652 18.5119 2.84931C18.7093 2.9721 18.7695 3.23213 18.6467 3.42956L17.2966 5.59647C17.2165 5.72468 17.0793 5.79511 16.9385 5.79511H16.9391Z" fill="white"/>
<path d="M18.5564 6.81596C18.4402 6.81596 18.3247 6.76841 18.241 6.67451C18.0863 6.50056 18.102 6.23391 18.2759 6.07982L19.6068 4.89764C19.7807 4.74295 20.0468 4.7586 20.2015 4.93256C20.3562 5.10651 20.3405 5.37316 20.1666 5.52725L18.8357 6.70942C18.7557 6.78045 18.6557 6.81596 18.5558 6.81596H18.5564Z" fill="white"/>
</svg>
