<svg width="24" height="24" viewBox="0 0 24 24" fill="none" xmlns="http://www.w3.org/2000/svg">
<path d="M6.55976 5.30273H5.9082V5.95429H6.55976V5.30273Z" fill="#E2CFEA"/>
<path d="M5.25702 5.30273H4.60547V5.95429H5.25702V5.30273Z" fill="#E2CFEA"/>
<path d="M3.95624 5.30273H3.30469V5.95429H3.95624V5.30273Z" fill="white"/>
<path d="M21.8135 9.09317L19.5022 6.78193C19.2539 6.53363 18.8488 6.53363 18.6005 6.78193L8.17188 17.2105V20.4235H11.3848L21.8135 9.9949C21.9348 9.87355 22.0001 9.71486 22.0001 9.5431C22.0001 9.37135 21.9329 9.21266 21.8135 9.09131V9.09317ZM8.90371 19.6917V17.513L9.03626 17.3804L11.215 19.5591L11.0824 19.6917H8.90371ZM19.3043 11.4698L11.7321 19.042L9.55339 16.8633L17.1256 9.29107L19.3043 11.4698ZM21.231 9.5431L19.8215 10.9508L17.6428 8.77206L19.0523 7.36254L21.231 9.54124V9.5431Z" fill="white"/>
<path d="M7.58396 17.6771H2.65155V7.25591H16.9802V7.49487L17.6317 6.86385V4H2V18.3286H7.58396V17.6771ZM2.65155 4.65155H16.9802V6.60435H2.65155V4.65155Z" fill="white"/>
</svg>
