<svg width="55" height="42" viewBox="0 0 55 42" fill="none" xmlns="http://www.w3.org/2000/svg">
<path d="M4.2018 4.01764C4.22545 3.97943 4.27406 3.96975 4.31052 3.99597L53.7351 39.5319C53.8887 39.6424 53.9503 39.852 53.8817 40.0312V40.0312C53.7916 40.2668 53.52 40.3491 53.3194 40.2017L4.2245 4.13458C4.18833 4.10801 4.1782 4.05577 4.2018 4.01764V4.01764Z" fill="white"/>
<path fill-rule="evenodd" clip-rule="evenodd" d="M53.3191 40.202C53.5197 40.3494 53.7912 40.2671 53.8814 40.0315C53.95 39.8523 53.8884 39.6426 53.7348 39.5322L4.31088 3.99671C4.27441 3.97049 4.22512 3.97969 4.20148 4.01789C4.17787 4.05603 4.18801 4.10827 4.22417 4.13483L53.3191 40.202ZM4.55484 3.5975L53.9794 39.1334C54.3153 39.375 54.4499 39.8333 54.3 40.2251C54.1029 40.7402 53.5093 40.9202 53.0705 40.5978L3.97564 4.53073C3.73218 4.35187 3.66391 4.00017 3.82285 3.7434C3.98206 3.4862 4.30931 3.42097 4.55484 3.5975Z" fill="white"/>
<path fill-rule="evenodd" clip-rule="evenodd" d="M4.60755 6.38547C5.84269 6.19111 6.72013 4.99899 6.51301 3.6828C6.3059 2.3666 5.10476 1.50156 3.86962 1.69592C2.63449 1.89028 1.75705 3.08239 1.96417 4.39859C2.17128 5.71479 3.37242 6.57982 4.60755 6.38547ZM4.77717 7.46339C6.62862 7.17206 7.88839 5.40348 7.59094 3.51318C7.29349 1.62288 5.55146 0.326656 3.70001 0.617994C1.84855 0.909332 0.588788 2.6779 0.88624 4.56821C1.18369 6.45851 2.92572 7.75473 4.77717 7.46339Z" fill="white"/>
</svg>
