<svg width="28" height="30" viewBox="0 0 28 30" fill="none" xmlns="http://www.w3.org/2000/svg">
<path d="M2.39042 29.0801C2.39042 29.0801 2.39042 29.0801 2.39642 29.0801C2.36043 29.0801 2.36643 29.0801 2.39042 29.0801Z" fill="white"/>
<path d="M1.70605 5.05376C1.70605 5.05376 1.70605 5.05376 1.70605 5.05976C1.70605 5.04176 1.70605 5.03577 1.70605 5.03577C1.70605 5.03577 1.70605 5.04776 1.70605 5.05376Z" fill="white"/>
<path d="M22.8842 25.6494V28.0125C22.8842 28.1025 22.8842 28.1864 22.8842 28.2764C22.8842 28.3184 22.8842 28.3544 22.8842 28.3963C22.8842 28.4083 22.8722 28.4623 22.8722 28.4743C22.8602 28.5163 22.8482 28.5523 22.8362 28.5943C22.8362 28.6063 22.8362 28.6063 22.8362 28.6122C22.8362 28.6122 22.8362 28.6123 22.8243 28.6302C22.8063 28.6662 22.7883 28.7022 22.7643 28.7322C22.7643 28.7382 22.7283 28.7862 22.7223 28.7922C22.7043 28.8162 22.6863 28.8342 22.6623 28.8582C22.6383 28.8821 22.6143 28.9001 22.5903 28.9241C22.5723 28.9361 22.5544 28.9481 22.5364 28.9601C22.5004 28.9841 22.4644 28.9961 22.4344 29.0201C22.4224 29.0261 22.4224 29.0261 22.4164 29.0321C22.4104 29.0321 22.4164 29.0321 22.3984 29.0321C22.3564 29.0441 22.3205 29.0561 22.2785 29.0681C22.2665 29.0681 22.2125 29.0801 22.2065 29.0801C22.1765 29.0801 22.1405 29.0801 22.1105 29.0801C22.0925 29.0801 22.0686 29.0801 22.0506 29.0801H4.99338C4.17171 29.0801 3.34404 29.0801 2.52237 29.0801H2.49838C2.49838 29.0801 2.42041 29.0801 2.39042 29.0801C2.37843 29.0801 2.37843 29.0801 2.37243 29.0801C2.36643 29.0801 2.37243 29.0801 2.35444 29.0741C2.30046 29.0561 2.24048 29.0441 2.1865 29.0261C2.16851 29.0201 2.13253 29.0021 2.12653 28.9961C2.09054 28.9781 2.06055 28.9541 2.02457 28.9361C2.01257 28.9301 2.01257 28.9301 2.00658 28.9241C2.00658 28.9241 2.00658 28.9241 1.99458 28.9061C1.95859 28.8701 1.92261 28.8342 1.88063 28.7922C1.86863 28.7802 1.86863 28.7802 1.86263 28.7802C1.86263 28.7802 1.86263 28.7802 1.85064 28.7622C1.83265 28.7262 1.80865 28.6962 1.79066 28.6602C1.79066 28.6602 1.77267 28.6302 1.76667 28.6063C1.76067 28.5823 1.74268 28.5463 1.74268 28.5463C1.73069 28.5043 1.72469 28.4683 1.71269 28.4263C1.71269 28.4083 1.71269 28.4143 1.7067 28.4083C1.7067 28.4023 1.7067 28.4083 1.7067 28.3843C1.7067 28.3544 1.7067 28.3244 1.7067 28.3004C1.7067 28.2884 1.7067 28.2704 1.7067 28.2584C1.7067 28.0185 1.7067 27.7786 1.7067 27.5387V5.33556C1.7067 5.28158 1.7067 5.22161 1.7067 5.16763C1.7067 5.13764 1.70605 5.08974 1.70605 5.05976C1.70605 5.05376 1.7067 5.04768 1.7067 5.04768C1.7067 5.03568 1.7067 5.03568 1.7067 5.04768C1.7067 5.04168 1.7067 5.04768 1.7067 5.02968C1.71869 4.9877 1.72469 4.95172 1.73668 4.90973C1.74268 4.89174 1.74868 4.86775 1.75468 4.84976C1.75468 4.84376 1.75468 4.84976 1.76067 4.83176C1.79066 4.78378 1.82065 4.7298 1.85064 4.68782C1.86263 4.67583 1.88662 4.63984 1.89262 4.63384C1.92261 4.60385 1.9466 4.57986 1.97659 4.54988C1.98858 4.53788 1.98858 4.53788 1.98858 4.53188C1.98858 4.53188 1.98858 4.53188 2.00658 4.51989C2.04256 4.5019 2.07255 4.47791 2.10853 4.45991C2.11453 4.45991 2.16851 4.43592 2.17451 4.42992C2.2045 4.41793 2.22849 4.41193 2.25847 4.39994C2.28846 4.38794 2.31845 4.38794 2.34244 4.38194C2.34844 4.38194 2.40841 4.37595 2.42041 4.37595C2.4384 4.37595 2.4504 4.37595 2.46239 4.37595C2.46839 4.37595 2.47439 4.37595 2.48039 4.37595C2.51637 4.37595 2.55236 4.37595 2.58834 4.37595H5.24528V3.45831C4.63352 3.45831 5.49118 3.45831 4.87943 3.45831H2.53436C2.13253 3.45831 1.74868 3.56627 1.43081 3.81217C1.02897 4.13604 0.789062 4.63384 0.789062 5.17363C0.789062 5.25759 0.789062 5.34756 0.789062 5.43152V27.6766C0.789062 27.8865 0.789062 28.0965 0.789062 28.3004C0.801058 29.0681 1.32885 29.7818 2.09054 29.9497C2.26447 29.9857 2.43241 29.9977 2.60634 29.9977H21.7867C21.8826 29.9977 21.9786 29.9977 22.0746 29.9977C22.6503 29.9977 23.1661 29.7278 23.496 29.26C23.8019 28.8342 23.7899 28.3484 23.7899 27.8566V26.2312C23.7899 25.4035 23.7899 26.5251 23.7899 25.6974V25.6494H22.8722H22.8842Z" fill="white"/>
<path d="M26.435 5.97722V24.5578C26.435 24.6477 26.435 24.7317 26.435 24.8217C26.435 24.8697 26.435 24.9236 26.429 24.9716C26.441 24.8697 26.423 24.9956 26.417 25.0136C26.405 25.0556 26.393 25.0916 26.381 25.1276C26.345 25.2415 26.423 25.0616 26.363 25.1635C26.345 25.1995 26.3271 25.2355 26.3031 25.2655C26.2971 25.2775 26.2191 25.3795 26.2791 25.3015C26.2551 25.3315 26.2251 25.3615 26.2011 25.3915C26.1771 25.4154 26.1531 25.4394 26.1291 25.4574C26.1051 25.4754 26.1111 25.4754 26.1411 25.4454C26.1171 25.4634 26.0991 25.4754 26.0751 25.4874C26.0392 25.5114 26.0032 25.5234 25.9732 25.5474C25.8712 25.6074 26.0512 25.5294 25.9372 25.5654C25.8952 25.5774 25.8592 25.5894 25.8233 25.6014C25.8113 25.6014 25.6793 25.6254 25.7813 25.6134C25.7393 25.6134 25.6913 25.6134 25.6493 25.6194C25.6313 25.6194 25.6073 25.6194 25.5893 25.6194H8.54416C7.72249 25.6194 6.89482 25.6194 6.07315 25.6194C6.06116 25.6194 6.04916 25.6194 6.03716 25.6194C6.15112 25.6194 5.83924 25.6194 5.9532 25.6194C5.82725 25.6194 6.03117 25.6434 5.91122 25.6194C5.84524 25.6014 5.77927 25.5894 5.71929 25.5594C5.81525 25.5954 5.6953 25.5474 5.68331 25.5414C5.64732 25.5234 5.61733 25.4994 5.58135 25.4814C5.47939 25.4214 5.63533 25.5414 5.55136 25.4574C5.51537 25.4214 5.47939 25.3855 5.4374 25.3435C5.35344 25.2595 5.47339 25.4154 5.41341 25.3135C5.39542 25.2775 5.37143 25.2475 5.35344 25.2115C5.35344 25.2115 5.29946 25.0976 5.32345 25.1575C5.34744 25.2175 5.30546 25.0976 5.30546 25.0976C5.29346 25.0556 5.28746 25.0196 5.27547 24.9776C5.24548 24.8577 5.27547 25.0616 5.27547 24.9356C5.27547 24.9056 5.27547 24.8757 5.27547 24.8517C5.27547 24.8397 5.27547 24.8217 5.27547 24.8097C5.27547 24.5698 5.27547 24.3299 5.27547 24.09V1.87486C5.27547 1.81488 5.27547 1.75491 5.27547 1.69493C5.27547 1.69493 5.27547 1.69493 5.27547 1.68893C5.27547 1.84487 5.27547 1.44903 5.27547 1.60497C5.27547 1.47902 5.25148 1.68294 5.27547 1.56298C5.28746 1.521 5.29346 1.48502 5.30546 1.44303C5.31146 1.41904 5.32345 1.38905 5.32945 1.36506C5.31146 1.41304 5.31146 1.41304 5.32945 1.36506C5.36543 1.30509 5.39542 1.25111 5.43141 1.19713C5.37143 1.2811 5.4494 1.17914 5.4614 1.16714C5.49138 1.13715 5.51537 1.11316 5.54536 1.08318C5.62933 0.999209 5.47339 1.11916 5.57535 1.05919C5.61134 1.04119 5.64132 1.0172 5.67731 0.999209C5.6893 0.993212 5.80926 0.939233 5.71329 0.981217C5.74928 0.969221 5.79126 0.951229 5.82725 0.945231C5.86923 0.933236 5.90522 0.927238 5.9472 0.921241C5.84524 0.939233 5.97719 0.921241 5.98918 0.921241C6.00718 0.921241 6.01917 0.921241 6.03117 0.921241C6.03716 0.921241 6.04316 0.921241 6.05516 0.921241C6.09114 0.921241 6.12713 0.921241 6.16311 0.921241H21.367C21.2591 0.879257 21.1511 0.831277 21.0432 0.789293C21.6609 1.40705 22.2847 2.0308 22.9024 2.64855C23.898 3.64415 24.8876 4.63376 25.8832 5.62936C26.1111 5.85727 26.339 6.08517 26.567 6.31308C26.7409 6.48701 27.0408 6.48701 27.2147 6.31308C27.3886 6.13915 27.3886 5.83927 27.2147 5.66534C26.8728 5.32348 26.531 4.98162 26.1891 4.63975C25.4754 3.92604 24.7617 3.21232 24.048 2.49861C23.4122 1.86286 22.7765 1.22712 22.1407 0.591373C21.9968 0.44743 21.8588 0.303488 21.7149 0.165543C21.5829 0.0395933 21.439 0.00960532 21.2711 0.00960532H6.10314C5.7013 0.00960532 5.31745 0.117562 4.99958 0.363464C4.57375 0.693332 4.33984 1.19113 4.33984 1.72492C4.33984 1.80889 4.33984 1.89885 4.33984 1.98282V24.2279C4.33984 24.4378 4.33984 24.6477 4.33984 24.8517C4.35184 25.6194 4.87963 26.3331 5.64132 26.501C5.81525 26.537 5.98319 26.549 6.15712 26.549H25.3374C25.4334 26.549 25.5294 26.549 25.6253 26.549C26.2011 26.549 26.7169 26.2791 27.0468 25.8113C27.3526 25.3855 27.3406 24.8996 27.3406 24.4078V5.97722C27.3406 5.73731 27.1307 5.50941 26.8848 5.5214C26.6389 5.5334 26.429 5.72532 26.429 5.97722H26.435Z" fill="white"/>
<path d="M21.8222 5.97722V0.453428C21.5643 0.561385 21.3005 0.669341 21.0426 0.777298C21.6603 1.39505 22.2841 2.0188 22.9018 2.63655C23.8974 3.63216 24.887 4.62176 25.8826 5.61736C26.1105 5.84527 26.3384 6.07318 26.5663 6.30109C26.6743 6.04319 26.7823 5.7793 26.8902 5.5214H21.3664C21.1265 5.5214 20.8986 5.73132 20.9106 5.97722C20.9226 6.22312 21.1145 6.43304 21.3664 6.43304H26.8902C27.2861 6.43304 27.496 5.93524 27.2141 5.65335C26.5963 5.0356 25.9726 4.41184 25.3548 3.79409C24.3592 2.79849 23.3696 1.80889 22.374 0.813284C22.1461 0.585375 21.9182 0.357466 21.6903 0.129557C21.4084 -0.15233 20.9106 0.0575861 20.9106 0.453428V5.97722C20.9106 6.21712 21.1205 6.44503 21.3664 6.43304C21.6123 6.42104 21.8222 6.22912 21.8222 5.97722Z" fill="white"/>
<path d="M16.8847 9.008H11.6626C11.2128 9.008 10.763 8.99 10.3131 9.008C10.3071 9.008 10.3011 9.008 10.2951 9.008C10.0552 9.008 9.82733 9.21791 9.83932 9.46381C9.85132 9.70972 10.0432 9.91963 10.2951 9.91963H15.5173C15.9671 9.91963 16.4169 9.93762 16.8667 9.91963C16.8727 9.91963 16.8787 9.91963 16.8847 9.91963C17.1246 9.91963 17.3525 9.70972 17.3405 9.46381C17.3285 9.21791 17.1366 9.008 16.8847 9.008Z" fill="white"/>
<path d="M21.3847 13.508H11.6626C11.2128 13.508 10.763 13.49 10.3131 13.508C10.3071 13.508 10.3011 13.508 10.2951 13.508C10.0552 13.508 9.82733 13.7179 9.83932 13.9638C9.85132 14.2097 10.0432 14.4196 10.2951 14.4196H20.0173C20.4671 14.4196 20.9169 14.4376 21.3667 14.4196C21.3727 14.4196 21.3787 14.4196 21.3847 14.4196C21.6246 14.4196 21.8525 14.2097 21.8405 13.9638C21.8285 13.7179 21.6366 13.508 21.3847 13.508Z" fill="white"/>
<path d="M21.3847 18.0081H11.6626C11.2128 18.0081 10.763 17.9901 10.3131 18.0081C10.3071 18.0081 10.3011 18.0081 10.2951 18.0081C10.0552 18.0081 9.82733 18.218 9.83932 18.4639C9.85132 18.7098 10.0432 18.9197 10.2951 18.9197H20.0173C20.4671 18.9197 20.9169 18.9377 21.3667 18.9197C21.3727 18.9197 21.3787 18.9197 21.3847 18.9197C21.6246 18.9197 21.8525 18.7098 21.8405 18.4639C21.8285 18.218 21.6366 18.0081 21.3847 18.0081Z" fill="white"/>
</svg>
