<svg width="25" height="25" viewBox="0 0 25 25" fill="none" xmlns="http://www.w3.org/2000/svg">
<path d="M17.8164 20.0148V19.9152C17.8164 19.5391 17.8696 19.193 17.9759 18.8769C18.0822 18.5576 18.237 18.281 18.4402 18.0471C18.6435 17.8132 18.8936 17.6315 19.1907 17.5019C19.4878 17.3691 19.8286 17.3027 20.2132 17.3027C20.5978 17.3027 20.9402 17.3691 21.2404 17.5019C21.5406 17.6315 21.7923 17.8132 21.9956 18.0471C22.202 18.281 22.3583 18.5576 22.4646 18.8769C22.5709 19.193 22.6241 19.5391 22.6241 19.9152V20.0148C22.6241 20.3878 22.5709 20.7339 22.4646 21.0532C22.3583 21.3693 22.202 21.6458 21.9956 21.8829C21.7923 22.1168 21.5422 22.2986 21.2451 22.4282C20.9481 22.5578 20.6072 22.6226 20.2226 22.6226C19.838 22.6226 19.4956 22.5578 19.1954 22.4282C18.8983 22.2986 18.6466 22.1168 18.4402 21.8829C18.237 21.6458 18.0822 21.3693 17.9759 21.0532C17.8696 20.7339 17.8164 20.3878 17.8164 20.0148ZM19.1673 19.9152V20.0148C19.1673 20.2297 19.186 20.4305 19.2235 20.617C19.2611 20.8035 19.3205 20.9678 19.4018 21.1101C19.4862 21.2491 19.5956 21.3582 19.7301 21.4372C19.8646 21.5162 20.0287 21.5558 20.2226 21.5558C20.4102 21.5558 20.5713 21.5162 20.7057 21.4372C20.8402 21.3582 20.9481 21.2491 21.0294 21.1101C21.1107 20.9678 21.1701 20.8035 21.2076 20.617C21.2482 20.4305 21.2686 20.2297 21.2686 20.0148V19.9152C21.2686 19.7066 21.2482 19.5106 21.2076 19.3273C21.1701 19.1408 21.1091 18.9764 21.0247 18.8342C20.9434 18.6888 20.8355 18.575 20.701 18.4928C20.5666 18.4106 20.404 18.3695 20.2132 18.3695C20.0225 18.3695 19.8599 18.4106 19.7254 18.4928C19.5941 18.575 19.4862 18.6888 19.4018 18.8342C19.3205 18.9764 19.2611 19.1408 19.2235 19.3273C19.186 19.5106 19.1673 19.7066 19.1673 19.9152Z" fill="white"/>
<path d="M17.3827 17.3968V18.3641H14.4277V17.3968H17.3827ZM15.1594 16.1309H16.5103V20.9813C16.5103 21.1299 16.529 21.2437 16.5666 21.3227C16.6072 21.4017 16.6666 21.457 16.7448 21.4886C16.823 21.5171 16.9215 21.5313 17.0403 21.5313C17.1247 21.5313 17.1998 21.5281 17.2654 21.5218C17.3342 21.5123 17.3921 21.5028 17.439 21.4934L17.4437 22.4985C17.328 22.5365 17.2029 22.5665 17.0684 22.5886C16.934 22.6108 16.7855 22.6218 16.6229 22.6218C16.3258 22.6218 16.0663 22.5728 15.8442 22.4748C15.6254 22.3737 15.4565 22.2125 15.3377 21.9912C15.2189 21.7699 15.1594 21.4791 15.1594 21.1188V16.1309Z" fill="white"/>
<path d="M12.516 21.2986V17.3965H13.8668V22.5267H12.5957L12.516 21.2986ZM12.6661 20.2461L13.0647 20.2366C13.0647 20.578 13.0257 20.8956 12.9475 21.1896C12.8693 21.4804 12.752 21.7333 12.5957 21.9482C12.4394 22.16 12.2424 22.3259 12.0047 22.4461C11.7671 22.563 11.4872 22.6215 11.1651 22.6215C10.9181 22.6215 10.6898 22.5867 10.4803 22.5172C10.2739 22.4445 10.0957 22.3323 9.94561 22.1805C9.79864 22.0257 9.68294 21.8281 9.59851 21.5879C9.51721 21.3445 9.47656 21.0521 9.47656 20.7107V17.3965H10.8274V20.7202C10.8274 20.8719 10.8446 20.9999 10.879 21.1042C10.9165 21.2086 10.9681 21.2939 11.0338 21.3603C11.0995 21.4267 11.1761 21.4741 11.2636 21.5025C11.3543 21.531 11.4544 21.5452 11.5638 21.5452C11.8421 21.5452 12.061 21.4883 12.2205 21.3745C12.3831 21.2607 12.4972 21.1058 12.5629 20.9099C12.6317 20.7107 12.6661 20.4894 12.6661 20.2461Z" fill="white"/>
<path d="M5.97671 16.8037L4.11929 22.5265H2.62305L5.16057 15.623H6.11273L5.97671 16.8037ZM7.51986 22.5265L5.65776 16.8037L5.50766 15.623H6.4692L9.0208 22.5265H7.51986ZM7.43543 19.9567V21.0709H3.82849V19.9567H7.43543Z" fill="white"/>
<path fill-rule="evenodd" clip-rule="evenodd" d="M6.92546 8.35807C8.21358 7.86097 8.85484 6.41377 8.35775 5.12565C7.86065 3.83752 6.41345 3.19626 5.12532 3.69336C3.8372 4.19045 3.19594 5.63765 3.69303 6.92578C4.19013 8.2139 5.63733 8.85516 6.92546 8.35807ZM7.28548 9.29101C9.08886 8.59508 9.98662 6.56899 9.29069 4.76562C8.59476 2.96225 6.56867 2.06448 4.7653 2.76041C2.96192 3.45635 2.06416 5.48243 2.76009 7.2858C3.45602 9.08918 5.48211 9.98694 7.28548 9.29101Z" fill="white"/>
<path fill-rule="evenodd" clip-rule="evenodd" d="M5.74031 5.93855C5.87294 5.69634 6.14022 5.58749 6.33729 5.69541L21.7717 14.1478C21.9688 14.2557 22.021 14.5395 21.8884 14.7817C21.7557 15.0239 21.4884 15.1328 21.2914 15.0249L5.85697 6.5725C5.6599 6.46458 5.60767 6.18075 5.74031 5.93855Z" fill="white"/></svg>
