<svg width="22" height="18" viewBox="0 0 22 18" fill="none" xmlns="http://www.w3.org/2000/svg">
<g clip-path="url(#clip0_917_20381)">
<path fill-rule="evenodd" clip-rule="evenodd" d="M9.2951 0.280363C8.58511 0.308363 7.9661 0.367363 7.7731 0.424363C7.3211 0.557363 6.79511 0.890363 6.49111 1.23636C6.40611 1.33236 6.1121 1.77136 5.8371 2.21236C5.2621 3.13336 5.1621 3.25936 4.8611 3.45436C4.5741 3.63936 4.3021 3.71536 3.5021 3.83336C2.4721 3.98436 2.0531 4.15736 1.5811 4.62136C1.1141 5.08236 0.842105 5.63736 0.768105 6.27936C0.742105 6.50736 0.733105 8.06236 0.741105 11.0184L0.753105 15.4184L0.834105 15.7044C0.973105 16.1974 1.1821 16.5484 1.5571 16.9224C1.9281 17.2914 2.2221 17.4804 2.6581 17.6284L2.9521 17.7284H11.0001H19.0481L19.3421 17.6284C19.7781 17.4804 20.0721 17.2914 20.4431 16.9224C20.8181 16.5484 21.0271 16.1964 21.1661 15.7044L21.2471 15.4184L21.2591 11.0374C21.2661 8.17036 21.2571 6.53236 21.2321 6.30036C21.1181 5.23436 20.4131 4.34236 19.4331 4.02136C19.2821 3.97136 18.8611 3.88736 18.4981 3.83336C17.6971 3.71536 17.4261 3.63936 17.1391 3.45436C16.8461 3.26436 16.7391 3.13136 16.2461 2.34136C15.7711 1.57836 15.6191 1.35436 15.4581 1.17936C15.1731 0.869363 14.6401 0.543363 14.2171 0.422363C14.1011 0.389363 13.8211 0.346363 13.5941 0.327363C13.1741 0.291363 9.8961 0.256363 9.2951 0.280363ZM12.4671 1.28436C13.1021 1.30436 13.7121 1.33936 13.8231 1.36136C14.4141 1.47936 14.6941 1.74436 15.3651 2.82136C15.9091 3.69536 16.1781 4.01636 16.5971 4.29036C17.0001 4.55436 17.2961 4.64736 18.2471 4.80436C18.9591 4.92236 19.1321 4.96336 19.3251 5.06136C19.7321 5.26636 20.0691 5.68636 20.1891 6.13636C20.2301 6.29136 20.2391 7.12436 20.2401 10.7814C20.2401 15.6534 20.2491 15.4474 20.0281 15.8534C19.9001 16.0874 19.5711 16.4174 19.3361 16.5454C18.9261 16.7684 19.4031 16.7564 11.0001 16.7564C2.7521 16.7564 3.0841 16.7634 2.7211 16.5774C2.3171 16.3704 1.9681 15.9544 1.8341 15.5214C1.7621 15.2874 1.7601 15.1864 1.7601 10.8044C1.7611 7.12736 1.7701 6.29136 1.8111 6.13636C1.8871 5.84936 2.0491 5.57736 2.2751 5.35236C2.5961 5.03336 2.7781 4.96636 3.7571 4.80436C4.7051 4.64636 5.0021 4.55436 5.4031 4.29036C5.8301 4.00936 6.0921 3.69736 6.6381 2.82336C7.1781 1.95736 7.3211 1.77936 7.6391 1.57336C7.9541 1.36736 8.2161 1.32336 9.3131 1.28836C10.6961 1.24436 11.1911 1.24336 12.4671 1.28436ZM10.1931 4.81836C9.0891 5.01436 8.1681 5.50136 7.4041 6.29536C6.7541 6.97036 6.37011 7.67036 6.13011 8.61436C6.04011 8.97236 6.0321 9.05936 6.0321 9.75336C6.0321 10.4494 6.0401 10.5344 6.1311 10.8964C6.3831 11.8894 6.84011 12.6794 7.56411 13.3704C8.24911 14.0254 9.06311 14.4524 10.0101 14.6554C10.4451 14.7484 11.5501 14.7494 11.9781 14.6574C12.9431 14.4494 13.7481 14.0274 14.4361 13.3704C15.1601 12.6794 15.6171 11.8894 15.8691 10.8964C15.9601 10.5344 15.9681 10.4504 15.9671 9.75336C15.9671 8.90136 15.9191 8.62436 15.6531 7.93836C15.0501 6.38136 13.6911 5.22736 12.0271 4.85836C11.6551 4.77636 10.5681 4.75236 10.1931 4.81836ZM11.6421 5.81136C13.2691 6.07536 14.5361 7.28236 14.9131 8.92736C14.9951 9.28136 14.9951 10.2254 14.9131 10.5804C14.4851 12.4474 12.8771 13.7504 11.0001 13.7504C9.1231 13.7504 7.5151 12.4474 7.0871 10.5804C7.0051 10.2254 7.0051 9.28136 7.0871 8.92736C7.4171 7.48736 8.41711 6.38736 9.80311 5.93936C10.3511 5.76236 11.0441 5.71436 11.6421 5.81136ZM17.5011 7.07536C17.1721 7.27636 17.1691 7.68636 17.4951 7.92936C17.7011 8.08336 18.0701 7.98136 18.1981 7.73536C18.4241 7.30136 17.9181 6.82136 17.5011 7.07536Z" fill="white"/>
</g>
<defs>
<clipPath id="clip0_917_20381">
<rect width="22" height="18" fill="white"/>
</clipPath>
</defs>
</svg>
