<svg width="81" height="80" viewBox="0 0 81 80" fill="none" xmlns="http://www.w3.org/2000/svg">
<path d="M31.2704 55.5913V24.5023C31.2704 24.5023 31.2704 24.3577 31.2704 24.3035C31.2704 23.9781 31.2162 24.4842 31.2704 24.195C31.3247 23.9601 31.2704 24.1589 31.2704 24.195C31.2704 24.195 31.4693 23.9058 31.3427 24.0685C31.2162 24.2312 31.4512 23.9781 31.4512 23.9781C31.2885 24.1408 31.3789 23.9781 31.4873 23.9781C31.6681 24.0143 31.1981 24.0143 31.4873 23.9781C31.5596 23.9781 31.7404 23.942 31.4331 23.9781C31.5054 23.9781 31.5777 23.9781 31.65 23.9781C32.0115 23.9601 31.4512 23.9781 31.65 23.9781C31.7946 23.9781 31.4331 23.8335 31.7042 23.9781C31.7223 23.9781 31.7765 24.0324 31.8127 24.0324C31.8669 24.0685 31.9392 24.1047 31.9934 24.1589C32.3188 24.3577 32.6441 24.5746 32.9695 24.7734C36.0242 26.7255 39.0608 28.6776 42.1155 30.6117C45.6762 32.8891 49.237 35.1666 52.7978 37.444C53.81 38.0947 54.8222 38.7454 55.8344 39.378C55.979 39.4684 56.1417 39.5588 56.2863 39.6672C56.0513 39.5046 56.4489 39.9384 56.2863 39.6492C56.3224 39.7034 56.3586 39.7757 56.3947 39.8299C56.2501 39.5769 56.3947 39.7576 56.3947 39.848C56.4128 39.5046 56.3947 40.0649 56.3947 39.848C56.3947 39.9203 56.3947 39.9926 56.3947 40.0649C56.3947 39.7757 56.3947 39.9203 56.3947 40.0107C56.3405 40.318 56.4851 39.8299 56.3586 40.083C56.214 40.3902 56.3766 39.9203 56.3405 40.1191C56.3405 40.1914 56.0694 40.318 56.3043 40.1553C56.2863 40.1553 56.2682 40.1734 56.2501 40.1914C55.491 40.571 54.768 41.1313 54.045 41.6013C52.5628 42.5593 51.0626 43.4992 49.5804 44.4571C45.857 46.843 42.1155 49.2289 38.392 51.6148C36.223 53.0066 34.0721 54.4345 31.885 55.7721C31.885 55.7721 31.8669 55.7721 31.8488 55.7902C31.7765 55.8263 31.7042 55.8805 31.6319 55.8986C31.9031 55.7721 31.6681 55.8444 31.6319 55.8805C31.8127 55.8805 31.7765 55.7721 31.6319 55.8805C31.5054 55.8805 31.3608 55.7902 31.6319 55.8805C31.5596 55.8625 31.4873 55.8444 31.4331 55.8263C31.6681 55.8986 31.5596 55.8805 31.4693 55.8263C31.162 55.6636 31.6139 55.9348 31.4512 55.8263C31.3789 55.7721 31.2704 55.5733 31.415 55.8263C31.3789 55.7721 31.3427 55.6998 31.3066 55.6456C31.4331 55.8263 31.3427 55.7721 31.3066 55.6456C31.2343 55.2841 31.3066 55.9348 31.3066 55.5552C31.2885 54.8322 30.692 54.1453 29.9329 54.1815C29.2099 54.2176 28.523 54.796 28.5592 55.5552C28.6315 57.8146 30.9812 59.3329 33.0599 58.3026C33.2768 58.1941 33.4756 58.0495 33.6744 57.923C34.7228 57.2542 35.7711 56.5855 36.8014 55.9167C40.4887 53.5489 44.1941 51.1991 47.8814 48.8313C50.8999 46.9153 53.9004 44.9813 56.9189 43.0654C57.1719 42.9027 57.425 42.74 57.678 42.5773C58.8348 41.8182 59.4855 40.4445 59.0879 39.0708C58.7083 37.7694 57.5877 37.191 56.5574 36.5222C53.3943 34.4978 50.2131 32.4734 47.0499 30.449C43.4349 28.1354 39.8199 25.8218 36.2049 23.5082C35.2831 22.9298 34.3793 22.3333 33.4575 21.7549C32.843 21.3573 32.12 21.1042 31.3789 21.1946C29.7521 21.3753 28.5953 22.6767 28.5592 24.3035C28.505 26.8521 28.5592 29.4006 28.5592 31.9492V55.5733C28.5592 56.2963 29.1918 56.9831 29.9329 56.947C30.674 56.9108 31.3066 56.3324 31.3066 55.5733L31.2704 55.5913Z" fill="white"/>
<path d="M77.3994 39.9384C77.3994 40.9687 77.3633 41.999 77.2729 43.0292C77.2368 43.5353 77.1825 44.0414 77.1283 44.5475C77.1283 44.656 77.1102 44.7644 77.0922 44.8548C77.0922 44.9271 77.0379 45.1982 77.0922 44.9271C77.056 45.2163 77.0018 45.5055 76.9656 45.7947C76.6584 47.7468 76.1884 49.6628 75.5739 51.5245C75.2847 52.4463 74.9412 53.332 74.5797 54.2357C74.5797 54.2719 74.4171 54.6334 74.5255 54.3623C74.4713 54.4707 74.4351 54.5792 74.3809 54.7057C74.2905 54.9226 74.1821 55.1576 74.0736 55.3745C73.8748 55.8083 73.6579 56.2601 73.441 56.6939C72.5734 58.4291 71.5612 60.074 70.4406 61.6646C70.1875 62.0261 69.9164 62.3876 69.6453 62.731C69.826 62.496 69.591 62.8033 69.573 62.8394C69.5007 62.9298 69.4284 63.0202 69.3561 63.1286C69.2115 63.3094 69.0488 63.5082 68.9042 63.689C68.2896 64.4301 67.6389 65.1531 66.9702 65.8399C66.3014 66.5268 65.6145 67.1955 64.8915 67.8462C64.5662 68.1354 64.2228 68.4246 63.8974 68.7138C63.7167 68.8765 63.5178 69.0211 63.3371 69.1657C63.2467 69.238 63.1563 69.3103 63.0479 69.3826C62.9937 69.4368 62.9214 69.473 62.8491 69.5272C62.9756 69.4368 62.9756 69.4368 62.8491 69.5272C61.3308 70.6659 59.7582 71.7143 58.0953 72.618C57.2458 73.088 56.3782 73.5218 55.4925 73.9194C55.2756 74.0279 55.0407 74.1183 54.8238 74.2086C54.8238 74.2086 54.4623 74.3532 54.643 74.2809C54.8238 74.2086 54.4623 74.3532 54.4623 74.3532C53.9742 74.5521 53.4681 74.7509 52.9801 74.9316C51.1545 75.6004 49.2928 76.1246 47.3769 76.5042C46.8888 76.5945 46.3827 76.6849 45.8947 76.7753C45.6959 76.8114 45.479 76.8295 45.2801 76.8657C44.8644 76.9199 45.5693 76.8295 45.1536 76.8837C44.9909 76.9018 44.8102 76.9199 44.6475 76.938C43.6353 77.0464 42.605 77.1368 41.5928 77.1729C39.5865 77.2452 37.5621 77.1729 35.5739 76.9199C35.4473 76.9199 35.3208 76.8837 35.1943 76.8657C34.7786 76.8114 35.4835 76.9018 35.0678 76.8476C34.8147 76.8114 34.5617 76.7753 34.3267 76.7391C33.8387 76.6668 33.3326 76.5765 32.8445 76.468C31.8685 76.2692 30.9105 76.0342 29.9525 75.7631C29.0126 75.492 28.0727 75.1847 27.1509 74.8413C26.7352 74.6786 26.3195 74.5159 25.9037 74.3532C25.8676 74.3532 25.5061 74.1906 25.7772 74.299C25.6688 74.2448 25.5603 74.2086 25.4338 74.1544C25.2169 74.064 24.9819 73.9556 24.765 73.8471C23.0117 73.0338 21.2946 72.0939 19.6859 71.0274C19.3244 70.7925 18.9449 70.5394 18.5834 70.2864C18.3845 70.1418 18.1857 69.9972 18.005 69.8706C17.9146 69.7983 17.8061 69.726 17.7158 69.6537C17.6796 69.6176 17.282 69.3103 17.5169 69.5091C16.7759 68.9307 16.0529 68.3343 15.3479 67.7016C13.9381 66.4364 12.6186 65.0446 11.3895 63.5805C11.2449 63.3998 11.0822 63.201 10.9376 63.0202C10.8653 62.9298 10.793 62.8395 10.7207 62.731C10.6846 62.6949 10.5581 62.5322 10.7207 62.731C10.3954 62.3153 10.0881 61.8996 9.7989 61.4658C9.23858 60.6705 8.7144 59.8571 8.22637 59.0256C7.75642 58.2303 7.30455 57.4169 6.88882 56.5855C6.67192 56.1517 6.45502 55.7179 6.2562 55.266C6.16582 55.0853 6.09352 54.9045 6.00315 54.7057C5.94892 54.5972 5.91277 54.4888 5.85855 54.3623C5.98507 54.6515 5.78625 54.1815 5.76817 54.1273C5.0271 52.3017 4.43062 50.4219 3.96067 48.506C3.74377 47.5661 3.56302 46.6262 3.40035 45.6863C3.3642 45.4332 3.32805 45.1802 3.2919 44.9452C3.32805 45.2705 3.2919 44.8548 3.2919 44.8187C3.2919 44.6921 3.25575 44.5656 3.23767 44.4391C3.18345 43.933 3.12922 43.4269 3.09307 42.9208C2.9304 40.8602 2.94847 38.7997 3.11115 36.7572C3.1473 36.2873 3.20152 35.8354 3.25575 35.3654C3.25575 35.2389 3.2919 35.1124 3.30997 34.9859C3.3642 34.5701 3.27382 35.2751 3.32805 34.8593C3.3642 34.6063 3.40035 34.3532 3.4365 34.1183C3.59917 33.1241 3.798 32.1481 4.03297 31.172C4.50292 29.2561 5.11747 27.3763 5.85855 25.5507C6.00315 25.1711 5.7501 25.8038 5.91277 25.4242C5.94892 25.3519 5.98507 25.2796 6.00315 25.2073C6.09352 24.9904 6.20197 24.7554 6.31042 24.5385C6.52732 24.0686 6.7623 23.5805 6.99727 23.1106C7.413 22.2791 7.86487 21.4657 8.3529 20.6704C8.859 19.839 9.38318 19.0437 9.9435 18.2484C10.0881 18.0496 10.2327 17.8507 10.3773 17.67C10.4496 17.5796 10.5219 17.4712 10.5942 17.3808C10.5942 17.3808 10.8292 17.0735 10.7027 17.2362C10.5761 17.3989 10.8292 17.0735 10.8111 17.0916C10.8834 17.0012 10.9557 16.9108 11.028 16.8024C11.2088 16.5855 11.3895 16.3686 11.5703 16.1517C12.7813 14.7057 14.1008 13.3501 15.5106 12.1029C15.8721 11.7775 16.2336 11.4703 16.6132 11.163C16.7759 11.0184 16.9566 10.8919 17.1193 10.7473C17.1916 10.693 17.282 10.6207 17.3543 10.5665C17.4085 10.5123 17.4808 10.4761 17.5531 10.4219C17.4266 10.5123 17.4266 10.5123 17.5531 10.4219C18.3303 9.84352 19.1075 9.28319 19.9209 8.75902C21.5115 7.72874 23.1925 6.80692 24.9096 6.01162C25.1265 5.90317 25.3615 5.81279 25.5784 5.72242C25.6145 5.72242 25.976 5.55974 25.7049 5.66819C25.8134 5.61397 25.9218 5.57782 26.0483 5.52359C26.5002 5.34284 26.9521 5.16209 27.422 4.99942C28.3439 4.65599 29.2838 4.36679 30.2417 4.09566C31.1997 3.82454 32.1758 3.60764 33.1518 3.40881C33.6037 3.31844 34.0556 3.24614 34.5074 3.17384C34.7605 3.13769 35.0135 3.10154 35.2485 3.06539C34.9232 3.10154 35.3389 3.06539 35.375 3.06539C35.5196 3.04731 35.6642 3.02924 35.8088 3.01116C37.8332 2.77619 39.8757 2.70389 41.9001 2.79426C42.9123 2.83041 43.9426 2.92079 44.9548 3.04731C45.0813 3.04731 45.2078 3.08346 45.3344 3.10154C45.0632 3.06539 45.3344 3.10154 45.4067 3.10154C45.6416 3.13769 45.8585 3.17384 46.0935 3.20999C46.6358 3.30036 47.1599 3.39074 47.7022 3.49919C49.6001 3.89684 51.4618 4.42101 53.2874 5.08979C53.7393 5.25247 54.2092 5.43322 54.6611 5.63204C54.8961 5.74049 54.7153 5.65012 54.6611 5.63204C54.7695 5.68627 54.878 5.72242 55.0045 5.77664C55.2576 5.88509 55.5287 6.01162 55.7817 6.12007C56.6674 6.53579 57.535 6.96959 58.3845 7.43954C59.1979 7.89142 59.9932 8.37944 60.7704 8.88554C61.1681 9.15667 61.5657 9.42779 61.9634 9.69892C62.1622 9.84352 62.361 9.98812 62.5418 10.1327C62.6141 10.1869 62.6683 10.2231 62.7406 10.2773C62.7768 10.3135 63.1744 10.6207 62.9394 10.4219C64.4577 11.5968 65.8857 12.8982 67.2232 14.29C67.8739 14.9768 68.5065 15.6817 69.103 16.4047C69.2476 16.5674 69.3741 16.7482 69.5187 16.9108C69.591 17.0012 69.6633 17.0916 69.7356 17.2C69.9887 17.5073 69.573 16.9831 69.8079 17.3085C70.0971 17.6881 70.3863 18.0857 70.6575 18.4834C71.7781 20.074 72.7722 21.7369 73.6398 23.4721C73.8387 23.8697 74.0375 24.2674 74.2182 24.6831C74.3267 24.9 74.4171 25.135 74.5074 25.3519C74.5074 25.388 74.6701 25.7495 74.5617 25.4784C74.6159 25.623 74.6882 25.7857 74.7424 25.9303C75.0858 26.7979 75.4112 27.6836 75.7004 28.5873C76.3149 30.4852 76.7668 32.4192 77.0741 34.3894C77.0922 34.5159 77.1102 34.6424 77.1283 34.769C77.1283 34.8051 77.1825 35.2208 77.1464 34.8955C77.1825 35.1124 77.2006 35.3112 77.2187 35.5281C77.2729 36.0342 77.3271 36.5403 77.3633 37.0464C77.4356 38.0225 77.4717 39.0166 77.4717 40.0107C77.4717 40.7337 78.1044 41.4206 78.8454 41.3844C79.5865 41.3483 80.2191 40.7699 80.2191 40.0107C80.2191 31.7866 77.6525 23.6167 72.8807 16.9108C68.1631 10.2954 61.5296 5.21632 53.8839 2.39661C46.0393 -0.477313 37.2729 -0.766513 29.2476 1.52901C21.5115 3.73416 14.4984 8.32522 9.38318 14.5249C4.0872 20.8512 0.905995 28.7138 0.273369 36.9741C-0.341181 45.1982 1.64707 53.5489 5.91277 60.5982C10.052 67.4305 16.2698 73.0157 23.5721 76.3234C31.2901 79.8119 39.948 80.7879 48.2445 79.107C56.1613 77.4983 63.5178 73.3953 69.0849 67.557C74.6701 61.7007 78.4659 54.1454 79.6769 46.1381C79.9842 44.0776 80.1649 41.999 80.1649 39.9203C80.1649 39.1973 79.5323 38.5105 78.7912 38.5466C78.0501 38.5828 77.4175 39.1612 77.4175 39.9203L77.3994 39.9384Z" fill="white"/>
</svg>
