<svg width="25" height="30" viewBox="0 0 25 30" fill="none" xmlns="http://www.w3.org/2000/svg">
<path d="M24.5198 3.46154H17.5968V1.73077C17.5968 0.773077 16.8237 0 15.866 0H8.94291C7.98522 0 7.21214 0.773077 7.21214 1.73077V3.46154H0.289062V4.61538H2.01983L4.37368 30H20.4468L22.8006 4.61538H24.5314V3.46154H24.5198ZM8.36599 1.73077C8.36599 1.40769 8.61983 1.15385 8.94291 1.15385H15.866C16.1891 1.15385 16.4429 1.40769 16.4429 1.73077V3.46154H8.36599V1.73077ZM19.3852 28.8462H5.42368L3.17368 4.61538H21.6352L19.3852 28.8462Z" fill="white"/>
<path d="M17.0891 12.3L16.4891 11.7L12.2891 15.9L8.08906 11.7L7.48906 12.3L11.6891 16.5L7.48906 20.7L8.08906 21.3L12.2891 17.1L16.4891 21.3L17.0891 20.7L12.8891 16.5L17.0891 12.3Z" fill="white"/>
</svg>
