<svg width="24" height="24" viewBox="0 0 24 24" fill="none" xmlns="http://www.w3.org/2000/svg">
<path d="M6.827 6.17521C6.64699 6.46012 6.40682 6.70219 6.12334 6.88444C5.83985 7.06669 5.51993 7.18471 5.186 7.23021C4.806 7.28421 4.429 7.34221 4.052 7.40521C2.999 7.58021 2.25 8.50721 2.25 9.57421V18.0002C2.25 18.5969 2.48705 19.1692 2.90901 19.5912C3.33097 20.0132 3.90326 20.2502 4.5 20.2502H19.5C20.0967 20.2502 20.669 20.0132 21.091 19.5912C21.5129 19.1692 21.75 18.5969 21.75 18.0002V9.57421C21.75 8.50721 21 7.58021 19.948 7.40521C19.5707 7.34234 19.1927 7.28401 18.814 7.23021C18.4802 7.18457 18.1605 7.06649 17.8772 6.88424C17.5939 6.702 17.3539 6.46 17.174 6.17521L16.352 4.85921C16.1674 4.5593 15.9132 4.3083 15.611 4.12744C15.3089 3.94658 14.9675 3.8412 14.616 3.82021C12.8733 3.7266 11.1267 3.7266 9.384 3.82021C9.03245 3.8412 8.69114 3.94658 8.38896 4.12744C8.08678 4.3083 7.83262 4.5593 7.648 4.85921L6.827 6.17521Z" stroke="white" stroke-linecap="round" stroke-linejoin="round"/>
<path fill-rule="evenodd" clip-rule="evenodd" d="M12 8.75C10.9391 8.75 9.92172 9.17143 9.17157 9.92157C8.42143 10.6717 8 11.6891 8 12.75C8 13.8109 8.42143 14.8283 9.17157 15.5784C9.92172 16.3286 10.9391 16.75 12 16.75C13.0609 16.75 14.0783 16.3286 14.8284 15.5784C15.5786 14.8283 16 13.8109 16 12.75C16 11.6891 15.5786 10.6717 14.8284 9.92157C14.0783 9.17143 13.0609 8.75 12 8.75ZM8.46447 9.21447C9.40215 8.27678 10.6739 7.75 12 7.75C13.3261 7.75 14.5979 8.27678 15.5355 9.21447C16.4732 10.1521 17 11.4239 17 12.75C17 14.0761 16.4732 15.3479 15.5355 16.2855C14.5979 17.2232 13.3261 17.75 12 17.75C10.6739 17.75 9.40215 17.2232 8.46447 16.2855C7.52678 15.3479 7 14.0761 7 12.75C7 11.4239 7.52678 10.1521 8.46447 9.21447ZM18.25 10.5C18.25 10.2239 18.4739 10 18.75 10H18.758C19.0341 10 19.258 10.2239 19.258 10.5V10.508C19.258 10.7841 19.0341 11.008 18.758 11.008H18.75C18.4739 11.008 18.25 10.7841 18.25 10.508V10.5Z" fill="white"/>
</svg>
