<svg width="31" height="18" viewBox="0 0 31 18" fill="none" xmlns="http://www.w3.org/2000/svg">
<path d="M29.3306 8.4414C29.0529 8.91555 28.7481 9.37615 28.423 9.82321C28.3484 9.92481 28.2739 10.0196 28.1994 10.1212C28.2468 10.0535 28.1994 10.1212 28.1927 10.1348C28.1723 10.1619 28.152 10.189 28.1317 10.2093C28.0775 10.277 28.0301 10.338 27.9759 10.399C27.8066 10.6089 27.6304 10.8121 27.4476 11.0154C27.075 11.4218 26.6889 11.8146 26.2757 12.1872C26.0793 12.3633 25.8829 12.5394 25.6729 12.702C25.5713 12.7832 25.4697 12.8713 25.3613 12.9526C25.28 13.0135 25.3274 12.9797 25.3478 12.9661C25.3207 12.9864 25.2936 13.0068 25.2665 13.0271C25.1987 13.0745 25.131 13.1287 25.0701 13.1761C24.1827 13.8264 23.2276 14.3953 22.2319 14.8559C22.11 14.9101 21.9881 14.9711 21.8662 15.0253C21.8526 15.0253 21.6765 15.1066 21.7578 15.0727C21.6833 15.1066 21.602 15.1404 21.5207 15.1675C21.2633 15.2691 20.9992 15.3707 20.735 15.4588C20.1999 15.6417 19.658 15.7975 19.1093 15.9329C18.8316 16.0007 18.5539 16.0549 18.2694 16.1091C18.1339 16.1361 17.9917 16.1565 17.8562 16.1768C17.7885 16.1903 17.7208 16.1971 17.6463 16.2107C17.6124 16.2107 17.5785 16.2174 17.5446 16.2242C17.3753 16.2513 17.6463 16.2107 17.4701 16.231C16.8876 16.3055 16.3051 16.3461 15.7158 16.3664C15.1265 16.38 14.5304 16.3664 13.9411 16.319C13.6499 16.2987 13.3586 16.2648 13.0741 16.231C12.9861 16.2174 13.1419 16.2377 13.0538 16.231C13.0199 16.231 12.9861 16.2242 12.9522 16.2174C12.8845 16.2107 12.8167 16.1971 12.7422 16.1836C12.5932 16.1632 12.4509 16.1361 12.3019 16.1091C11.1843 15.9058 10.0802 15.5875 9.02354 15.1608C8.96258 15.1337 8.90162 15.1066 8.83388 15.0862C8.7526 15.0524 8.89484 15.1133 8.82033 15.0795C8.78647 15.0659 8.75937 15.0524 8.7255 15.0388C8.59681 14.9846 8.46134 14.9237 8.33264 14.8627C8.07524 14.7408 7.81785 14.6121 7.56723 14.4834C7.07953 14.226 6.60539 13.9415 6.15156 13.6367C5.92126 13.4877 5.69773 13.3251 5.48098 13.1626C5.42679 13.1219 5.3726 13.0813 5.31841 13.0406C5.29132 13.0203 5.26423 13 5.23713 12.9797C5.1694 12.9255 5.29132 13.0203 5.22359 12.9661C5.11521 12.8781 5.00006 12.79 4.89168 12.702C4.47172 12.3565 4.06531 11.9907 3.67922 11.6046C3.28635 11.2118 2.92058 10.8054 2.56836 10.3786C2.27032 10.0129 1.96551 9.59291 1.6607 9.13231C1.51169 8.902 1.36944 8.6717 1.23397 8.4414V8.96297C1.51169 8.48882 1.8165 8.02822 2.14163 7.58116C2.21613 7.47956 2.29064 7.38473 2.36515 7.28313C2.31774 7.35086 2.36515 7.28313 2.37193 7.26958C2.39225 7.24249 2.41257 7.21539 2.43289 7.19507C2.48708 7.12734 2.53449 7.06638 2.58868 7.00541C2.75802 6.79543 2.93413 6.59223 3.11701 6.38902C3.48956 5.98261 3.87565 5.58975 4.28884 5.2172C4.48527 5.04109 4.6817 4.86498 4.89168 4.70241C4.99328 4.62113 5.09489 4.53307 5.20326 4.45179C5.28455 4.39083 5.23713 4.4247 5.21681 4.43824C5.24391 4.41792 5.271 4.3976 5.29809 4.37728C5.36583 4.32987 5.43356 4.27568 5.49453 4.22826C6.38186 3.578 7.33693 3.00903 8.33264 2.54843C8.45456 2.49424 8.57649 2.43328 8.69841 2.37909C8.71196 2.37909 8.88807 2.29781 8.80679 2.33167C8.8813 2.29781 8.96258 2.26394 9.04386 2.23684C9.30125 2.13524 9.56542 2.03364 9.82959 1.94558C10.3647 1.7627 10.9066 1.6069 11.4552 1.47143C11.733 1.4037 12.0107 1.34951 12.2952 1.29532C12.4306 1.26823 12.5729 1.24791 12.7083 1.22759C12.7761 1.21404 12.8438 1.20727 12.9183 1.19372C12.9522 1.19372 12.9861 1.18695 13.0199 1.18017C13.1893 1.15308 12.9183 1.19372 13.0944 1.1734C13.677 1.09889 14.2595 1.05825 14.8488 1.03793C15.4381 1.02438 16.0342 1.03793 16.6234 1.08534C16.9147 1.10566 17.206 1.13953 17.4905 1.1734C17.5785 1.18695 17.4227 1.16662 17.5108 1.1734C17.5447 1.1734 17.5785 1.18017 17.6124 1.18695C17.6801 1.19372 17.7479 1.20727 17.8224 1.22081C17.9714 1.24113 18.1136 1.26823 18.2626 1.29532C19.3803 1.49853 20.4844 1.81688 21.541 2.24362C21.602 2.27071 21.663 2.29781 21.7307 2.31813C21.812 2.35199 21.6697 2.29103 21.7442 2.3249C21.7781 2.33845 21.8052 2.35199 21.8391 2.36554C21.9678 2.41973 22.1032 2.48069 22.2319 2.54165C22.4893 2.66358 22.7467 2.79227 22.9973 2.92097C23.485 3.17837 23.9592 3.46285 24.413 3.76766C24.6433 3.91668 24.8668 4.07925 25.0836 4.24181C25.1378 4.28245 25.192 4.32309 25.2462 4.36373C25.2733 4.38406 25.3004 4.40438 25.3274 4.4247C25.3952 4.47889 25.2733 4.38406 25.341 4.43824C25.4494 4.5263 25.5645 4.61436 25.6729 4.70241C26.0929 5.04786 26.4993 5.41363 26.8854 5.79972C27.2782 6.19259 27.644 6.599 27.9962 7.02573C28.2943 7.39151 28.5991 7.81147 28.9039 8.27207C29.0529 8.50237 29.1951 8.73267 29.3306 8.96297C29.4729 9.20681 29.798 9.2881 30.0351 9.14585C30.2789 9.00361 30.3602 8.67848 30.2179 8.4414C29.0529 6.45676 27.4814 4.73628 25.6323 3.36802C23.7695 1.993 21.6088 0.997286 19.3532 0.46895C16.9621 -0.0932537 14.4695 -0.147442 12.0581 0.292838C9.76863 0.712797 7.55368 1.60013 5.61645 2.89388C3.70631 4.1673 2.06034 5.8065 0.800465 7.72341C0.644673 7.96048 0.502429 8.19756 0.360185 8.43463C0.265355 8.59042 0.265355 8.8004 0.360185 8.95619C1.52523 10.9408 3.09669 12.6613 4.94587 14.0296C6.80859 15.4046 8.96935 16.4003 11.2249 16.9286C13.616 17.4909 16.1087 17.545 18.52 17.1048C20.8095 16.6848 23.0244 15.7975 24.9617 14.5037C26.8718 13.2303 28.5178 11.5911 29.7777 9.67419C29.9335 9.43711 30.0757 9.20004 30.2179 8.96297C30.3602 8.71912 30.2721 8.39399 30.0351 8.25852C29.7912 8.11627 29.4729 8.20433 29.3306 8.4414Z" fill="white"/>
<path d="M19.2488 8.69872C19.2488 8.81387 19.2488 8.92224 19.2353 9.03739C19.2353 9.09158 19.2285 9.14577 19.2217 9.20673C19.2217 9.22705 19.2217 9.25415 19.215 9.27447C19.2217 9.19996 19.215 9.26092 19.215 9.30156C19.1811 9.51832 19.1269 9.7283 19.0592 9.93828C19.0253 10.0399 18.9914 10.1415 18.9508 10.2431C18.9305 10.2973 18.9508 10.2295 18.9576 10.2228C18.944 10.2499 18.9305 10.277 18.9169 10.304C18.8898 10.3582 18.8627 10.4124 18.8356 10.4666C18.7408 10.6563 18.6324 10.8392 18.5105 11.0085C18.4902 11.0356 18.4766 11.0559 18.4563 11.083C18.4563 11.083 18.4089 11.1507 18.4428 11.1033C18.4766 11.0559 18.4292 11.1169 18.4292 11.1236C18.4089 11.144 18.3886 11.1711 18.375 11.1914C18.3005 11.2794 18.226 11.3607 18.1515 11.442C18.0838 11.5097 18.016 11.5775 17.9415 11.6452C17.9009 11.6791 17.8602 11.7129 17.8196 11.7468C17.7993 11.7604 17.7857 11.7739 17.7654 11.7875C17.7654 11.7875 17.6638 11.8687 17.7112 11.8281C17.7586 11.7942 17.6977 11.8416 17.6909 11.8416C17.6638 11.862 17.6435 11.8755 17.6164 11.8958C17.5758 11.9229 17.5283 11.9568 17.4877 11.9839C17.3929 12.0448 17.298 12.1058 17.1964 12.16C17.1084 12.2074 17.0203 12.2548 16.9323 12.2955C16.9052 12.309 16.7765 12.3632 16.8645 12.3293C16.8103 12.3497 16.7494 12.3767 16.6952 12.3971C16.492 12.4716 16.282 12.5325 16.072 12.5732C16.0178 12.5867 15.9637 12.5935 15.9095 12.6003C15.8959 12.6003 15.7943 12.6206 15.8621 12.607C15.923 12.6003 15.8417 12.607 15.835 12.607C15.713 12.6206 15.5979 12.6274 15.476 12.6341C15.2457 12.6409 15.0086 12.6341 14.7783 12.607C14.6767 12.5935 14.8257 12.6138 14.7309 12.6003C14.6767 12.5935 14.6225 12.58 14.5683 12.5732C14.4532 12.5529 14.338 12.5258 14.2296 12.4919C14.128 12.4648 14.0264 12.4309 13.9248 12.3903C13.8842 12.3767 13.8368 12.3564 13.7961 12.3429C13.7758 12.3361 13.7013 12.309 13.7961 12.3429C13.769 12.3293 13.7419 12.3158 13.7148 12.3022C13.5184 12.2074 13.322 12.1058 13.1391 11.9839C13.0917 11.9568 13.051 11.9229 13.0104 11.8958C12.9901 11.8823 12.8817 11.801 12.9156 11.8281C12.9494 11.8552 12.8411 11.7671 12.8275 11.7536C12.7801 11.7129 12.7327 11.6723 12.692 11.6384C12.5362 11.4962 12.3872 11.3472 12.2518 11.1846C12.2382 11.1643 12.1502 11.0559 12.1772 11.0965C12.2043 11.1372 12.1231 11.022 12.1095 11.0017C12.0485 10.9137 11.9876 10.8256 11.9334 10.7376C11.8792 10.6495 11.825 10.5547 11.7776 10.4598C11.7505 10.4124 11.7302 10.365 11.7099 10.3176C11.7031 10.2973 11.6896 10.277 11.6828 10.2566C11.6218 10.1279 11.7031 10.3108 11.6692 10.2295C11.5879 10.0263 11.5202 9.82312 11.4728 9.61315C11.4457 9.50477 11.4254 9.39639 11.4051 9.29479C11.4051 9.27447 11.3983 9.24737 11.3915 9.22705C11.4051 9.32188 11.3915 9.2406 11.3915 9.22705C11.3847 9.16609 11.378 9.09836 11.3712 9.03739C11.3576 8.81387 11.3576 8.58357 11.3712 8.36004C11.3712 8.30585 11.378 8.25166 11.3847 8.1907C11.3847 8.17716 11.3983 8.07555 11.3847 8.14329C11.378 8.20425 11.3847 8.12297 11.3847 8.11619C11.4051 8.00104 11.4254 7.88589 11.4525 7.77074C11.5067 7.56076 11.5744 7.35756 11.6489 7.15435C11.676 7.07984 11.615 7.22209 11.6489 7.15435C11.6557 7.13403 11.6692 7.11371 11.676 7.09339C11.6963 7.04597 11.7234 6.99856 11.7437 6.95115C11.7979 6.84954 11.8521 6.74794 11.9063 6.65311C11.9605 6.56505 12.0215 6.477 12.0824 6.38894C12.1095 6.35507 12.1366 6.31443 12.1637 6.28057C12.1027 6.36185 12.2043 6.23315 12.2247 6.20606C12.3669 6.03672 12.5159 5.88093 12.6785 5.73868C12.753 5.67095 12.8275 5.60998 12.902 5.54902C12.8207 5.60998 12.9427 5.52193 12.963 5.50838C13.0104 5.47451 13.0646 5.44065 13.112 5.40678C13.2949 5.28485 13.4913 5.17648 13.6877 5.08842C13.7081 5.08165 13.7284 5.0681 13.7487 5.06133C13.8232 5.02746 13.6742 5.08842 13.7487 5.06133C13.7961 5.04101 13.8503 5.02069 13.8977 5.00037C13.9993 4.9665 14.1009 4.93263 14.2025 4.89876C14.3041 4.87167 14.4125 4.84457 14.5209 4.82425C14.5751 4.81071 14.6293 4.80393 14.6835 4.79716C14.7038 4.79716 14.7309 4.79039 14.7512 4.78361C14.6767 4.79716 14.7376 4.78361 14.7783 4.78361C15.0018 4.75652 15.2253 4.74975 15.4489 4.75652C15.5572 4.75652 15.6724 4.77007 15.7808 4.78361C15.8011 4.78361 15.8282 4.78361 15.8485 4.79039C15.835 4.79039 15.7469 4.77684 15.8485 4.79039C15.9095 4.80393 15.9704 4.81071 16.0314 4.82425C16.2414 4.8649 16.4513 4.92586 16.6546 5.00037C16.702 5.02069 16.7562 5.04101 16.8036 5.06133C16.8578 5.08165 16.79 5.06133 16.7833 5.05455C16.8103 5.0681 16.8374 5.08165 16.8645 5.0952C16.9661 5.14261 17.0677 5.1968 17.1693 5.25099C17.2574 5.2984 17.3387 5.35259 17.42 5.4C17.4674 5.4271 17.508 5.46097 17.5487 5.48806C17.5758 5.50838 17.5961 5.52193 17.6232 5.54225C17.6299 5.54225 17.7045 5.60321 17.6638 5.56934C17.6299 5.54225 17.7315 5.62353 17.7519 5.64385C17.7925 5.67772 17.8332 5.71159 17.8738 5.74546C17.9551 5.81996 18.0364 5.90125 18.1176 5.98253C18.1854 6.05026 18.2531 6.12477 18.3141 6.19928C18.3479 6.23992 18.3818 6.28056 18.4157 6.32121C18.3547 6.23992 18.4495 6.37539 18.4699 6.39571C18.5986 6.57183 18.7069 6.76149 18.8085 6.95792C18.8356 7.00533 18.856 7.05275 18.8763 7.10016C18.8898 7.12726 18.9305 7.22886 18.8966 7.14758C18.9372 7.25595 18.9779 7.36433 19.0185 7.47271C19.0863 7.68946 19.1404 7.90621 19.1743 8.12974C19.1946 8.23134 19.1743 8.07555 19.1811 8.17716C19.1811 8.23134 19.1946 8.28553 19.1946 8.34649C19.2014 8.46842 19.2082 8.59034 19.2082 8.70549C19.2082 8.97643 19.4453 9.23383 19.723 9.22028C20.0007 9.20673 20.2445 8.98998 20.2378 8.70549C20.2242 6.61247 18.8966 4.7362 16.939 4.0182C15.0154 3.30698 12.7259 3.93015 11.4254 5.52193C10.7616 6.33475 10.3687 7.30337 10.2807 8.35327C10.1994 9.3693 10.45 10.4124 10.9783 11.2794C12.0689 13.0812 14.2025 14.0024 16.2685 13.5892C18.2463 13.1963 19.8652 11.5165 20.17 9.51832C20.2107 9.24737 20.2378 8.98321 20.2378 8.71226C20.2378 8.44132 20.0007 8.18393 19.723 8.19748C19.4385 8.21102 19.2082 8.42778 19.2082 8.71226L19.2488 8.69872Z" fill="white"/>
</svg>
