<svg width="21" height="18" viewBox="0 0 21 18" fill="none" xmlns="http://www.w3.org/2000/svg">
<path d="M4.73484 0L0.289062 4.44527V17.7826H9.22047C9.16865 17.6286 9.14025 17.4637 9.14025 17.2923C9.14025 17.2071 9.14722 17.1234 9.16068 17.0416H1.03002V5.18624H12.8849V7.07327H13.6259V4.96948L17.3307 1.26467V7.07278H18.0717V0H4.73484ZM13.1022 4.44527H1.33697L5.04129 0.740962H16.807L13.1022 4.44527Z" fill="white"/>
<path d="M11.0072 9.66895C11.42 9.66895 11.7546 9.33431 11.7546 8.92151C11.7546 8.50871 11.42 8.17407 11.0072 8.17407C10.5944 8.17407 10.2598 8.50871 10.2598 8.92151C10.2598 9.33431 10.5944 9.66895 11.0072 9.66895Z" fill="white"/>
<path d="M20.2884 8.92151C20.2884 9.3341 19.9541 9.66845 19.5415 9.66845H13.557C13.4673 9.66845 13.3816 9.65301 13.3023 9.62411C13.0153 9.51996 12.81 9.24441 12.81 8.92151C12.81 8.59862 13.0153 8.32256 13.3023 8.21842C13.3816 8.18952 13.4673 8.17407 13.557 8.17407H19.5415C19.9541 8.17407 20.2884 8.50843 20.2884 8.92151Z" fill="white"/>
<path d="M11.0072 13.9334C11.42 13.9334 11.7546 13.5987 11.7546 13.1859C11.7546 12.7731 11.42 12.4385 11.0072 12.4385C10.5944 12.4385 10.2598 12.7731 10.2598 13.1859C10.2598 13.5987 10.5944 13.9334 11.0072 13.9334Z" fill="white"/>
<path d="M20.2884 13.1859C20.2884 13.5985 19.9541 13.9329 19.5415 13.9329H13.557C13.546 13.9329 13.5345 13.9329 13.5236 13.9319C13.5141 13.9319 13.5042 13.9309 13.4947 13.9304C13.4867 13.9294 13.4787 13.9289 13.4708 13.9279C13.4638 13.9279 13.4568 13.9264 13.4498 13.9254C13.4344 13.9234 13.4189 13.9209 13.404 13.9174C13.3925 13.9154 13.3811 13.9124 13.3701 13.9094C13.3467 13.9035 13.3243 13.897 13.3023 13.8885L13.3004 13.8875C13.2889 13.8835 13.2774 13.8785 13.2665 13.8741C13.2156 13.8531 13.1683 13.8257 13.124 13.7948C13.117 13.7898 13.1105 13.7854 13.104 13.7799C13.0886 13.7684 13.0736 13.756 13.0592 13.743C13.0527 13.737 13.0467 13.7311 13.0402 13.7251C13.0313 13.7166 13.0228 13.7081 13.0148 13.6997C13.0103 13.6947 13.0054 13.6897 13.0009 13.6842C12.9884 13.6703 12.9765 13.6558 12.965 13.6414C12.959 13.6339 12.9535 13.6259 12.9481 13.6184C12.9376 13.6035 12.9271 13.588 12.9177 13.5726C12.9127 13.5641 12.9077 13.5557 12.9027 13.5472C12.8903 13.5238 12.8783 13.5003 12.8678 13.4759C12.8643 13.4684 12.8614 13.4605 12.8584 13.4525C12.8559 13.4465 12.8539 13.44 12.8514 13.4341C12.8479 13.4251 12.8449 13.4161 12.8424 13.4077C12.8384 13.3957 12.8354 13.3842 12.8325 13.3723C12.829 13.3603 12.8265 13.3484 12.824 13.3359C12.822 13.3254 12.82 13.315 12.818 13.304C12.8165 13.2945 12.815 13.2846 12.814 13.2751C12.8125 13.2656 12.8115 13.2552 12.811 13.2457C12.81 13.2377 12.8095 13.2293 12.8095 13.2208C12.8095 13.2093 12.8085 13.1974 12.8085 13.1859C12.8085 13.1745 12.8085 13.1625 12.8095 13.151C12.8095 13.1426 12.8105 13.1341 12.811 13.1261C12.811 13.1167 12.8125 13.1062 12.814 13.0967C12.815 13.0873 12.8165 13.0773 12.818 13.0678C12.8195 13.0574 12.822 13.0469 12.824 13.0359C12.8265 13.0235 12.829 13.0115 12.8325 12.9996C12.8354 12.9876 12.8389 12.9761 12.8424 12.9642C12.8449 12.9552 12.8479 12.9462 12.8514 12.9378C12.8534 12.9313 12.8554 12.9253 12.8584 12.9193C12.8614 12.9114 12.8643 12.9039 12.8678 12.8959C12.8778 12.8715 12.8898 12.8476 12.9027 12.8247C12.9072 12.8162 12.9122 12.8077 12.9177 12.7992C12.9271 12.7838 12.9376 12.7678 12.9481 12.7534C12.9535 12.7459 12.959 12.738 12.965 12.7305C12.9695 12.724 12.9745 12.718 12.9804 12.7115C12.9844 12.7071 12.9884 12.7021 12.9929 12.6971C12.9954 12.6936 12.9984 12.6906 13.0014 12.6876C13.0059 12.6826 13.0108 12.6777 13.0153 12.6722C13.0233 12.6637 13.0318 12.6552 13.0407 12.6468C13.0472 12.6408 13.0532 12.6348 13.0597 12.6288C13.0741 12.6164 13.0891 12.6034 13.1045 12.592C13.111 12.587 13.1175 12.5825 13.1245 12.577C13.1608 12.5511 13.1997 12.5287 13.2406 12.5092C13.249 12.5052 13.258 12.5013 13.267 12.4973C13.2779 12.4928 13.2894 12.4878 13.3009 12.4838L13.3028 12.4828C13.3248 12.4749 13.3477 12.4679 13.3706 12.4619C13.3816 12.4589 13.393 12.4559 13.4045 12.4539C13.4199 12.4504 13.4349 12.4479 13.4503 12.446C13.4573 12.445 13.4638 12.444 13.4713 12.4435C13.4792 12.442 13.4872 12.442 13.4952 12.441C13.5047 12.44 13.5141 12.4395 13.5241 12.4395C13.535 12.4395 13.5465 12.4385 13.5575 12.4385H19.542C19.9546 12.4385 20.2884 12.7733 20.2884 13.1859Z" fill="white"/>
<path d="M11.0072 17.9909C11.42 17.9909 11.7546 17.6562 11.7546 17.2434C11.7546 16.8306 11.42 16.496 11.0072 16.496C10.5944 16.496 10.2598 16.8306 10.2598 17.2434C10.2598 17.6562 10.5944 17.9909 11.0072 17.9909Z" fill="white"/>
<path d="M20.2884 17.2434C20.2884 17.656 19.9541 17.9909 19.5415 17.9909H13.557C13.4673 17.9909 13.3816 17.9754 13.3023 17.9465C13.0153 17.8419 12.81 17.5663 12.81 17.2434C12.81 16.9205 13.0153 16.645 13.3023 16.5408C13.3816 16.5119 13.4673 16.4965 13.557 16.4965H19.5415C19.9541 16.4965 20.2884 16.8308 20.2884 17.2434Z" fill="white"/>
</svg>
