<svg width="24" height="24" viewBox="0 0 24 24" fill="none" xmlns="http://www.w3.org/2000/svg">
<path fill-rule="evenodd" clip-rule="evenodd" d="M10.8159 4.02022C9.00694 4.29422 7.47894 5.07122 6.23794 6.34622C5.52894 7.07522 5.11894 7.65422 4.72094 8.49122C3.66594 10.7092 3.67994 13.2492 4.75794 15.4602C5.59194 17.1702 7.12394 18.6132 8.85994 19.3222C11.4769 20.3912 14.3129 20.0532 16.6589 18.3942C17.1069 18.0772 17.9799 17.2152 18.3279 16.7472C19.4839 15.1882 20.0289 13.3602 19.9139 11.4202C19.7679 8.95522 18.4519 6.68022 16.3629 5.28422C15.4509 4.67422 14.4269 4.26222 13.3199 4.05922C12.8079 3.96522 11.3289 3.94222 10.8159 4.02022ZM13.0599 5.53822C13.8459 5.67422 14.7819 6.04722 15.4999 6.51022C17.0249 7.49522 18.0889 9.16922 18.3659 11.0202C18.4369 11.4982 18.4249 12.5452 18.3429 13.0002C17.9289 15.2872 16.4649 17.1142 14.3659 17.9602C12.1599 18.8492 9.66394 18.4662 7.81594 16.9572C5.65694 15.1932 4.88194 12.2292 5.88694 9.58222C6.63394 7.61222 8.45394 6.04822 10.5199 5.59922C11.2799 5.43422 12.3179 5.40922 13.0599 5.53822ZM11.4299 10.0012C11.0069 10.1082 10.4909 10.4872 10.2439 10.8752C9.83994 11.5092 9.84494 12.3762 10.2559 13.0152C10.6249 13.5882 11.2639 13.9312 11.9549 13.9262C13.4559 13.9152 14.3809 12.3452 13.6899 10.9812C13.5359 10.6772 13.1529 10.3202 12.7869 10.1392C12.4869 9.99222 12.4549 9.98422 12.0269 9.97422C11.7809 9.96822 11.5129 9.98022 11.4299 10.0012Z" fill="white"/>
</svg>
