<svg width="24" height="30" viewBox="0 0 24 30" fill="none" xmlns="http://www.w3.org/2000/svg">
<path d="M20.2771 10V8.18205C20.2771 6.41795 19.695 4.80342 18.7412 3.47009H18.7403C18.725 3.44872 18.7104 3.42735 18.6942 3.40513C18.6181 3.30085 18.5395 3.19829 18.4591 3.09744V3.08803C17.8822 2.35128 17.2207 1.78803 16.6412 1.37949V1.38205C15.3412 0.511966 13.778 0 12.095 0C7.57624 0 3.91299 3.66325 3.91299 8.18205V10H0.289062V30H23.913V10H20.2762H20.2771ZM5.7318 8.18205C5.7318 4.6735 8.5865 1.8188 12.095 1.8188C15.6036 1.8188 18.4583 4.6735 18.4583 8.18205V10H5.7318V8.18205ZM22.095 28.1821H2.09505V11.8179H22.095V28.1821Z" fill="white"/>
<path d="M14.821 18.1824C14.821 19.3688 14.0595 20.3662 13.0031 20.7431V24.5465H11.1851V20.7431C10.1287 20.367 9.36719 19.3688 9.36719 18.1824C9.36719 16.6764 10.5886 15.4551 12.0945 15.4551C13.6005 15.4551 14.8219 16.6764 14.8219 18.1824H14.821Z" fill="white"/>
</svg>
