<svg width="32" height="32" viewBox="0 0 32 32" fill="none" xmlns="http://www.w3.org/2000/svg">
<path d="M15.9993 0.955458C15.6988 0.970115 15.4373 1.20375 15.4335 1.51683H15.4335V1.52365V29.3112C15.4335 29.4356 15.4327 29.5603 15.432 29.6852C15.4305 29.9354 15.429 30.1864 15.4335 30.4368V30.4369V30.437V30.437V30.4371V30.4372V30.4373V30.4374V30.4374V30.4375V30.4376V30.4377V30.4378V30.4379V30.4379V30.438V30.4381V30.4382V30.4383V30.4383V30.4384V30.4385V30.4386V30.4387V30.4388V30.4389V30.4389V30.439V30.4391V30.4392V30.4393V30.4394V30.4394V30.4395V30.4396V30.4397V30.4398V30.4399V30.44V30.44V30.4401V30.4402V30.4403V30.4404V30.4405V30.4406V30.4407V30.4407V30.4408V30.4409V30.441V30.4411V30.4412V30.4413V30.4414V30.4414V30.4415V30.4416V30.4417V30.4418V30.4419V30.442V30.4421V30.4422V30.4422V30.4423V30.4424V30.4425V30.4426V30.4427V30.4428V30.4429V30.443V30.443V30.4431V30.4432V30.4433V30.4434V30.4435V30.4436V30.4437V30.4438V30.4439V30.444V30.444V30.4441V30.4442V30.4443V30.4444V30.4445V30.4446V30.4447V30.4448V30.4449V30.445V30.4451V30.4452V30.4452V30.4453V30.4454V30.4455V30.4456V30.4457V30.4458V30.4459V30.446V30.4461V30.4462V30.4463V30.4464V30.4465V30.4466V30.4466V30.4467V30.4468V30.4469V30.447V30.4471V30.4472V30.4473V30.4474V30.4475V30.4476V30.4477V30.4478V30.4479V30.448V30.4481V30.4482V30.4483V30.4483V30.4484V30.4485V30.4486V30.4487V30.4488V30.4489V30.449V30.4491V30.4492V30.4493V30.4494V30.4495V30.4496V30.4497V30.4498V30.4499V30.45V30.4501V30.4502V30.4503V30.4504V30.4505V30.4506V30.4507V30.4508V30.4509V30.451V30.451V30.4511V30.4512V30.4513V30.4514V30.4515V30.4516V30.4517V30.4518V30.4519V30.452V30.4521V30.4522V30.4523V30.4524V30.4525V30.4526V30.4527V30.4528V30.4529V30.453V30.4531V30.4532V30.4533V30.4534V30.4535V30.4536V30.4537V30.4538V30.4539V30.454V30.4541V30.4542V30.4543V30.4544V30.4545V30.4546V30.4547V30.4548V30.4549V30.455V30.4551V30.4552V30.4553V30.4554V30.4555V30.4556V30.4557V30.4558V30.4559V30.456V30.4561V30.4562V30.4563V30.4564V30.4565V30.4566V30.4567V30.4568V30.4569V30.457V30.4571V30.4572V30.4573V30.4574V30.4575V30.4576V30.4577V30.4578V30.4579V30.458V30.4581V30.4582V30.4583V30.4584V30.4585V30.4586V30.4587V30.4588V30.4589V30.459V30.4591V30.4592V30.4593V30.4594V30.4595V30.4596V30.4597V30.4598V30.4599V30.46V30.4601V30.4602V30.4603V30.4604V30.4605V30.4606V30.4607V30.4608V30.4609V30.461V30.4611V30.4612V30.4613V30.4614V30.4615V30.4616V30.4617V30.4618V30.4619V30.462V30.4621V30.4622V30.4623V30.4624V30.4625V30.4626V30.4627V30.4628V30.4629V30.463V30.4631V30.4632V30.4632V30.4634V30.4634V30.4635V30.4636V30.4637V30.4638V30.4639V30.464V30.4641V30.4642V30.4643V30.4644V30.4645V30.4646V30.4647V30.4648V30.4649V30.465V30.4651V30.4652V30.4653V30.4654V30.4655V30.4656V30.4657V30.4658V30.4659V30.466V30.4661V30.4662V30.4663V30.4664V30.4665V30.4666V30.4667V30.4668V30.4669V30.467V30.4671V30.4672V30.4673V30.4674V30.4675V30.4676V30.4677V30.4678V30.4679V30.468V30.4681V30.4682V30.4683V30.4684V30.4685V30.4686V30.4687V30.4688V30.4689V30.469V30.4691V30.4692V30.4693V30.4694V30.4695V30.4696V30.4697V30.4698V30.4699V30.4699V30.47V30.4701V30.4702V30.4703V30.4704V30.4705V30.4706V30.4707V30.4708V30.4709V30.471V30.4711V30.4712V30.4713V30.4714V30.4715V30.4716V30.4717V30.4718V30.4719V30.472V30.4721V30.4722V30.4723V30.4724V30.4724V30.4725V30.4726V30.4727V30.4728V30.4729V30.473V30.4731V30.4732V30.4733V30.4734V30.4735V30.4736V30.4737V30.4738V30.4739V30.474V30.4741V30.4741V30.4742V30.4743V30.4744V30.4745V30.4746V30.4747V30.4748V30.4749V30.475V30.4751V30.4752V30.4753V30.4754V30.4755V30.4755V30.4756V30.4757V30.4758V30.4759V30.476V30.4761V30.4762V30.4763V30.4764V30.4765V30.4766V30.4766V30.4767V30.4768V30.4769V30.477V30.4771V30.4772V30.4773V30.4774V30.4775V30.4776V30.4776V30.4777V30.4778V30.4779V30.478V30.4781V30.4782V30.4783V30.4784V30.4785V30.4785V30.4786V30.4787V30.4788V30.4789V30.479V30.4791V30.4792V30.4792V30.4793V30.4794V30.4795V30.4796V30.4797V30.4798V30.4799V30.4799V30.48V30.4801V30.4802V30.4803V30.4804V30.4805V30.4806V30.4806V30.4807V30.4808V30.4809V30.481V30.4811V30.4811V30.4812V30.4813V30.4814V30.4815V30.4816V30.4817V30.4817V30.4818V30.4819V30.482V30.4821V30.4822V30.4822V30.4823V30.4824V30.4825V30.4826V30.4827V30.4827V30.4828V30.4829V30.483V30.4831V30.4832V30.4832V30.4833V30.4834V30.4835V30.4836V30.4836V30.4837V30.4838V30.4839V30.484V30.484V30.4841C15.4335 30.7817 15.6925 31.0675 16.0042 31.0523C16.3068 31.0375 16.57 30.8006 16.57 30.4841V2.69652C16.57 2.57216 16.5707 2.44747 16.5715 2.32261C16.573 2.07236 16.5745 1.82139 16.57 1.57093V1.5709V1.57082V1.57073V1.57065V1.57057V1.57049V1.57041V1.57033V1.57025V1.57016V1.57008V1.57V1.56992V1.56983V1.56975V1.56967V1.56958V1.5695V1.56942V1.56933V1.56925V1.56917V1.56908V1.569V1.56891V1.56883V1.56875V1.56866V1.56858V1.56849V1.56841V1.56832V1.56824V1.56815V1.56806V1.56798V1.56789V1.56781V1.56772V1.56763V1.56755V1.56746V1.56737V1.56729V1.5672V1.56711V1.56703V1.56694V1.56685V1.56676V1.56668V1.56659V1.5665V1.56641V1.56633V1.56624V1.56615V1.56606V1.56597V1.56588V1.56579V1.56571V1.56562V1.56553V1.56544V1.56535V1.56526V1.56517V1.56508V1.56499V1.5649V1.56481V1.56472V1.56463V1.56454V1.56445V1.56436V1.56427V1.56418V1.56409V1.56399V1.5639V1.56381V1.56372V1.56363V1.56354V1.56345V1.56335V1.56326V1.56317V1.56308V1.56299V1.56289V1.5628V1.56271V1.56262V1.56252V1.56243V1.56234V1.56225V1.56215V1.56206V1.56197V1.56187V1.56178V1.56169V1.56159V1.5615V1.56141V1.56131V1.56122V1.56112V1.56103V1.56094V1.56084V1.56075V1.56065V1.56056V1.56046V1.56037V1.56027V1.56018V1.56008V1.55999V1.55989V1.5598V1.5597V1.55961V1.55951V1.55942V1.55932V1.55923V1.55913V1.55904V1.55894V1.55884V1.55875V1.55865V1.55856V1.55846V1.55836V1.55827V1.55817V1.55808V1.55798V1.55788V1.55779V1.55769V1.55759V1.5575V1.5574V1.5573V1.55721V1.55711V1.55701V1.55691V1.55682V1.55672V1.55662V1.55653V1.55643V1.55633V1.55623V1.55614V1.55604V1.55594V1.55584V1.55574V1.55565V1.55555V1.55545V1.55535V1.55526V1.55516V1.55506V1.55496V1.55486V1.55476V1.55467V1.55457V1.55447V1.55437V1.55427V1.55417V1.55408V1.55398V1.55388V1.55378V1.55368V1.55358V1.55348V1.55338V1.55329V1.55319V1.55309V1.55299V1.55289V1.55279V1.55269V1.55259V1.55249V1.55239V1.5523V1.5522V1.5521V1.552V1.5519V1.5518V1.5517V1.5516V1.5515V1.5514V1.5513V1.5512V1.5511V1.551V1.5509V1.5508V1.55071V1.55061V1.55051V1.55041V1.55031V1.55021V1.55011V1.55001V1.54991V1.54981V1.54971V1.54961V1.54951V1.54941V1.54931V1.54921V1.54911V1.54901V1.54891V1.54881V1.54871V1.54861V1.54851V1.54841V1.54831V1.54821V1.54811V1.54801V1.54791V1.54781V1.54771V1.54761V1.54751V1.54741V1.54731V1.54721V1.54711V1.54701V1.54691V1.54681V1.54671V1.54661V1.54651V1.54641V1.54631V1.54621V1.54611V1.54601V1.54591V1.54581V1.54571V1.54562V1.54552V1.54542V1.54532V1.54522V1.54512V1.54502V1.54492V1.54482V1.54472V1.54462V1.54452V1.54442V1.54432V1.54422V1.54412V1.54402V1.54392V1.54382V1.54372V1.54362V1.54352V1.54342V1.54332V1.54323V1.54313V1.54303V1.54293V1.54283V1.54273V1.54263V1.54253V1.54243V1.54233V1.54223V1.54213V1.54204V1.54194V1.54184V1.54174V1.54164V1.54154V1.54144V1.54134V1.54124V1.54115V1.54105V1.54095V1.54085V1.54075V1.54065V1.54055V1.54046V1.54036V1.54026V1.54016V1.54006V1.53997V1.53987V1.53977V1.53967V1.53957V1.53948V1.53938V1.53928V1.53918V1.53908V1.53899V1.53889V1.53879V1.53869V1.5386V1.5385V1.5384V1.5383V1.53821V1.53811V1.53801V1.53792V1.53782V1.53772V1.53763V1.53753V1.53743V1.53733V1.53724V1.53714V1.53705V1.53695V1.53685V1.53676V1.53666V1.53656V1.53647V1.53637V1.53628V1.53618V1.53608V1.53599V1.53589V1.5358V1.5357V1.53561V1.53551V1.53542V1.53532V1.53522V1.53513V1.53503V1.53494V1.53484V1.53475V1.53466V1.53456V1.53447V1.53437V1.53428V1.53418V1.53409V1.53399V1.5339V1.53381V1.53371V1.53362V1.53353V1.53343V1.53334V1.53324V1.53315V1.53306V1.53297V1.53287V1.53278V1.53269V1.53259V1.5325V1.53241V1.53232V1.53222V1.53213V1.53204V1.53195V1.53185V1.53176V1.53167V1.53158V1.53149V1.5314V1.5313V1.53121V1.53112V1.53103V1.53094V1.53085V1.53076V1.53067V1.53058V1.53049V1.5304V1.53031V1.53022V1.53012V1.53004V1.52995V1.52986V1.52977V1.52968V1.52959V1.5295V1.52941V1.52932V1.52923V1.52914V1.52905V1.52896V1.52888V1.52879V1.5287V1.52861V1.52852V1.52844V1.52835V1.52826V1.52817V1.52808V1.528V1.52791V1.52782V1.52774V1.52765V1.52756V1.52748V1.52739V1.5273V1.52722V1.52713V1.52705V1.52696V1.52687V1.52679V1.5267V1.52662V1.52653V1.52645V1.52636V1.52628V1.52619V1.52611V1.52603V1.52594V1.52586V1.52577V1.52569V1.52561V1.52552V1.52544V1.52536V1.52527V1.52519V1.52511V1.52503V1.52494V1.52486V1.52478V1.5247V1.52462V1.52453V1.52445V1.52437V1.52429V1.52421V1.52413V1.52405V1.52397V1.52389V1.52381V1.52373V1.52365C16.57 1.22602 16.311 0.940253 15.9993 0.955458Z" fill="white" stroke="white" stroke-width="0.1"/>
<path d="M0.954481 16.0091C0.969138 16.3095 1.20277 16.5711 1.51585 16.5748V16.5749H1.52267H29.3103C29.4346 16.5749 29.5593 16.5756 29.6842 16.5764C29.9344 16.5779 30.1854 16.5794 30.4359 16.5749H30.4359H30.436H30.4361H30.4361H30.4362H30.4363H30.4364H30.4365H30.4365H30.4366H30.4367H30.4368H30.4369H30.437H30.437H30.4371H30.4372H30.4373H30.4374H30.4375H30.4375H30.4376H30.4377H30.4378H30.4379H30.438H30.438H30.4381H30.4382H30.4383H30.4384H30.4385H30.4386H30.4386H30.4387H30.4388H30.4389H30.439H30.4391H30.4392H30.4392H30.4393H30.4394H30.4395H30.4396H30.4397H30.4398H30.4399H30.4399H30.44H30.4401H30.4402H30.4403H30.4404H30.4405H30.4406H30.4406H30.4407H30.4408H30.4409H30.441H30.4411H30.4412H30.4413H30.4414H30.4414H30.4415H30.4416H30.4417H30.4418H30.4419H30.442H30.4421H30.4422H30.4423H30.4423H30.4424H30.4425H30.4426H30.4427H30.4428H30.4429H30.443H30.4431H30.4432H30.4433H30.4433H30.4434H30.4435H30.4436H30.4437H30.4438H30.4439H30.444H30.4441H30.4442H30.4443H30.4444H30.4445H30.4445H30.4446H30.4447H30.4448H30.4449H30.445H30.4451H30.4452H30.4453H30.4454H30.4455H30.4456H30.4457H30.4458H30.4459H30.4459H30.446H30.4461H30.4462H30.4463H30.4464H30.4465H30.4466H30.4467H30.4468H30.4469H30.447H30.4471H30.4472H30.4473H30.4474H30.4475H30.4476H30.4477H30.4478H30.4478H30.4479H30.448H30.4481H30.4482H30.4483H30.4484H30.4485H30.4486H30.4487H30.4488H30.4489H30.449H30.4491H30.4492H30.4493H30.4494H30.4495H30.4496H30.4497H30.4498H30.4499H30.45H30.4501H30.4502H30.4503H30.4504H30.4505H30.4506H30.4507H30.4508H30.4509H30.4509H30.451H30.4511H30.4512H30.4513H30.4514H30.4515H30.4516H30.4517H30.4518H30.4519H30.452H30.4521H30.4522H30.4523H30.4524H30.4525H30.4526H30.4527H30.4528H30.4529H30.453H30.4531H30.4532H30.4533H30.4534H30.4535H30.4536H30.4537H30.4538H30.4539H30.454H30.4541H30.4542H30.4543H30.4544H30.4545H30.4546H30.4547H30.4548H30.4549H30.455H30.4551H30.4552H30.4553H30.4554H30.4555H30.4556H30.4557H30.4558H30.4559H30.456H30.4561H30.4562H30.4563H30.4564H30.4565H30.4566H30.4567H30.4568H30.4569H30.457H30.4571H30.4572H30.4573H30.4574H30.4575H30.4576H30.4577H30.4578H30.4579H30.458H30.4581H30.4582H30.4583H30.4584H30.4585H30.4586H30.4587H30.4588H30.4589H30.459H30.4591H30.4592H30.4593H30.4594H30.4595H30.4596H30.4597H30.4598H30.4599H30.46H30.4601H30.4602H30.4603H30.4604H30.4605H30.4606H30.4607H30.4608H30.4609H30.461H30.4611H30.4612H30.4613H30.4614H30.4615H30.4616H30.4617H30.4618H30.4619H30.462H30.4621H30.4622H30.4623H30.4624H30.4625H30.4626H30.4627H30.4628H30.4629H30.463H30.4631H30.4632H30.4633H30.4634H30.4635H30.4636H30.4637H30.4638H30.4639H30.464H30.4641H30.4642H30.4643H30.4644H30.4645H30.4646H30.4647H30.4648H30.4649H30.465H30.4651H30.4652H30.4653H30.4653H30.4654H30.4655H30.4656H30.4657H30.4658H30.4659H30.466H30.4661H30.4662H30.4663H30.4664H30.4665H30.4666H30.4667H30.4668H30.4669H30.467H30.4671H30.4672H30.4673H30.4674H30.4675H30.4676H30.4677H30.4678H30.4679H30.468H30.4681H30.4682H30.4683H30.4684H30.4685H30.4686H30.4687H30.4688H30.4689H30.469H30.4691H30.4692H30.4693H30.4694H30.4695H30.4696H30.4697H30.4697H30.4698H30.4699H30.47H30.4701H30.4702H30.4703H30.4704H30.4705H30.4706H30.4707H30.4708H30.4709H30.471H30.4711H30.4712H30.4713H30.4714H30.4715H30.4716H30.4717H30.4718H30.4719H30.4719H30.472H30.4721H30.4722H30.4723H30.4724H30.4725H30.4726H30.4727H30.4728H30.4729H30.473H30.4731H30.4732H30.4733H30.4734H30.4735H30.4735H30.4736H30.4737H30.4738H30.4739H30.474H30.4741H30.4742H30.4743H30.4744H30.4745H30.4746H30.4747H30.4748H30.4748H30.4749H30.475H30.4751H30.4752H30.4753H30.4754H30.4755H30.4756H30.4757H30.4758H30.4759H30.4759H30.476H30.4761H30.4762H30.4763H30.4764H30.4765H30.4766H30.4767H30.4768H30.4768H30.4769H30.477H30.4771H30.4772H30.4773H30.4774H30.4775H30.4776H30.4777H30.4777H30.4778H30.4779H30.478H30.4781H30.4782H30.4783H30.4784H30.4784H30.4785H30.4786H30.4787H30.4788H30.4789H30.479H30.4791H30.4791H30.4792H30.4793H30.4794H30.4795H30.4796H30.4797H30.4797H30.4798H30.4799H30.48H30.4801H30.4802H30.4803H30.4803H30.4804H30.4805H30.4806H30.4807H30.4808H30.4809H30.4809H30.481H30.4811H30.4812H30.4813H30.4814H30.4814H30.4815H30.4816H30.4817H30.4818H30.4818H30.4819H30.482H30.4821H30.4822H30.4823H30.4823H30.4824H30.4825H30.4826H30.4827H30.4827H30.4828H30.4829H30.483H30.4831H30.4831C30.7808 16.5749 31.0665 16.3159 31.0513 16.0042C31.0366 15.7015 30.7996 15.4384 30.4831 15.4384H2.69554C2.57118 15.4384 2.4465 15.4376 2.32163 15.4369C2.07138 15.4354 1.82041 15.4338 1.56995 15.4384H1.56992H1.56984H1.56976H1.56968H1.5696H1.56951H1.56943H1.56935H1.56927H1.56919H1.5691H1.56902H1.56894H1.56886H1.56877H1.56869H1.56861H1.56852H1.56844H1.56836H1.56827H1.56819H1.56811H1.56802H1.56794H1.56785H1.56777H1.56768H1.5676H1.56751H1.56743H1.56734H1.56726H1.56717H1.56709H1.567H1.56692H1.56683H1.56674H1.56666H1.56657H1.56648H1.5664H1.56631H1.56622H1.56614H1.56605H1.56596H1.56588H1.56579H1.5657H1.56561H1.56552H1.56544H1.56535H1.56526H1.56517H1.56508H1.565H1.56491H1.56482H1.56473H1.56464H1.56455H1.56446H1.56437H1.56428H1.56419H1.5641H1.56401H1.56392H1.56383H1.56374H1.56365H1.56356H1.56347H1.56338H1.56329H1.5632H1.56311H1.56302H1.56293H1.56284H1.56274H1.56265H1.56256H1.56247H1.56238H1.56229H1.56219H1.5621H1.56201H1.56192H1.56182H1.56173H1.56164H1.56155H1.56145H1.56136H1.56127H1.56118H1.56108H1.56099H1.5609H1.5608H1.56071H1.56062H1.56052H1.56043H1.56034H1.56024H1.56015H1.56005H1.55996H1.55986H1.55977H1.55968H1.55958H1.55949H1.55939H1.5593H1.5592H1.55911H1.55901H1.55892H1.55882H1.55873H1.55863H1.55854H1.55844H1.55835H1.55825H1.55816H1.55806H1.55796H1.55787H1.55777H1.55768H1.55758H1.55748H1.55739H1.55729H1.5572H1.5571H1.557H1.55691H1.55681H1.55671H1.55662H1.55652H1.55642H1.55633H1.55623H1.55613H1.55604H1.55594H1.55584H1.55574H1.55565H1.55555H1.55545H1.55535H1.55526H1.55516H1.55506H1.55496H1.55487H1.55477H1.55467H1.55457H1.55447H1.55438H1.55428H1.55418H1.55408H1.55398H1.55389H1.55379H1.55369H1.55359H1.55349H1.55339H1.5533H1.5532H1.5531H1.553H1.5529H1.5528H1.5527H1.55261H1.55251H1.55241H1.55231H1.55221H1.55211H1.55201H1.55191H1.55181H1.55172H1.55162H1.55152H1.55142H1.55132H1.55122H1.55112H1.55102H1.55092H1.55082H1.55072H1.55062H1.55052H1.55043H1.55033H1.55023H1.55013H1.55003H1.54993H1.54983H1.54973H1.54963H1.54953H1.54943H1.54933H1.54923H1.54913H1.54903H1.54893H1.54883H1.54873H1.54863H1.54853H1.54843H1.54833H1.54823H1.54813H1.54803H1.54793H1.54783H1.54773H1.54763H1.54753H1.54743H1.54733H1.54723H1.54713H1.54704H1.54694H1.54684H1.54674H1.54664H1.54654H1.54644H1.54634H1.54624H1.54614H1.54604H1.54594H1.54584H1.54574H1.54564H1.54554H1.54544H1.54534H1.54524H1.54514H1.54504H1.54494H1.54484H1.54474H1.54464H1.54454H1.54444H1.54434H1.54424H1.54414H1.54404H1.54394H1.54384H1.54374H1.54364H1.54354H1.54344H1.54334H1.54324H1.54314H1.54304H1.54294H1.54285H1.54275H1.54265H1.54255H1.54245H1.54235H1.54225H1.54215H1.54205H1.54195H1.54185H1.54175H1.54165H1.54155H1.54145H1.54136H1.54126H1.54116H1.54106H1.54096H1.54086H1.54076H1.54066H1.54056H1.54047H1.54037H1.54027H1.54017H1.54007H1.53997H1.53987H1.53978H1.53968H1.53958H1.53948H1.53938H1.53928H1.53919H1.53909H1.53899H1.53889H1.53879H1.53869H1.5386H1.5385H1.5384H1.5383H1.53821H1.53811H1.53801H1.53791H1.53781H1.53772H1.53762H1.53752H1.53743H1.53733H1.53723H1.53713H1.53704H1.53694H1.53684H1.53675H1.53665H1.53655H1.53645H1.53636H1.53626H1.53617H1.53607H1.53597H1.53588H1.53578H1.53568H1.53559H1.53549H1.53539H1.5353H1.5352H1.53511H1.53501H1.53492H1.53482H1.53472H1.53463H1.53453H1.53444H1.53434H1.53425H1.53415H1.53406H1.53396H1.53387H1.53377H1.53368H1.53358H1.53349H1.5334H1.5333H1.53321H1.53311H1.53302H1.53292H1.53283H1.53274H1.53264H1.53255H1.53246H1.53236H1.53227H1.53217H1.53208H1.53199H1.5319H1.5318H1.53171H1.53162H1.53152H1.53143H1.53134H1.53125H1.53115H1.53106H1.53097H1.53088H1.53079H1.53069H1.5306H1.53051H1.53042H1.53033H1.53024H1.53015H1.53005H1.52996H1.52987H1.52978H1.52969H1.5296H1.52951H1.52942H1.52933H1.52924H1.52915H1.52906H1.52897H1.52888H1.52879H1.5287H1.52861H1.52852H1.52843H1.52834H1.52825H1.52817H1.52808H1.52799H1.5279H1.52781H1.52772H1.52763H1.52755H1.52746H1.52737H1.52728H1.5272H1.52711H1.52702H1.52693H1.52685H1.52676H1.52667H1.52659H1.5265H1.52641H1.52633H1.52624H1.52616H1.52607H1.52598H1.5259H1.52581H1.52573H1.52564H1.52556H1.52547H1.52539H1.5253H1.52522H1.52513H1.52505H1.52497H1.52488H1.5248H1.52471H1.52463H1.52455H1.52446H1.52438H1.5243H1.52421H1.52413H1.52405H1.52397H1.52388H1.5238H1.52372H1.52364H1.52356H1.52348H1.52339H1.52331H1.52323H1.52315H1.52307H1.52299H1.52291H1.52283H1.52275H1.52267C1.22505 15.4384 0.939277 15.6974 0.954481 16.0091Z" fill="white" stroke="white" stroke-width="0.1"/>
<path d="M2.32371 16.0004L3.22597 15.0981L4.53182 13.7922L4.90687 13.4172C5.12415 13.1999 5.12415 12.8273 4.90687 12.61C4.68959 12.3928 4.31698 12.3928 4.0997 12.61L2.79385 13.9159L1.48801 15.2217L1.11296 15.5968C0.89568 15.814 0.89568 16.1867 1.11296 16.4039L2.41881 17.7098L3.72465 19.0156L4.0997 19.3907C4.31698 19.608 4.68959 19.608 4.90687 19.3907C5.12415 19.1734 5.12415 18.8008 4.90687 18.5835L3.60102 17.2777L2.32371 16.0004Z" fill="white" stroke="white" stroke-width="0.1"/>
<path d="M29.6766 16.0004L28.7743 16.9026L27.4685 18.2085L27.0934 18.5835C26.8761 18.8008 26.8761 19.1734 27.0934 19.3907C27.3107 19.608 27.6833 19.608 27.9006 19.3907L29.2064 18.0848L30.5123 16.779L30.5238 16.7675L30.5253 16.766L30.526 16.7653L30.5267 16.7646L30.5296 16.7617L30.5303 16.761L30.531 16.7602L30.5318 16.7595L30.5325 16.7588L30.5332 16.7581L30.5339 16.7573L30.5354 16.7559L30.5586 16.7327L30.5593 16.7319L30.5601 16.7312L30.5615 16.7298L30.5623 16.729L30.563 16.7283L30.5637 16.7276L30.5644 16.7268L30.5659 16.7254L30.5674 16.7239L30.5703 16.721L30.582 16.7093L30.5827 16.7086L30.5834 16.7078L30.5849 16.7064L30.5864 16.7049L30.5871 16.7042L30.5878 16.7035L30.5893 16.702L30.5907 16.7005L30.5915 16.6998L30.5922 16.6991L30.5937 16.6976L30.5966 16.6947L30.5995 16.6917L30.601 16.6903L30.6025 16.6888L30.6032 16.6881L30.6039 16.6873L30.6054 16.6859L30.6998 16.5915L30.7057 16.5855L30.7072 16.5841L30.7079 16.5833L30.7087 16.5826L30.7094 16.5819L30.7102 16.5811L30.7109 16.5804L30.7116 16.5796L30.7124 16.5789L30.7131 16.5782L30.7146 16.5767L30.7153 16.5759L30.7161 16.5752L30.7168 16.5745L30.7176 16.5737L30.7235 16.5678L30.7264 16.5649L30.7294 16.5619L30.7323 16.5589L30.7353 16.556L30.736 16.5553L30.7368 16.5545L30.7375 16.5538L30.7382 16.553L30.739 16.5523L30.7397 16.5516L30.7412 16.5501L30.7427 16.5486L30.7441 16.5471L30.7471 16.5442L30.7942 16.4971L30.841 16.4503L30.8439 16.4473L30.8454 16.4459L30.8468 16.4444L30.8526 16.4386L30.8541 16.4372L30.8555 16.4357L30.8563 16.435L30.857 16.4343L30.8584 16.4328L30.8642 16.427L30.8657 16.4256L30.8671 16.4241L30.8686 16.4227L30.87 16.4212L30.8708 16.4205L30.8715 16.4198L30.8722 16.4191L30.8729 16.4184L30.8736 16.4176L30.8744 16.4169L30.8758 16.4155L30.8765 16.4147L30.8773 16.414L30.8787 16.4126L30.8794 16.4119L30.8801 16.4111L30.8809 16.4104L30.8816 16.4097L30.883 16.4083L30.8845 16.4068L30.8873 16.4039C31.1046 16.1867 31.1046 15.814 30.8873 15.5968L29.5815 14.2909L28.2756 12.9851L28.0881 12.7976L27.9006 12.61C27.6833 12.3928 27.3107 12.3928 27.0934 12.61C26.8761 12.8273 26.8761 13.1999 27.0934 13.4172L28.3993 14.723L29.6766 16.0004Z" fill="white" stroke="white" stroke-width="0.1"/>
<path d="M15.9994 29.6766L15.9994 29.6766L15.9943 29.6715L15.9739 29.6511L15.9687 29.646L15.9636 29.6409L15.9585 29.6358L15.9534 29.6306L15.9483 29.6255L15.9432 29.6204L15.9381 29.6153L15.933 29.6102L15.9126 29.5898L15.9075 29.5847L15.9024 29.5796L15.8973 29.5745L15.8922 29.5694L15.882 29.5592L15.8718 29.549L15.8514 29.5286L15.831 29.5082L15.8259 29.5031L15.8208 29.498L15.8157 29.4929L15.8106 29.4878L15.8055 29.4827L15.8004 29.4776L15.7953 29.4725L15.7902 29.4674L15.7851 29.4623L15.78 29.4572L15.7749 29.4521L15.7698 29.447L15.7647 29.4419L15.7596 29.4368L15.7545 29.4317L15.7494 29.4266L15.7443 29.4215L15.7392 29.4164L15.7341 29.4113L15.729 29.4062L15.7086 29.3858L15.7035 29.3807L15.6984 29.3756L15.6933 29.3705L15.6882 29.3654L15.6831 29.3603L15.678 29.3552L15.6678 29.345L15.6627 29.3399L15.6576 29.3348L15.6525 29.3297L15.6474 29.3246L15.6372 29.3144L15.627 29.3042L15.6168 29.294L15.6117 29.289L15.6066 29.2839L15.6015 29.2788L15.5965 29.2737L15.5863 29.2635L15.5455 29.2227L15.5251 29.2023L15.52 29.1972L15.5149 29.1921L15.5098 29.187L15.5047 29.1819L15.4232 29.1004L15.0971 28.7743L15.092 28.7692L15.0869 28.7641L15.0818 28.759L15.0767 28.7539L15.0716 28.7489L15.0665 28.7438L15.0564 28.7336L15.036 28.7132L15.0309 28.7081L15.0258 28.703L15.0156 28.6928L15.0105 28.6877L15.0054 28.6826L14.9952 28.6724L14.9748 28.6521L14.9698 28.647L14.9647 28.6419L14.9545 28.6317L14.9494 28.6266L14.9443 28.6215L14.9392 28.6164L14.9341 28.6113L14.929 28.6062L14.9239 28.6011L14.9188 28.596L14.9137 28.5909L14.9086 28.5858L14.9035 28.5807L14.8984 28.5756L14.8933 28.5705L14.8882 28.5654L14.8831 28.5604L14.8781 28.5553L14.873 28.5502L14.8526 28.5298L14.8475 28.5247L14.8424 28.5196L14.8373 28.5145L14.8322 28.5094L14.822 28.4992L14.8118 28.489L14.7914 28.4686L14.7863 28.4635L14.7812 28.4585L14.7761 28.4534L14.7711 28.4483L14.766 28.4432L14.7609 28.4381L14.7558 28.433L14.7507 28.4279L14.7456 28.4228L14.7405 28.4177L14.7354 28.4126L14.7303 28.4075L14.7099 28.3871L14.6997 28.3769L14.6946 28.3718L14.6895 28.3667L14.6844 28.3616L14.6793 28.3565L14.6742 28.3514L14.6691 28.3463L14.664 28.3412L14.6589 28.3361L14.6538 28.3311L14.6487 28.326L14.6436 28.3209L14.6386 28.3158L14.6335 28.3107L14.6284 28.3056L14.6233 28.3005L14.6182 28.2954L14.608 28.2852L14.5978 28.275L14.5927 28.2699L14.5876 28.2648L14.5825 28.2597L14.5774 28.2546L14.5723 28.2495L14.5672 28.2444L14.5621 28.2393L14.557 28.2342L14.5519 28.2291L14.5468 28.224L14.5417 28.2189L14.5366 28.2138L14.5315 28.2087L14.5264 28.2036L14.5213 28.1985L14.5162 28.1934L14.5111 28.1883L14.506 28.1832L14.5009 28.1781L14.4958 28.173L14.4907 28.1679L14.4856 28.1628L14.4448 28.122L14.4397 28.1169L14.4346 28.1118L14.4295 28.1067L14.4244 28.1016L14.4193 28.0965L14.4142 28.0914L14.4091 28.0863L14.404 28.0812L14.3989 28.0761L14.3938 28.071L14.3836 28.0608L14.3785 28.0557L14.3734 28.0506L14.3683 28.0455L14.3632 28.0404L14.3581 28.0353L14.353 28.0302L14.3428 28.02L14.3326 28.0098L14.3275 28.0047L14.3224 27.9996L14.3173 27.9945L14.3122 27.9894L14.3071 27.9843L14.302 27.9792L14.2918 27.969L14.2867 27.9639L14.2816 27.9588L14.2 27.8772L14.1898 27.867L14.1847 27.8619L14.1795 27.8568L14.1744 27.8516L14.1693 27.8465L14.1591 27.8363L14.154 27.8312L14.1489 27.8261L14.1438 27.821L14.1387 27.8159L14.1183 27.7955L14.0979 27.7751L14.0928 27.77L14.0877 27.7649L14.0825 27.7598L14.0774 27.7546L14.0672 27.7444L14.057 27.7342L14.0519 27.7291L14.0468 27.724L14.0417 27.7189L14.0366 27.7138L14.0315 27.7087L14.0264 27.7036L14.0213 27.6985L14.0162 27.6934L14.011 27.6883L14.0059 27.6831L14.0008 27.678L13.9957 27.6729L13.9753 27.6525L13.9702 27.6474L13.9651 27.6423L13.96 27.6372L13.9548 27.6321L13.9497 27.6269L13.9446 27.6218L13.9395 27.6167L13.9344 27.6116L13.9293 27.6065L13.9242 27.6014L13.9191 27.5963L13.914 27.5912L13.9037 27.581L13.8986 27.5758L13.8935 27.5707L13.8884 27.5656L13.8833 27.5605L13.8782 27.5554L13.8731 27.5503L13.868 27.5452L13.8629 27.5401L13.8577 27.5349L13.8526 27.5298L13.8424 27.5196L13.8373 27.5145L13.8322 27.5094L13.8271 27.5043L13.8219 27.4992L13.8117 27.4889L13.8066 27.4838L13.8015 27.4787L13.7964 27.4736L13.7913 27.4685L13.4162 27.0934C13.1989 26.8761 12.8263 26.8761 12.6091 27.0934C12.3918 27.3107 12.3918 27.6833 12.6091 27.9006L13.9149 29.2064L15.2207 30.5123L15.5958 30.8873C15.8131 31.1046 16.1857 31.1046 16.403 30.8873L17.7088 29.5815L19.0147 28.2756L19.0154 28.2749L19.0161 28.2742L19.0175 28.2728L19.019 28.2713L19.0197 28.2706L19.0204 28.2699L19.0219 28.2684L19.0226 28.2677L19.0233 28.267L19.0262 28.2641L19.032 28.2583L19.0377 28.2526L19.0493 28.241L19.0552 28.2351L19.0581 28.2322L19.0595 28.2308L19.061 28.2293L19.0726 28.2177L19.0785 28.2118L19.0792 28.2111L19.0799 28.2104L19.0814 28.2089L19.0829 28.2074L19.0843 28.206L19.0851 28.2052L19.0858 28.2045L19.0865 28.2038L19.0873 28.203L19.0887 28.2016L19.0894 28.2008L19.0902 28.2001L19.0916 28.1987L19.0924 28.1979L19.0931 28.1972L19.096 28.1943L19.1019 28.1884L19.1048 28.1855L19.1078 28.1825L19.2022 28.0881L19.2081 28.0822L19.214 28.0763L19.2199 28.0704L19.2214 28.0689L19.2221 28.0682L19.2229 28.0674L19.2236 28.0667L19.2244 28.0659L19.2258 28.0645L19.2273 28.063L19.228 28.0623L19.2288 28.0615L19.2303 28.06L19.231 28.0593L19.2317 28.0586L19.2332 28.0571L19.2347 28.0556L19.2354 28.0549L19.2362 28.0541L19.2369 28.0534L19.2376 28.0527L19.2391 28.0512L19.2399 28.0504L19.2406 28.0497L19.2421 28.0482L19.2428 28.0475L19.2436 28.0467L19.2495 28.0408L19.2554 28.0349L19.2568 28.0335L19.2576 28.0327L19.2583 28.032L19.2613 28.029L19.262 28.0283L19.2627 28.0276L19.2642 28.0261L19.2649 28.0254L19.2657 28.0246L19.2664 28.0239L19.2672 28.0231L19.2686 28.0217L19.2694 28.0209L19.2701 28.0202L19.2708 28.0195L19.2716 28.0187L19.2723 28.018L19.273 28.0172L19.2745 28.0158L19.2753 28.015L19.276 28.0143L19.2767 28.0136L19.2775 28.0128L19.2782 28.0121L19.2789 28.0114L19.2848 28.0055L19.2878 28.0025L19.2885 28.0018L19.2892 28.0011L19.29 28.0003L19.2907 27.9996L19.2922 27.9981L19.2936 27.9967L19.2951 27.9952L19.2958 27.9945L19.2966 27.9937L19.3434 27.9469L19.3441 27.9462L19.3448 27.9455L19.3463 27.944L19.3477 27.9426L19.3492 27.9411L19.355 27.9353L19.3608 27.9295L19.3637 27.9266L19.3652 27.9251L19.3666 27.9237L19.3673 27.923L19.3681 27.9222L19.3695 27.9208L19.3702 27.9201L19.371 27.9193L19.3717 27.9186L19.3724 27.9179L19.3738 27.9165L19.3746 27.9157L19.3753 27.915L19.376 27.9143L19.3767 27.9136L19.3775 27.9128L19.3782 27.9121L19.3839 27.9064L19.3897 27.9006C19.607 27.6833 19.607 27.3107 19.3897 27.0934C19.1724 26.8761 18.7998 26.8761 18.5825 27.0934L17.2767 28.3993L15.9994 29.6766Z" fill="white" stroke="white" stroke-width="0.1"/>
<path d="M15.9994 2.32371L18.2075 4.53182L18.5825 4.90687C18.7998 5.12415 19.1724 5.12415 19.3897 4.90687C19.607 4.68959 19.607 4.31698 19.3897 4.0997L18.0839 2.79385L16.778 1.48801L16.5905 1.30048L16.403 1.11296C16.1857 0.89568 15.8131 0.89568 15.5958 1.11296L14.2899 2.41881L12.9841 3.72465L12.6091 4.0997C12.3918 4.31698 12.3918 4.68959 12.6091 4.90687C12.8263 5.12415 13.1989 5.12415 13.4162 4.90687L14.7221 3.60102L15.9994 2.32371Z" fill="white" stroke="white" stroke-width="0.1"/>
</svg>
