<svg width="24" height="25" viewBox="0 0 24 25" fill="none" xmlns="http://www.w3.org/2000/svg">
<mask id="path-1-inside-1_916_20032" fill="white">
<path d="M11.5168 0.733154C5.45388 0.733154 0.521484 5.76249 0.521484 11.9438C0.521484 18.1251 5.45388 23.1538 11.5168 23.1538C11.8635 23.1538 12.2067 23.1376 12.5452 23.1051C12.4367 22.7666 12.4361 22.3975 12.5488 22.056C12.5488 22.056 12.2038 22.0343 11.8452 22.0325C11.7361 22.0361 11.627 22.0391 11.5168 22.0391C11.3764 22.0391 11.2372 22.0349 11.0981 22.0289C10.6564 21.3477 10.2571 20.6647 9.90329 19.9793C10.355 20.0057 10.8291 20.0214 11.3239 20.0214H11.3328C11.3127 19.918 11.3021 19.8115 11.3021 19.7033V19.1796C10.6552 19.179 10.0448 19.1514 9.47634 19.1063C8.87954 17.8118 8.43902 16.5126 8.15537 15.2103C9.08889 15.3005 10.0313 15.3456 10.9783 15.3456C11.479 15.3456 11.9815 15.3329 12.4839 15.3071C12.4668 15.0131 12.5252 14.7161 12.6573 14.4497C10.8893 14.5525 9.31475 14.4858 7.99025 14.3475C7.72842 12.7579 7.70129 11.1646 7.90828 9.57371C8.89664 9.69637 9.90565 9.7589 10.9294 9.7589C11.689 9.7589 12.4568 9.72462 13.2299 9.65668C13.8231 9.60438 14.4205 9.53043 15.0197 9.43784C15.1559 10.4197 15.2019 11.4021 15.1594 12.3839C15.1877 12.3821 15.2166 12.3815 15.2455 12.3815C15.4979 12.3815 15.7438 12.4404 15.9679 12.5528C16.0246 11.4658 15.9791 10.3794 15.8311 9.30136C17.4228 9.00855 19.0292 8.57566 20.635 8.0075C21.1392 9.21778 21.4187 10.5477 21.4187 11.9438C21.4187 12.1741 21.4104 12.4025 21.3951 12.6298C21.3951 12.6562 21.401 12.7969 21.401 12.7969L21.5856 12.6737C21.8539 12.4933 22.1653 12.3983 22.4867 12.3983C22.492 12.3983 22.4979 12.3983 22.5032 12.3989C22.5097 12.248 22.5126 12.0959 22.5126 11.9438C22.5126 5.76249 17.5796 0.733154 11.5168 0.733154ZM1.61541 11.9438C1.61541 10.5868 1.8796 9.29113 2.35845 8.1085C3.22534 8.49269 4.81285 9.08371 7.02017 9.44625C7.04434 9.44986 7.06911 9.45347 7.09329 9.45708C6.89397 11.0179 6.90753 12.5943 7.13693 14.1672C7.14106 14.1936 7.14519 14.2195 7.14931 14.2459C4.23788 13.8497 2.25997 13.1012 1.65551 12.8504C1.62956 12.5516 1.61541 12.2492 1.61541 11.9438ZM10.0519 21.9279C7.88292 21.599 5.94157 20.5499 4.46964 19.0275C5.37309 19.2999 6.61503 19.6065 8.11586 19.8079C8.37887 19.8434 8.65486 19.8753 8.94205 19.9041C9.2717 20.5823 9.64146 21.2575 10.0519 21.9279ZM8.53279 19.0125C8.43844 19.0011 8.34526 18.9897 8.25385 18.9776C5.85253 18.6584 4.10932 18.0469 3.44766 17.7884C2.63149 16.6202 2.05298 15.268 1.78466 13.8058C2.71523 14.1557 4.57815 14.7564 7.15403 15.0961C7.20357 15.1027 7.25251 15.1081 7.30205 15.1147C7.56447 16.42 7.97551 17.7223 8.53279 19.0125ZM7.51553 7.27038C7.39817 7.72011 7.30028 8.17224 7.22008 8.62617C7.21182 8.62497 7.20298 8.62316 7.19413 8.62196C5.0741 8.27865 3.53376 7.70568 2.70521 7.34133C4.10343 4.56964 6.72413 2.53987 9.83547 1.99455C9.15022 3.03889 8.1424 4.85522 7.51553 7.27038ZM8.03802 8.74161C8.11173 8.33517 8.1996 7.92874 8.30398 7.5223C9.04525 4.64238 10.3851 2.61863 10.94 1.86588C11.1311 1.85506 11.3233 1.84845 11.5168 1.84845C11.6795 1.84845 11.8411 1.85265 12.0015 1.86047C12.5541 2.60841 13.8986 4.63517 14.6417 7.5223C14.7343 7.88304 14.8139 8.24318 14.8823 8.60392C12.1613 9.01998 9.84196 8.96166 8.03802 8.74161ZM15.6967 8.46684C15.6218 8.06642 15.5333 7.6678 15.4301 7.27038C14.7997 4.84139 13.7848 3.01905 13.099 1.97771C16.2168 2.49056 18.8522 4.49268 20.2776 7.24333C18.6588 7.81089 17.1267 8.2047 15.6967 8.46684Z"/>
<path d="M23.566 17.1433L22.0787 16.8295C22.0238 16.6804 21.9607 16.5355 21.8912 16.3942L22.7439 15.0997C22.84 14.9542 22.8211 14.76 22.7003 14.6362L21.6777 13.5937C21.6069 13.5215 21.5137 13.4848 21.42 13.4848C21.3881 13.4848 21.3557 13.489 21.325 13.4981C21.2885 13.5077 21.2531 13.5239 21.2201 13.5462L19.9227 14.4161C19.7918 14.3518 19.6579 14.2929 19.5205 14.2418L19.4155 13.6983L19.2227 12.6942C19.1897 12.5229 19.0416 12.3984 18.8694 12.3984H17.4235C17.2507 12.3984 17.1009 12.5223 17.0661 12.6954L16.8845 13.5876L16.7671 14.1678C16.5961 14.2213 16.4304 14.2863 16.2688 14.3596L15.5311 13.8546L15.3972 13.7626L15.0622 13.5335C15.0015 13.4914 14.9313 13.471 14.8617 13.471C14.7998 13.471 14.7379 13.4872 14.6836 13.5203C14.6565 13.5353 14.6306 13.5558 14.6076 13.5792L13.585 14.6212C13.5107 14.6969 13.4747 14.7973 13.4788 14.8989C13.4812 14.9651 13.5007 15.03 13.5384 15.0883L14.2691 16.2223C14.1547 16.4291 14.0556 16.6455 13.9748 16.871L13.8763 16.8908L12.7016 17.1259C12.5335 17.1596 12.4115 17.3099 12.4115 17.4854V18.9597C12.4115 19.0571 12.448 19.1473 12.5105 19.2146C12.5607 19.2693 12.6267 19.3084 12.7028 19.324L12.796 19.3439L13.8745 19.5717C13.9512 19.8501 14.0538 20.1171 14.18 20.3714L13.5237 21.367C13.4275 21.5125 13.4464 21.7067 13.5679 21.8312L14.5905 22.8737C14.6612 22.9459 14.7544 22.9825 14.8482 22.9825C14.9178 22.9825 14.9868 22.9621 15.0487 22.9218L16.014 22.2749C16.2694 22.4126 16.5395 22.525 16.822 22.6092L17.046 23.7738C17.0791 23.9457 17.2265 24.0696 17.3987 24.0696H18.8453C19.0181 24.0696 19.1673 23.9457 19.2026 23.7732L19.4521 22.5412C19.6986 22.4541 19.9339 22.3452 20.1568 22.216L21.2059 22.9344C21.2666 22.9765 21.3368 22.997 21.4064 22.997C21.4996 22.997 21.591 22.9603 21.6612 22.8899L22.6831 21.8474C22.8052 21.723 22.8253 21.5276 22.7303 21.3802L21.969 20.1988C22.0516 20.0124 22.1223 19.82 22.1795 19.621L23.5665 19.3439C23.7352 19.3102 23.8567 19.1593 23.8567 18.9837V17.5095C23.8567 17.3333 23.7352 17.1806 23.566 17.1451V17.1433ZM18.1341 20.5181C17.7773 20.5181 17.4406 20.4333 17.1404 20.2818C16.8261 20.1231 16.5542 19.8922 16.3449 19.609C16.1568 19.3559 16.0193 19.0613 15.9486 18.7414C15.912 18.5773 15.8926 18.4071 15.8926 18.2322C15.8926 18.1432 15.8973 18.056 15.9073 17.9694C16.0347 16.8307 16.9829 15.9463 18.1341 15.9463C18.5834 15.9463 19.0015 16.081 19.3518 16.313C19.6437 16.5066 19.8897 16.767 20.0672 17.0736C20.263 17.4133 20.3756 17.8095 20.3756 18.2316C20.3756 19.4936 19.3719 20.5169 18.1341 20.5169V20.5181Z"/>
</mask>
<path d="M11.5168 0.733154C5.45388 0.733154 0.521484 5.76249 0.521484 11.9438C0.521484 18.1251 5.45388 23.1538 11.5168 23.1538C11.8635 23.1538 12.2067 23.1376 12.5452 23.1051C12.4367 22.7666 12.4361 22.3975 12.5488 22.056C12.5488 22.056 12.2038 22.0343 11.8452 22.0325C11.7361 22.0361 11.627 22.0391 11.5168 22.0391C11.3764 22.0391 11.2372 22.0349 11.0981 22.0289C10.6564 21.3477 10.2571 20.6647 9.90329 19.9793C10.355 20.0057 10.8291 20.0214 11.3239 20.0214H11.3328C11.3127 19.918 11.3021 19.8115 11.3021 19.7033V19.1796C10.6552 19.179 10.0448 19.1514 9.47634 19.1063C8.87954 17.8118 8.43902 16.5126 8.15537 15.2103C9.08889 15.3005 10.0313 15.3456 10.9783 15.3456C11.479 15.3456 11.9815 15.3329 12.4839 15.3071C12.4668 15.0131 12.5252 14.7161 12.6573 14.4497C10.8893 14.5525 9.31475 14.4858 7.99025 14.3475C7.72842 12.7579 7.70129 11.1646 7.90828 9.57371C8.89664 9.69637 9.90565 9.7589 10.9294 9.7589C11.689 9.7589 12.4568 9.72462 13.2299 9.65668C13.8231 9.60438 14.4205 9.53043 15.0197 9.43784C15.1559 10.4197 15.2019 11.4021 15.1594 12.3839C15.1877 12.3821 15.2166 12.3815 15.2455 12.3815C15.4979 12.3815 15.7438 12.4404 15.9679 12.5528C16.0246 11.4658 15.9791 10.3794 15.8311 9.30136C17.4228 9.00855 19.0292 8.57566 20.635 8.0075C21.1392 9.21778 21.4187 10.5477 21.4187 11.9438C21.4187 12.1741 21.4104 12.4025 21.3951 12.6298C21.3951 12.6562 21.401 12.7969 21.401 12.7969L21.5856 12.6737C21.8539 12.4933 22.1653 12.3983 22.4867 12.3983C22.492 12.3983 22.4979 12.3983 22.5032 12.3989C22.5097 12.248 22.5126 12.0959 22.5126 11.9438C22.5126 5.76249 17.5796 0.733154 11.5168 0.733154ZM1.61541 11.9438C1.61541 10.5868 1.8796 9.29113 2.35845 8.1085C3.22534 8.49269 4.81285 9.08371 7.02017 9.44625C7.04434 9.44986 7.06911 9.45347 7.09329 9.45708C6.89397 11.0179 6.90753 12.5943 7.13693 14.1672C7.14106 14.1936 7.14519 14.2195 7.14931 14.2459C4.23788 13.8497 2.25997 13.1012 1.65551 12.8504C1.62956 12.5516 1.61541 12.2492 1.61541 11.9438ZM10.0519 21.9279C7.88292 21.599 5.94157 20.5499 4.46964 19.0275C5.37309 19.2999 6.61503 19.6065 8.11586 19.8079C8.37887 19.8434 8.65486 19.8753 8.94205 19.9041C9.2717 20.5823 9.64146 21.2575 10.0519 21.9279ZM8.53279 19.0125C8.43844 19.0011 8.34526 18.9897 8.25385 18.9776C5.85253 18.6584 4.10932 18.0469 3.44766 17.7884C2.63149 16.6202 2.05298 15.268 1.78466 13.8058C2.71523 14.1557 4.57815 14.7564 7.15403 15.0961C7.20357 15.1027 7.25251 15.1081 7.30205 15.1147C7.56447 16.42 7.97551 17.7223 8.53279 19.0125ZM7.51553 7.27038C7.39817 7.72011 7.30028 8.17224 7.22008 8.62617C7.21182 8.62497 7.20298 8.62316 7.19413 8.62196C5.0741 8.27865 3.53376 7.70568 2.70521 7.34133C4.10343 4.56964 6.72413 2.53987 9.83547 1.99455C9.15022 3.03889 8.1424 4.85522 7.51553 7.27038ZM8.03802 8.74161C8.11173 8.33517 8.1996 7.92874 8.30398 7.5223C9.04525 4.64238 10.3851 2.61863 10.94 1.86588C11.1311 1.85506 11.3233 1.84845 11.5168 1.84845C11.6795 1.84845 11.8411 1.85265 12.0015 1.86047C12.5541 2.60841 13.8986 4.63517 14.6417 7.5223C14.7343 7.88304 14.8139 8.24318 14.8823 8.60392C12.1613 9.01998 9.84196 8.96166 8.03802 8.74161ZM15.6967 8.46684C15.6218 8.06642 15.5333 7.6678 15.4301 7.27038C14.7997 4.84139 13.7848 3.01905 13.099 1.97771C16.2168 2.49056 18.8522 4.49268 20.2776 7.24333C18.6588 7.81089 17.1267 8.2047 15.6967 8.46684Z" fill="white"/>
<path d="M23.566 17.1433L22.0787 16.8295C22.0238 16.6804 21.9607 16.5355 21.8912 16.3942L22.7439 15.0997C22.84 14.9542 22.8211 14.76 22.7003 14.6362L21.6777 13.5937C21.6069 13.5215 21.5137 13.4848 21.42 13.4848C21.3881 13.4848 21.3557 13.489 21.325 13.4981C21.2885 13.5077 21.2531 13.5239 21.2201 13.5462L19.9227 14.4161C19.7918 14.3518 19.6579 14.2929 19.5205 14.2418L19.4155 13.6983L19.2227 12.6942C19.1897 12.5229 19.0416 12.3984 18.8694 12.3984H17.4235C17.2507 12.3984 17.1009 12.5223 17.0661 12.6954L16.8845 13.5876L16.7671 14.1678C16.5961 14.2213 16.4304 14.2863 16.2688 14.3596L15.5311 13.8546L15.3972 13.7626L15.0622 13.5335C15.0015 13.4914 14.9313 13.471 14.8617 13.471C14.7998 13.471 14.7379 13.4872 14.6836 13.5203C14.6565 13.5353 14.6306 13.5558 14.6076 13.5792L13.585 14.6212C13.5107 14.6969 13.4747 14.7973 13.4788 14.8989C13.4812 14.9651 13.5007 15.03 13.5384 15.0883L14.2691 16.2223C14.1547 16.4291 14.0556 16.6455 13.9748 16.871L13.8763 16.8908L12.7016 17.1259C12.5335 17.1596 12.4115 17.3099 12.4115 17.4854V18.9597C12.4115 19.0571 12.448 19.1473 12.5105 19.2146C12.5607 19.2693 12.6267 19.3084 12.7028 19.324L12.796 19.3439L13.8745 19.5717C13.9512 19.8501 14.0538 20.1171 14.18 20.3714L13.5237 21.367C13.4275 21.5125 13.4464 21.7067 13.5679 21.8312L14.5905 22.8737C14.6612 22.9459 14.7544 22.9825 14.8482 22.9825C14.9178 22.9825 14.9868 22.9621 15.0487 22.9218L16.014 22.2749C16.2694 22.4126 16.5395 22.525 16.822 22.6092L17.046 23.7738C17.0791 23.9457 17.2265 24.0696 17.3987 24.0696H18.8453C19.0181 24.0696 19.1673 23.9457 19.2026 23.7732L19.4521 22.5412C19.6986 22.4541 19.9339 22.3452 20.1568 22.216L21.2059 22.9344C21.2666 22.9765 21.3368 22.997 21.4064 22.997C21.4996 22.997 21.591 22.9603 21.6612 22.8899L22.6831 21.8474C22.8052 21.723 22.8253 21.5276 22.7303 21.3802L21.969 20.1988C22.0516 20.0124 22.1223 19.82 22.1795 19.621L23.5665 19.3439C23.7352 19.3102 23.8567 19.1593 23.8567 18.9837V17.5095C23.8567 17.3333 23.7352 17.1806 23.566 17.1451V17.1433ZM18.1341 20.5181C17.7773 20.5181 17.4406 20.4333 17.1404 20.2818C16.8261 20.1231 16.5542 19.8922 16.3449 19.609C16.1568 19.3559 16.0193 19.0613 15.9486 18.7414C15.912 18.5773 15.8926 18.4071 15.8926 18.2322C15.8926 18.1432 15.8973 18.056 15.9073 17.9694C16.0347 16.8307 16.9829 15.9463 18.1341 15.9463C18.5834 15.9463 19.0015 16.081 19.3518 16.313C19.6437 16.5066 19.8897 16.767 20.0672 17.0736C20.263 17.4133 20.3756 17.8095 20.3756 18.2316C20.3756 19.4936 19.3719 20.5169 18.1341 20.5169V20.5181Z" fill="white"/>
<path d="M11.5168 0.733154C5.45388 0.733154 0.521484 5.76249 0.521484 11.9438C0.521484 18.1251 5.45388 23.1538 11.5168 23.1538C11.8635 23.1538 12.2067 23.1376 12.5452 23.1051C12.4367 22.7666 12.4361 22.3975 12.5488 22.056C12.5488 22.056 12.2038 22.0343 11.8452 22.0325C11.7361 22.0361 11.627 22.0391 11.5168 22.0391C11.3764 22.0391 11.2372 22.0349 11.0981 22.0289C10.6564 21.3477 10.2571 20.6647 9.90329 19.9793C10.355 20.0057 10.8291 20.0214 11.3239 20.0214H11.3328C11.3127 19.918 11.3021 19.8115 11.3021 19.7033V19.1796C10.6552 19.179 10.0448 19.1514 9.47634 19.1063C8.87954 17.8118 8.43902 16.5126 8.15537 15.2103C9.08889 15.3005 10.0313 15.3456 10.9783 15.3456C11.479 15.3456 11.9815 15.3329 12.4839 15.3071C12.4668 15.0131 12.5252 14.7161 12.6573 14.4497C10.8893 14.5525 9.31475 14.4858 7.99025 14.3475C7.72842 12.7579 7.70129 11.1646 7.90828 9.57371C8.89664 9.69637 9.90565 9.7589 10.9294 9.7589C11.689 9.7589 12.4568 9.72462 13.2299 9.65668C13.8231 9.60438 14.4205 9.53043 15.0197 9.43784C15.1559 10.4197 15.2019 11.4021 15.1594 12.3839C15.1877 12.3821 15.2166 12.3815 15.2455 12.3815C15.4979 12.3815 15.7438 12.4404 15.9679 12.5528C16.0246 11.4658 15.9791 10.3794 15.8311 9.30136C17.4228 9.00855 19.0292 8.57566 20.635 8.0075C21.1392 9.21778 21.4187 10.5477 21.4187 11.9438C21.4187 12.1741 21.4104 12.4025 21.3951 12.6298C21.3951 12.6562 21.401 12.7969 21.401 12.7969L21.5856 12.6737C21.8539 12.4933 22.1653 12.3983 22.4867 12.3983C22.492 12.3983 22.4979 12.3983 22.5032 12.3989C22.5097 12.248 22.5126 12.0959 22.5126 11.9438C22.5126 5.76249 17.5796 0.733154 11.5168 0.733154ZM1.61541 11.9438C1.61541 10.5868 1.8796 9.29113 2.35845 8.1085C3.22534 8.49269 4.81285 9.08371 7.02017 9.44625C7.04434 9.44986 7.06911 9.45347 7.09329 9.45708C6.89397 11.0179 6.90753 12.5943 7.13693 14.1672C7.14106 14.1936 7.14519 14.2195 7.14931 14.2459C4.23788 13.8497 2.25997 13.1012 1.65551 12.8504C1.62956 12.5516 1.61541 12.2492 1.61541 11.9438ZM10.0519 21.9279C7.88292 21.599 5.94157 20.5499 4.46964 19.0275C5.37309 19.2999 6.61503 19.6065 8.11586 19.8079C8.37887 19.8434 8.65486 19.8753 8.94205 19.9041C9.2717 20.5823 9.64146 21.2575 10.0519 21.9279ZM8.53279 19.0125C8.43844 19.0011 8.34526 18.9897 8.25385 18.9776C5.85253 18.6584 4.10932 18.0469 3.44766 17.7884C2.63149 16.6202 2.05298 15.268 1.78466 13.8058C2.71523 14.1557 4.57815 14.7564 7.15403 15.0961C7.20357 15.1027 7.25251 15.1081 7.30205 15.1147C7.56447 16.42 7.97551 17.7223 8.53279 19.0125ZM7.51553 7.27038C7.39817 7.72011 7.30028 8.17224 7.22008 8.62617C7.21182 8.62497 7.20298 8.62316 7.19413 8.62196C5.0741 8.27865 3.53376 7.70568 2.70521 7.34133C4.10343 4.56964 6.72413 2.53987 9.83547 1.99455C9.15022 3.03889 8.1424 4.85522 7.51553 7.27038ZM8.03802 8.74161C8.11173 8.33517 8.1996 7.92874 8.30398 7.5223C9.04525 4.64238 10.3851 2.61863 10.94 1.86588C11.1311 1.85506 11.3233 1.84845 11.5168 1.84845C11.6795 1.84845 11.8411 1.85265 12.0015 1.86047C12.5541 2.60841 13.8986 4.63517 14.6417 7.5223C14.7343 7.88304 14.8139 8.24318 14.8823 8.60392C12.1613 9.01998 9.84196 8.96166 8.03802 8.74161ZM15.6967 8.46684C15.6218 8.06642 15.5333 7.6678 15.4301 7.27038C14.7997 4.84139 13.7848 3.01905 13.099 1.97771C16.2168 2.49056 18.8522 4.49268 20.2776 7.24333C18.6588 7.81089 17.1267 8.2047 15.6967 8.46684Z" stroke="white" stroke-width="2.1" mask="url(#path-1-inside-1_916_20032)"/>
<path d="M23.566 17.1433L22.0787 16.8295C22.0238 16.6804 21.9607 16.5355 21.8912 16.3942L22.7439 15.0997C22.84 14.9542 22.8211 14.76 22.7003 14.6362L21.6777 13.5937C21.6069 13.5215 21.5137 13.4848 21.42 13.4848C21.3881 13.4848 21.3557 13.489 21.325 13.4981C21.2885 13.5077 21.2531 13.5239 21.2201 13.5462L19.9227 14.4161C19.7918 14.3518 19.6579 14.2929 19.5205 14.2418L19.4155 13.6983L19.2227 12.6942C19.1897 12.5229 19.0416 12.3984 18.8694 12.3984H17.4235C17.2507 12.3984 17.1009 12.5223 17.0661 12.6954L16.8845 13.5876L16.7671 14.1678C16.5961 14.2213 16.4304 14.2863 16.2688 14.3596L15.5311 13.8546L15.3972 13.7626L15.0622 13.5335C15.0015 13.4914 14.9313 13.471 14.8617 13.471C14.7998 13.471 14.7379 13.4872 14.6836 13.5203C14.6565 13.5353 14.6306 13.5558 14.6076 13.5792L13.585 14.6212C13.5107 14.6969 13.4747 14.7973 13.4788 14.8989C13.4812 14.9651 13.5007 15.03 13.5384 15.0883L14.2691 16.2223C14.1547 16.4291 14.0556 16.6455 13.9748 16.871L13.8763 16.8908L12.7016 17.1259C12.5335 17.1596 12.4115 17.3099 12.4115 17.4854V18.9597C12.4115 19.0571 12.448 19.1473 12.5105 19.2146C12.5607 19.2693 12.6267 19.3084 12.7028 19.324L12.796 19.3439L13.8745 19.5717C13.9512 19.8501 14.0538 20.1171 14.18 20.3714L13.5237 21.367C13.4275 21.5125 13.4464 21.7067 13.5679 21.8312L14.5905 22.8737C14.6612 22.9459 14.7544 22.9825 14.8482 22.9825C14.9178 22.9825 14.9868 22.9621 15.0487 22.9218L16.014 22.2749C16.2694 22.4126 16.5395 22.525 16.822 22.6092L17.046 23.7738C17.0791 23.9457 17.2265 24.0696 17.3987 24.0696H18.8453C19.0181 24.0696 19.1673 23.9457 19.2026 23.7732L19.4521 22.5412C19.6986 22.4541 19.9339 22.3452 20.1568 22.216L21.2059 22.9344C21.2666 22.9765 21.3368 22.997 21.4064 22.997C21.4996 22.997 21.591 22.9603 21.6612 22.8899L22.6831 21.8474C22.8052 21.723 22.8253 21.5276 22.7303 21.3802L21.969 20.1988C22.0516 20.0124 22.1223 19.82 22.1795 19.621L23.5665 19.3439C23.7352 19.3102 23.8567 19.1593 23.8567 18.9837V17.5095C23.8567 17.3333 23.7352 17.1806 23.566 17.1451V17.1433ZM18.1341 20.5181C17.7773 20.5181 17.4406 20.4333 17.1404 20.2818C16.8261 20.1231 16.5542 19.8922 16.3449 19.609C16.1568 19.3559 16.0193 19.0613 15.9486 18.7414C15.912 18.5773 15.8926 18.4071 15.8926 18.2322C15.8926 18.1432 15.8973 18.056 15.9073 17.9694C16.0347 16.8307 16.9829 15.9463 18.1341 15.9463C18.5834 15.9463 19.0015 16.081 19.3518 16.313C19.6437 16.5066 19.8897 16.767 20.0672 17.0736C20.263 17.4133 20.3756 17.8095 20.3756 18.2316C20.3756 19.4936 19.3719 20.5169 18.1341 20.5169V20.5181Z" stroke="white" stroke-width="2.1" mask="url(#path-1-inside-1_916_20032)"/>
</svg>
