<svg width="642" height="770" viewBox="0 0 642 770" fill="none" xmlns="http://www.w3.org/2000/svg">
<path d="M194.589 0.866258C195.537 0.861801 196.484 0.857343 197.46 0.85275C198.503 0.852934 199.546 0.853119 200.62 0.853308C201.726 0.849632 202.832 0.845955 203.972 0.842167C207.698 0.831108 211.425 0.827283 215.151 0.823478C217.815 0.817215 220.479 0.810581 223.143 0.803565C231.152 0.7838 239.161 0.773733 247.171 0.764837C250.943 0.760453 254.716 0.755087 258.489 0.749848C271.033 0.732834 283.577 0.718341 296.122 0.711099C299.377 0.70919 302.633 0.707269 305.888 0.705314C306.697 0.70483 307.506 0.704346 308.34 0.703848C321.441 0.695551 334.542 0.670222 347.642 0.637733C361.096 0.60464 374.55 0.586649 388.004 0.583455C395.557 0.581292 403.109 0.572571 410.661 0.546994C417.095 0.525256 423.528 0.517252 429.962 0.526961C433.242 0.531497 436.522 0.527465 439.802 0.510199C443.366 0.492496 446.928 0.49958 450.492 0.512732C452.032 0.496278 452.032 0.496278 453.604 0.479492C461.541 0.550028 467.897 2.51953 474.688 6.62548C483.167 15.3342 486.318 23.2598 486.227 35.2285C486.228 36.2438 486.228 37.259 486.228 38.305C486.227 41.6489 486.211 44.9926 486.196 48.3364C486.192 50.6595 486.189 52.9827 486.187 55.3058C486.179 61.4116 486.16 67.5172 486.138 73.6229C486.117 79.8568 486.108 86.0908 486.098 92.3247C486.076 104.55 486.042 116.775 486 129C486.666 128.997 487.332 128.993 488.018 128.989C504.253 128.901 520.488 128.835 536.723 128.793C544.574 128.773 552.425 128.745 560.277 128.699C567.123 128.659 573.969 128.633 580.816 128.624C584.438 128.619 588.06 128.607 591.682 128.578C595.735 128.545 599.787 128.545 603.84 128.546C605.029 128.532 606.218 128.518 607.443 128.503C615.913 128.545 622.433 130.239 629.688 134.625C637.957 143.119 641.427 151.179 641.364 162.956C641.133 171.89 637.987 177.68 632.004 184.141C626.806 188.964 621.179 193.136 613.896 193.114C612.665 193.114 612.665 193.114 611.409 193.114C610.528 193.109 609.647 193.103 608.739 193.098C607.833 193.097 606.927 193.095 605.994 193.094C603.1 193.088 600.206 193.076 597.313 193.063C595.351 193.058 593.39 193.053 591.428 193.049C586.619 193.038 581.809 193.021 577 193C577.002 194.165 577.003 195.33 577.005 196.53C577.072 247.852 577.133 299.175 577.17 350.497C577.17 351.663 577.17 351.663 577.171 352.852C577.183 369.736 577.194 386.621 577.204 403.506C577.209 411.786 577.215 420.066 577.22 428.346C577.22 429.17 577.221 429.994 577.222 430.843C577.239 457.553 577.269 484.263 577.305 510.973C577.343 538.42 577.368 565.867 577.376 593.314C577.377 597.19 577.378 601.066 577.38 604.942C577.38 606.086 577.38 606.086 577.381 607.254C577.385 619.537 577.404 631.82 577.428 644.103C577.451 656.451 577.46 668.798 577.454 681.145C577.451 687.835 577.456 694.526 577.477 701.216C577.496 707.34 577.498 713.463 577.484 719.587C577.482 721.804 577.487 724.021 577.5 726.237C577.516 729.249 577.507 732.26 577.492 735.272C577.508 736.565 577.508 736.565 577.524 737.884C577.426 746.78 573.992 753.675 568.004 760.141C561.291 766.37 555.507 769.152 546.381 769.138C545.594 769.14 544.807 769.143 543.996 769.146C541.336 769.153 538.676 769.154 536.016 769.154C534.098 769.158 532.18 769.163 530.263 769.168C524.976 769.18 519.689 769.185 514.402 769.19C508.706 769.196 503.011 769.207 497.315 769.218C483.551 769.243 469.787 769.257 456.024 769.27C452.137 769.274 448.251 769.278 444.365 769.282C420.242 769.307 396.119 769.329 371.995 769.342C366.406 769.345 360.816 769.348 355.227 769.351C354.532 769.351 353.838 769.351 353.122 769.352C330.61 769.364 308.098 769.395 285.587 769.437C261.787 769.481 237.988 769.506 214.188 769.512C201.215 769.515 188.241 769.527 175.267 769.56C164.219 769.588 153.17 769.599 142.122 769.588C136.484 769.582 130.847 769.585 125.209 769.61C120.046 769.632 114.884 769.632 109.721 769.613C107.855 769.61 105.989 769.616 104.123 769.631C86.2546 769.765 86.2546 769.765 78.0003 764C76.9278 763.279 75.8553 762.557 74.7503 761.813C69.0773 756.011 64.8742 749.218 64.8761 740.964C64.8738 740.164 64.8716 739.364 64.8692 738.539C64.8732 737.227 64.8732 737.227 64.8772 735.888C64.876 734.951 64.8749 734.014 64.8737 733.049C64.871 729.887 64.8756 726.725 64.88 723.563C64.8796 721.283 64.8787 719.003 64.8774 716.722C64.8752 710.438 64.8792 704.153 64.8842 697.869C64.888 691.793 64.8872 685.717 64.8865 679.642C64.8852 667.211 64.8885 654.78 64.8945 642.349C64.9004 630.038 64.9043 617.727 64.9054 605.417C64.9054 604.652 64.9055 603.887 64.9056 603.098C64.9059 599.214 64.9062 595.329 64.9065 591.444C64.9086 563.915 64.9153 536.387 64.9248 508.859C64.934 482.113 64.9411 455.367 64.9453 428.621C64.9455 427.384 64.9455 427.384 64.9457 426.123C64.947 417.846 64.9483 409.57 64.9496 401.293C64.9521 384.432 64.9549 367.57 64.9579 350.709C64.9581 349.546 64.9581 349.546 64.9583 348.36C64.9675 296.573 64.9834 244.787 65.0002 193C63.8106 193.027 62.621 193.053 61.3953 193.08C56.9412 193.171 52.4872 193.228 48.0325 193.275C46.1121 193.3 44.1918 193.334 42.2717 193.378C21.9207 193.827 21.9207 193.827 14.0002 188C12.9277 187.279 11.8552 186.557 10.7502 185.813C2.91003 177.795 0.696609 170.098 0.685547 159.213C0.857815 150.202 3.74822 143.368 9.92993 136.758C15.8694 131.715 22.9775 128.873 30.7139 128.88C31.9044 128.879 33.095 128.877 34.3215 128.876C35.6292 128.88 36.9369 128.883 38.2842 128.887C39.6738 128.887 41.0634 128.887 42.4529 128.887C46.2275 128.886 50.0019 128.892 53.7764 128.899C57.7202 128.905 61.664 128.906 65.6079 128.907C73.077 128.91 80.5461 128.918 88.0153 128.928C96.5182 128.94 105.021 128.945 113.524 128.95C131.016 128.961 148.508 128.978 166 129C165.991 127.72 165.982 126.439 165.973 125.12C165.892 113.026 165.832 100.933 165.793 88.8389C165.772 82.6219 165.744 76.4053 165.698 70.1885C165.655 64.1844 165.631 58.1804 165.621 52.1762C165.613 49.8901 165.599 47.6041 165.577 45.3182C165.548 42.1061 165.544 38.8948 165.546 35.6826C165.532 34.7461 165.517 33.8096 165.503 32.8447C165.56 23.4952 168.506 15.627 174.93 8.75829C180.394 4.11933 187.398 0.881949 194.589 0.866258ZM230 65.0005C230 86.1205 230 107.24 230 129C293.36 129 356.72 129 422 129C422 107.88 422 86.7605 422 65.0005C358.64 65.0005 295.28 65.0005 230 65.0005ZM129 193C129 361.96 129 530.92 129 705C255.72 705 382.44 705 513 705C513 536.04 513 367.08 513 193C386.28 193 259.56 193 129 193Z" fill="white"/>
<path d="M449.031 259.883C457.082 264.452 462.461 272.14 465 281C465.253 283.889 465.253 283.889 465.257 286.96C465.263 288.137 465.27 289.314 465.276 290.527C465.272 292.452 465.272 292.452 465.267 294.417C465.271 295.801 465.275 297.186 465.281 298.571C465.293 302.371 465.293 306.171 465.29 309.971C465.29 314.071 465.301 318.171 465.31 322.272C465.327 330.303 465.332 338.334 465.334 346.366C465.335 352.895 465.339 359.423 465.345 365.952C465.363 384.464 465.372 402.977 465.37 421.489C465.37 422.487 465.37 423.485 465.37 424.513C465.37 425.512 465.37 426.511 465.37 427.54C465.369 443.733 465.388 459.925 465.416 476.117C465.445 492.745 465.459 509.374 465.457 526.002C465.457 535.337 465.462 544.671 465.484 554.006C465.502 561.953 465.506 569.901 465.493 577.849C465.486 581.902 465.486 585.956 465.503 590.01C465.519 593.724 465.516 597.438 465.499 601.152C465.494 603.125 465.509 605.099 465.525 607.072C465.445 617.39 463.033 624.549 456.003 632.141C447.47 640.059 439.867 641.541 428.542 641.348C422.824 641.067 418.64 639.315 414 636C412.391 634.917 412.391 634.917 410.75 633.812C404.338 627.256 400.881 620.422 400.865 611.288C400.861 610.116 400.856 608.944 400.852 607.736C400.852 606.447 400.852 605.158 400.852 603.83C400.849 602.448 400.845 601.066 400.841 599.684C400.831 595.881 400.827 592.078 400.825 588.276C400.821 584.176 400.811 580.076 400.803 575.977C400.783 566.074 400.773 556.171 400.764 546.268C400.759 541.604 400.754 536.941 400.749 532.277C400.732 516.772 400.717 501.267 400.71 485.763C400.708 481.739 400.706 477.716 400.704 473.693C400.704 472.693 400.703 471.693 400.703 470.663C400.695 454.464 400.669 438.266 400.637 422.068C400.604 405.437 400.586 388.805 400.582 372.173C400.58 362.836 400.572 353.498 400.546 344.161C400.524 336.208 400.516 328.256 400.526 320.304C400.531 316.248 400.529 312.192 400.509 308.136C400.492 304.419 400.493 300.702 400.508 296.985C400.512 295.012 400.495 293.039 400.479 291.066C400.553 280.691 402.725 272.461 409.929 264.758C420.485 255.795 436.585 253.867 449.031 259.883Z" fill="white"/>
<path d="M337.031 259.883C345.082 264.452 350.461 272.14 353 281C353.253 283.889 353.253 283.889 353.257 286.96C353.263 288.137 353.27 289.314 353.276 290.527C353.272 292.452 353.272 292.452 353.267 294.417C353.271 295.801 353.275 297.186 353.281 298.571C353.293 302.371 353.293 306.171 353.29 309.971C353.29 314.071 353.301 318.171 353.31 322.272C353.327 330.303 353.332 338.334 353.334 346.366C353.335 352.895 353.339 359.423 353.345 365.952C353.363 384.464 353.372 402.977 353.37 421.489C353.37 422.487 353.37 423.485 353.37 424.513C353.37 425.512 353.37 426.511 353.37 427.54C353.369 443.733 353.388 459.925 353.416 476.117C353.445 492.745 353.459 509.374 353.457 526.002C353.457 535.337 353.462 544.671 353.484 554.006C353.502 561.953 353.506 569.901 353.493 577.849C353.486 581.902 353.486 585.956 353.503 590.01C353.519 593.724 353.516 597.438 353.499 601.152C353.494 603.125 353.509 605.099 353.525 607.072C353.445 617.39 351.033 624.549 344.003 632.141C335.47 640.059 327.867 641.541 316.542 641.348C310.824 641.067 306.64 639.315 302 636C300.391 634.917 300.391 634.917 298.75 633.812C292.338 627.256 288.881 620.422 288.865 611.288C288.861 610.116 288.856 608.944 288.852 607.736C288.852 606.447 288.852 605.158 288.852 603.83C288.849 602.448 288.845 601.066 288.841 599.684C288.831 595.881 288.827 592.078 288.825 588.276C288.821 584.176 288.811 580.076 288.803 575.977C288.783 566.074 288.773 556.171 288.764 546.268C288.759 541.604 288.754 536.941 288.749 532.277C288.732 516.772 288.717 501.267 288.71 485.763C288.708 481.739 288.706 477.716 288.704 473.693C288.704 472.693 288.703 471.693 288.703 470.663C288.695 454.464 288.669 438.266 288.637 422.068C288.604 405.437 288.586 388.805 288.582 372.173C288.58 362.836 288.572 353.498 288.546 344.161C288.524 336.208 288.516 328.256 288.526 320.304C288.531 316.248 288.529 312.192 288.509 308.136C288.492 304.419 288.493 300.702 288.508 296.985C288.512 295.012 288.495 293.039 288.479 291.066C288.553 280.691 290.725 272.461 297.929 264.758C308.485 255.795 324.585 253.867 337.031 259.883Z" fill="white"/>
<path d="M225.031 259.883C233.082 264.452 238.461 272.14 241 281C241.253 283.889 241.253 283.889 241.257 286.96C241.263 288.137 241.27 289.314 241.276 290.527C241.272 292.452 241.272 292.452 241.267 294.417C241.271 295.801 241.275 297.186 241.281 298.571C241.293 302.371 241.293 306.171 241.29 309.971C241.29 314.071 241.301 318.171 241.31 322.272C241.327 330.303 241.332 338.334 241.334 346.366C241.335 352.895 241.339 359.423 241.345 365.952C241.363 384.464 241.372 402.977 241.37 421.489C241.37 422.487 241.37 423.485 241.37 424.513C241.37 425.512 241.37 426.511 241.37 427.54C241.369 443.733 241.388 459.925 241.416 476.117C241.445 492.745 241.459 509.374 241.457 526.002C241.457 535.337 241.462 544.671 241.484 554.006C241.502 561.953 241.506 569.901 241.493 577.849C241.486 581.902 241.486 585.956 241.503 590.01C241.519 593.724 241.516 597.438 241.499 601.152C241.494 603.125 241.509 605.099 241.525 607.072C241.445 617.39 239.033 624.549 232.003 632.141C223.47 640.059 215.867 641.541 204.542 641.348C198.824 641.067 194.64 639.315 190 636C188.391 634.917 188.391 634.917 186.75 633.812C180.338 627.256 176.881 620.422 176.865 611.288C176.861 610.116 176.856 608.944 176.852 607.736C176.852 606.447 176.852 605.158 176.852 603.83C176.849 602.448 176.845 601.066 176.841 599.684C176.831 595.881 176.827 592.078 176.825 588.276C176.821 584.176 176.811 580.076 176.803 575.977C176.783 566.074 176.773 556.171 176.764 546.268C176.759 541.604 176.754 536.941 176.749 532.277C176.732 516.772 176.717 501.267 176.71 485.763C176.708 481.739 176.706 477.716 176.704 473.693C176.704 472.693 176.703 471.693 176.703 470.663C176.695 454.464 176.669 438.266 176.637 422.068C176.604 405.437 176.586 388.805 176.582 372.173C176.58 362.836 176.572 353.498 176.546 344.161C176.524 336.208 176.516 328.256 176.526 320.304C176.531 316.248 176.529 312.192 176.509 308.136C176.492 304.419 176.493 300.702 176.508 296.985C176.512 295.012 176.495 293.039 176.479 291.066C176.553 280.691 178.725 272.461 185.929 264.758C196.485 255.795 212.585 253.867 225.031 259.883Z" fill="white"/>
</svg>
