<svg width="1024" height="1024" viewBox="0 0 1024 1024" fill="none" xmlns="http://www.w3.org/2000/svg">
<path d="M397.241 140.554C400.732 140.563 404.22 140.534 407.711 140.502C426.696 140.442 444.995 142.64 463.187 148.25C464.666 148.695 464.666 148.695 466.174 149.149C476.027 152.19 485.554 155.878 495 160C495.797 160.343 496.595 160.685 497.416 161.038C509.864 166.438 520.989 173.092 532 181C532.719 181.516 533.437 182.031 534.178 182.562C542.535 188.598 550.571 194.836 558 202C558.614 202.584 559.229 203.167 559.862 203.768C575.71 218.871 588.294 235.551 600 254C600.578 254.906 600.578 254.906 601.167 255.83C607.555 265.976 611.888 276.782 616 288C616.346 288.937 616.692 289.874 617.048 290.839C622.568 305.982 626.344 321.11 629 337C629.197 338.105 629.197 338.105 629.398 339.232C632.912 359.369 632.642 382.919 629 403C628.833 403.944 628.667 404.888 628.495 405.861C626.29 418.132 623.85 430.241 619.698 442.016C618.937 444.18 618.21 446.353 617.48 448.528C610.047 470.149 597.911 489.502 585.918 508.844C583.944 512.092 582.058 515.379 580.187 518.688C572.587 532.123 564.3 545.166 556.151 558.272C555.624 559.121 555.097 559.969 554.554 560.844C554.085 561.599 553.616 562.353 553.132 563.131C551.97 564.993 551.97 564.993 551 567C582.68 567.33 614.36 567.66 647 568C646.965 559.587 646.93 551.173 646.894 542.504C646.877 536.489 646.862 530.473 646.849 524.457C646.832 516.67 646.811 508.882 646.773 501.094C646.74 494.267 646.723 487.439 646.715 480.612C646.71 478.009 646.699 475.407 646.683 472.805C646.661 469.154 646.658 465.504 646.659 461.854C646.643 460.247 646.643 460.247 646.627 458.608C646.671 447.802 649.392 439.821 657 432C663.827 426.487 671.159 424.698 679.872 424.71C680.626 424.703 681.38 424.696 682.156 424.689C684.63 424.67 687.104 424.666 689.578 424.664C691.313 424.658 693.048 424.651 694.782 424.644C698.414 424.632 702.045 424.628 705.676 424.63C710.304 424.63 714.931 424.603 719.558 424.568C723.141 424.546 726.724 424.542 730.306 424.543C732.011 424.54 733.716 424.532 735.42 424.516C748.51 424.408 759.207 425.352 769.121 434.84C773.639 440.034 776.127 446.031 776.12 452.917C776.121 453.93 776.123 454.944 776.124 455.989C776.121 457.1 776.117 458.211 776.113 459.356C776.113 460.527 776.114 461.698 776.114 462.905C776.113 466.115 776.108 469.325 776.101 472.536C776.095 475.891 776.094 479.246 776.093 482.602C776.09 488.955 776.082 495.309 776.072 501.662C776.061 508.895 776.055 516.129 776.05 523.362C776.04 538.241 776.022 553.121 776 568C776.593 567.997 777.185 567.993 777.796 567.989C792.262 567.9 806.728 567.834 821.195 567.793C828.191 567.772 835.186 567.744 842.182 567.698C848.938 567.654 855.694 567.631 862.451 567.621C865.023 567.613 867.596 567.599 870.169 567.577C873.783 567.548 877.396 567.544 881.011 567.546C882.065 567.532 883.12 567.517 884.206 567.503C894.816 567.561 903.418 570.468 911.121 577.84C916.561 584.094 918.147 590.793 918.193 598.893C918.201 599.697 918.209 600.5 918.217 601.328C918.242 603.991 918.259 606.654 918.273 609.317C918.279 610.228 918.284 611.14 918.289 612.079C918.316 616.908 918.335 621.737 918.35 626.566C918.363 630.551 918.391 634.537 918.432 638.522C918.481 643.343 918.506 648.164 918.513 652.985C918.52 654.816 918.535 656.647 918.559 658.478C918.785 676.7 918.785 676.7 913 685C912.443 685.908 911.886 686.815 911.312 687.75C905.269 693.63 898.424 697.129 890.001 697.12C888.994 697.122 887.987 697.123 886.95 697.125C885.852 697.121 884.753 697.117 883.622 697.114C881.88 697.114 881.88 697.114 880.103 697.114C876.261 697.114 872.42 697.106 868.578 697.098C865.916 697.096 863.253 697.095 860.591 697.094C854.298 697.091 848.004 697.082 841.711 697.072C834.546 697.061 827.38 697.056 820.214 697.051C805.476 697.04 790.738 697.023 776 697C776.005 697.892 776.005 697.892 776.011 698.802C776.099 713.301 776.166 727.8 776.207 742.299C776.228 749.31 776.256 756.322 776.302 763.333C776.346 770.103 776.369 776.872 776.379 783.641C776.387 786.221 776.401 788.801 776.423 791.381C776.452 795 776.456 798.619 776.454 802.238C776.468 803.3 776.483 804.362 776.497 805.456C776.444 815.192 773.475 822.167 766.859 829.278C760.336 835.321 752.697 837.308 743.978 837.259C743.197 837.263 742.416 837.266 741.611 837.27C739.042 837.278 736.474 837.273 733.906 837.266C732.113 837.267 730.32 837.269 728.527 837.272C724.774 837.275 721.022 837.27 717.27 837.261C712.468 837.25 707.667 837.256 702.865 837.268C699.164 837.275 695.463 837.273 691.762 837.268C689.992 837.267 688.222 837.268 686.452 837.273C683.975 837.278 681.498 837.27 679.021 837.259C678.295 837.263 677.568 837.267 676.82 837.271C672.486 837.235 669.055 836.476 665 835C659.857 835.227 656.106 837.422 651.75 839.938C611.069 862.105 561.887 869.734 516.5 876.25C515.685 876.37 514.87 876.489 514.031 876.612C507.7 877.528 501.357 878.292 495 879C493.84 879.134 492.68 879.267 491.484 879.405C463.813 882.474 436.142 882.465 408.329 882.391C401.864 882.374 395.399 882.384 388.934 882.402C360.826 882.465 332.949 882.174 305 879C303.836 878.869 302.672 878.737 301.473 878.601C294.4 877.775 287.355 876.803 280.312 875.75C279.287 875.6 278.261 875.45 277.204 875.295C258.64 872.566 240.257 869.339 222 865C221.235 864.819 220.47 864.638 219.682 864.451C192.848 858.063 167.392 850.153 143 837C142.079 836.518 142.079 836.518 141.139 836.025C132.767 831.628 125.747 826.651 119 820C118.031 819.14 118.031 819.14 117.043 818.262C109.902 811.743 105.81 804.736 105.286 795.003C105.108 782.66 108.519 775.444 117 766.438C169.365 716.761 264.039 708.489 332.666 704.242C335.021 704.137 335.021 704.137 337 703C336.576 702.412 336.152 701.823 335.715 701.217C330.499 693.887 325.856 686.288 321.25 678.567C317.899 672.994 314.381 667.629 310.612 662.332C308.265 658.938 306.223 655.399 304.187 651.813C301.058 646.4 297.827 641.109 294.312 635.938C284.382 621.295 275.227 606.135 266.196 590.927C263.372 586.2 260.432 581.599 257.312 577.063C251.506 568.598 246.451 559.667 241.327 550.78C237.813 544.699 234.216 538.707 230.383 532.821C226.479 526.826 222.897 520.697 219.437 514.438C214.394 505.415 214.394 505.415 209.062 496.563C208.108 495.019 207.153 493.476 206.199 491.932C205.287 490.463 204.369 488.997 203.449 487.533C194.103 472.568 187.305 457.816 182 441C181.495 439.462 180.99 437.925 180.484 436.387C162.506 380.102 169.331 315.893 196.3 263.601C200.017 256.691 204.215 250.145 208.759 243.752C210.001 241.999 211.217 240.23 212.429 238.457C226.106 218.638 243.066 199.61 263 186C264.341 185.032 265.679 184.061 267.015 183.086C290.362 166.148 316.262 154.55 344 146.75C344.816 146.516 345.633 146.282 346.474 146.041C363.283 141.509 379.891 140.49 397.241 140.554ZM364 277C362.936 277.37 361.873 277.74 360.777 278.121C338.264 286.693 319.631 306.364 309.719 328C304.556 339.81 301.906 351.196 301 364C300.928 364.992 300.855 365.983 300.781 367.004C299.876 393.514 309.198 418.47 327 438C327.634 438.704 328.268 439.408 328.922 440.133C347.381 459.584 371.939 469.533 398.5 470.286C413.529 470.467 428.317 468.445 442 462C442.587 461.731 443.174 461.462 443.779 461.185C453.614 456.61 461.604 450.734 469.533 443.362C470.769 442.214 472.032 441.094 473.301 439.981C491.504 423.236 499.498 397.897 501.222 373.903C501.93 349.567 494.349 324.245 478 306C476.952 304.757 476.952 304.757 475.883 303.488C459.351 284.28 435.817 272.572 410.562 270.16C394.153 269.135 379.388 271.563 364 277ZM505 639C504.135 640.23 503.319 641.494 502.523 642.77C502.021 643.57 501.519 644.371 501.002 645.196C500.196 646.491 500.196 646.491 499.375 647.813C498.268 649.58 497.161 651.347 496.054 653.114C495.522 653.966 494.989 654.819 494.44 655.698C492.807 658.308 491.158 660.906 489.5 663.5C487.4 666.793 485.31 670.092 483.226 673.395C482.721 674.195 482.217 674.996 481.696 675.821C480.653 677.475 479.61 679.13 478.567 680.785C476.152 684.614 473.727 688.435 471.262 692.231C470.638 693.192 470.638 693.192 470.001 694.173C468.885 695.888 467.765 697.601 466.644 699.313C464.891 701.952 464.891 701.952 464 705C464.799 705.06 465.599 705.119 466.423 705.18C490.945 707.055 515.248 710.048 539.575 713.642C541.113 713.869 542.651 714.095 544.19 714.319C577.771 719.212 611.714 727.873 642.656 742.004C644.882 743.131 644.882 743.131 647 743C647 727.82 647 712.64 647 697C641.732 697.002 641.732 697.002 636.358 697.004C624.727 697.003 613.096 696.97 601.466 696.92C594.417 696.891 587.369 696.872 580.32 696.88C573.512 696.888 566.704 696.864 559.896 696.822C557.304 696.811 554.713 696.81 552.122 696.82C548.478 696.832 544.837 696.807 541.194 696.773C540.134 696.785 539.074 696.798 537.981 696.81C529.331 696.667 521.485 694.041 514.96 688.163C508.452 681.058 506.908 673.662 506.683 664.293C506.663 663.568 506.642 662.842 506.62 662.095C506.555 659.793 506.496 657.49 506.437 655.188C506.394 653.621 506.35 652.054 506.306 650.487C506.2 646.658 506.098 642.829 506 639C505.67 639 505.34 639 505 639ZM341.414 732.298C337.287 732.65 333.177 733.089 329.062 733.563C327.936 733.691 327.936 733.691 326.786 733.822C308.995 735.879 291.492 739.193 274 743C272.822 743.256 271.645 743.511 270.431 743.774C246.524 749.077 219.502 756.754 202 775C200.016 778.383 199.034 780.39 198.812 784.313C202.615 796.122 214.694 801.718 225.023 807.043C243.49 816.292 263.853 822.031 284.158 825.513C287.416 826.072 290.668 826.658 293.922 827.242C373.775 841.32 463.244 841.856 547 818C547.857 817.742 548.714 817.483 549.596 817.217C566.713 811.926 589.858 803.927 600 788C601.362 783.761 601.294 781.795 599.75 777.625C592.408 766.36 578.461 759.837 566.437 754.938C565.665 754.621 564.893 754.305 564.098 753.979C550.207 748.507 535.695 745.039 521.125 741.938C520.328 741.767 519.531 741.595 518.711 741.419C498.451 737.084 477.861 733.485 457.157 732.16C455 732 455 732 452.676 731.628C450.186 731.354 448.415 731.312 446 732C443.153 734.683 441.444 737.911 439.562 741.313C438.363 743.337 437.16 745.359 435.953 747.379C435.319 748.456 434.686 749.532 434.033 750.641C430.857 755.887 427.42 760.949 423.98 766.024C418.288 774.437 412.689 782.904 407.375 791.563C406.919 792.3 406.464 793.038 405.995 793.798C403.763 797.158 403.763 797.158 403 801C401.68 801 400.36 801 399 801C398.728 800.263 398.456 799.526 398.176 798.766C397.061 796.145 395.818 794.073 394.187 791.75C392.208 788.854 390.393 785.974 388.75 782.875C386.21 778.205 383.267 773.836 380.295 769.437C375.732 762.659 371.363 755.76 366.998 748.853C365.878 747.083 364.746 745.319 363.603 743.564C362 741 362 741 360.631 738.335C359.267 735.839 358.088 733.935 356 732C351.185 730.699 346.307 731.892 341.414 732.298Z" fill="white"/>
</svg>
