<svg width="430" height="430" viewBox="0 0 430 430" fill="none" xmlns="http://www.w3.org/2000/svg">
<path d="M100.812 36.0629C104.581 39.4015 106.664 43.2123 107.269 48.2426C106.976 56.3212 101.804 60.3848 96.2183 65.5942C94.1662 67.4831 92.1042 69.3607 90.0386 71.2348C57.6478 100.681 37.4272 142.728 31.9995 186C31.9045 186.754 31.8095 187.508 31.7117 188.284C25.9756 238.894 40.9755 289.298 72.062 329.375C76.8155 335.109 81.8557 340.616 86.9995 346C87.5337 346.561 88.068 347.121 88.6184 347.699C114.872 374.644 152.221 391.294 189 397C189.66 397.104 190.321 397.207 191.002 397.313C210.587 399.918 232.765 399.405 252 395C252.874 394.802 253.749 394.603 254.65 394.398C288.636 386.415 317.544 369.691 343 346C343.716 345.349 344.433 344.698 345.171 344.028C378.988 312.001 397.813 262.758 399.285 216.868C399.932 181.831 392.67 148.888 376 118C375.673 117.388 375.347 116.776 375.011 116.145C370.387 107.522 365.08 99.667 359 92.0004C357.988 90.6817 357.988 90.6817 356.957 89.3364C349.099 79.3407 340.006 70.0186 330.187 61.9379C327.045 59.2469 325.603 57.227 325 53.0004C324.942 47.305 326.278 43.446 330 39.0004C333.598 35.9158 337.011 35.3315 341.632 35.5512C360.553 39.1418 379.798 68.201 390 83.0004C393.878 88.8753 397.475 94.9085 401 101C401.365 101.622 401.731 102.244 402.108 102.884C418.487 130.92 428.14 165.552 429 198C429.025 198.803 429.051 199.605 429.078 200.431C430.766 259.518 411.146 317.123 370.41 360.379C367.989 362.947 367.989 362.947 365.914 365.633C364.163 367.798 362.432 369.522 360.312 371.313C358.21 373.101 356.126 374.882 354.113 376.77C341.315 388.713 326.519 398.044 311 406C310.321 406.354 309.643 406.708 308.944 407.073C260.17 432.307 202.517 435.079 150.436 419.22C131.67 413.18 113.034 404.507 96.9995 393C96.3596 392.546 95.7198 392.091 95.0605 391.622C86.4101 385.43 78.2217 378.932 70.5728 371.522C69.4675 370.453 68.3556 369.391 67.2388 368.334C57.378 358.989 48.848 349.088 40.9995 338C40.5904 337.425 40.1813 336.85 39.7598 336.258C16.6083 303.231 2.06894 261.406 0.999511 221C0.979047 220.233 0.958583 219.465 0.937499 218.674C-0.380574 160.689 18.5249 105.553 56.9995 62.0004C57.4547 61.4821 57.9099 60.9637 58.3789 60.4296C85.108 30.1303 85.108 30.1303 100.812 36.0629Z" fill="white"/>
<path d="M223.847 3.0078C227.185 5.61614 228.766 8.02179 229.999 12C230.248 15.2085 230.248 15.2085 230.246 18.9099C230.249 19.5942 230.251 20.2784 230.254 20.9835C230.259 23.2735 230.251 25.5632 230.242 27.8533C230.243 29.5008 230.245 31.1484 230.248 32.7959C230.253 37.2925 230.245 41.789 230.235 46.2855C230.226 51.0724 230.228 55.8592 230.228 60.646C230.227 68.763 230.219 76.8799 230.205 84.9968C230.191 93.1599 230.184 101.323 230.184 109.486C230.186 135.062 230.139 160.637 230.024 186.212C230.007 190.088 229.991 193.964 229.977 197.839C229.939 208.136 229.889 218.432 229.8 228.728C229.763 233.028 229.732 237.327 229.718 241.626C229.704 245.581 229.671 249.536 229.623 253.491C229.609 254.926 229.602 256.362 229.601 257.798C229.591 271.13 229.591 271.13 224.999 276C221.162 279.386 217.365 279.513 212.437 279.352C207.887 278.695 205.204 276.473 202.363 272.999C200.354 268.582 200.582 264.495 200.611 259.696C200.603 258.124 200.603 258.124 200.595 256.52C200.581 253.002 200.588 249.485 200.595 245.968C200.589 243.448 200.582 240.928 200.574 238.408C200.558 232.271 200.556 226.133 200.561 219.996C200.565 215.006 200.564 210.016 200.559 205.026C200.558 203.961 200.558 203.961 200.556 202.874C200.555 201.431 200.553 199.988 200.552 198.545C200.538 185.012 200.544 171.479 200.555 157.946C200.565 145.571 200.552 133.197 200.528 120.823C200.504 108.112 200.494 95.4014 200.501 82.6908C200.504 75.5566 200.502 68.4225 200.484 61.2884C200.468 54.5783 200.473 47.8686 200.492 41.1586C200.495 38.6963 200.492 36.234 200.482 33.7718C200.469 30.4093 200.48 27.0476 200.498 23.6851C200.488 22.7118 200.479 21.7386 200.469 20.7358C200.534 14.653 201.57 10.0939 204.999 4.99999C209.998 0.15737 217.768 -0.307596 223.847 3.0078Z" fill="white"/>
</svg>
