<svg width="31" height="24" viewBox="0 0 31 24" fill="none" xmlns="http://www.w3.org/2000/svg">
<path d="M2.84533 7.55923C4.56374 5.76642 6.98328 4.74728 9.4642 4.73984C10.1653 4.73798 10.8665 4.73984 11.5676 4.73984H28.1194L24.6937 1.11146C24.4445 0.847371 24.4557 0.428926 24.7198 0.179719C24.9839 -0.0694882 25.4023 -0.0583297 25.6515 0.205756L30.1093 4.92767C30.3586 5.19176 30.3474 5.61021 30.0833 5.85941L29.6035 6.31133L25.3614 10.3154C25.0973 10.5646 24.6789 10.5534 24.4296 10.2894C24.1804 10.0253 24.1916 9.60682 24.4557 9.35761L28.0841 5.9338H9.69667C9.62414 5.9338 9.54975 5.9338 9.47721 5.9338C9.33401 5.9338 9.19081 5.93752 9.04761 5.9431C8.90999 5.95054 8.77051 5.95984 8.63289 5.97286C8.56036 5.9803 8.48782 5.98774 8.41529 5.99703C8.40972 5.99703 8.406 5.99703 8.40228 5.99703C8.35206 6.00447 8.30185 6.01191 8.24978 6.01935C7.67511 6.11234 7.11161 6.26298 6.5667 6.47127C6.49975 6.49731 6.43466 6.52335 6.36957 6.54938C6.36957 6.54938 6.36956 6.54938 6.3677 6.54938C6.34353 6.56054 6.31935 6.56984 6.29332 6.581C6.14825 6.64423 6.00691 6.71304 5.86557 6.78557C5.61636 6.91203 5.3746 7.05338 5.13841 7.20402C5.02124 7.27841 4.90594 7.35652 4.79249 7.43834C4.7367 7.47926 4.68091 7.52017 4.62326 7.56109C4.61768 7.56481 4.60466 7.57411 4.59536 7.58341C4.56932 7.60386 4.54328 7.62432 4.51911 7.64478C4.29594 7.82517 4.08021 8.01487 3.87749 8.21572C3.6785 8.411 3.49066 8.61557 3.31213 8.82758C3.26749 8.88152 3.22286 8.93545 3.18008 8.98938C3.16521 9.00798 3.15033 9.02658 3.13731 9.04517C3.12987 9.05633 3.11871 9.06935 3.11499 9.07493C3.02759 9.19395 2.94018 9.31484 2.85835 9.43758C2.69841 9.67749 2.54963 9.92484 2.41201 10.1778C2.34506 10.3024 2.28182 10.427 2.22231 10.5534C2.19627 10.6092 2.17024 10.665 2.14606 10.7208C2.13118 10.7524 2.11816 10.7859 2.10329 10.8175C2.10143 10.8212 2.10143 10.8231 2.09957 10.8268C2.09771 10.8324 2.09585 10.838 2.09213 10.8473C1.8764 11.3978 1.7053 11.9594 1.60115 12.5415C1.58813 12.6122 1.57698 12.6847 1.56582 12.7554C1.56024 12.787 1.55652 12.8205 1.55094 12.8521C1.55094 12.8577 1.55094 12.8614 1.55094 12.867C1.5342 13.012 1.51932 13.159 1.50817 13.3059C1.48771 13.5941 1.48213 13.8824 1.48957 14.1707C1.49329 14.3194 1.50259 14.4664 1.51374 14.6151C1.51932 14.6877 1.52676 14.7621 1.5342 14.8346C1.53606 14.8569 1.5528 14.9797 1.55466 15.0038C1.59557 15.2809 1.64765 15.5543 1.7146 15.8258C1.78713 16.1197 1.8764 16.4098 1.97868 16.6943C1.99914 16.752 2.02146 16.8097 2.04377 16.8673C2.05679 16.9008 2.06981 16.9324 2.08283 16.9659C2.08469 16.9733 2.09585 16.9975 2.10329 17.0161C2.11073 17.0347 2.12188 17.0589 2.1256 17.0663C2.14048 17.0979 2.1535 17.1314 2.16838 17.163C2.20185 17.2355 2.23533 17.3062 2.2688 17.3769C2.39527 17.6372 2.53475 17.8902 2.68725 18.1338C2.75606 18.2454 2.82859 18.3551 2.90112 18.463C2.94018 18.5206 2.98109 18.5783 3.02201 18.6341C3.04246 18.662 3.06292 18.6899 3.08338 18.7178C3.0871 18.7233 3.11685 18.7624 3.13359 18.7847C3.47578 19.2218 3.86075 19.6253 4.28106 19.988C4.37963 20.0735 4.48005 20.1554 4.58234 20.2372C4.5842 20.2372 4.58606 20.239 4.58792 20.2409C4.61582 20.2614 4.64185 20.2818 4.66975 20.3023C4.74042 20.3543 4.81109 20.4046 4.88176 20.4548C5.11051 20.6147 5.34856 20.7616 5.59219 20.8993C5.84511 21.0406 6.10548 21.1671 6.36957 21.2842C6.36957 21.2842 6.37142 21.2842 6.37328 21.2842C6.40676 21.2972 6.43837 21.3103 6.47185 21.3233C6.5295 21.3456 6.58716 21.3679 6.64481 21.3902C6.79545 21.446 6.94609 21.4962 7.09859 21.5446C7.37197 21.6283 7.65094 21.699 7.93176 21.7566C8.0731 21.7845 8.2163 21.8087 8.3595 21.831C8.36694 21.831 8.38182 21.8347 8.39484 21.8366C8.42087 21.8403 8.44691 21.8422 8.47295 21.8459C8.55478 21.8552 8.63661 21.8645 8.71844 21.87C9.19081 21.911 9.66691 21.9017 10.1411 21.9017H16.879C17.1915 21.9017 17.4909 22.1769 17.476 22.4986C17.4611 22.8222 17.2138 23.0956 16.879 23.0956H13.4515C12.1404 23.0956 10.8293 23.0956 9.51999 23.0956C7.24923 23.0956 5.05844 22.2699 3.35676 20.7635C1.49886 19.1176 0.390452 16.726 0.295604 14.2506C0.200756 11.7809 1.14179 9.33529 2.85091 7.55365L2.84533 7.55923ZM8.38182 6.00261C8.33347 6.00819 8.35578 6.00633 8.38182 6.00261ZM1.54536 12.8391C1.54908 12.813 1.55094 12.7889 1.54536 12.8391ZM4.58234 20.2483C4.6028 20.2651 4.65487 20.306 4.58234 20.2483Z" fill="white"/>
</svg>
