<svg width="20" height="20" viewBox="0 0 20 20" fill="none" xmlns="http://www.w3.org/2000/svg">
<path d="M5.9945 11.555C6.16314 11.6977 6.41553 11.6767 6.55823 11.5081L8.88365 8.75989C9.02635 8.59124 9.00532 8.33885 8.83668 8.19615C8.66804 8.05345 8.41565 8.07449 8.27295 8.24313L6.20591 10.6859L3.76309 8.6189C3.59445 8.4762 3.34206 8.49723 3.19936 8.66587C3.05666 8.83452 3.07769 9.08691 3.24633 9.22961L5.9945 11.555ZM13.7695 9.99967C13.7695 12.4873 13.3104 14.7201 12.585 16.316C11.8432 17.9479 10.9002 18.7663 10.0029 18.7663V19.5663C11.4068 19.5663 12.5471 18.3327 13.3133 16.647C14.0959 14.9252 14.5695 12.5746 14.5695 9.99967H13.7695ZM6.6515 11.2165C6.44773 8.77094 6.80341 6.22381 7.4857 4.30004C7.82723 3.33704 8.24314 2.55153 8.69388 2.0147C9.14817 1.47365 9.59462 1.23301 10.0029 1.23301V0.433008C9.26055 0.433008 8.61088 0.869449 8.08121 1.50027C7.54799 2.13532 7.0921 3.01647 6.73171 4.03264C6.01014 6.0672 5.64141 8.72841 5.85426 11.2829L6.6515 11.2165ZM10.0029 1.23301C10.9002 1.23301 11.8432 2.0514 12.585 3.68338C13.3104 5.27926 13.7695 7.51203 13.7695 9.99967H14.5695C14.5695 7.42471 14.0959 5.07415 13.3133 3.35234C12.5471 1.66664 11.4068 0.433008 10.0029 0.433008V1.23301ZM10.0029 18.7663C9.4115 18.7663 8.80145 18.4179 8.22812 17.6853C7.65704 16.9555 7.16131 15.8891 6.80675 14.5797L6.03456 14.7888C6.40675 16.1633 6.94054 17.338 7.59809 18.1783C8.25339 19.0157 9.07107 19.5663 10.0029 19.5663V18.7663Z" fill="white"/>
<path d="M14.7922 13.2617C14.6891 13.457 14.7638 13.699 14.9592 13.8022L18.1426 15.4831C18.338 15.5863 18.58 15.5115 18.6831 15.3162C18.7863 15.1208 18.7115 14.8789 18.5162 14.7757L15.6864 13.2815L17.1806 10.4518C17.2838 10.2564 17.2091 10.0144 17.0137 9.91128C16.8183 9.80813 16.5764 9.88287 16.4732 10.0782L14.7922 13.2617ZM10.0003 6.23301C12.488 6.23301 14.7207 6.69215 16.3166 7.41754C17.9486 8.15935 18.767 9.10239 18.767 9.99967L19.567 9.99967C19.567 8.59577 18.3334 7.45548 16.6477 6.68925C14.9259 5.90661 12.5753 5.43301 10.0003 5.43301L10.0003 6.23301ZM7.55133 6.38658C8.32879 6.28663 9.15034 6.23301 10.0003 6.23301L10.0003 5.43301C9.11694 5.43301 8.2613 5.48873 7.44932 5.59312L7.55133 6.38658ZM18.767 9.99967C18.767 10.5568 18.4586 11.1294 17.8094 11.6744C17.1612 12.2186 16.2093 12.7014 15.0279 13.0663L15.264 13.8306C16.5095 13.4459 17.5681 12.9215 18.3237 12.2872C19.0783 11.6537 19.567 10.8768 19.567 9.99967L18.767 9.99967Z" fill="white"/>
<path d="M0.833658 10.0001L1.23366 10.0001L1.23366 9.98988L1.23314 9.97972L0.833658 10.0001ZM11.9498 14.4496C12.106 14.2934 12.106 14.0401 11.9498 13.8839L9.40425 11.3383C9.24804 11.1821 8.99477 11.1821 8.83856 11.3383C8.68236 11.4945 8.68236 11.7478 8.83856 11.904L11.1013 14.1667L8.83856 16.4295C8.68235 16.5857 8.68235 16.8389 8.83856 16.9952C8.99477 17.1514 9.24804 17.1514 9.40425 16.9952L11.9498 14.4496ZM10.0003 13.7667C7.51268 13.7667 5.27991 13.3076 3.68403 12.5822C2.05205 11.8404 1.23366 10.8973 1.23366 10.0001L0.433658 10.0001C0.433658 11.404 1.66729 12.5443 3.35299 13.3105C5.0748 14.0931 7.42536 14.5667 10.0003 14.5667L10.0003 13.7667ZM1.23314 9.97972C1.19442 9.21923 1.87555 7.14543 5.62818 6.38221L5.46874 5.59826C1.43172 6.41932 0.370406 8.76779 0.434175 10.0204L1.23314 9.97972ZM11.667 13.7667L10.0003 13.7667L10.0003 14.5667L11.667 14.5667L11.667 13.7667Z" fill="white"/>
</svg>
