<svg width="31" height="25" viewBox="0 0 31 25" fill="none" xmlns="http://www.w3.org/2000/svg">
<mask id="path-1-outside-1_910_19968" maskUnits="userSpaceOnUse" x="-0.710938" y="0" width="32" height="25" fill="black">
<rect fill="white" x="-0.710938" width="32" height="25"/>
<path d="M29.441 22.9091C29.4414 22.9142 29.4418 22.9189 29.4418 22.9236C29.4425 22.9236 29.4429 22.9236 29.4436 22.9236L29.441 22.9091Z"/>
<path d="M29.441 22.9091C29.4414 22.9142 29.4418 22.9189 29.4418 22.9236C29.4425 22.9236 29.4429 22.9236 29.4436 22.9236L29.441 22.9091Z"/>
<path d="M30.0713 22.1476C30.029 22.0744 29.9856 22.0023 29.9423 21.9298L29.8873 21.838C29.4844 21.1582 29.0814 20.4784 28.6771 19.7989L28.0967 18.8211C27.6417 18.0546 27.1863 17.2878 26.7313 16.5202C25.9943 15.2808 25.2588 14.0422 24.5232 12.8028L22.5105 9.41259C22.2722 9.01258 22.0347 8.61185 21.7968 8.21111C21.5829 7.85045 21.3687 7.48978 21.1545 7.12949C21.1112 7.0559 21.0674 6.98267 21.0237 6.90908C20.9727 6.82311 20.9217 6.73713 20.8707 6.65079C20.7592 6.46536 20.6507 6.33056 20.5294 6.22637C20.0798 5.84422 19.4769 5.7699 18.9556 6.03183C18.62 6.20087 18.4193 6.50616 18.2572 6.77866C18.18 6.90872 18.1031 7.03805 18.0262 7.16774L17.8565 7.45372C17.7391 7.65154 17.6218 7.84935 17.5042 8.04717C16.1963 6.95389 14.5435 6.35279 12.8396 6.35279C8.83223 6.35279 5.5717 9.61296 5.5717 13.6207C5.5717 14.1591 5.63145 14.6979 5.74912 15.2222L1.03937 22.5862C0.82079 22.9261 0.749022 23.27 0.825526 23.6085C0.950483 24.1662 1.4576 24.5564 2.0587 24.5582H10.4257C10.594 24.5586 10.7623 24.5586 10.9306 24.5586C11.0989 24.5586 11.2673 24.5586 11.4356 24.5582H28.8235C28.8355 24.5582 28.8468 24.5571 28.8585 24.556H28.8647C29.4075 24.532 29.9044 24.1965 30.1306 23.7003C30.3616 23.1932 30.3394 22.6128 30.0713 22.1476ZM17.9042 9.21222L17.9402 9.15175C18.0182 9.02133 18.0958 8.89054 18.173 8.76012C18.4543 8.28689 18.7352 7.81402 19.0153 7.34151C19.0386 7.30326 19.0612 7.26501 19.0842 7.22639L19.122 7.16264C19.1279 7.15353 19.1333 7.14442 19.1384 7.13459C19.141 7.13021 19.1439 7.12548 19.1465 7.12074L19.1527 7.11163C19.1537 7.10945 19.1548 7.10763 19.1559 7.10544L19.1741 7.07885L19.188 7.065V7.05954L19.1891 7.05808L19.1942 7.05298C19.2131 7.03258 19.2332 7.01218 19.2525 6.99214L19.2703 6.99141L19.278 6.9732H19.2856L19.302 6.95134C19.3057 6.94843 19.3089 6.94588 19.3129 6.94296C19.3268 6.93385 19.341 6.9262 19.3552 6.91819C19.361 6.91491 19.3669 6.91163 19.3727 6.90835H19.3763L19.3858 6.90216L19.4062 6.89487C19.4401 6.88322 19.4751 6.87083 19.5104 6.86281L19.5166 6.86136C19.5166 6.86136 19.5188 6.86063 19.5202 6.86063C19.5264 6.8599 19.5352 6.85917 19.5439 6.85844C19.5541 6.85735 19.5654 6.85626 19.5712 6.85626H19.576C19.5833 6.85553 19.6102 6.85735 19.6262 6.85844C19.6507 6.8599 19.6685 6.86099 19.6827 6.86026C19.7115 6.86536 19.7414 6.87338 19.7742 6.88431C19.776 6.88504 19.7782 6.88613 19.7803 6.88686L19.7913 6.89779H19.7971L19.8026 6.90435H19.8179L19.8634 6.9273C19.8722 6.9324 19.8809 6.93713 19.8896 6.9426C19.9017 6.95207 19.925 6.96956 19.9381 6.97866C19.9527 6.99324 19.9661 7.00817 19.98 7.02347C19.992 7.03659 20.004 7.0497 20.0164 7.06245V7.0661L20.0314 7.08103L20.035 7.08577C20.0383 7.09051 20.0412 7.09597 20.0448 7.1018L20.0547 7.11746C20.0547 7.11746 20.0558 7.11892 20.0561 7.12001L20.0762 7.15462C20.2798 7.49598 20.4831 7.83806 20.686 8.18014L20.9232 8.57979C21.1807 9.01404 21.4383 9.44793 21.6962 9.88218C21.9822 10.3642 22.2686 10.8461 22.5542 11.3281C21.6001 10.7922 20.5326 10.5102 19.4507 10.5102C18.4543 10.5102 17.5388 10.7419 16.7253 11.1991C16.887 10.9263 17.0491 10.6538 17.2109 10.3809C17.4422 9.99147 17.6732 9.60203 17.9042 9.21222ZM12.8396 7.11783C14.4094 7.11783 15.9227 7.68469 17.1078 8.71494C16.8677 9.11823 16.628 9.52152 16.3883 9.92517L16.3384 10.0093C15.8539 10.8268 15.3686 11.644 14.8834 12.4611L14.0943 13.7901C13.7278 14.4069 13.3609 15.024 12.9952 15.6408L10.2967 11.4217C10.2038 11.2789 10.1135 11.1751 10.0111 11.0942C9.7849 10.9153 9.51203 10.8235 9.23552 10.8235C9.05483 10.8235 8.87267 10.8625 8.70109 10.9427C8.41948 11.0742 8.25335 11.307 8.12002 11.5146L6.36734 14.2549C6.34694 14.0444 6.33674 13.8316 6.33674 13.6207C6.33674 10.0348 9.2541 7.11783 12.8396 7.11783ZM11.7722 15.3646C10.9791 15.0411 10.1383 14.8775 9.26904 14.8775C8.30764 14.8775 7.43694 15.0815 6.6158 15.5009L8.95537 11.8451C8.95646 11.8432 8.95756 11.8418 8.95865 11.8403C8.96084 11.837 8.96302 11.8338 8.96448 11.8316C8.96594 11.8301 8.96739 11.8283 8.96885 11.8268L9.0286 11.7689L9.03005 11.7678C9.03479 11.7649 9.03953 11.7616 9.04426 11.758L9.05519 11.7518C9.0643 11.746 9.07341 11.7405 9.08215 11.7361L9.09927 11.7281L9.12186 11.7208C9.14117 11.7146 9.15902 11.7084 9.17687 11.7044C9.18015 11.7041 9.18343 11.7033 9.18598 11.703L9.2031 11.7019C9.20783 11.7012 9.2133 11.7004 9.21658 11.7004C9.22277 11.7004 9.23552 11.7015 9.24827 11.7026H9.25483C9.26139 11.703 9.26831 11.703 9.27487 11.7033C9.2807 11.7037 9.28616 11.7037 9.29163 11.7037C9.31166 11.7077 9.33061 11.7125 9.35064 11.7179C9.3572 11.7201 9.36376 11.7223 9.37032 11.7245C9.3725 11.7256 9.37505 11.7263 9.37724 11.727L9.40347 11.7416C9.41039 11.7449 9.41658 11.7482 9.42241 11.7518L9.43953 11.7631C9.44281 11.7653 9.44682 11.7678 9.45083 11.7707C9.45556 11.7751 9.4603 11.7798 9.46503 11.7846C9.47159 11.7911 9.47851 11.7981 9.48544 11.8046L9.51567 11.8363L9.54409 11.8808C9.696 12.1168 9.84756 12.3536 9.99838 12.5904L11.7722 15.3646ZM9.20565 22.0227C8.94444 22.462 8.85774 22.905 8.94808 23.34C8.97359 23.4584 9.01075 23.5713 9.0592 23.677H2.06963L1.99786 23.6759C1.9924 23.6759 1.98766 23.6759 1.98147 23.6752L1.96981 23.6741C1.94322 23.6671 1.91261 23.6588 1.88238 23.6493L1.86598 23.6402C1.85141 23.6329 1.83757 23.6242 1.82045 23.6136L1.81498 23.6103C1.81498 23.6103 1.81243 23.6085 1.81134 23.6078L1.74758 23.5433C1.74758 23.5433 1.74576 23.5404 1.74467 23.5389L1.73447 23.5232C1.73228 23.5196 1.7301 23.516 1.72791 23.5123C1.72536 23.5087 1.72318 23.505 1.7199 23.4985L1.70132 23.4628C1.69294 23.4347 1.68456 23.4056 1.67691 23.3768C1.67654 23.3662 1.67582 23.356 1.67472 23.3466C1.67436 23.3422 1.67399 23.3364 1.67327 23.332C1.67327 23.3247 1.67363 23.3174 1.67436 23.3083C1.67472 23.3021 1.67509 23.2955 1.67545 23.2879C1.67618 23.2839 1.67691 23.2795 1.67764 23.2751L1.67873 23.2668C1.67909 23.2649 1.67946 23.2631 1.67946 23.262L1.68201 23.2544C1.68347 23.2489 1.68529 23.2435 1.68674 23.238C1.68966 23.2289 1.69221 23.2194 1.69476 23.2103L1.6984 23.1983C1.70678 23.1822 1.71552 23.1659 1.72427 23.1498L5.51997 17.2146L5.5564 17.1814C6.72108 16.1173 7.8661 15.6426 9.26904 15.6426C10.4013 15.6426 11.4971 15.9635 12.4429 16.5712C12.4352 16.5839 12.4279 16.5963 12.4214 16.608L12.3853 16.667C12.3285 16.7628 12.2716 16.859 12.2144 16.9552C12.1587 17.0495 12.103 17.1439 12.0469 17.2382C11.7292 17.7727 11.4115 18.3078 11.0938 18.843L10.2104 20.3305C10.0432 20.6128 9.87561 20.8948 9.70803 21.1767C9.54045 21.4587 9.37323 21.7407 9.20565 22.0227ZM29.3689 23.0504C29.3649 23.0726 29.3605 23.0945 29.3561 23.1145C29.3543 23.1218 29.3503 23.1349 29.3459 23.1495C29.3405 23.1673 29.3343 23.1873 29.3303 23.2026C29.3259 23.2114 29.319 23.226 29.3117 23.2416C29.3011 23.2639 29.2898 23.2883 29.2851 23.2966C29.2807 23.3047 29.2752 23.3123 29.2701 23.32C29.2629 23.3309 29.2548 23.3429 29.2476 23.3564C29.2337 23.371 29.2202 23.3855 29.2068 23.4001C29.1951 23.4129 29.1831 23.4252 29.1714 23.438C29.166 23.442 29.155 23.4507 29.143 23.4606C29.1299 23.4711 29.1153 23.4832 29.1073 23.489C29.0964 23.497 29.0829 23.5043 29.069 23.5119C29.0629 23.5152 29.0567 23.5189 29.0505 23.5225H28.9962V23.5418C28.9816 23.5458 28.9667 23.5506 28.9521 23.5553C28.9383 23.5597 28.9248 23.564 28.9109 23.568H28.8953L28.8927 23.5695C28.888 23.5695 28.8833 23.5702 28.8785 23.571C28.8599 23.5721 28.8421 23.5731 28.8235 23.5731H10.3477L10.3346 23.5721C10.3295 23.5721 10.3248 23.5717 10.3197 23.571L10.2993 23.5691C10.296 23.5691 10.2927 23.5684 10.2895 23.5677L10.2665 23.5608C10.2403 23.5531 10.2148 23.5455 10.1889 23.5374L10.1802 23.5262H10.1579L10.1386 23.5145C10.1142 23.4999 10.0913 23.4864 10.0694 23.4711L10.0596 23.4642C10.0596 23.4642 10.0574 23.4624 10.0563 23.4617L10.0436 23.434H10.0268C10.0221 23.4285 10.017 23.4234 10.0122 23.418C9.98891 23.3925 9.96632 23.368 9.94555 23.3422L9.943 23.3385C9.943 23.3385 9.94191 23.3374 9.94191 23.3371C9.93681 23.3283 9.93171 23.3192 9.92625 23.3101C9.91859 23.2974 9.91131 23.2843 9.9033 23.2686C9.89747 23.2584 9.89273 23.2478 9.88799 23.2376C9.88435 23.23 9.88071 23.2223 9.87706 23.2147C9.87597 23.2121 9.87451 23.2096 9.87342 23.207C9.85921 23.1553 9.84719 23.1076 9.83663 23.0606C9.83772 23.0416 9.83553 23.0238 9.83408 23.0088C9.83335 23.0012 9.83225 22.9935 9.83225 22.9866C9.83225 22.9662 9.83225 22.9476 9.83298 22.928C9.83626 22.9116 9.84063 22.8835 9.84209 22.866C9.84391 22.8573 9.84537 22.8511 9.8461 22.8464C9.85083 22.827 9.85666 22.8088 9.86213 22.7903C9.86541 22.7786 9.86905 22.7669 9.87233 22.7553C9.87306 22.7535 9.87379 22.7516 9.87415 22.7498C9.88617 22.7232 9.89783 22.6992 9.91022 22.677C9.91313 22.6722 9.91605 22.6671 9.91896 22.662C9.92187 22.6576 9.92442 22.6529 9.92734 22.6489L9.93353 22.6376C9.93462 22.6358 9.93572 22.634 9.93645 22.6321C9.95685 22.5972 9.97725 22.5629 9.99765 22.529L10.0053 22.5163C10.0603 22.4241 10.115 22.332 10.17 22.2394C10.2392 22.1228 10.3084 22.0063 10.378 21.8897L12.1718 18.8674C12.4392 18.4175 12.7063 17.9679 12.9729 17.518C12.9842 17.4991 12.9952 17.4805 13.0083 17.4597C13.017 17.4452 13.0254 17.431 13.0341 17.4167L13.1667 17.1934C13.1751 17.1792 13.1835 17.165 13.1912 17.1519C13.2305 17.086 13.2695 17.0204 13.3092 16.9534C13.3143 16.9442 13.3194 16.9355 13.3245 16.9271C13.3307 16.9166 13.3369 16.9064 13.3427 16.8958C13.3558 16.875 13.3675 16.8546 13.378 16.8364L13.4043 16.7923C13.425 16.7574 13.4462 16.7224 13.4655 16.6889C13.4786 16.6685 13.4906 16.6477 13.5019 16.6284C13.5147 16.6073 13.527 16.5865 13.5391 16.5661C13.6505 16.3792 13.7617 16.1923 13.8724 16.0051L14.3988 15.1176C14.6655 14.6684 14.9322 14.2189 15.1992 13.7697C15.2575 13.6713 15.3158 13.573 15.3741 13.475L15.5398 13.1952C16.5777 11.9212 17.8936 11.2753 19.4507 11.2753C21.0077 11.2753 22.4646 11.9084 23.5815 13.0582L24.05 13.8476C24.2912 14.2542 24.5324 14.6608 24.7739 15.067C25.4777 16.2506 26.1805 17.4339 26.8832 18.6175C27.2031 19.157 27.5237 19.6969 27.8443 20.2368C28.0734 20.6226 28.3025 21.0084 28.5317 21.3946C28.6195 21.5425 28.708 21.6904 28.7965 21.8383C28.9521 22.0981 29.1128 22.3666 29.2676 22.6347C29.2869 22.666 29.3037 22.6992 29.3226 22.7367C29.3252 22.7425 29.3281 22.7502 29.3324 22.7578C29.3361 22.7742 29.3412 22.7913 29.3463 22.8081C29.3488 22.8169 29.3517 22.826 29.3536 22.8336C29.3565 22.8445 29.3579 22.8526 29.3587 22.8598L29.3663 22.8835C29.3671 22.8853 29.3674 22.8879 29.3678 22.8901V22.897C29.3696 22.9433 29.37 22.9921 29.3689 23.0504ZM29.4418 22.9236C29.4418 22.9189 29.4414 22.9142 29.441 22.9091L29.4436 22.9236C29.4429 22.9236 29.4425 22.9236 29.4418 22.9236Z"/>
<path d="M12.1513 2.35136L11.9682 5.78699L12.7322 5.8277L12.9152 2.39207L12.1513 2.35136Z"/>
<path d="M9.32439 6.2577L8.59869 6.4996L6.91305 1.44304L7.63911 1.20114L9.32439 6.2577Z"/>
<path d="M4.09661 4.99288L3.55565 5.53385L6.28186 8.26006L6.82282 7.7191L4.09661 4.99288Z"/>
<path d="M0.510951 8.53208L0.289062 9.26424L5.22834 10.7611L5.45022 10.029L0.510951 8.53208Z"/>
<path d="M4.80363 13.8935L1.3165 14.0239L1.28808 13.2593L4.77485 13.1288L4.80363 13.8935Z"/>
<path d="M17.7629 1.24846L15.9964 6.38589L15.2729 6.13707L17.0394 1L17.7629 1.24846Z"/>
</mask>
<path d="M29.441 22.9091C29.4414 22.9142 29.4418 22.9189 29.4418 22.9236C29.4425 22.9236 29.4429 22.9236 29.4436 22.9236L29.441 22.9091Z" fill="white"/>
<path d="M29.441 22.9091C29.4414 22.9142 29.4418 22.9189 29.4418 22.9236C29.4425 22.9236 29.4429 22.9236 29.4436 22.9236L29.441 22.9091Z" fill="white"/>
<path d="M30.0713 22.1476C30.029 22.0744 29.9856 22.0023 29.9423 21.9298L29.8873 21.838C29.4844 21.1582 29.0814 20.4784 28.6771 19.7989L28.0967 18.8211C27.6417 18.0546 27.1863 17.2878 26.7313 16.5202C25.9943 15.2808 25.2588 14.0422 24.5232 12.8028L22.5105 9.41259C22.2722 9.01258 22.0347 8.61185 21.7968 8.21111C21.5829 7.85045 21.3687 7.48978 21.1545 7.12949C21.1112 7.0559 21.0674 6.98267 21.0237 6.90908C20.9727 6.82311 20.9217 6.73713 20.8707 6.65079C20.7592 6.46536 20.6507 6.33056 20.5294 6.22637C20.0798 5.84422 19.4769 5.7699 18.9556 6.03183C18.62 6.20087 18.4193 6.50616 18.2572 6.77866C18.18 6.90872 18.1031 7.03805 18.0262 7.16774L17.8565 7.45372C17.7391 7.65154 17.6218 7.84935 17.5042 8.04717C16.1963 6.95389 14.5435 6.35279 12.8396 6.35279C8.83223 6.35279 5.5717 9.61296 5.5717 13.6207C5.5717 14.1591 5.63145 14.6979 5.74912 15.2222L1.03937 22.5862C0.82079 22.9261 0.749022 23.27 0.825526 23.6085C0.950483 24.1662 1.4576 24.5564 2.0587 24.5582H10.4257C10.594 24.5586 10.7623 24.5586 10.9306 24.5586C11.0989 24.5586 11.2673 24.5586 11.4356 24.5582H28.8235C28.8355 24.5582 28.8468 24.5571 28.8585 24.556H28.8647C29.4075 24.532 29.9044 24.1965 30.1306 23.7003C30.3616 23.1932 30.3394 22.6128 30.0713 22.1476ZM17.9042 9.21222L17.9402 9.15175C18.0182 9.02133 18.0958 8.89054 18.173 8.76012C18.4543 8.28689 18.7352 7.81402 19.0153 7.34151C19.0386 7.30326 19.0612 7.26501 19.0842 7.22639L19.122 7.16264C19.1279 7.15353 19.1333 7.14442 19.1384 7.13459C19.141 7.13021 19.1439 7.12548 19.1465 7.12074L19.1527 7.11163C19.1537 7.10945 19.1548 7.10763 19.1559 7.10544L19.1741 7.07885L19.188 7.065V7.05954L19.1891 7.05808L19.1942 7.05298C19.2131 7.03258 19.2332 7.01218 19.2525 6.99214L19.2703 6.99141L19.278 6.9732H19.2856L19.302 6.95134C19.3057 6.94843 19.3089 6.94588 19.3129 6.94296C19.3268 6.93385 19.341 6.9262 19.3552 6.91819C19.361 6.91491 19.3669 6.91163 19.3727 6.90835H19.3763L19.3858 6.90216L19.4062 6.89487C19.4401 6.88322 19.4751 6.87083 19.5104 6.86281L19.5166 6.86136C19.5166 6.86136 19.5188 6.86063 19.5202 6.86063C19.5264 6.8599 19.5352 6.85917 19.5439 6.85844C19.5541 6.85735 19.5654 6.85626 19.5712 6.85626H19.576C19.5833 6.85553 19.6102 6.85735 19.6262 6.85844C19.6507 6.8599 19.6685 6.86099 19.6827 6.86026C19.7115 6.86536 19.7414 6.87338 19.7742 6.88431C19.776 6.88504 19.7782 6.88613 19.7803 6.88686L19.7913 6.89779H19.7971L19.8026 6.90435H19.8179L19.8634 6.9273C19.8722 6.9324 19.8809 6.93713 19.8896 6.9426C19.9017 6.95207 19.925 6.96956 19.9381 6.97866C19.9527 6.99324 19.9661 7.00817 19.98 7.02347C19.992 7.03659 20.004 7.0497 20.0164 7.06245V7.0661L20.0314 7.08103L20.035 7.08577C20.0383 7.09051 20.0412 7.09597 20.0448 7.1018L20.0547 7.11746C20.0547 7.11746 20.0558 7.11892 20.0561 7.12001L20.0762 7.15462C20.2798 7.49598 20.4831 7.83806 20.686 8.18014L20.9232 8.57979C21.1807 9.01404 21.4383 9.44793 21.6962 9.88218C21.9822 10.3642 22.2686 10.8461 22.5542 11.3281C21.6001 10.7922 20.5326 10.5102 19.4507 10.5102C18.4543 10.5102 17.5388 10.7419 16.7253 11.1991C16.887 10.9263 17.0491 10.6538 17.2109 10.3809C17.4422 9.99147 17.6732 9.60203 17.9042 9.21222ZM12.8396 7.11783C14.4094 7.11783 15.9227 7.68469 17.1078 8.71494C16.8677 9.11823 16.628 9.52152 16.3883 9.92517L16.3384 10.0093C15.8539 10.8268 15.3686 11.644 14.8834 12.4611L14.0943 13.7901C13.7278 14.4069 13.3609 15.024 12.9952 15.6408L10.2967 11.4217C10.2038 11.2789 10.1135 11.1751 10.0111 11.0942C9.7849 10.9153 9.51203 10.8235 9.23552 10.8235C9.05483 10.8235 8.87267 10.8625 8.70109 10.9427C8.41948 11.0742 8.25335 11.307 8.12002 11.5146L6.36734 14.2549C6.34694 14.0444 6.33674 13.8316 6.33674 13.6207C6.33674 10.0348 9.2541 7.11783 12.8396 7.11783ZM11.7722 15.3646C10.9791 15.0411 10.1383 14.8775 9.26904 14.8775C8.30764 14.8775 7.43694 15.0815 6.6158 15.5009L8.95537 11.8451C8.95646 11.8432 8.95756 11.8418 8.95865 11.8403C8.96084 11.837 8.96302 11.8338 8.96448 11.8316C8.96594 11.8301 8.96739 11.8283 8.96885 11.8268L9.0286 11.7689L9.03005 11.7678C9.03479 11.7649 9.03953 11.7616 9.04426 11.758L9.05519 11.7518C9.0643 11.746 9.07341 11.7405 9.08215 11.7361L9.09927 11.7281L9.12186 11.7208C9.14117 11.7146 9.15902 11.7084 9.17687 11.7044C9.18015 11.7041 9.18343 11.7033 9.18598 11.703L9.2031 11.7019C9.20783 11.7012 9.2133 11.7004 9.21658 11.7004C9.22277 11.7004 9.23552 11.7015 9.24827 11.7026H9.25483C9.26139 11.703 9.26831 11.703 9.27487 11.7033C9.2807 11.7037 9.28616 11.7037 9.29163 11.7037C9.31166 11.7077 9.33061 11.7125 9.35064 11.7179C9.3572 11.7201 9.36376 11.7223 9.37032 11.7245C9.3725 11.7256 9.37505 11.7263 9.37724 11.727L9.40347 11.7416C9.41039 11.7449 9.41658 11.7482 9.42241 11.7518L9.43953 11.7631C9.44281 11.7653 9.44682 11.7678 9.45083 11.7707C9.45556 11.7751 9.4603 11.7798 9.46503 11.7846C9.47159 11.7911 9.47851 11.7981 9.48544 11.8046L9.51567 11.8363L9.54409 11.8808C9.696 12.1168 9.84756 12.3536 9.99838 12.5904L11.7722 15.3646ZM9.20565 22.0227C8.94444 22.462 8.85774 22.905 8.94808 23.34C8.97359 23.4584 9.01075 23.5713 9.0592 23.677H2.06963L1.99786 23.6759C1.9924 23.6759 1.98766 23.6759 1.98147 23.6752L1.96981 23.6741C1.94322 23.6671 1.91261 23.6588 1.88238 23.6493L1.86598 23.6402C1.85141 23.6329 1.83757 23.6242 1.82045 23.6136L1.81498 23.6103C1.81498 23.6103 1.81243 23.6085 1.81134 23.6078L1.74758 23.5433C1.74758 23.5433 1.74576 23.5404 1.74467 23.5389L1.73447 23.5232C1.73228 23.5196 1.7301 23.516 1.72791 23.5123C1.72536 23.5087 1.72318 23.505 1.7199 23.4985L1.70132 23.4628C1.69294 23.4347 1.68456 23.4056 1.67691 23.3768C1.67654 23.3662 1.67582 23.356 1.67472 23.3466C1.67436 23.3422 1.67399 23.3364 1.67327 23.332C1.67327 23.3247 1.67363 23.3174 1.67436 23.3083C1.67472 23.3021 1.67509 23.2955 1.67545 23.2879C1.67618 23.2839 1.67691 23.2795 1.67764 23.2751L1.67873 23.2668C1.67909 23.2649 1.67946 23.2631 1.67946 23.262L1.68201 23.2544C1.68347 23.2489 1.68529 23.2435 1.68674 23.238C1.68966 23.2289 1.69221 23.2194 1.69476 23.2103L1.6984 23.1983C1.70678 23.1822 1.71552 23.1659 1.72427 23.1498L5.51997 17.2146L5.5564 17.1814C6.72108 16.1173 7.8661 15.6426 9.26904 15.6426C10.4013 15.6426 11.4971 15.9635 12.4429 16.5712C12.4352 16.5839 12.4279 16.5963 12.4214 16.608L12.3853 16.667C12.3285 16.7628 12.2716 16.859 12.2144 16.9552C12.1587 17.0495 12.103 17.1439 12.0469 17.2382C11.7292 17.7727 11.4115 18.3078 11.0938 18.843L10.2104 20.3305C10.0432 20.6128 9.87561 20.8948 9.70803 21.1767C9.54045 21.4587 9.37323 21.7407 9.20565 22.0227ZM29.3689 23.0504C29.3649 23.0726 29.3605 23.0945 29.3561 23.1145C29.3543 23.1218 29.3503 23.1349 29.3459 23.1495C29.3405 23.1673 29.3343 23.1873 29.3303 23.2026C29.3259 23.2114 29.319 23.226 29.3117 23.2416C29.3011 23.2639 29.2898 23.2883 29.2851 23.2966C29.2807 23.3047 29.2752 23.3123 29.2701 23.32C29.2629 23.3309 29.2548 23.3429 29.2476 23.3564C29.2337 23.371 29.2202 23.3855 29.2068 23.4001C29.1951 23.4129 29.1831 23.4252 29.1714 23.438C29.166 23.442 29.155 23.4507 29.143 23.4606C29.1299 23.4711 29.1153 23.4832 29.1073 23.489C29.0964 23.497 29.0829 23.5043 29.069 23.5119C29.0629 23.5152 29.0567 23.5189 29.0505 23.5225H28.9962V23.5418C28.9816 23.5458 28.9667 23.5506 28.9521 23.5553C28.9383 23.5597 28.9248 23.564 28.9109 23.568H28.8953L28.8927 23.5695C28.888 23.5695 28.8833 23.5702 28.8785 23.571C28.8599 23.5721 28.8421 23.5731 28.8235 23.5731H10.3477L10.3346 23.5721C10.3295 23.5721 10.3248 23.5717 10.3197 23.571L10.2993 23.5691C10.296 23.5691 10.2927 23.5684 10.2895 23.5677L10.2665 23.5608C10.2403 23.5531 10.2148 23.5455 10.1889 23.5374L10.1802 23.5262H10.1579L10.1386 23.5145C10.1142 23.4999 10.0913 23.4864 10.0694 23.4711L10.0596 23.4642C10.0596 23.4642 10.0574 23.4624 10.0563 23.4617L10.0436 23.434H10.0268C10.0221 23.4285 10.017 23.4234 10.0122 23.418C9.98891 23.3925 9.96632 23.368 9.94555 23.3422L9.943 23.3385C9.943 23.3385 9.94191 23.3374 9.94191 23.3371C9.93681 23.3283 9.93171 23.3192 9.92625 23.3101C9.91859 23.2974 9.91131 23.2843 9.9033 23.2686C9.89747 23.2584 9.89273 23.2478 9.88799 23.2376C9.88435 23.23 9.88071 23.2223 9.87706 23.2147C9.87597 23.2121 9.87451 23.2096 9.87342 23.207C9.85921 23.1553 9.84719 23.1076 9.83663 23.0606C9.83772 23.0416 9.83553 23.0238 9.83408 23.0088C9.83335 23.0012 9.83225 22.9935 9.83225 22.9866C9.83225 22.9662 9.83225 22.9476 9.83298 22.928C9.83626 22.9116 9.84063 22.8835 9.84209 22.866C9.84391 22.8573 9.84537 22.8511 9.8461 22.8464C9.85083 22.827 9.85666 22.8088 9.86213 22.7903C9.86541 22.7786 9.86905 22.7669 9.87233 22.7553C9.87306 22.7535 9.87379 22.7516 9.87415 22.7498C9.88617 22.7232 9.89783 22.6992 9.91022 22.677C9.91313 22.6722 9.91605 22.6671 9.91896 22.662C9.92187 22.6576 9.92442 22.6529 9.92734 22.6489L9.93353 22.6376C9.93462 22.6358 9.93572 22.634 9.93645 22.6321C9.95685 22.5972 9.97725 22.5629 9.99765 22.529L10.0053 22.5163C10.0603 22.4241 10.115 22.332 10.17 22.2394C10.2392 22.1228 10.3084 22.0063 10.378 21.8897L12.1718 18.8674C12.4392 18.4175 12.7063 17.9679 12.9729 17.518C12.9842 17.4991 12.9952 17.4805 13.0083 17.4597C13.017 17.4452 13.0254 17.431 13.0341 17.4167L13.1667 17.1934C13.1751 17.1792 13.1835 17.165 13.1912 17.1519C13.2305 17.086 13.2695 17.0204 13.3092 16.9534C13.3143 16.9442 13.3194 16.9355 13.3245 16.9271C13.3307 16.9166 13.3369 16.9064 13.3427 16.8958C13.3558 16.875 13.3675 16.8546 13.378 16.8364L13.4043 16.7923C13.425 16.7574 13.4462 16.7224 13.4655 16.6889C13.4786 16.6685 13.4906 16.6477 13.5019 16.6284C13.5147 16.6073 13.527 16.5865 13.5391 16.5661C13.6505 16.3792 13.7617 16.1923 13.8724 16.0051L14.3988 15.1176C14.6655 14.6684 14.9322 14.2189 15.1992 13.7697C15.2575 13.6713 15.3158 13.573 15.3741 13.475L15.5398 13.1952C16.5777 11.9212 17.8936 11.2753 19.4507 11.2753C21.0077 11.2753 22.4646 11.9084 23.5815 13.0582L24.05 13.8476C24.2912 14.2542 24.5324 14.6608 24.7739 15.067C25.4777 16.2506 26.1805 17.4339 26.8832 18.6175C27.2031 19.157 27.5237 19.6969 27.8443 20.2368C28.0734 20.6226 28.3025 21.0084 28.5317 21.3946C28.6195 21.5425 28.708 21.6904 28.7965 21.8383C28.9521 22.0981 29.1128 22.3666 29.2676 22.6347C29.2869 22.666 29.3037 22.6992 29.3226 22.7367C29.3252 22.7425 29.3281 22.7502 29.3324 22.7578C29.3361 22.7742 29.3412 22.7913 29.3463 22.8081C29.3488 22.8169 29.3517 22.826 29.3536 22.8336C29.3565 22.8445 29.3579 22.8526 29.3587 22.8598L29.3663 22.8835C29.3671 22.8853 29.3674 22.8879 29.3678 22.8901V22.897C29.3696 22.9433 29.37 22.9921 29.3689 23.0504ZM29.4418 22.9236C29.4418 22.9189 29.4414 22.9142 29.441 22.9091L29.4436 22.9236C29.4429 22.9236 29.4425 22.9236 29.4418 22.9236Z" fill="white"/>
<path d="M12.1513 2.35136L11.9682 5.78699L12.7322 5.8277L12.9152 2.39207L12.1513 2.35136Z" fill="white"/>
<path d="M9.32439 6.2577L8.59869 6.4996L6.91305 1.44304L7.63911 1.20114L9.32439 6.2577Z" fill="white"/>
<path d="M4.09661 4.99288L3.55565 5.53385L6.28186 8.26006L6.82282 7.7191L4.09661 4.99288Z" fill="white"/>
<path d="M0.510951 8.53208L0.289062 9.26424L5.22834 10.7611L5.45022 10.029L0.510951 8.53208Z" fill="white"/>
<path d="M4.80363 13.8935L1.3165 14.0239L1.28808 13.2593L4.77485 13.1288L4.80363 13.8935Z" fill="white"/>
<path d="M17.7629 1.24846L15.9964 6.38589L15.2729 6.13707L17.0394 1L17.7629 1.24846Z" fill="white"/>
<path d="M29.441 22.9091C29.4414 22.9142 29.4418 22.9189 29.4418 22.9236C29.4425 22.9236 29.4429 22.9236 29.4436 22.9236L29.441 22.9091Z" stroke="white" stroke-width="0.2" mask="url(#path-1-outside-1_910_19968)"/>
<path d="M29.441 22.9091C29.4414 22.9142 29.4418 22.9189 29.4418 22.9236C29.4425 22.9236 29.4429 22.9236 29.4436 22.9236L29.441 22.9091Z" stroke="white" stroke-width="0.2" mask="url(#path-1-outside-1_910_19968)"/>
<path d="M30.0713 22.1476C30.029 22.0744 29.9856 22.0023 29.9423 21.9298L29.8873 21.838C29.4844 21.1582 29.0814 20.4784 28.6771 19.7989L28.0967 18.8211C27.6417 18.0546 27.1863 17.2878 26.7313 16.5202C25.9943 15.2808 25.2588 14.0422 24.5232 12.8028L22.5105 9.41259C22.2722 9.01258 22.0347 8.61185 21.7968 8.21111C21.5829 7.85045 21.3687 7.48978 21.1545 7.12949C21.1112 7.0559 21.0674 6.98267 21.0237 6.90908C20.9727 6.82311 20.9217 6.73713 20.8707 6.65079C20.7592 6.46536 20.6507 6.33056 20.5294 6.22637C20.0798 5.84422 19.4769 5.7699 18.9556 6.03183C18.62 6.20087 18.4193 6.50616 18.2572 6.77866C18.18 6.90872 18.1031 7.03805 18.0262 7.16774L17.8565 7.45372C17.7391 7.65154 17.6218 7.84935 17.5042 8.04717C16.1963 6.95389 14.5435 6.35279 12.8396 6.35279C8.83223 6.35279 5.5717 9.61296 5.5717 13.6207C5.5717 14.1591 5.63145 14.6979 5.74912 15.2222L1.03937 22.5862C0.82079 22.9261 0.749022 23.27 0.825526 23.6085C0.950483 24.1662 1.4576 24.5564 2.0587 24.5582H10.4257C10.594 24.5586 10.7623 24.5586 10.9306 24.5586C11.0989 24.5586 11.2673 24.5586 11.4356 24.5582H28.8235C28.8355 24.5582 28.8468 24.5571 28.8585 24.556H28.8647C29.4075 24.532 29.9044 24.1965 30.1306 23.7003C30.3616 23.1932 30.3394 22.6128 30.0713 22.1476ZM17.9042 9.21222L17.9402 9.15175C18.0182 9.02133 18.0958 8.89054 18.173 8.76012C18.4543 8.28689 18.7352 7.81402 19.0153 7.34151C19.0386 7.30326 19.0612 7.26501 19.0842 7.22639L19.122 7.16264C19.1279 7.15353 19.1333 7.14442 19.1384 7.13459C19.141 7.13021 19.1439 7.12548 19.1465 7.12074L19.1527 7.11163C19.1537 7.10945 19.1548 7.10763 19.1559 7.10544L19.1741 7.07885L19.188 7.065V7.05954L19.1891 7.05808L19.1942 7.05298C19.2131 7.03258 19.2332 7.01218 19.2525 6.99214L19.2703 6.99141L19.278 6.9732H19.2856L19.302 6.95134C19.3057 6.94843 19.3089 6.94588 19.3129 6.94296C19.3268 6.93385 19.341 6.9262 19.3552 6.91819C19.361 6.91491 19.3669 6.91163 19.3727 6.90835H19.3763L19.3858 6.90216L19.4062 6.89487C19.4401 6.88322 19.4751 6.87083 19.5104 6.86281L19.5166 6.86136C19.5166 6.86136 19.5188 6.86063 19.5202 6.86063C19.5264 6.8599 19.5352 6.85917 19.5439 6.85844C19.5541 6.85735 19.5654 6.85626 19.5712 6.85626H19.576C19.5833 6.85553 19.6102 6.85735 19.6262 6.85844C19.6507 6.8599 19.6685 6.86099 19.6827 6.86026C19.7115 6.86536 19.7414 6.87338 19.7742 6.88431C19.776 6.88504 19.7782 6.88613 19.7803 6.88686L19.7913 6.89779H19.7971L19.8026 6.90435H19.8179L19.8634 6.9273C19.8722 6.9324 19.8809 6.93713 19.8896 6.9426C19.9017 6.95207 19.925 6.96956 19.9381 6.97866C19.9527 6.99324 19.9661 7.00817 19.98 7.02347C19.992 7.03659 20.004 7.0497 20.0164 7.06245V7.0661L20.0314 7.08103L20.035 7.08577C20.0383 7.09051 20.0412 7.09597 20.0448 7.1018L20.0547 7.11746C20.0547 7.11746 20.0558 7.11892 20.0561 7.12001L20.0762 7.15462C20.2798 7.49598 20.4831 7.83806 20.686 8.18014L20.9232 8.57979C21.1807 9.01404 21.4383 9.44793 21.6962 9.88218C21.9822 10.3642 22.2686 10.8461 22.5542 11.3281C21.6001 10.7922 20.5326 10.5102 19.4507 10.5102C18.4543 10.5102 17.5388 10.7419 16.7253 11.1991C16.887 10.9263 17.0491 10.6538 17.2109 10.3809C17.4422 9.99147 17.6732 9.60203 17.9042 9.21222ZM12.8396 7.11783C14.4094 7.11783 15.9227 7.68469 17.1078 8.71494C16.8677 9.11823 16.628 9.52152 16.3883 9.92517L16.3384 10.0093C15.8539 10.8268 15.3686 11.644 14.8834 12.4611L14.0943 13.7901C13.7278 14.4069 13.3609 15.024 12.9952 15.6408L10.2967 11.4217C10.2038 11.2789 10.1135 11.1751 10.0111 11.0942C9.7849 10.9153 9.51203 10.8235 9.23552 10.8235C9.05483 10.8235 8.87267 10.8625 8.70109 10.9427C8.41948 11.0742 8.25335 11.307 8.12002 11.5146L6.36734 14.2549C6.34694 14.0444 6.33674 13.8316 6.33674 13.6207C6.33674 10.0348 9.2541 7.11783 12.8396 7.11783ZM11.7722 15.3646C10.9791 15.0411 10.1383 14.8775 9.26904 14.8775C8.30764 14.8775 7.43694 15.0815 6.6158 15.5009L8.95537 11.8451C8.95646 11.8432 8.95756 11.8418 8.95865 11.8403C8.96084 11.837 8.96302 11.8338 8.96448 11.8316C8.96594 11.8301 8.96739 11.8283 8.96885 11.8268L9.0286 11.7689L9.03005 11.7678C9.03479 11.7649 9.03953 11.7616 9.04426 11.758L9.05519 11.7518C9.0643 11.746 9.07341 11.7405 9.08215 11.7361L9.09927 11.7281L9.12186 11.7208C9.14117 11.7146 9.15902 11.7084 9.17687 11.7044C9.18015 11.7041 9.18343 11.7033 9.18598 11.703L9.2031 11.7019C9.20783 11.7012 9.2133 11.7004 9.21658 11.7004C9.22277 11.7004 9.23552 11.7015 9.24827 11.7026H9.25483C9.26139 11.703 9.26831 11.703 9.27487 11.7033C9.2807 11.7037 9.28616 11.7037 9.29163 11.7037C9.31166 11.7077 9.33061 11.7125 9.35064 11.7179C9.3572 11.7201 9.36376 11.7223 9.37032 11.7245C9.3725 11.7256 9.37505 11.7263 9.37724 11.727L9.40347 11.7416C9.41039 11.7449 9.41658 11.7482 9.42241 11.7518L9.43953 11.7631C9.44281 11.7653 9.44682 11.7678 9.45083 11.7707C9.45556 11.7751 9.4603 11.7798 9.46503 11.7846C9.47159 11.7911 9.47851 11.7981 9.48544 11.8046L9.51567 11.8363L9.54409 11.8808C9.696 12.1168 9.84756 12.3536 9.99838 12.5904L11.7722 15.3646ZM9.20565 22.0227C8.94444 22.462 8.85774 22.905 8.94808 23.34C8.97359 23.4584 9.01075 23.5713 9.0592 23.677H2.06963L1.99786 23.6759C1.9924 23.6759 1.98766 23.6759 1.98147 23.6752L1.96981 23.6741C1.94322 23.6671 1.91261 23.6588 1.88238 23.6493L1.86598 23.6402C1.85141 23.6329 1.83757 23.6242 1.82045 23.6136L1.81498 23.6103C1.81498 23.6103 1.81243 23.6085 1.81134 23.6078L1.74758 23.5433C1.74758 23.5433 1.74576 23.5404 1.74467 23.5389L1.73447 23.5232C1.73228 23.5196 1.7301 23.516 1.72791 23.5123C1.72536 23.5087 1.72318 23.505 1.7199 23.4985L1.70132 23.4628C1.69294 23.4347 1.68456 23.4056 1.67691 23.3768C1.67654 23.3662 1.67582 23.356 1.67472 23.3466C1.67436 23.3422 1.67399 23.3364 1.67327 23.332C1.67327 23.3247 1.67363 23.3174 1.67436 23.3083C1.67472 23.3021 1.67509 23.2955 1.67545 23.2879C1.67618 23.2839 1.67691 23.2795 1.67764 23.2751L1.67873 23.2668C1.67909 23.2649 1.67946 23.2631 1.67946 23.262L1.68201 23.2544C1.68347 23.2489 1.68529 23.2435 1.68674 23.238C1.68966 23.2289 1.69221 23.2194 1.69476 23.2103L1.6984 23.1983C1.70678 23.1822 1.71552 23.1659 1.72427 23.1498L5.51997 17.2146L5.5564 17.1814C6.72108 16.1173 7.8661 15.6426 9.26904 15.6426C10.4013 15.6426 11.4971 15.9635 12.4429 16.5712C12.4352 16.5839 12.4279 16.5963 12.4214 16.608L12.3853 16.667C12.3285 16.7628 12.2716 16.859 12.2144 16.9552C12.1587 17.0495 12.103 17.1439 12.0469 17.2382C11.7292 17.7727 11.4115 18.3078 11.0938 18.843L10.2104 20.3305C10.0432 20.6128 9.87561 20.8948 9.70803 21.1767C9.54045 21.4587 9.37323 21.7407 9.20565 22.0227ZM29.3689 23.0504C29.3649 23.0726 29.3605 23.0945 29.3561 23.1145C29.3543 23.1218 29.3503 23.1349 29.3459 23.1495C29.3405 23.1673 29.3343 23.1873 29.3303 23.2026C29.3259 23.2114 29.319 23.226 29.3117 23.2416C29.3011 23.2639 29.2898 23.2883 29.2851 23.2966C29.2807 23.3047 29.2752 23.3123 29.2701 23.32C29.2629 23.3309 29.2548 23.3429 29.2476 23.3564C29.2337 23.371 29.2202 23.3855 29.2068 23.4001C29.1951 23.4129 29.1831 23.4252 29.1714 23.438C29.166 23.442 29.155 23.4507 29.143 23.4606C29.1299 23.4711 29.1153 23.4832 29.1073 23.489C29.0964 23.497 29.0829 23.5043 29.069 23.5119C29.0629 23.5152 29.0567 23.5189 29.0505 23.5225H28.9962V23.5418C28.9816 23.5458 28.9667 23.5506 28.9521 23.5553C28.9383 23.5597 28.9248 23.564 28.9109 23.568H28.8953L28.8927 23.5695C28.888 23.5695 28.8833 23.5702 28.8785 23.571C28.8599 23.5721 28.8421 23.5731 28.8235 23.5731H10.3477L10.3346 23.5721C10.3295 23.5721 10.3248 23.5717 10.3197 23.571L10.2993 23.5691C10.296 23.5691 10.2927 23.5684 10.2895 23.5677L10.2665 23.5608C10.2403 23.5531 10.2148 23.5455 10.1889 23.5374L10.1802 23.5262H10.1579L10.1386 23.5145C10.1142 23.4999 10.0913 23.4864 10.0694 23.4711L10.0596 23.4642C10.0596 23.4642 10.0574 23.4624 10.0563 23.4617L10.0436 23.434H10.0268C10.0221 23.4285 10.017 23.4234 10.0122 23.418C9.98891 23.3925 9.96632 23.368 9.94555 23.3422L9.943 23.3385C9.943 23.3385 9.94191 23.3374 9.94191 23.3371C9.93681 23.3283 9.93171 23.3192 9.92625 23.3101C9.91859 23.2974 9.91131 23.2843 9.9033 23.2686C9.89747 23.2584 9.89273 23.2478 9.88799 23.2376C9.88435 23.23 9.88071 23.2223 9.87706 23.2147C9.87597 23.2121 9.87451 23.2096 9.87342 23.207C9.85921 23.1553 9.84719 23.1076 9.83663 23.0606C9.83772 23.0416 9.83553 23.0238 9.83408 23.0088C9.83335 23.0012 9.83225 22.9935 9.83225 22.9866C9.83225 22.9662 9.83225 22.9476 9.83298 22.928C9.83626 22.9116 9.84063 22.8835 9.84209 22.866C9.84391 22.8573 9.84537 22.8511 9.8461 22.8464C9.85083 22.827 9.85666 22.8088 9.86213 22.7903C9.86541 22.7786 9.86905 22.7669 9.87233 22.7553C9.87306 22.7535 9.87379 22.7516 9.87415 22.7498C9.88617 22.7232 9.89783 22.6992 9.91022 22.677C9.91313 22.6722 9.91605 22.6671 9.91896 22.662C9.92187 22.6576 9.92442 22.6529 9.92734 22.6489L9.93353 22.6376C9.93462 22.6358 9.93572 22.634 9.93645 22.6321C9.95685 22.5972 9.97725 22.5629 9.99765 22.529L10.0053 22.5163C10.0603 22.4241 10.115 22.332 10.17 22.2394C10.2392 22.1228 10.3084 22.0063 10.378 21.8897L12.1718 18.8674C12.4392 18.4175 12.7063 17.9679 12.9729 17.518C12.9842 17.4991 12.9952 17.4805 13.0083 17.4597C13.017 17.4452 13.0254 17.431 13.0341 17.4167L13.1667 17.1934C13.1751 17.1792 13.1835 17.165 13.1912 17.1519C13.2305 17.086 13.2695 17.0204 13.3092 16.9534C13.3143 16.9442 13.3194 16.9355 13.3245 16.9271C13.3307 16.9166 13.3369 16.9064 13.3427 16.8958C13.3558 16.875 13.3675 16.8546 13.378 16.8364L13.4043 16.7923C13.425 16.7574 13.4462 16.7224 13.4655 16.6889C13.4786 16.6685 13.4906 16.6477 13.5019 16.6284C13.5147 16.6073 13.527 16.5865 13.5391 16.5661C13.6505 16.3792 13.7617 16.1923 13.8724 16.0051L14.3988 15.1176C14.6655 14.6684 14.9322 14.2189 15.1992 13.7697C15.2575 13.6713 15.3158 13.573 15.3741 13.475L15.5398 13.1952C16.5777 11.9212 17.8936 11.2753 19.4507 11.2753C21.0077 11.2753 22.4646 11.9084 23.5815 13.0582L24.05 13.8476C24.2912 14.2542 24.5324 14.6608 24.7739 15.067C25.4777 16.2506 26.1805 17.4339 26.8832 18.6175C27.2031 19.157 27.5237 19.6969 27.8443 20.2368C28.0734 20.6226 28.3025 21.0084 28.5317 21.3946C28.6195 21.5425 28.708 21.6904 28.7965 21.8383C28.9521 22.0981 29.1128 22.3666 29.2676 22.6347C29.2869 22.666 29.3037 22.6992 29.3226 22.7367C29.3252 22.7425 29.3281 22.7502 29.3324 22.7578C29.3361 22.7742 29.3412 22.7913 29.3463 22.8081C29.3488 22.8169 29.3517 22.826 29.3536 22.8336C29.3565 22.8445 29.3579 22.8526 29.3587 22.8598L29.3663 22.8835C29.3671 22.8853 29.3674 22.8879 29.3678 22.8901V22.897C29.3696 22.9433 29.37 22.9921 29.3689 23.0504ZM29.4418 22.9236C29.4418 22.9189 29.4414 22.9142 29.441 22.9091L29.4436 22.9236C29.4429 22.9236 29.4425 22.9236 29.4418 22.9236Z" stroke="white" stroke-width="0.2" mask="url(#path-1-outside-1_910_19968)"/>
<path d="M12.1513 2.35136L11.9682 5.78699L12.7322 5.8277L12.9152 2.39207L12.1513 2.35136Z" stroke="white" stroke-width="0.2" mask="url(#path-1-outside-1_910_19968)"/>
<path d="M9.32439 6.2577L8.59869 6.4996L6.91305 1.44304L7.63911 1.20114L9.32439 6.2577Z" stroke="white" stroke-width="0.2" mask="url(#path-1-outside-1_910_19968)"/>
<path d="M4.09661 4.99288L3.55565 5.53385L6.28186 8.26006L6.82282 7.7191L4.09661 4.99288Z" stroke="white" stroke-width="0.2" mask="url(#path-1-outside-1_910_19968)"/>
<path d="M0.510951 8.53208L0.289062 9.26424L5.22834 10.7611L5.45022 10.029L0.510951 8.53208Z" stroke="white" stroke-width="0.2" mask="url(#path-1-outside-1_910_19968)"/>
<path d="M4.80363 13.8935L1.3165 14.0239L1.28808 13.2593L4.77485 13.1288L4.80363 13.8935Z" stroke="white" stroke-width="0.2" mask="url(#path-1-outside-1_910_19968)"/>
<path d="M17.7629 1.24846L15.9964 6.38589L15.2729 6.13707L17.0394 1L17.7629 1.24846Z" stroke="white" stroke-width="0.2" mask="url(#path-1-outside-1_910_19968)"/>
</svg>
