<svg width="20" height="20" viewBox="0 0 20 20" fill="none" xmlns="http://www.w3.org/2000/svg">
<path fill-rule="evenodd" clip-rule="evenodd" d="M18.5642 16.9788C18.8697 16.6814 18.9297 16.4635 18.9297 16.333C18.9297 16.2025 18.8697 15.9846 18.5642 15.6872C18.2555 15.3867 17.7569 15.07 17.0593 14.7828C15.669 14.2103 13.6792 13.833 11.4297 13.833C9.18021 13.833 7.19037 14.2103 5.80003 14.7828C5.10251 15.07 4.60387 15.3867 4.29522 15.6872C3.98972 15.9846 3.92969 16.2025 3.92969 16.333C3.92969 16.4635 3.98972 16.6814 4.29522 16.9788C4.60387 17.2793 5.10251 17.596 5.80003 17.8832C7.19037 18.4557 9.18021 18.833 11.4297 18.833C13.6792 18.833 15.669 18.4557 17.0593 17.8832C17.7569 17.596 18.2555 17.2793 18.5642 16.9788ZM11.4297 19.833C16.1241 19.833 19.9297 18.266 19.9297 16.333C19.9297 14.4 16.1241 12.833 11.4297 12.833C6.73527 12.833 2.92969 14.4 2.92969 16.333C2.92969 18.266 6.73527 19.833 11.4297 19.833Z" fill="white"/>
<path fill-rule="evenodd" clip-rule="evenodd" d="M1.22375 2.05797C0.925435 1.90625 0.646088 1.77693 0.390625 1.66968L0.971266 0.286621C1.2631 0.409141 1.57561 0.554067 1.90373 0.720949L1.22375 2.05797ZM4.3697 4.10316C3.85206 3.69111 3.33834 3.32329 2.84321 3L3.6633 1.74403C4.19654 2.09221 4.74843 2.48742 5.30389 2.92957L4.3697 4.10316ZM7.07866 6.71094C6.66203 6.22337 6.22867 5.76751 5.78768 5.34362L6.82716 4.2622C7.30145 4.71809 7.76873 5.20952 8.21903 5.73648L7.07866 6.71094ZM9.19019 9.794C8.89348 9.23536 8.56801 8.7031 8.22071 8.19734L9.45723 7.34822C9.83496 7.89829 10.1902 8.47903 10.5149 9.09041L9.19019 9.794ZM10.522 13.2616C10.3704 12.6472 10.1824 12.0561 9.96376 11.488L11.3636 10.9492C11.6041 11.574 11.8112 12.225 11.9783 12.9021L10.522 13.2616ZM10.9321 16.019C10.9149 15.7042 10.8883 15.3946 10.8527 15.0902L12.3426 14.9163C12.3817 15.2513 12.411 15.5917 12.4298 15.9373L10.9321 16.019Z" fill="white"/>
</svg>
