<svg width="31" height="27" viewBox="0 0 31 27" fill="none" xmlns="http://www.w3.org/2000/svg">
<path d="M0.289062 7V27H23.913V7H0.289062ZM22.095 25.1821H2.09505V8.81795H22.095V25.1821Z" fill="white"/>
<path d="M18.2891 6.13654V7.5H19.6223V6.13654C19.6223 3.50513 21.7158 1.36346 24.2888 1.36346C26.8617 1.36346 28.9559 3.50513 28.9559 6.13654V7.5H30.2891V6.13654C30.2891 2.74744 27.6026 0 24.2888 0C23.0546 0 21.9088 0.383974 20.9555 1.0359V1.03397C20.5305 1.34038 20.0453 1.76282 19.6223 2.31538V2.32244C19.5633 2.39808 19.5057 2.475 19.4499 2.55321C19.4386 2.56987 19.4273 2.58654 19.416 2.60321V2.60192C18.7153 3.60256 18.2891 4.81346 18.2891 6.13654Z" fill="white"/>
<path d="M14.8249 15.1824C14.8249 16.3688 14.0634 17.3662 13.007 17.7431V21.5465H11.189V17.7431C10.1326 17.367 9.37109 16.3688 9.37109 15.1824C9.37109 13.6764 10.5925 12.4551 12.0984 12.4551C13.6044 12.4551 14.8258 13.6764 14.8258 15.1824H14.8249Z" fill="white"/>
</svg>
