<svg width="26" height="20" viewBox="0 0 26 20" fill="none" xmlns="http://www.w3.org/2000/svg">
<path fill-rule="evenodd" clip-rule="evenodd" d="M6.01139 8.12418C7.29952 7.62709 7.94078 6.17988 7.44368 4.89176C6.94659 3.60363 5.49939 2.96238 4.21126 3.45947C2.92314 3.95656 2.28188 5.40377 2.77897 6.69189C3.27607 7.98002 4.72327 8.62127 6.01139 8.12418ZM6.37142 9.05712C8.17479 8.36119 9.07255 6.33511 8.37662 4.53173C7.68069 2.72836 5.65461 1.8306 3.85123 2.52653C2.04786 3.22246 1.1501 5.24854 1.84603 7.05192C2.54196 8.85529 4.56805 9.75305 6.37142 9.05712Z" fill="white"/>
<path fill-rule="evenodd" clip-rule="evenodd" d="M5.02791 5.98106C5.13978 5.72859 5.43513 5.61461 5.6876 5.72648L25.4608 14.488C25.7133 14.5999 25.8273 14.8952 25.7154 15.1477C25.6035 15.4002 25.3082 15.5142 25.0557 15.4023L5.28249 6.64075C5.03002 6.52888 4.91604 6.23353 5.02791 5.98106Z" fill="white"/>
<rect x="6.41406" y="15.877" width="5" height="1" rx="0.5" transform="rotate(23.8982 6.41406 15.877)" fill="white"/>
<rect x="17.5312" y="3.01318" width="5" height="1" rx="0.5" transform="rotate(23.8982 17.5312 3.01318)" fill="white"/>
<rect x="9.96875" y="15.2637" width="5" height="1" rx="0.5" transform="rotate(113.898 9.96875 15.2637)" fill="white"/>
<rect x="21.082" y="2.3999" width="5" height="1" rx="0.5" transform="rotate(113.898 21.082 2.3999)" fill="white"/>
<rect x="10.1133" y="1.27393" width="3" height="1" rx="0.5" transform="rotate(23.8982 10.1133 1.27393)" fill="white"/>
<rect x="12.3477" y="1.16992" width="3" height="1" rx="0.5" transform="rotate(113.898 12.3477 1.16992)" fill="white"/>
</svg>
