<svg width="24" height="24" viewBox="0 0 24 24" fill="none" xmlns="http://www.w3.org/2000/svg">
<path d="M14.9443 13.3479C15.8027 12.1657 16.3072 10.7274 16.3072 9.15361C16.3072 5.2003 13.1069 2 9.15361 2C5.2003 2 2 5.2003 2 9.15361C2 13.1069 5.2003 16.3072 9.15361 16.3072C10.7199 16.3072 12.1657 15.7952 13.3479 14.9443L20.0723 21.6687C20.5166 22.113 21.2319 22.113 21.6687 21.6687C22.1054 21.2244 22.1054 20.509 21.6687 20.0723L14.9443 13.3479ZM9.15361 15.5542C5.61446 15.5542 2.75301 12.6852 2.75301 9.15361C2.75301 5.62199 5.61446 2.75301 9.15361 2.75301C12.6852 2.75301 15.5542 5.62199 15.5542 9.15361C15.5542 12.6852 12.6852 15.5542 9.15361 15.5542ZM21.134 21.134C20.991 21.2846 20.75 21.2846 20.5994 21.134L13.9277 14.4623C14.116 14.2967 14.2892 14.116 14.4623 13.9277L21.134 20.5994C21.2846 20.75 21.2846 20.9834 21.134 21.134Z" fill="white"/>
<path fill-rule="evenodd" clip-rule="evenodd" d="M17.0006 2.00005C17.0006 5.29896 19.2192 7.97605 21.9635 7.99998H21.9999V8.00006H21.9988C19.2791 8.00006 17.0666 10.6058 17.0004 13.8504V14H16.9993V14C16.9993 10.701 14.7807 8.02391 12.0363 8.00005H12V7.99996H12.0011C14.7272 7.99996 16.9437 5.38198 17 2.12684V7.99994H17.0001L17.0001 2H17.0006V2.00005Z" fill="white"/>
</svg>
