<svg width="700" height="141" viewBox="0 0 700 141" fill="none" xmlns="http://www.w3.org/2000/svg">
<g clip-path="url(#clip0_200_739)">
<path d="M142.068 140.94V97.3197L115.003 70.4698L142.068 43.6199V0H98.0987L71.0339 26.8499L43.969 0H0V43.6199L27.0649 70.4698L0 97.3197V140.94H43.969L71.0339 114.09L98.0987 140.94H142.068ZM137.177 4.85167V38.7833H102.974V4.85167H137.177ZM99.7694 43.6349H135.142L111.54 67.0495L93.8461 49.4961L99.7694 43.6349ZM6.37892 4.85167H41.949L135.157 97.3197H99.7846L6.37892 4.85167ZM41.949 136.088H6.37892L49.8316 93.0708L67.571 110.669L41.949 136.088ZM102.974 136.088V102.156H137.177V136.088H102.974Z" fill="url(#paint0_linear_200_739)"/>
<path d="M238.016 72.1544L218.525 38.9039C217.751 37.7274 217.235 36.4997 217.235 35.0162C217.235 32.2027 219.865 29.9008 222.598 29.9008C226.208 29.9008 227.394 32.6119 228.94 35.2208L244.255 61.1561L259.569 35.2208C261.116 32.6119 262.302 29.9008 265.912 29.9008C268.645 29.9008 271.275 32.2027 271.275 35.0162C271.275 36.5508 270.707 37.7274 269.985 38.9039L250.494 72.1544L269.985 105.405C270.759 106.581 271.275 107.809 271.275 109.293C271.275 112.106 268.645 114.408 265.912 114.408C262.302 114.408 261.116 111.697 259.569 109.088L244.255 83.1526L228.94 109.088C227.394 111.697 226.208 114.408 222.598 114.408C219.865 114.408 217.235 112.106 217.235 109.293C217.235 107.758 217.803 106.581 218.525 105.405L238.016 72.1544Z" fill="#5D4B8B"/>
<path d="M370.535 108.983C370.535 112.462 368.988 114.406 365.07 114.406C361.151 114.406 359.604 112.462 359.604 108.983V29.8984H396.369C405.032 29.8984 413.643 35.9858 413.643 45.654V53.1226C413.643 63.3535 405.083 68.5201 396.369 68.5201H386.314L410.961 103.51C412.147 105.147 413.694 107.193 413.694 109.239C413.694 112.257 411.168 114.355 408.125 114.355C405.96 114.355 404.516 113.076 403.33 111.336L373.114 68.5712H370.587V108.983H370.535ZM370.535 57.7265H394.822C397.864 57.7265 402.711 57.5219 402.711 53.1737V45.7052C402.711 41.357 398.225 40.7943 394.925 40.7943H370.535V57.7265Z" fill="#5D4B8B"/>
<path d="M531.363 114.403C523.165 114.403 518.421 111.129 514.966 104.07L504.911 83.8638C503.055 80.1806 501.972 76.7022 501.972 72.4563C501.972 67.699 502.848 64.732 505.014 60.3839L515.069 40.2801C518.782 32.7604 523.474 29.8446 531.931 29.8446H550.545C552.969 29.8446 556.011 31.1235 556.011 35.267C556.011 39.1547 553.072 40.6893 550.545 40.6893H532.24C527.548 40.6893 526.774 41.0986 524.712 45.2421L515.172 64.1181C513.728 67.0339 512.852 69.029 512.852 72.354C512.852 75.3721 513.832 77.2648 515.172 79.8737L524.454 98.6474C526.619 103.098 527.754 103.405 532.652 103.405H550.494C552.917 103.405 555.959 104.684 555.959 108.827C555.959 112.715 553.02 114.25 550.494 114.25H531.312L531.363 114.403Z" fill="#5D4B8B"/>
<path d="M673.68 114.403C665.481 114.403 660.737 111.129 657.282 104.07L647.227 83.8638C645.371 80.1806 644.288 76.7022 644.288 72.4563C644.288 67.699 645.165 64.732 647.331 60.3839L657.385 40.2801C661.098 32.7604 665.79 29.8446 674.247 29.8446H692.862C695.285 29.8446 698.327 31.1235 698.327 35.267C698.327 39.1547 695.388 40.6893 692.862 40.6893H674.556C669.864 40.6893 669.091 41.0986 667.028 45.2421L657.489 64.1181C656.045 67.0339 655.168 69.029 655.168 72.354C655.168 75.3721 656.148 77.2648 657.489 79.8737L666.77 98.6474C668.936 103.098 670.07 103.405 674.969 103.405H692.81C695.233 103.405 698.276 104.684 698.276 108.827C698.276 112.715 695.337 114.25 692.81 114.25H673.628L673.68 114.403Z" fill="#5D4B8B"/>
</g>
<defs>
<linearGradient id="paint0_linear_200_739" x1="-0.561952" y1="-3.37508" x2="149.924" y2="154.343" gradientUnits="userSpaceOnUse">
<stop stop-color="#5E59A7"/>
<stop offset="0.28" stop-color="#4A79AC"/>
<stop offset="0.54" stop-color="#369DB2"/>
<stop offset="1" stop-color="#BA3E96"/>
</linearGradient>
<clipPath id="clip0_200_739">
<rect width="700" height="140.94" fill="white"/>
</clipPath>
</defs>
</svg>
